<?xml version="1.0" encoding="UTF-8" standalone="no"?>
<!-- Created with Inkscape (http://www.inkscape.org/) -->

<svg
   xmlns:dc="http://purl.org/dc/elements/1.1/"
   xmlns:cc="http://creativecommons.org/ns#"
   xmlns:rdf="http://www.w3.org/1999/02/22-rdf-syntax-ns#"
   xmlns:svg="http://www.w3.org/2000/svg"
   xmlns="http://www.w3.org/2000/svg"
   xmlns:sodipodi="http://sodipodi.sourceforge.net/DTD/sodipodi-0.dtd"
   xmlns:inkscape="http://www.inkscape.org/namespaces/inkscape"
   width="793.70081"
   height="1122.5197"
   viewBox="0 0 210 297"
   version="1.1"
   id="svg8"
   inkscape:version="0.92.4 (5da689c313, 2019-01-14)"
   sodipodi:docname="best draw 2.svg">
  <defs
     id="defs2">
    <inkscape:path-effect
       effect="spiro"
       id="path-effect1021"
       is_visible="true" />
    <inkscape:path-effect
       effect="simplify"
       id="path-effect1019"
       is_visible="true"
       steps="1"
       threshold="0.024"
       smooth_angles="360"
       helper_size="0"
       simplify_individual_paths="false"
       simplify_just_coalesce="false"
       simplifyindividualpaths="false"
       simplifyJustCoalesce="false" />
    <inkscape:path-effect
       effect="spiro"
       id="path-effect1015"
       is_visible="true" />
    <inkscape:path-effect
       effect="simplify"
       id="path-effect1013"
       is_visible="true"
       steps="1"
       threshold="0.00789474"
       smooth_angles="360"
       helper_size="0"
       simplify_individual_paths="false"
       simplify_just_coalesce="false"
       simplifyindividualpaths="false"
       simplifyJustCoalesce="false" />
    <inkscape:path-effect
       effect="spiro"
       id="path-effect1009"
       is_visible="true" />
    <inkscape:path-effect
       effect="simplify"
       id="path-effect1007"
       is_visible="true"
       steps="1"
       threshold="0.00789474"
       smooth_angles="360"
       helper_size="0"
       simplify_individual_paths="false"
       simplify_just_coalesce="false"
       simplifyindividualpaths="false"
       simplifyJustCoalesce="false" />
    <inkscape:path-effect
       effect="spiro"
       id="path-effect1003"
       is_visible="true" />
    <inkscape:path-effect
       effect="simplify"
       id="path-effect1001"
       is_visible="true"
       steps="1"
       threshold="0.00789474"
       smooth_angles="360"
       helper_size="0"
       simplify_individual_paths="false"
       simplify_just_coalesce="false"
       simplifyindividualpaths="false"
       simplifyJustCoalesce="false" />
    <inkscape:path-effect
       effect="spiro"
       id="path-effect997"
       is_visible="true" />
    <inkscape:path-effect
       effect="simplify"
       id="path-effect995"
       is_visible="true"
       steps="1"
       threshold="0.00243902"
       smooth_angles="360"
       helper_size="0"
       simplify_individual_paths="false"
       simplify_just_coalesce="false"
       simplifyindividualpaths="false"
       simplifyJustCoalesce="false" />
    <inkscape:path-effect
       effect="spiro"
       id="path-effect991"
       is_visible="true" />
    <inkscape:path-effect
       effect="simplify"
       id="path-effect989"
       is_visible="true"
       steps="1"
       threshold="0.017304"
       smooth_angles="360"
       helper_size="0"
       simplify_individual_paths="false"
       simplify_just_coalesce="false"
       simplifyindividualpaths="false"
       simplifyJustCoalesce="false" />
    <inkscape:perspective
       sodipodi:type="inkscape:persp3d"
       inkscape:vp_x="0 : 148.5 : 1"
       inkscape:vp_y="0 : 1000 : 0"
       inkscape:vp_z="210 : 148.5 : 1"
       inkscape:persp3d-origin="105 : 99 : 1"
       id="perspective1373" />
    <inkscape:path-effect
       effect="spiro"
       id="path-effect899"
       is_visible="true" />
    <inkscape:path-effect
       effect="simplify"
       id="path-effect897"
       is_visible="true"
       steps="1"
       threshold="0.017304"
       smooth_angles="360"
       helper_size="0"
       simplify_individual_paths="false"
       simplify_just_coalesce="false"
       simplifyindividualpaths="false"
       simplifyJustCoalesce="false" />
    <mask
       maskUnits="userSpaceOnUse"
       id="mask828">
      <path
         style="fill:#d45500;stroke:#000000;stroke-width:0.26458332px;stroke-linecap:butt;stroke-linejoin:miter;stroke-opacity:1"
         d="m -42.994792,87.58228 c -4.095464,-22.483987 18.411619,-20.307885 21.431251,-7.011456 l -0.132292,1.852081 -0.79375,0.529169 c 0.737434,5.994112 3.789743,9.06458 -2.287274,18.712666 l 1.917659,2.15152 c 3.68897,1.4551 7.581298,2.57126 10.93301,4.58845 4.7012577,9.40173 2.7738205,18.96129 2.5841463,28.47948 1.8711354,8.45688 2.9900602,17.58239 3.7417732,27.03431 l 0.7483547,9.58829 -0.046772,2.0112 c 0.4376973,6.14842 0.1498433,12.14697 -2.9934186,19.03628 -1.0133423,4.41391 -3.2954606,8.75733 -2.2918366,13.28329 l -3.928862,10.57051 c -0.483312,5.11376 -1.303648,10.059 -1.449937,15.34127 l -0.514494,4.06918 -0.04677,2.24507 -0.04677,0.70158 1.543482,0.37417 0.420949,0.18709 0.935444,1.26285 0.420949,1.30962 v 1.6838 l 0.420949,0.60804 3.5546852,1.63702 c 4.3825758,1.784 7.803591,2.59425 9.35443327,6.78197 l -1.13485428,2.59184 c -1.38637909,1.44508 -3.37721979,1.60569 -5.46002109,1.57088 l -2.7127856,-0.14031 -1.9644315,-1.63703 -2.432152,0.18709 c -1.541015,-0.9155 -2.962042,-2.02298 -4.918699,-2.27344 l -2.589897,0.892 c -1.259065,0.10585 -2.518131,0.0833 -3.777196,-0.4233 l -1.202377,-0.8145 -0.261259,2.17325 -0.300007,1.28789 c 0.829585,0.64902 1.621939,1.84789 2.052301,2.57676 l 1.218427,3.85275 0.0501,2.12979 1.262848,3.41437 c 0.608496,1.58184 0.516917,2.51473 0,4.0224 -0.893811,1.71165 -5.229714,1.69715 -7.202913,2.05799 -5.149186,-3.22935 -4.985094,-3.6117 -7.483547,-8.83994 0.677294,-5.52828 -1.813078,-4.04907 -1.730573,-9.49476 0.884177,-1.65753 0.638291,-3.76709 0.701582,-5.75297 -0.782595,-8.41303 -2.593985,-16.57553 -4.194291,-24.86837 -0.239358,-1.24037 0.286679,-2.41752 0.06091,-3.665 0.283599,-4.42113 1.566315,-12.29174 1.160616,-16.02585 -0.237043,-2.18179 -1.641113,-2.03744 -1.992138,-4.17795 3.490814,-3.07196 -1.232514,-6.10956 -3.251351,-9.02411 -1.604862,-5.76861 -1.938859,-7.65511 -1.231723,-13.23887 -0.4772,-2.63479 -2.291482,-4.80365 -3.787574,-7.04655 -1.442241,-2.27846 -3.235428,-4.55692 -4.325736,-6.83538 -2.294927,-4.7485 -3.34332,-9.61345 -4.860981,-14.4483 -0.159916,-9.54269 0.0811,-18.83479 0.626438,-27.93669 1.153126,-9.31292 9.209802,-14.38509 16.276715,-20.06526 l 2.806329,-4.16272 c 1.023499,-3.018011 -0.565922,-2.900522 -1.122532,-4.022406 l -1.403164,-2.151518 c -0.07803,-3.985921 -3.292073,-5.040251 -0.280633,-6.548104 z"
         id="path830"
         inkscape:connector-curvature="0"
         sodipodi:nodetypes="ccccccccccccccccccccccccccccccccccccccccccccccscsccccccccccccc" />
    </mask>
  </defs>
  <sodipodi:namedview
     id="base"
     pagecolor="#ffffff"
     bordercolor="#666666"
     borderopacity="1.0"
     inkscape:pageopacity="0"
     inkscape:pageshadow="2"
     inkscape:zoom="0.33107597"
     inkscape:cx="-2679.5859"
     inkscape:cy="246.19657"
     inkscape:document-units="px"
     inkscape:current-layer="layer1"
     showgrid="false"
     units="px"
     showborder="false"
     inkscape:window-width="1920"
     inkscape:window-height="1001"
     inkscape:window-x="-9"
     inkscape:window-y="-9"
     inkscape:window-maximized="1" />
  <metadata
     id="metadata5">
    <rdf:RDF>
      <cc:Work
         rdf:about="">
        <dc:format>image/svg+xml</dc:format>
        <dc:type
           rdf:resource="http://purl.org/dc/dcmitype/StillImage" />
        <dc:title />
      </cc:Work>
    </rdf:RDF>
  </metadata>
  <g
     inkscape:label="Layer 1"
     inkscape:groupmode="layer"
     id="layer1">
    <ellipse
       style="opacity:0.47999998;vector-effect:none;fill:#d4d4d4;fill-opacity:1;fill-rule:evenodd;stroke:#b8b8b8;stroke-width:0.47993845;stroke-linecap:butt;stroke-linejoin:round;stroke-miterlimit:4;stroke-dasharray:none;stroke-dashoffset:0;stroke-opacity:1;paint-order:normal"
       id="path1530"
       cx="-376.36993"
       cy="-7.3175168"
       rx="16.439686"
       ry="33.343781"
       transform="matrix(0.81101933,-0.58501935,-0.98979416,-0.14250447,0,0)" />
    <g
       id="g1369"
       style="opacity:0.05899999;stroke-width:1.01352978"
       transform="matrix(0.97347995,0,0,1,198.07108,34.334668)">
      <path
         id="path1194"
         style="opacity:0.07099998;fill:#000000;fill-opacity:1;stroke:#ff1900;stroke-width:0.26816306px;stroke-linecap:butt;stroke-linejoin:miter;stroke-opacity:1"
         d="m -509.14718,170.62493 3.71899,6.0884 m -0.57132,-0.50016 0.70708,-3.64946 -2.62304,1.41417 0.18247,-2.87396 -1.7563,1.04922 m 6.83925,1.21982 -6.49712,-2.74803 c -0.33349,0.25403 -0.92156,-0.25569 -0.98079,0.82113 1.25123,2.1342 3.13315,3.51155 4.69977,5.26727 2.68329,-0.80106 2.77468,-2.0629 2.77813,-3.34037 m -3.48307,6.74315 -1.41741,-3.01338 -0.0684,0.72989 -1.68788,-2.7371 0.45618,1.55103 -1.80192,-2.44058 0.13685,1.16326 -2.23527,-1.98439 0.57021,1.52821 -1.68786,-1.30012 0.68428,4.21969 z m -6.36698,-15.42156 c 1.87695,-0.0498 2.7112,1.65064 2.88708,4.45621 l -2.76046,2.03943 c -0.36466,-1.31947 -1.04058,-1.70518 -1.70044,-2.13909 0.72829,-1.32488 1.75747,-2.4617 1.57382,-4.35655 z m -7.81543,-143.723126 0.76494,0.939304 0.25038,0.411113 z m -0.92097,1.209091 0.72787,0.968316 0.23421,0.42053 z m -0.85891,1.45667 0.44232,1.127735 0.11318,0.467857 z m -1.09599,1.046454 0.30524,1.17229 0.0568,0.47799 z m -2.29783,0.926122 0.0773,1.208907 -0.0349,0.480088 z m -3.19585,0.361877 -0.0511,1.210299 -0.0855,0.473699 z m -1.59125,-0.845307 -0.0641,1.209678 -0.0906,0.472748 z m -5.43352,-5.46389 -0.22323,1.19063 -0.15222,0.456652 z m 2.23072,3.443491 -0.22323,1.19063 -0.15222,0.456652 z m -1.2558,-1.560233 -0.22323,1.19063 -0.15222,0.456652 z m 2.84987,2.70064 -0.22323,1.19063 -0.15222,0.456652 z m -4.30103,-6.326754 -0.22323,1.19063 -0.15222,0.456652 z m 30.75791,158.793745 c 1.21745,-0.87062 2.57784,-1.62212 2.77813,-3.34037 0.40707,-0.21686 1.69044,-0.0854 1.99956,0.43532 1.87303,3.15528 -0.98834,5.38161 -4.77769,2.90505 z m -17.76013,-7.87136 c 2.05833,3.39441 4.20274,3.87487 6.68073,3.34037 l 1.09141,1.68672 c -2.93268,3.38392 -6.04381,-0.49731 -7.49949,-3.47613 z m 11.95397,9.39888 C -514.53223,177.2008 -518.2649,176 -523.0376,175.31982 l -0.84525,-3.33588 c 0.92461,-0.35421 0.68707,-1.87057 0.69453,-3.14193 h 9.59115 l 1.22368,2.34818 2.76046,-2.03943 c 21.20296,8.86049 13.26891,13.94646 -1.62132,9.09009 z m -11.80325,-2.92107 0.56225,2.8112 c 0.92622,1.34934 3.25287,0.91055 4.97957,1.2378 2.84013,-2.06898 5.18736,-0.44136 7.50858,1.38144 1.96947,-0.85277 3.30808,-0.033 4.39657,1.44994 9.64846,0.62297 7.83932,-2.19135 9.30767,-4.02241 -2.4053,6.4759 -17.12182,-1.83864 -26.75464,-2.85797 z m 1.49768,-150.087003 c 2.38402,7.999434 -6.34927,8.467019 -15.34127,-1.1693 -1.30101,0.903043 -0.56784,2.446435 1.10565,4.143964 5.79471,5.877917 16.88357,8.422116 16.02865,-0.546333 -0.0832,-0.872802 -0.99611,-1.589027 -1.79303,-2.428331 z m 3.08103,-19.2418337 c -4.43844,-1.964906 -7.67072,-5.64382001 -21.22863,5.3505077 0.21008,-5.4155607 -4.714,-10.83112271 6.49484,-16.2466837 11.05138,-0.753734 14.08668,4.21829699 14.73379,10.896176 z m -18.66265,3.790283 0.28063,3.7417747 0.65481,4.396584 v 0 l -1.21608,-2.33861 c 0.0454,-2.220368 -1.11179,-3.238114 -2.28534,-4.239524 l 2.65952,-1.9344007 z m 15.58163,15.4515507 c 3.07906,12.25159 -12.86311,3.466176 -15.34128,-1.1693 0.99978,-0.51546 0.7191,-2.55655 -1.19273,-5.273777 -0.91249,-1.268952 -1.74984,-2.784674 -2.41522,-3.863534 0.1247,-1.209156 -0.89191,-2.532443 0.80162,-3.584715 0.13739,0.720827 1.61238,1.214349 1.65322,2.410776 0.20561,6.0222 5.20038,13.970274 16.49439,11.48055 z m -6.96506,154.847953 q 0.30325,0 0.41498,-0.0411 0.0296,-0.0182 0.0296,-0.12996 0,-0.17329 -0.0593,-0.53127 -0.0707,-0.41726 -0.15277,-0.80032 l -0.009,-0.0388 q -0.016,-0.0638 -0.3101,-0.0684 h -0.12313 q -0.2645,0 -0.35342,0.0205 -0.0342,0.0114 -0.0342,0.12768 0,0.0684 0.0182,0.11629 0.016,0.0456 0.0479,0.0524 0.057,0.007 0.11857,0.007 0.098,0 0.23941,-0.016 l 0.0342,-0.002 q 0.0205,0 0.10033,0.41726 l -0.26906,-0.002 q -0.0593,0.007 -0.0798,0.0616 -0.0205,0.0547 -0.0205,0.0935 0,0.13909 0.11172,0.14593 h 0.31011 q 0.0182,0.11628 0.0182,0.18697 0,0.0274 -0.007,0.0342 -0.016,0.009 -0.0616,0.009 -0.0798,0 -0.24626,-0.0228 -0.13224,-0.016 -0.15733,-0.016 -0.0433,0.0114 -0.0433,0.12312 0,0.0958 0.0365,0.18697 0.0365,0.0593 0.18469,0.073 0.14594,0.0137 0.26223,0.0137 z m 1.32332,0.007 q 0.0866,0 0.15961,-0.0228 0.0616,-0.0205 0.0616,-0.0639 0,-0.0935 -0.0752,-0.69087 -0.0456,-0.37622 -0.10489,-0.78664 -0.0114,-0.0502 -0.15505,-0.0502 -0.15049,0 -0.18469,0.0433 -0.005,0.009 -0.005,0.0365 0,0.0844 0.0479,0.46514 -0.14137,-0.19153 -0.3557,-0.49706 -0.0228,-0.0342 -0.057,-0.0342 -0.0502,0 -0.15732,0.0593 -0.073,0.0388 -0.073,0.10945 0,0.0593 0.19837,0.28957 0.18013,0.21205 0.37166,0.41498 -0.098,0.10033 -0.22345,0.21205 -0.12769,0.10945 -0.21433,0.20065 -0.0889,0.0912 -0.0889,0.14593 l 0.002,0.0137 q 0.0251,0.073 0.0821,0.114 0.0547,0.0388 0.10032,0.0388 0.0798,0 0.2531,-0.18924 0.12996,-0.1391 0.23941,-0.27362 0.0388,0.29642 0.0388,0.40586 0,0.0593 0.13909,0.0593 z m 0.56579,-0.002 q 0.0866,0 0.15504,-0.0228 0.0616,-0.0205 0.0616,-0.057 0,-0.098 -0.0775,-0.69315 -0.0524,-0.39446 -0.10716,-0.78436 -0.016,-0.0479 -0.16189,-0.0479 -0.14365,0 -0.17785,0.0388 -0.009,0.0137 -0.009,0.0661 0,0.20977 0.11857,1.03289 0.041,0.2987 0.0524,0.40359 0.0114,0.0639 0.14593,0.0639 z m 1.17361,0.007 q 0.0844,0 0.15505,-0.0251 0.0593,-0.0182 0.0593,-0.057 0,-0.1026 -0.0844,-0.69543 -0.0365,-0.2645 -0.0707,-0.48795 -0.0342,-0.22573 -0.0456,-0.30553 -0.0114,-0.0365 -0.0593,-0.041 -0.0502,-0.007 -0.0798,-0.007 -0.0433,0 -0.0889,0.009 -0.0752,0.0137 -0.098,0.0365 -0.0114,0.0319 -0.0935,0.39674 -0.0798,0.3557 -0.0889,0.38534 -0.0365,-0.25994 -0.0684,-0.47883 -0.0342,-0.21889 -0.0456,-0.29869 -0.0114,-0.0342 -0.0616,-0.0388 -0.0502,-0.007 -0.0798,-0.007 -0.0433,0 -0.0889,0.009 -0.0752,0.0114 -0.0958,0.0365 -0.007,0.0114 -0.007,0.057 0,0.11629 0.0524,0.49023 l 0.0638,0.4355 q 0.0684,0.46286 0.073,0.53126 0.007,0.0388 0.057,0.0456 0.0502,0.005 0.0752,0.005 0.057,0 0.11401,-0.0114 0.0821,-0.016 0.098,-0.0502 0.0684,-0.19153 0.13225,-0.4583 0.0274,-0.114 0.0524,-0.20293 l 0.0182,0.13909 q 0.0616,0.39218 0.073,0.5381 0.007,0.0502 0.13224,0.0502 z m -6.53435,-0.62151 c 0.33393,1.62004 -0.0452,2.42294 -1.2771,2.9991 l -0.755,-3.46682 z m 2.10337,1.27088 0.3339,-2.65661 c 6.80933,0.83111 4.88628,-3.4917 5.01678,2.41778 m -0.61707,1.70076 c -0.70338,2.05707 -1.5196,3.77559 -1.7198,7.34219 m -3.24037,-6.62863 5.95184,1.00806 -4.86309,1.64474 6.24217,0.8489 -5.6615,1.48558 6.5325,0.79583 m -12.11084,-9.6972 -0.88867,3.27405 c 0.71058,3.59469 2.27965,6.80047 1.75797,8.52929 2.74525,8.49341 9.75136,11.82321 14.68647,6.78195 0.0532,-0.89425 0.10646,-1.7885 0.15969,-2.68275 l -0.15969,2.68275 0.0661,-1.60699 c -5.7596,5.91758 -12.32134,-1.02183 -13.74131,-6.68174 -0.73389,-2.96991 -1.17512,-6.20864 -1.88061,-10.29656 z m 3.72945,11.04861 0.23386,0.88867 1.44995,1.12254 c 0.9448,1.02353 0.22384,1.63062 0.28063,2.43215 1.12951,0.68899 1.31312,1.52734 4.63045,1.87089 l 2.71278,-0.32741 c 0.61234,-0.28385 1.18815,-0.27542 1.91766,-1.49671 0.0194,-1.57845 0.24139,-1.46945 -1.26285,-2.75956 0.11198,-0.82015 0.197,-1.87939 -0.23386,-2.52569 -3.78865,4.00102 -5.34187,2.80944 -9.72862,0.79512 z m -3.72944,-11.04861 -0.26459,-1.45521 c 1.49103,0.25687 3.35028,2.34007 3.47719,-0.45499 l 7.85772,-1.07839 -0.0982,5.57781 c 0.47794,4.04702 6.24068,10.67139 4.64983,14.38908 l -5.23848,3.88209 -7.34324,-5.28526 -2.94665,-12.20753 z m 28.05134,-127.371923 c -0.32494,5.02718 -0.14777,8.82065 0.73487,14.088459 1.89463,11.30771 2.98243,22.485227 3.56072,33.365977 -2.93205,-0.79583 -3.37077,-4.70646 -4.36173,-6.37789 -2.7658,-20.177537 -3.63306,-25.169957 0.0661,-41.076546 z m -50.22135,6.88624 14.40582,-0.56127 c -1.1853,6.298649 -0.78049,12.223119 -3.36759,18.521769 3.8007,11.757087 7.58556,19.377207 11.89134,29.113974 -0.4359,6.5413 -1.89547,5.91806 -5.48059,9.6016 l -4.88666,-10.63552 c -1.23463,0 -17.15312,-23.237547 -12.56232,-46.040553 z m 23.96573,113.113843 c 0.62858,2.34697 7.88169,0.89973 8.36809,-1.76095 m 2.34948,-44.50295 c 2.18756,-3.01915 2.10262,-7.17512 2.36981,-13.42015 m -22.66674,-6.95517 2.82823,11.85891 c 0.52873,18.7546 5.26734,43.42798 5.37635,55.697 m 1.36387,-66.85684 c -0.22593,6.95756 -2.69241,7.11539 -5.52414,9.3825 m -5.86836,-10.51564 c -0.53952,7.67043 1.05705,13.69662 2.26072,15.39039 0.4381,3.1418 2.11966,6.38536 2.26411,9.58448 0.78977,17.49191 2.00589,27.9719 4.46014,42.24567 3.3329,4.47239 11.78887,1.14342 11.71575,-1.38598 -4.34484,-15.05672 -1.33754,-23.08526 0.0387,-37.3203 l 0.18709,-0.56126 c 0.74939,3.1045 -0.61688,7.1573 -1.12253,11.50595 0.89583,8.46638 0.72164,15.94504 0,22.91836 3.72269,8.00336 9.97182,3.59522 11.55271,-1.44994 -1.59632,-5.87237 0.77565,-16.90321 1.38377,-23.50964 l 3.92885,-10.57052 -0.58864,-3.19725 c 1.25329,-3.15444 1.64446,-6.4076 2.58588,-9.34828 3.05317,-9.53694 4.77129,-17.56808 0.78171,-23.205147 -6.90076,3.2941 -18.17754,11.210167 -25.53758,8.418987 l -5.94007,-0.37418 z m 19.64239,65.83456 -0.0227,5.62138 -9.03823,3.45631 -0.23638,-7.83896 z M -556.17871,58.517817 c -1.19603,-22.14479 9.60739,-22.690535 16.49119,-30.291619 l 2.80633,-4.162719 c 5.67462,6.622344 17.79965,12.354488 15.34128,1.1693 -0.0425,2.121296 5.22593,4.243115 8.98875,5.428629 9.37851,0.05574 5.54937,27.852439 6.5938,20.970169 l -1.98437,8.53282 c 1.24891,37.633656 1.95739,29.933276 3.77365,35.490506 -9.79705,4.2946 -19.92733,11.754617 -29.08106,9.937387 z m 37.0601,-52.6160777 -0.13403,0.618374 c 1.19927,5.3777627 2.49898,10.7208057 -1.96483,18.0561767 -4.35026,4.867642 -5.77981,2.95172 -8.07259,3.040668 -2.53176,-2.195467 -3.45348,1.544189 -8.77219,-10.924881 l -0.37672,-7.2114967 c 12.4603,-8.099817 15.89603,-5.845867 19.32036,-3.578841 z m -14.58217,1.203766 c -3.49777,1.993209 -6.81853,4.9658547 -10.59035,6.2282567 0.61857,-10.8169217 8.6095,-20.0651707 10.08994,-11.3931457 z"
         inkscape:connector-curvature="0" />
      <path
         style="fill:#000000;fill-opacity:1;stroke:none;stroke-width:0.26816306px;stroke-linecap:butt;stroke-linejoin:miter;stroke-opacity:1"
         d="m -532.11328,7.1055033 c -3.49777,1.993209 -6.81852,4.9658547 -10.59035,6.2282567 0.61857,-10.8169217 8.6095,-20.0651707 10.08994,-11.3931457 z"
         id="path1196"
         inkscape:connector-curvature="0"
         sodipodi:nodetypes="cccc" />
      <path
         style="fill:#000000;fill-opacity:1;stroke:none;stroke-width:0.26816306px;stroke-linecap:butt;stroke-linejoin:miter;stroke-opacity:1"
         d="m -517.53111,5.9017373 -0.13403,0.618374 c 1.19926,5.3777627 2.49897,10.7208057 -1.96484,18.0561767 -4.35025,4.867642 -5.77981,2.95172 -8.07257,3.040668 -2.53177,-2.195467 -3.45349,1.544189 -8.7722,-10.924881 l -0.37672,-7.2114967 c 12.4603,-8.099817 15.89603,-5.845867 19.32036,-3.578841 z"
         id="path1198"
         inkscape:connector-curvature="0"
         sodipodi:nodetypes="ccccccc" />
      <path
         style="opacity:1;fill:#000000;fill-opacity:1;stroke:none;stroke-width:0.26816306px;stroke-linecap:butt;stroke-linejoin:miter;stroke-opacity:1"
         d="m -554.59121,58.517817 c -1.19603,-22.144785 9.6074,-22.690534 16.4912,-30.291621 l 2.80632,-4.162719 c 5.67463,6.622344 17.79965,12.35449 15.34127,1.1693 -0.0425,2.121296 5.22593,4.243115 8.98875,5.428629 9.37854,0.05574 5.5494,27.852441 6.59383,20.970171 -4.07747,14.286729 -2.78693,30.816396 1.78928,44.023336 -8.58777,14.573627 -19.73532,13.386837 -29.08108,9.937387 z"
         id="path1200"
         inkscape:connector-curvature="0"
         sodipodi:nodetypes="ccccccccc" />
      <path
         style="fill:#000000;fill-opacity:1;stroke:none;stroke-width:0.26816306px;stroke-linecap:butt;stroke-linejoin:miter;stroke-opacity:1"
         d="m -522.38651,170.39294 -0.0227,5.62138 -9.03822,3.45631 -0.23637,-7.83896 z"
         id="path1202"
         inkscape:connector-curvature="0" />
      <path
         style="fill:#000000;fill-opacity:1;stroke:none;stroke-width:0.26816306px;stroke-linecap:butt;stroke-linejoin:miter;stroke-opacity:1"
         d="m -522.22491,163.76069 0.6241,5.08129 9.22732,2.34821 1.7013,-8.87944 z"
         id="path1204"
         inkscape:connector-curvature="0" />
      <path
         style="fill:#000000;fill-opacity:1;stroke:none;stroke-width:0.26816306px;stroke-linecap:butt;stroke-linejoin:miter;stroke-opacity:1"
         d="m -542.02889,104.55838 c -0.53952,7.67043 1.05705,13.69662 2.26072,15.39039 0.4381,3.1418 2.11966,6.38536 2.26411,9.58448 0.78977,17.49191 2.0059,27.9719 4.46014,42.24567 3.33291,4.47239 11.78887,1.14342 11.71575,-1.38598 -4.34484,-15.05672 -1.33754,-23.08526 0.0387,-37.3203 l 0.18709,-0.56126 c 0.74939,3.1045 -0.61688,7.1573 -1.12254,11.50595 0.89584,8.46638 0.72164,12.77004 0,19.74336 5.0731,5.37007 11.66462,0.29425 11.55273,-1.44994 -1.59634,-5.87237 0.77565,-13.72821 1.38377,-20.33464 l 3.92886,-10.57052 -0.58864,-3.19725 c 1.25328,-3.15444 1.64445,-6.4076 2.58588,-9.34828 3.05317,-9.53695 4.77129,-17.56808 0.78171,-23.205147 -6.90076,3.2941 -18.17757,11.210167 -25.5376,8.418987 l -5.94007,-0.37418 z"
         id="path1206"
         inkscape:connector-curvature="0"
         sodipodi:nodetypes="ccsccccccccccscccc" />
      <path
         style="fill:#000000;fill-opacity:1;stroke:#ffffff;stroke-width:0.26816306px;stroke-linecap:butt;stroke-linejoin:miter;stroke-opacity:1"
         d="m -530.63638,105.69152 c -0.22594,6.95756 -2.69242,7.11539 -5.52415,9.3825"
         id="path1208"
         inkscape:connector-curvature="0"
         sodipodi:nodetypes="cc" />
      <path
         style="fill:#000000;fill-opacity:1;stroke:#ffffff;stroke-width:0.53632617;stroke-linecap:butt;stroke-linejoin:miter;stroke-miterlimit:4;stroke-dasharray:none;stroke-opacity:1"
         d="m -530.62548,171.63167 c 0.62859,2.34697 7.88169,0.89973 8.36809,-1.76095"
         id="path1214"
         inkscape:connector-curvature="0"
         sodipodi:nodetypes="cc" />
      <path
         style="opacity:1;fill:#000000;fill-opacity:1;stroke:none;stroke-width:0.26816306px;stroke-linecap:butt;stroke-linejoin:miter;stroke-opacity:1"
         d="m -554.59121,58.517817 14.40582,-0.56127 c -1.1853,6.298649 -0.78049,12.223129 -3.36759,18.521779 3.8007,11.757087 7.58557,19.377207 11.89134,29.113974 -0.4359,6.5413 -1.89547,5.91806 -5.48059,9.6016 l -4.88666,-10.63552 c -1.23463,0 -17.15312,-23.237547 -12.56232,-46.040563 z"
         id="path1216"
         inkscape:connector-curvature="0"
         sodipodi:nodetypes="ccccccc" />
      <path
         style="fill:#000000;fill-opacity:1;stroke:none;stroke-width:0.26816306px;stroke-linecap:butt;stroke-linejoin:miter;stroke-opacity:1"
         d="m -504.36984,51.631577 c -0.32494,5.02718 -0.14777,8.82065 0.73487,14.088459 1.89463,11.30772 2.98243,22.485237 3.56072,33.365987 -2.93205,-0.79583 -3.37077,-4.70646 -4.36173,-6.37789 -2.7658,-20.177537 -3.63306,-25.169957 0.0661,-41.076556 z"
         id="path1218"
         inkscape:connector-curvature="0"
         sodipodi:nodetypes="csccc" />
      <path
         style="fill:#000000;fill-opacity:1;stroke:none;stroke-width:0.26816306px;stroke-linecap:butt;stroke-linejoin:miter;stroke-opacity:1"
         d="m -532.4212,179.00291 -0.26458,-1.45521 c 1.49102,0.25687 3.35027,2.34007 3.47718,-0.45499 l 7.85772,-1.07839 -0.0982,5.57781 c 0.47794,4.04702 6.24067,10.67139 4.64983,14.38908 l -5.23848,3.88209 -7.34324,-5.28526 -2.94664,-12.20753 z"
         id="path1220"
         inkscape:connector-curvature="0"
         sodipodi:nodetypes="cccccccccc" />
      <path
         style="fill:#000000;fill-opacity:1;stroke:#000000;stroke-width:0.26816306px;stroke-linecap:butt;stroke-linejoin:miter;stroke-opacity:1"
         d="m -528.69175,190.05152 0.23386,0.88867 1.44994,1.12254 c 0.9448,1.02353 0.22384,1.63062 0.28063,2.43215 1.1295,0.68899 1.31311,1.52734 4.63044,1.87089 l 2.71279,-0.32741 c 0.61234,-0.28385 1.18814,-0.27542 1.91766,-1.49671 0.0194,-1.57845 0.24138,-1.46945 -1.26285,-2.75956 0.11197,-0.82015 0.197,-1.87939 -0.23387,-2.52569 -3.78864,4.00102 -5.34186,2.80944 -9.7286,0.79512 z"
         id="path1222"
         inkscape:connector-curvature="0"
         sodipodi:nodetypes="cccccccccc" />
      <path
         style="fill:#000000;fill-opacity:1;stroke:none;stroke-width:0.26816306px;stroke-linecap:butt;stroke-linejoin:miter;stroke-opacity:1"
         d="m -532.4212,179.00291 -0.88868,3.27405 c 0.71058,3.59469 2.27966,6.80047 1.75797,8.52929 2.74525,8.49341 9.75136,11.82321 14.68646,6.78195 0.0532,-0.89425 0.10647,-1.7885 0.1597,-2.68275 l -0.1597,2.68275 0.0661,-1.60699 c -5.75959,5.91758 -12.32133,-1.02183 -13.74129,-6.68174 -0.7339,-2.96991 -1.17513,-6.20864 -1.88061,-10.29656 z"
         id="path1224"
         inkscape:connector-curvature="0"
         sodipodi:nodetypes="ccccccccc" />
      <path
         style="fill:#000000;fill-opacity:1;stroke:none;stroke-width:0.26816306px;stroke-linecap:butt;stroke-linejoin:miter;stroke-opacity:1"
         d="m -528.28573,180.74151 0.33391,-2.65661 c 6.80932,0.83111 4.88626,-3.4917 5.01677,2.41778"
         id="path1230"
         inkscape:connector-curvature="0"
         sodipodi:nodetypes="ccc" />
      <path
         style="fill:#000000;fill-opacity:1;stroke:none;stroke-width:0.26816306px;stroke-linecap:butt;stroke-linejoin:miter;stroke-opacity:1"
         d="m -530.3891,179.47063 c 0.33394,1.62004 -0.0452,2.42294 -1.2771,2.9991 l -0.755,-3.46682 z"
         id="path1232"
         inkscape:connector-curvature="0"
         sodipodi:nodetypes="cccc" />
      <path
         d="m -523.85473,180.09214 q 0.0844,0 0.15505,-0.0251 0.0593,-0.0182 0.0593,-0.057 0,-0.1026 -0.0844,-0.69543 -0.0365,-0.2645 -0.0707,-0.48795 -0.0342,-0.22573 -0.0456,-0.30553 -0.0114,-0.0365 -0.0593,-0.041 -0.0502,-0.007 -0.0798,-0.007 -0.0433,0 -0.0889,0.009 -0.0752,0.0137 -0.098,0.0365 -0.0114,0.0319 -0.0935,0.39674 -0.0798,0.35569 -0.0889,0.38534 -0.0365,-0.25994 -0.0684,-0.47883 -0.0342,-0.21889 -0.0456,-0.29869 -0.0114,-0.0342 -0.0616,-0.0388 -0.0502,-0.007 -0.0798,-0.007 -0.0433,0 -0.0889,0.009 -0.0752,0.0114 -0.0958,0.0365 -0.007,0.0114 -0.007,0.057 0,0.11629 0.0524,0.49022 l 0.0638,0.43551 q 0.0684,0.46286 0.073,0.53126 0.007,0.0388 0.057,0.0456 0.0502,0.005 0.0752,0.005 0.057,0 0.11401,-0.0114 0.0821,-0.016 0.098,-0.0502 0.0684,-0.19153 0.13225,-0.4583 0.0274,-0.11401 0.0524,-0.20293 l 0.0182,0.13909 q 0.0616,0.39218 0.073,0.5381 0.007,0.0502 0.13224,0.0502 z"
         style="font-style:normal;font-variant:normal;font-weight:normal;font-stretch:normal;font-size:2.28011441px;line-height:1.25;font-family:'Magic Dreams';-inkscape-font-specification:'Magic Dreams';letter-spacing:0px;word-spacing:0px;fill:#000000;fill-opacity:1;stroke:none;stroke-width:0.26816306"
         id="path1294"
         inkscape:connector-curvature="0" />
      <path
         d="m -525.02834,180.0853 q 0.0866,0 0.15504,-0.0228 0.0616,-0.0205 0.0616,-0.057 0,-0.098 -0.0775,-0.69315 -0.0524,-0.39446 -0.10716,-0.78436 -0.016,-0.0479 -0.16189,-0.0479 -0.14365,0 -0.17785,0.0388 -0.009,0.0137 -0.009,0.0661 0,0.20977 0.11857,1.03289 0.041,0.2987 0.0524,0.40358 0.0114,0.0639 0.14593,0.0639 z"
         style="font-style:normal;font-variant:normal;font-weight:normal;font-stretch:normal;font-size:2.28011441px;line-height:1.25;font-family:'Magic Dreams';-inkscape-font-specification:'Magic Dreams';letter-spacing:0px;word-spacing:0px;fill:#000000;fill-opacity:1;stroke:none;stroke-width:0.26816306"
         id="path1296"
         inkscape:connector-curvature="0" />
      <path
         d="m -525.59413,180.08758 q 0.0866,0 0.1596,-0.0228 0.0616,-0.0205 0.0616,-0.0638 0,-0.0935 -0.0752,-0.69087 -0.0456,-0.37622 -0.10488,-0.78664 -0.0114,-0.0502 -0.15505,-0.0502 -0.15049,0 -0.18469,0.0433 -0.005,0.009 -0.005,0.0365 0,0.0844 0.0479,0.46514 -0.14136,-0.19153 -0.35569,-0.49706 -0.0228,-0.0342 -0.057,-0.0342 -0.0502,0 -0.15733,0.0593 -0.073,0.0388 -0.073,0.10944 0,0.0593 0.19837,0.28958 0.18013,0.21205 0.37166,0.41498 -0.098,0.10032 -0.22345,0.21205 -0.12769,0.10944 -0.21433,0.20065 -0.0889,0.0912 -0.0889,0.14593 l 0.002,0.0137 q 0.0251,0.073 0.0821,0.114 0.0547,0.0388 0.10032,0.0388 0.0798,0 0.2531,-0.18925 0.12996,-0.13909 0.23941,-0.27362 0.0388,0.29642 0.0388,0.40586 0,0.0593 0.13909,0.0593 z"
         style="font-style:normal;font-variant:normal;font-weight:normal;font-stretch:normal;font-size:2.28011441px;line-height:1.25;font-family:'Magic Dreams';-inkscape-font-specification:'Magic Dreams';letter-spacing:0px;word-spacing:0px;fill:#000000;fill-opacity:1;stroke:none;stroke-width:0.26816306"
         id="path1298"
         inkscape:connector-curvature="0" />
      <path
         d="m -526.91746,180.08073 q 0.30326,0 0.41499,-0.041 0.0296,-0.0182 0.0296,-0.12996 0,-0.17329 -0.0593,-0.53127 -0.0707,-0.41726 -0.15276,-0.80032 l -0.009,-0.0388 q -0.016,-0.0639 -0.3101,-0.0684 h -0.12313 q -0.26449,0 -0.35341,0.0205 -0.0342,0.0114 -0.0342,0.12768 0,0.0684 0.0182,0.11629 0.016,0.0456 0.0479,0.0524 0.057,0.007 0.11856,0.007 0.0981,0 0.23942,-0.016 l 0.0342,-0.002 q 0.0205,0 0.10032,0.41726 l -0.26905,-0.002 q -0.0593,0.007 -0.0798,0.0616 -0.0205,0.0547 -0.0205,0.0935 0,0.13908 0.11173,0.14593 h 0.3101 q 0.0182,0.11628 0.0182,0.18696 0,0.0274 -0.007,0.0342 -0.016,0.009 -0.0616,0.009 -0.0798,0 -0.24625,-0.0228 -0.13225,-0.016 -0.15733,-0.016 -0.0433,0.0114 -0.0433,0.12313 0,0.0958 0.0365,0.18697 0.0365,0.0593 0.18469,0.073 0.14593,0.0137 0.26221,0.0137 z"
         style="font-style:normal;font-variant:normal;font-weight:normal;font-stretch:normal;font-size:2.28011441px;line-height:1.25;font-family:'Magic Dreams';-inkscape-font-specification:'Magic Dreams';letter-spacing:0px;word-spacing:0px;fill:#000000;fill-opacity:1;stroke:none;stroke-width:0.26816306"
         id="path1300"
         inkscape:connector-curvature="0" />
      <path
         style="opacity:1;fill:#000000;fill-opacity:1;stroke:none;stroke-width:0.26816306px;stroke-linecap:butt;stroke-linejoin:miter;stroke-opacity:1"
         d="m -519.95242,25.232775 c 3.07907,12.251592 -12.8631,3.466176 -15.34127,-1.1693 0.99978,-0.51546 0.7191,-2.55655 -1.19273,-5.273777 -0.91249,-1.268952 -1.74984,-2.784674 -2.41522,-3.863534 0.1247,-1.209156 -0.89191,-2.532443 0.80163,-3.584715 0.13738,0.720827 1.61237,1.214349 1.65322,2.410776 0.2056,6.0222 5.20037,13.970274 16.49437,11.48055 z"
         id="path1238"
         inkscape:connector-curvature="0"
         sodipodi:nodetypes="cccccsc" />
      <path
         style="fill:#000000;fill-opacity:1;stroke:#000000;stroke-width:0.26816306px;stroke-linecap:butt;stroke-linejoin:miter;stroke-opacity:1"
         d="m -535.53404,9.7812243 0.28063,3.7417747 0.65481,4.396584 v 0 l -1.21607,-2.33861 c 0.0454,-2.220368 -1.1118,-3.238114 -2.28534,-4.239524 l 2.65951,-1.9344007 z"
         id="path1240"
         inkscape:connector-curvature="0"
         sodipodi:nodetypes="cccccccc" />
      <path
         style="fill:#000000;fill-opacity:1;stroke:none;stroke-width:0.26816306px;stroke-linecap:butt;stroke-linejoin:miter;stroke-opacity:1"
         d="m -516.87139,5.9909413 c -4.43844,-1.964906 -7.67072,-5.64382001 -21.22862,5.3505077 -6.7397,-18.2882377 19.44277,-21.1806757 21.22862,-5.3505077 z"
         id="path1242"
         inkscape:connector-curvature="0"
         sodipodi:nodetypes="ccc" />
      <path
         style="fill:#000000;fill-opacity:1;stroke:none;stroke-width:0.26816306px;stroke-linecap:butt;stroke-linejoin:miter;stroke-opacity:1"
         d="m -519.95242,25.232775 c 2.38402,7.999434 -6.34927,8.467019 -15.34127,-1.1693 -1.30101,0.903043 -0.56784,2.446435 1.10566,4.143964 5.7947,5.877917 16.88355,8.422123 16.02863,-0.546333 -0.0832,-0.872802 -0.9961,-1.589027 -1.79302,-2.428331 z"
         id="path1244"
         inkscape:connector-curvature="0"
         sodipodi:nodetypes="ccssc" />
      <path
         style="fill:#000000;fill-opacity:1;stroke:none;stroke-width:0.26816306;stroke-linecap:butt;stroke-linejoin:miter;stroke-miterlimit:4;stroke-dasharray:none;stroke-opacity:1"
         d="m -521.4501,175.31979 0.56224,2.8112 c 0.92623,1.34934 3.25288,0.91055 4.97958,1.2378 2.84012,-2.06898 5.18737,-0.44136 7.50859,1.38144 1.96947,-0.85277 3.30808,-0.033 4.39658,1.44994 9.64846,0.62297 7.83931,-2.19135 9.30767,-4.02241 -2.4053,6.4759 -17.12184,-1.83864 -26.75466,-2.85797 z"
         id="path1246"
         inkscape:connector-curvature="0"
         sodipodi:nodetypes="ccccccc" />
      <path
         style="opacity:1;fill:#000000;fill-opacity:1;stroke:none;stroke-width:0.26816306px;stroke-linecap:butt;stroke-linejoin:miter;stroke-opacity:1"
         d="m -509.64683,178.24086 c -3.29791,-1.04005 -7.03058,-2.24085 -11.80327,-2.92103 l -0.84525,-3.33588 c 0.92461,-0.35421 0.68707,-1.87057 0.69453,-3.14193 h 9.59114 l 1.2237,2.34818 2.76047,-2.03943 c 21.20296,8.86049 13.26891,13.94646 -1.62132,9.09009 z"
         id="path1248"
         inkscape:connector-curvature="0"
         sodipodi:nodetypes="cccccccc" />
      <path
         style="fill:#000000;fill-opacity:1;stroke:none;stroke-width:0.26816306px;stroke-linecap:butt;stroke-linejoin:miter;stroke-opacity:1"
         d="m -503.84067,176.71334 c 1.21744,-0.87062 2.57784,-1.62212 2.77813,-3.34037 0.40707,-0.21686 1.69044,-0.0854 1.99956,0.43532 1.87303,3.15528 -0.98834,5.38161 -4.77769,2.90505 z"
         id="path1252"
         inkscape:connector-curvature="0"
         sodipodi:nodetypes="ccsc" />
      <path
         style="fill:#000000;fill-opacity:1;stroke:#000000;stroke-width:0.26816306px;stroke-linecap:butt;stroke-linejoin:miter;stroke-opacity:1"
         d="m -534.5986,17.919583 -0.22323,1.19063 -0.15222,0.456652 z"
         id="path1254"
         inkscape:connector-curvature="0" />
      <path
         inkscape:transform-center-y="-1.4522882"
         inkscape:transform-center-x="0.9138314"
         style="fill:#000000;fill-opacity:1;stroke:#000000;stroke-width:0.26816306px;stroke-linecap:butt;stroke-linejoin:miter;stroke-opacity:1"
         d="m -530.29757,24.246337 -0.22323,1.19063 -0.15222,0.456652 z"
         id="path1256"
         inkscape:connector-curvature="0" />
      <path
         inkscape:connector-curvature="0"
         id="path1258"
         d="m -533.14744,21.545697 -0.22323,1.19063 -0.15222,0.456652 z"
         style="fill:#000000;fill-opacity:1;stroke:#000000;stroke-width:0.26816306px;stroke-linecap:butt;stroke-linejoin:miter;stroke-opacity:1"
         inkscape:transform-center-x="0.9138304"
         inkscape:transform-center-y="-1.4522882" />
      <path
         inkscape:transform-center-y="-1.4522882"
         inkscape:transform-center-x="0.9138284"
         style="fill:#000000;fill-opacity:1;stroke:#000000;stroke-width:0.26816306px;stroke-linecap:butt;stroke-linejoin:miter;stroke-opacity:1"
         d="m -531.89164,23.10593 -0.22323,1.19063 -0.15222,0.456652 z"
         id="path1260"
         inkscape:connector-curvature="0" />
      <path
         inkscape:connector-curvature="0"
         id="path1262"
         d="m -534.12236,19.662439 -0.22323,1.19063 -0.15222,0.456652 z"
         style="fill:#000000;fill-opacity:1;stroke:#000000;stroke-width:0.26816306px;stroke-linecap:butt;stroke-linejoin:miter;stroke-opacity:1"
         inkscape:transform-center-x="0.9138294"
         inkscape:transform-center-y="-1.4522882" />
      <path
         inkscape:connector-curvature="0"
         id="path1264"
         d="m -528.68884,25.126329 -0.0641,1.209678 -0.0906,0.472748 z"
         style="fill:#000000;fill-opacity:1;stroke:#000000;stroke-width:0.26816306px;stroke-linecap:butt;stroke-linejoin:miter;stroke-opacity:1"
         inkscape:transform-center-x="1.0975004"
         inkscape:transform-center-y="-1.3189662" />
      <path
         inkscape:transform-center-y="-1.3070392"
         inkscape:transform-center-x="1.1116984"
         style="fill:#000000;fill-opacity:1;stroke:#000000;stroke-width:0.26816306px;stroke-linecap:butt;stroke-linejoin:miter;stroke-opacity:1"
         d="m -527.09759,25.971636 -0.0511,1.210299 -0.0855,0.473699 z"
         id="path1266"
         inkscape:connector-curvature="0" />
      <path
         inkscape:connector-curvature="0"
         id="path1268"
         d="m -523.90174,25.609759 0.0773,1.208907 -0.0349,0.480088 z"
         style="fill:#000000;fill-opacity:1;stroke:#000000;stroke-width:0.26816306px;stroke-linecap:butt;stroke-linejoin:miter;stroke-opacity:1"
         inkscape:transform-center-x="1.2263164"
         inkscape:transform-center-y="-1.1820637" />
      <path
         inkscape:transform-center-y="-0.92464319"
         inkscape:transform-center-x="1.4454279"
         style="fill:#000000;fill-opacity:1;stroke:#000000;stroke-width:0.26816306px;stroke-linecap:butt;stroke-linejoin:miter;stroke-opacity:1"
         d="m -521.60391,24.683637 0.30523,1.17229 0.0568,0.47799 z"
         id="path1270"
         inkscape:connector-curvature="0" />
      <path
         inkscape:connector-curvature="0"
         id="path1272"
         d="m -520.50793,23.637183 0.44232,1.127735 0.11319,0.467857 z"
         style="fill:#000000;fill-opacity:1;stroke:#000000;stroke-width:0.26816306px;stroke-linecap:butt;stroke-linejoin:miter;stroke-opacity:1"
         inkscape:transform-center-x="1.5450259"
         inkscape:transform-center-y="-0.74640418" />
      <path
         inkscape:transform-center-y="-0.30590817"
         inkscape:transform-center-x="1.6883849"
         style="fill:#000000;fill-opacity:1;stroke:#000000;stroke-width:0.26816306px;stroke-linecap:butt;stroke-linejoin:miter;stroke-opacity:1"
         d="m -519.64901,22.180513 0.72787,0.968316 0.23421,0.42053 z"
         id="path1274"
         inkscape:connector-curvature="0" />
      <path
         inkscape:connector-curvature="0"
         id="path1276"
         d="m -518.72804,20.971422 0.76494,0.939304 0.25038,0.411113 z"
         style="fill:#000000;fill-opacity:1;stroke:#000000;stroke-width:0.26816306px;stroke-linecap:butt;stroke-linejoin:miter;stroke-opacity:1"
         inkscape:transform-center-x="1.6989954"
         inkscape:transform-center-y="-0.24007767" />
      <path
         style="fill:#000000;fill-opacity:1;stroke:none;stroke-width:0.26816306px;stroke-linecap:butt;stroke-linejoin:miter;stroke-opacity:1"
         d="m -510.9126,164.69456 c 1.87695,-0.0498 2.71121,1.65064 2.88709,4.45621 l -2.76047,2.03943 c -0.36467,-1.31947 -1.0406,-1.70518 -1.70045,-2.13909 0.72829,-1.32488 1.75748,-2.4617 1.57383,-4.35655 z"
         id="path1278"
         inkscape:connector-curvature="0"
         sodipodi:nodetypes="ccccc" />
      <path
         style="fill:#000000;fill-opacity:1;stroke:none;stroke-width:0.26816306px;stroke-linecap:butt;stroke-linejoin:miter;stroke-opacity:1"
         d="m -504.54561,180.11612 -1.41741,-3.01338 -0.0684,0.72989 -1.68788,-2.7371 0.45618,1.55103 -1.80192,-2.44058 0.13685,1.16326 -2.23529,-1.98439 0.57022,1.52821 -1.68787,-1.30012 0.68427,4.21969 z"
         id="path1280"
         inkscape:connector-curvature="0"
         sodipodi:nodetypes="cccccccccccc" />
      <path
         style="fill:#000000;fill-opacity:1;stroke:none;stroke-width:0.26816306px;stroke-linecap:butt;stroke-linejoin:miter;stroke-opacity:1"
         d="m -501.06254,173.37297 -6.49712,-2.74803 c -0.33349,0.25403 -0.92156,-0.25569 -0.98079,0.82113 1.25123,2.1342 3.13315,3.51155 4.69978,5.26727 2.68329,-0.80106 2.77467,-2.0629 2.77813,-3.34037"
         id="path1282"
         inkscape:connector-curvature="0"
         sodipodi:nodetypes="ccccc" />
      <path
         style="fill:#000000;fill-opacity:1;stroke:#ff1900;stroke-width:0.26816306px;stroke-linecap:butt;stroke-linejoin:miter;stroke-opacity:1"
         d="m -504.41199,176.21318 0.70708,-3.64946 -2.62305,1.41417 0.18247,-2.87396 -1.7563,1.04922"
         id="path1284"
         inkscape:connector-curvature="0" />
      <path
         style="fill:#000000;fill-opacity:1;stroke:#000000;stroke-width:0.26816306px;stroke-linecap:butt;stroke-linejoin:miter;stroke-opacity:1"
         d="m -536.85147,9.4805783 3.15068,-2.375074 c -0.63772,-2.836019 -6.81203,-2.545968 -3.15068,2.375074 z"
         id="path1288"
         inkscape:connector-curvature="0"
         sodipodi:nodetypes="ccc" />
      <path
         d="m -511.54221,168.35309 q -0.0673,0.0755 -0.10127,0.15879 -0.031,0.0677 0.004,0.0986 0.0918,0.0819 0.68968,0.4795 0.26578,0.17846 0.49304,0.32619 0.22929,0.14954 0.30983,0.203 0.0417,0.0189 0.084,-0.0203 0.046,-0.0396 0.0697,-0.0661 0.0346,-0.0388 0.0628,-0.0868 0.0478,-0.0782 0.0456,-0.11683 -0.0195,-0.0357 -0.28044,-0.40029 -0.25462,-0.35529 -0.27388,-0.38709 0.2617,0.17482 0.48308,0.32093 0.22317,0.14408 0.30371,0.19755 0.0397,0.0171 0.0838,-0.0241 0.046,-0.0395 0.0697,-0.0661 0.0345,-0.0387 0.0628,-0.0868 0.0498,-0.0764 0.0438,-0.11479 -0.005,-0.0151 -0.0457,-0.0515 -0.10406,-0.0928 -0.48057,-0.34428 l -0.44065,-0.29046 q -0.46879,-0.30818 -0.53367,-0.35867 -0.04,-0.025 -0.0863,0.0146 -0.0437,0.0415 -0.0638,0.064 -0.0455,0.051 -0.0808,0.11114 -0.0512,0.0862 -0.0333,0.12781 0.11683,0.21405 0.30459,0.48409 0.0802,0.11546 0.13975,0.2089 l -0.13905,-0.0947 q -0.40008,-0.2579 -0.53979,-0.36413 -0.0502,-0.034 -0.1504,0.0784 z"
         style="font-style:normal;font-variant:normal;font-weight:normal;font-stretch:normal;font-size:2.73398805px;line-height:1.25;font-family:'Magic Dreams';-inkscape-font-specification:'Magic Dreams';letter-spacing:0px;word-spacing:0px;fill:#000000;fill-opacity:1;stroke:none;stroke-width:0.26816306"
         id="path1303"
         inkscape:connector-curvature="0" />
      <path
         d="m -510.59948,167.30828 q -0.0691,0.0775 -0.10336,0.15692 -0.0308,0.0714 0.002,0.1006 0.0877,0.0782 0.6822,0.48377 0.39487,0.26785 0.78744,0.53006 0.0556,0.0239 0.17204,-0.10668 0.11464,-0.12855 0.10723,-0.19011 -0.005,-0.019 -0.0519,-0.0609 -0.18773,-0.16741 -1.01896,-0.7182 -0.30005,-0.20166 -0.40302,-0.27513 -0.0662,-0.0407 -0.17356,0.0797 z"
         style="font-style:normal;font-variant:normal;font-weight:normal;font-stretch:normal;font-size:2.73398805px;line-height:1.25;font-family:'Magic Dreams';-inkscape-font-specification:'Magic Dreams';letter-spacing:0px;word-spacing:0px;fill:#000000;fill-opacity:1;stroke:none;stroke-width:0.26816306"
         id="path1305"
         inkscape:connector-curvature="0" />
      <path
         d="m -510.15,166.80013 q -0.0692,0.0775 -0.107,0.161 -0.0308,0.0715 0.008,0.106 0.0837,0.0746 0.67831,0.48403 0.37308,0.25942 0.78767,0.53393 0.0541,0.0298 0.16866,-0.0987 0.1201,-0.13468 0.10859,-0.19989 -0.005,-0.011 -0.0293,-0.0328 -0.0755,-0.0673 -0.45447,-0.32837 0.28423,0.0263 0.72869,0.0784 0.0488,0.007 0.0761,-0.0238 0.0401,-0.0449 0.0725,-0.18812 0.0235,-0.0963 -0.0397,-0.15265 -0.0531,-0.0473 -0.41745,-0.0536 -0.33352,-0.008 -0.66797,0.001 -0.0115,-0.16781 -0.0114,-0.3692 0.004,-0.20161 -0.009,-0.35193 -0.0106,-0.15237 -0.0596,-0.19604 l -0.0142,-0.009 q -0.0853,-0.0358 -0.16751,-0.0175 -0.0784,0.018 -0.11477,0.0588 -0.0637,0.0714 -0.0326,0.37753 0.0208,0.2273 0.0538,0.43261 -0.29621,-0.20185 -0.39416,-0.28919 -0.0531,-0.0473 -0.16406,0.0771 z"
         style="font-style:normal;font-variant:normal;font-weight:normal;font-stretch:normal;font-size:2.73398805px;line-height:1.25;font-family:'Magic Dreams';-inkscape-font-specification:'Magic Dreams';letter-spacing:0px;word-spacing:0px;fill:#000000;fill-opacity:1;stroke:none;stroke-width:0.26816306"
         id="path1307"
         inkscape:connector-curvature="0" />
      <path
         d="m -509.0878,165.62135 q -0.24201,0.27138 -0.29445,0.40411 -0.007,0.0411 0.0926,0.13028 0.15508,0.1383 0.52276,0.37091 0.42984,0.26971 0.83812,0.50199 l 0.042,0.0228 q 0.0698,0.0367 0.30867,-0.22293 l 0.0983,-0.11019 q 0.21108,-0.23669 0.26368,-0.33265 0.0171,-0.0397 -0.087,-0.13249 -0.0612,-0.0546 -0.11864,-0.0765 -0.0535,-0.0221 -0.0851,9.8e-4 -0.0514,0.0457 -0.10059,0.10078 -0.0783,0.0877 -0.17681,0.22696 l -0.0251,0.0326 q -0.0164,0.0184 -0.45348,-0.24321 l 0.21696,-0.23878 q 0.0413,-0.0584 0.009,-0.12054 -0.0326,-0.062 -0.0673,-0.093 -0.12447,-0.11099 -0.21976,-0.0165 l -0.24747,0.2775 q -0.11864,-0.0764 -0.18189,-0.13286 -0.0245,-0.0218 -0.0253,-0.0333 0.005,-0.0215 0.041,-0.0623 0.0637,-0.0714 0.21689,-0.2022 0.1198,-0.10564 0.13981,-0.12808 0.0243,-0.0478 -0.0756,-0.137 -0.0857,-0.0764 -0.1964,-0.11659 -0.0822,-0.0147 -0.2127,0.10704 -0.12869,0.11967 -0.2215,0.22374 z"
         style="font-style:normal;font-variant:normal;font-weight:normal;font-stretch:normal;font-size:2.73398805px;line-height:1.25;font-family:'Magic Dreams';-inkscape-font-specification:'Magic Dreams';letter-spacing:0px;word-spacing:0px;fill:#000000;fill-opacity:1;stroke:none;stroke-width:0.26816306"
         id="path1309"
         inkscape:connector-curvature="0" />
    </g>
    <path
       style="fill:#16084a;fill-opacity:1;stroke:none;stroke-width:0.26458332px;stroke-linecap:butt;stroke-linejoin:miter;stroke-opacity:1"
       d="m -316.9778,43.270317 c -3.40501,1.993209 -6.63769,4.965855 -10.30949,6.228257 0.60216,-10.816922 8.38117,-20.065171 9.82235,-11.393146 z"
       id="path887"
       inkscape:connector-curvature="0"
       sodipodi:nodetypes="cccc" />
    <path
       style="fill:#ffb9b9;fill-opacity:1;stroke:none;stroke-width:0.26458332px;stroke-linecap:butt;stroke-linejoin:miter;stroke-opacity:1"
       d="m -302.78235,42.066551 -0.13047,0.618374 c 1.16745,5.377763 2.43269,10.720806 -1.91274,18.056177 -4.23488,4.867642 -5.62652,2.95172 -7.85848,3.040668 -2.46463,-2.195467 -3.3619,1.544189 -8.53956,-10.924881 l -0.36673,-7.211497 c 12.12985,-8.099817 15.47447,-5.845867 18.80798,-3.578841 z"
       id="path980"
       inkscape:connector-curvature="0"
       sodipodi:nodetypes="ccccccc" />
    <path
       style="opacity:1;fill:#575a89;fill-opacity:1;stroke:none;stroke-width:0.26458332px;stroke-linecap:butt;stroke-linejoin:miter;stroke-opacity:1"
       d="m -338.85961,94.682631 c -1.16431,-22.144785 9.35261,-22.690534 16.05385,-30.291621 l 2.7319,-4.162719 c 5.52414,6.622344 17.3276,12.35449 14.93442,1.1693 -0.0414,2.121296 5.08733,4.243115 8.75036,5.428629 9.12982,0.05574 5.40223,27.852441 6.41896,20.970171 -3.96933,14.286729 -2.71302,30.816399 1.74183,44.023339 -8.36002,14.57363 -19.21194,13.38684 -28.30985,9.93739 z"
       id="path834"
       inkscape:connector-curvature="0"
       sodipodi:nodetypes="ccccccccc" />
    <path
       style="fill:#ffb9b9;fill-opacity:1;stroke:none;stroke-width:0.26458332px;stroke-linecap:butt;stroke-linejoin:miter;stroke-opacity:1"
       d="m -307.50898,206.55776 -0.0221,5.62138 -8.79853,3.45631 -0.2301,-7.83896 z"
       id="path850"
       inkscape:connector-curvature="0" />
    <path
       style="fill:#ffb9b9;fill-opacity:1;stroke:none;stroke-width:0.26458332px;stroke-linecap:butt;stroke-linejoin:miter;stroke-opacity:1"
       d="m -307.35167,199.92551 0.60755,5.08129 8.98261,2.34821 1.65618,-8.87944 z"
       id="path1188"
       inkscape:connector-curvature="0" />
    <path
       style="fill:#2f2e41;fill-opacity:1;stroke:none;stroke-width:0.26458332px;stroke-linecap:butt;stroke-linejoin:miter;stroke-opacity:1"
       d="m -326.63045,140.7232 c -0.52521,7.67043 1.02902,13.69662 2.20077,15.39039 0.42648,3.1418 2.06345,6.38536 2.20407,9.58448 0.76882,17.49191 1.9527,27.9719 4.34185,42.24567 3.24452,4.47239 11.47623,1.14342 11.40505,-1.38598 -4.22961,-15.05672 -1.30207,-23.08526 0.0377,-37.3203 l 0.18213,-0.56126 c 0.72952,3.1045 -0.60052,7.1573 -1.09277,11.50595 0.87208,8.46638 0.7025,12.77004 0,19.74336 4.93856,5.37007 11.35528,0.29425 11.24635,-1.44994 -1.554,-5.87237 0.75508,-13.72821 1.34708,-20.33464 l 3.82466,-10.57052 -0.57303,-3.19725 c 1.22005,-3.15444 1.60084,-6.4076 2.5173,-9.34828 2.9722,-9.53695 4.64476,-17.56808 0.76098,-23.20515 -6.71775,3.2941 -17.6955,11.21017 -24.86034,8.41899 l -5.78254,-0.37418 z"
       id="path832"
       inkscape:connector-curvature="0"
       sodipodi:nodetypes="ccsccccccccccscccc" />
    <path
       style="fill:none;stroke:#ffffff;stroke-width:0.26458332px;stroke-linecap:butt;stroke-linejoin:miter;stroke-opacity:1"
       d="m -315.54007,141.85634 c -0.21994,6.95756 -2.62101,7.11539 -5.37764,9.3825"
       id="path840"
       inkscape:connector-curvature="0"
       sodipodi:nodetypes="cc" />
    <path
       style="fill:none;stroke:#ffffff;stroke-width:0.5291667;stroke-linecap:butt;stroke-linejoin:miter;stroke-miterlimit:4;stroke-dasharray:none;stroke-opacity:1"
       d="m -315.52945,207.79649 c 0.61192,2.34697 7.67266,0.89973 8.14616,-1.76095"
       id="path848"
       inkscape:connector-curvature="0"
       sodipodi:nodetypes="cc" />
    <path
       style="opacity:1;fill:#ffb9b9;fill-opacity:1;stroke:none;stroke-width:0.26458332px;stroke-linecap:butt;stroke-linejoin:miter;stroke-opacity:1"
       d="m -338.85961,94.682631 14.02377,-0.56127 c -1.15386,6.298649 -0.75979,12.223129 -3.27828,18.521779 3.69991,11.75709 7.3844,19.37721 11.57598,29.11398 -0.42434,6.5413 -1.8452,5.91806 -5.33524,9.6016 l -4.75707,-10.63552 c -1.20188,0 -16.69821,-23.23755 -12.22916,-46.040569 z"
       id="path852"
       inkscape:connector-curvature="0"
       sodipodi:nodetypes="ccccccc" />
    <path
       style="fill:#ffb9b9;fill-opacity:1;stroke:none;stroke-width:0.26458332px;stroke-linecap:butt;stroke-linejoin:miter;stroke-opacity:1"
       d="m -289.97012,87.796391 c -0.31632,5.02718 -0.14385,8.82065 0.71539,14.088459 1.84438,11.30772 2.90333,22.48524 3.46629,33.36599 -2.8543,-0.79583 -3.28138,-4.70646 -4.24606,-6.37789 -2.69245,-20.17754 -3.53671,-25.16996 0.0643,-41.076559 z"
       id="path854"
       inkscape:connector-curvature="0"
       sodipodi:nodetypes="csccc" />
    <path
       style="fill:#2f2e41;fill-opacity:1;stroke:none;stroke-width:0.26458332px;stroke-linecap:butt;stroke-linejoin:miter;stroke-opacity:1"
       d="m -317.27755,215.16773 -0.25757,-1.45521 c 1.45148,0.25687 3.26143,2.34007 3.38497,-0.45499 l 7.64933,-1.07839 -0.0956,5.57781 c 0.46526,4.04702 6.07516,10.67139 4.52651,14.38908 l -5.09955,3.22063 -7.1485,-4.6238 -2.86849,-12.20753 z"
       id="path845"
       inkscape:connector-curvature="0"
       sodipodi:nodetypes="cccccccccc" />
    <path
       style="fill:#ffffff;fill-opacity:1;stroke:none;stroke-width:0.26458332px;stroke-linecap:butt;stroke-linejoin:miter;stroke-opacity:1"
       d="m -313.64701,226.21634 0.22766,0.88867 1.41149,1.12254 c 0.91974,1.02353 0.2179,1.63062 0.27319,2.43215 1.09954,0.68899 1.27828,1.52734 4.50764,1.87089 l 2.64084,-0.32741 c 0.5961,-0.28385 1.15663,-0.27542 1.86681,-1.49671 0.0189,-1.57845 0.23498,-1.46945 -1.22936,-2.75956 0.109,-0.82015 0.19177,-1.87939 -0.22767,-2.52569 -3.68817,4.00102 -5.20019,2.80944 -9.4706,0.79512 z"
       id="path843"
       inkscape:connector-curvature="0"
       sodipodi:nodetypes="cccccccccc" />
    <path
       style="fill:#ffffff;fill-opacity:1;stroke:none;stroke-width:0.26458332px;stroke-linecap:butt;stroke-linejoin:miter;stroke-opacity:1"
       d="m -317.27755,215.16773 -0.86511,3.27405 c 0.69173,3.59469 2.2192,6.80047 1.71134,8.52929 2.67245,8.49341 10.00789,10.76488 14.81212,5.72362 0.0518,-0.89425 0.10364,-1.7885 0.15546,-2.68275 l -0.15546,2.68275 0.0643,-1.60699 c -5.60684,5.91758 -12.5097,0.0365 -13.892,-5.62341 -0.71444,-2.96991 -1.14397,-6.20864 -1.83074,-10.29656 z"
       id="path841"
       inkscape:connector-curvature="0"
       sodipodi:nodetypes="cccccccccc" />
    <path
       style="opacity:0.13600003;fill:#f4f4f4;fill-opacity:1;stroke:none;stroke-width:0.26458332px;stroke-linecap:butt;stroke-linejoin:miter;stroke-opacity:1"
       d="m -313.25175,216.90633 c -0.98548,2.06363 0.91154,5.49953 1.54119,8.33207 0.97542,3.05299 8.50435,-1.68743 6.22267,-0.37347 l -2.55509,-8.19743 c -0.42922,2.03546 -2.96323,2.05936 -5.20877,0.23883 z"
       id="path1389"
       inkscape:connector-curvature="0"
       sodipodi:nodetypes="ccccc" />
    <path
       style="fill:none;fill-opacity:1;stroke:#ffffff;stroke-width:0.5291667;stroke-linecap:butt;stroke-linejoin:miter;stroke-miterlimit:4;stroke-dasharray:none;stroke-opacity:1"
       d="m -313.47231,219.08182 5.794,1.00806 -4.73412,1.64474 6.07663,0.8489 -5.51136,1.48558 6.35926,0.79583"
       id="path847"
       inkscape:connector-curvature="0" />
    <path
       style="fill:none;stroke:#ffffff;stroke-width:0.5291667;stroke-linecap:butt;stroke-linejoin:miter;stroke-miterlimit:4;stroke-dasharray:none;stroke-opacity:1"
       d="m -308.64369,218.36826 c -0.68472,2.05707 -1.47929,3.77559 -1.67418,7.34219"
       id="path849"
       inkscape:connector-curvature="0"
       sodipodi:nodetypes="cc" />
    <path
       style="fill:#ff1900;fill-opacity:1;stroke:none;stroke-width:0.26458332px;stroke-linecap:butt;stroke-linejoin:miter;stroke-opacity:1"
       d="m -313.25175,216.90633 0.32505,-2.65661 c 6.62874,0.83111 4.75668,-3.4917 4.88372,2.41778"
       id="path851"
       inkscape:connector-curvature="0"
       sodipodi:nodetypes="ccc" />
    <path
       style="fill:#ff1900;fill-opacity:1;stroke:none;stroke-width:0.26458332px;stroke-linecap:butt;stroke-linejoin:miter;stroke-opacity:1"
       d="m -315.29934,215.63545 c 0.32508,1.62004 -0.044,2.42294 -1.24323,2.9991 l -0.73498,-3.46682 z"
       id="path853"
       inkscape:connector-curvature="0"
       sodipodi:nodetypes="cccc" />
    <text
       xml:space="preserve"
       style="font-style:normal;font-variant:normal;font-weight:normal;font-stretch:normal;font-size:2.24967694px;line-height:1.25;font-family:'Magic Dreams';-inkscape-font-specification:'Magic Dreams';letter-spacing:0px;word-spacing:0px;fill:#ffffff;fill-opacity:1;stroke:none;stroke-width:0.26458332"
       x="312.91565"
       y="213.36111"
       id="text842"
       transform="scale(-0.98665088,1.0135297)"><tspan
         sodipodi:role="line"
         id="tspan840"
         x="312.91565"
         y="213.36111"
         style="fill:#ffffff;fill-opacity:1;stroke-width:0.26458332">Nike</tspan></text>
    <path
       style="opacity:1;fill:#ffb9b9;fill-opacity:1;stroke:none;stroke-width:0.26458332px;stroke-linecap:butt;stroke-linejoin:miter;stroke-opacity:1"
       d="m -305.13944,61.397589 c 2.99741,12.251592 -12.52197,3.466176 -14.93442,-1.1693 0.97326,-0.51546 0.70003,-2.55655 -1.1611,-5.273777 -0.88829,-1.268952 -1.70344,-2.784674 -2.35117,-3.863534 0.12139,-1.209156 -0.86826,-2.532443 0.78037,-3.584715 0.13374,0.720827 1.56961,1.214349 1.60938,2.410776 0.20014,6.0222 5.06245,13.970274 16.05694,11.48055 z"
       id="path859"
       inkscape:connector-curvature="0"
       sodipodi:nodetypes="cccccsc" />
    <path
       style="fill:#000000;fill-opacity:1;stroke:#000000;stroke-width:0.26458332px;stroke-linecap:butt;stroke-linejoin:miter;stroke-opacity:1"
       d="m -320.30784,45.946038 0.27319,3.741775 0.63744,4.396584 v 0 l -1.18382,-2.33861 c 0.0442,-2.220368 -1.08231,-3.238114 -2.22473,-4.239524 l 2.58898,-1.934401 z"
       id="path855"
       inkscape:connector-curvature="0"
       sodipodi:nodetypes="cccccccc" />
    <path
       style="fill:#16084a;fill-opacity:1;stroke:none;stroke-width:0.26458332px;stroke-linecap:butt;stroke-linejoin:miter;stroke-opacity:1"
       d="m -302.14012,42.155755 c -4.32074,-1.964906 -7.4673,-5.64382 -20.66564,5.350508 -6.56096,-18.288238 18.92715,-21.180676 20.66564,-5.350508 z"
       id="path844"
       inkscape:connector-curvature="0"
       sodipodi:nodetypes="ccc" />
    <path
       style="fill:#fbfbfb;fill-opacity:1;stroke:none;stroke-width:0.26458332px;stroke-linecap:butt;stroke-linejoin:miter;stroke-opacity:1"
       d="m -305.13944,61.397589 c 2.32079,7.999434 -6.18089,8.467019 -14.93442,-1.1693 -1.26651,0.903043 -0.55278,2.446435 1.07633,4.143964 5.64103,5.877917 16.4358,8.422123 15.60355,-0.546333 -0.081,-0.872802 -0.96968,-1.589027 -1.74546,-2.428331 z"
       id="path876"
       inkscape:connector-curvature="0"
       sodipodi:nodetypes="ccssc" />
    <path
       style="fill:#ffffff;fill-opacity:1;stroke:none;stroke-width:0.26458332;stroke-linecap:butt;stroke-linejoin:miter;stroke-miterlimit:4;stroke-dasharray:none;stroke-opacity:1"
       d="m -306.59741,211.48461 0.54733,2.8112 c 0.90167,1.34934 3.16662,0.91055 4.84752,1.2378 2.7648,-2.06898 5.04981,-0.44136 7.30947,1.38144 1.91724,-0.85277 3.22035,-0.033 4.27998,1.44994 11.58205,-0.50159 8.80932,-2.79635 9.06083,-4.02241 -32.22456,-1.83855 -16.50027,-2.48386 -26.04513,-2.85797 z"
       id="path856"
       inkscape:connector-curvature="0"
       sodipodi:nodetypes="ccccccc" />
    <path
       style="opacity:1;fill:#2f2e41;fill-opacity:1;stroke:none;stroke-width:0.26458332px;stroke-linecap:butt;stroke-linejoin:miter;stroke-opacity:1"
       d="m -295.10716,214.40568 c -3.21045,-1.04005 -6.84413,-2.24085 -11.49025,-2.92103 l -0.82283,-3.33588 c 0.90009,-0.35421 0.66885,-1.87057 0.67611,-3.14193 h 9.33678 l 1.19125,2.34818 2.68726,-2.03943 c 21.2475,8.85988 13.39435,15.44068 -1.57832,9.09009 z"
       id="path862"
       inkscape:connector-curvature="0"
       sodipodi:nodetypes="cccccccc" />
    <path
       style="fill:#ff1900;fill-opacity:1;stroke:none;stroke-width:0.26458332px;stroke-linecap:butt;stroke-linejoin:miter;stroke-opacity:1"
       d="m -306.74413,205.0068 c 2.00374,3.39441 4.09127,3.87487 6.50356,3.34037 l 1.06245,1.68672 c -2.8549,3.38392 -5.88352,-0.49731 -7.30059,-3.47613 z"
       id="path858"
       inkscape:connector-curvature="0"
       sodipodi:nodetypes="ccccc" />
    <path
       style="fill:#ffffff;fill-opacity:1;stroke:none;stroke-width:0.26458332px;stroke-linecap:butt;stroke-linejoin:miter;stroke-opacity:1"
       d="m -289.45498,212.87816 c 1.18515,-0.87062 2.50948,-1.62212 2.70445,-3.34037 0.39628,-0.21686 1.64561,-0.0854 1.94654,0.43532 1.82335,3.15528 -0.96213,5.38161 -4.65099,2.90505 z"
       id="path860"
       inkscape:connector-curvature="0"
       sodipodi:nodetypes="ccsc" />
    <path
       style="fill:none;stroke:#000000;stroke-width:0.26458332px;stroke-linecap:butt;stroke-linejoin:miter;stroke-opacity:1"
       d="m -319.39721,54.084397 -0.21731,1.19063 -0.14818,0.456652 z"
       id="path954"
       inkscape:connector-curvature="0" />
    <path
       inkscape:transform-center-y="-1.4522882"
       inkscape:transform-center-x="0.88959312"
       style="fill:none;stroke:#000000;stroke-width:0.26458332px;stroke-linecap:butt;stroke-linejoin:miter;stroke-opacity:1"
       d="m -315.21024,60.411151 -0.21731,1.19063 -0.14818,0.456652 z"
       id="path958"
       inkscape:connector-curvature="0" />
    <path
       inkscape:connector-curvature="0"
       id="path960"
       d="m -317.98453,57.710511 -0.21731,1.19063 -0.14819,0.456652 z"
       style="fill:none;stroke:#000000;stroke-width:0.26458332px;stroke-linecap:butt;stroke-linejoin:miter;stroke-opacity:1"
       inkscape:transform-center-x="0.88959584"
       inkscape:transform-center-y="-1.4522882" />
    <path
       inkscape:transform-center-y="-1.4522882"
       inkscape:transform-center-x="0.88959501"
       style="fill:none;stroke:#000000;stroke-width:0.26458332px;stroke-linecap:butt;stroke-linejoin:miter;stroke-opacity:1"
       d="m -316.76204,59.270744 -0.21731,1.19063 -0.14818,0.456652 z"
       id="path962"
       inkscape:connector-curvature="0" />
    <path
       inkscape:connector-curvature="0"
       id="path964"
       d="m -318.9336,55.827253 -0.21731,1.19063 -0.14818,0.456652 z"
       style="fill:none;stroke:#000000;stroke-width:0.26458332px;stroke-linecap:butt;stroke-linejoin:miter;stroke-opacity:1"
       inkscape:transform-center-x="0.88959479"
       inkscape:transform-center-y="-1.4522882" />
    <path
       inkscape:connector-curvature="0"
       id="path966"
       d="m -313.64417,61.291143 -0.0624,1.209678 -0.0882,0.472748 z"
       style="fill:none;stroke:#000000;stroke-width:0.26458332px;stroke-linecap:butt;stroke-linejoin:miter;stroke-opacity:1"
       inkscape:transform-center-x="1.0683905"
       inkscape:transform-center-y="-1.3189662" />
    <path
       inkscape:transform-center-y="-1.3070392"
       inkscape:transform-center-x="1.0822219"
       style="fill:none;stroke:#000000;stroke-width:0.26458332px;stroke-linecap:butt;stroke-linejoin:miter;stroke-opacity:1"
       d="m -312.09512,62.13645 -0.0498,1.210299 -0.0832,0.473699 z"
       id="path968"
       inkscape:connector-curvature="0" />
    <path
       inkscape:connector-curvature="0"
       id="path970"
       d="m -308.98403,61.774573 0.0753,1.208907 -0.034,0.480088 z"
       style="fill:none;stroke:#000000;stroke-width:0.26458332px;stroke-linecap:butt;stroke-linejoin:miter;stroke-opacity:1"
       inkscape:transform-center-x="1.1937698"
       inkscape:transform-center-y="-1.1820637" />
    <path
       inkscape:transform-center-y="-0.92464319"
       inkscape:transform-center-x="1.4070914"
       style="fill:none;stroke:#000000;stroke-width:0.26458332px;stroke-linecap:butt;stroke-linejoin:miter;stroke-opacity:1"
       d="m -306.74714,60.848451 0.29714,1.17229 0.0553,0.47799 z"
       id="path972"
       inkscape:connector-curvature="0" />
    <path
       inkscape:connector-curvature="0"
       id="path974"
       d="m -305.68022,59.801997 0.43059,1.127735 0.11019,0.467857 z"
       style="fill:none;stroke:#000000;stroke-width:0.26458332px;stroke-linecap:butt;stroke-linejoin:miter;stroke-opacity:1"
       inkscape:transform-center-x="1.5040471"
       inkscape:transform-center-y="-0.74640418" />
    <path
       inkscape:transform-center-y="-0.30590817"
       inkscape:transform-center-x="1.6436094"
       style="fill:none;stroke:#000000;stroke-width:0.26458332px;stroke-linecap:butt;stroke-linejoin:miter;stroke-opacity:1"
       d="m -304.84408,58.345327 0.70857,0.968316 0.22799,0.42053 z"
       id="path976"
       inkscape:connector-curvature="0" />
    <path
       inkscape:connector-curvature="0"
       id="path978"
       d="m -303.94754,57.136236 0.74466,0.939304 0.24374,0.411113 z"
       style="fill:none;stroke:#000000;stroke-width:0.26458332px;stroke-linecap:butt;stroke-linejoin:miter;stroke-opacity:1"
       inkscape:transform-center-x="1.6539384"
       inkscape:transform-center-y="-0.24007767" />
    <path
       style="fill:#ff1900;fill-opacity:1;stroke:none;stroke-width:0.26458332px;stroke-linecap:butt;stroke-linejoin:miter;stroke-opacity:1"
       d="m -296.33936,200.85938 c 1.82717,-0.0498 2.63931,1.65064 2.81052,4.45621 l -2.68726,2.03943 c -0.355,-1.31947 -1.013,-1.70518 -1.65535,-2.13909 0.70897,-1.32488 1.71087,-2.4617 1.53209,-4.35655 z"
       id="path982"
       inkscape:connector-curvature="0"
       sodipodi:nodetypes="ccccc" />
    <path
       style="opacity:0.26000001;fill:#2f2f2f;fill-opacity:1;stroke:none;stroke-width:0.26458332px;stroke-linecap:butt;stroke-linejoin:miter;stroke-opacity:1"
       d="m -286.75053,209.53779 c -2.10492,-1.78601 -4.21434,-2.40575 -6.32481,-2.74803 -0.32465,0.25403 -0.89712,-0.25569 -0.95478,0.82113 1.21805,2.1342 3.05006,3.51155 4.57514,5.26727 2.61213,-0.80106 2.70109,-2.0629 2.70445,-3.34037"
       id="path988"
       inkscape:connector-curvature="0"
       sodipodi:nodetypes="ccccc" />
    <path
       style="fill:none;stroke:#ffffff;stroke-width:0.26458332px;stroke-linecap:butt;stroke-linejoin:miter;stroke-opacity:1"
       d="m -290.01115,212.378 0.68833,-3.64946 -2.55349,1.41417 0.17763,-2.87396 -1.70972,1.04922"
       id="path990"
       inkscape:connector-curvature="0" />
    <path
       style="fill:none;stroke:#ffffff;stroke-width:0.26458332px;stroke-linecap:butt;stroke-linejoin:miter;stroke-opacity:1"
       d="m -293.07534,206.78976 3.62036,6.0884"
       id="path992"
       inkscape:connector-curvature="0" />
    <g
       aria-label="Nike"
       style="font-style:normal;font-variant:normal;font-weight:normal;font-stretch:normal;font-size:2.28011441px;line-height:1.25;font-family:'Magic Dreams';-inkscape-font-specification:'Magic Dreams';letter-spacing:0px;word-spacing:0px;fill:#000000;fill-opacity:1;stroke:none;stroke-width:0.26458332"
       id="text1032" />
    <path
       style="fill:#ffffff;fill-opacity:1;stroke:#000000;stroke-width:0.26458332px;stroke-linecap:butt;stroke-linejoin:miter;stroke-opacity:1"
       d="m -321.59033,45.645392 3.06712,-2.375074 c -0.6208,-2.836019 -6.63137,-2.545968 -3.06712,2.375074 z"
       id="path1184"
       inkscape:connector-curvature="0"
       sodipodi:nodetypes="ccc" />
    <text
       transform="matrix(0.55727734,-0.89136541,-0.62490973,-0.7948952,0,0)"
       id="text1192"
       y="150.70319"
       x="-364.15054"
       style="font-style:normal;font-variant:normal;font-weight:normal;font-stretch:normal;font-size:2.1313839px;line-height:1.25;font-family:'Magic Dreams';-inkscape-font-specification:'Magic Dreams';letter-spacing:0px;word-spacing:0px;fill:#ffffff;fill-opacity:1;stroke:none;stroke-width:0.26458332"
       xml:space="preserve"><tspan
         style="fill:#ffffff;fill-opacity:1;stroke-width:0.26458332"
         y="150.70319"
         x="-364.15054"
         id="tspan1190"
         sodipodi:role="line">Nike</tspan></text>
    <g
       id="g1526"
       transform="matrix(0.26458333,0,0,0.26458333,-85.865937,-105.839)">
      <ellipse
         id="ellipse1393"
         ry="18.74165"
         rx="144.42094"
         cy="636.31958"
         cx="728.74664"
         style="fill:#e6e6e6" />
      <path
         id="path1395"
         transform="translate(-156.67339,-122.4694)"
         d="m 893.38619,693.534 c 0,0 7.76033,26.73 12.93388,33.6281 5.17355,6.8981 9.48485,18.10744 6.89807,19.832 -2.58678,1.72456 -7.76033,22.41873 -0.86226,23.281 6.89807,0.86227 22.41873,-22.41873 23.281,-30.17906 0.86227,-7.76033 4.3113,-35.35262 4.3113,-35.35262 0,0 6.03581,-24.14325 -3.449,-25.86777 -9.48481,-1.72452 -24.14325,-2.58677 -24.14325,-2.58677 z"
         inkscape:connector-curvature="0"
         style="fill:#2f2e41" />
      <path
         id="path1397"
         transform="translate(-156.67339,-122.4694)"
         d="m 857.17131,721.98854 c 0,0 -11.20937,29.3168 -13.79614,31.04132 -2.58677,1.72452 -12.07163,17.24514 6.89807,17.24514 18.9697,0 29.3168,-5.17355 29.3168,-5.17355 l 6.03581,-6.89807 c 0,0 0,-18.10744 -1.72451,-20.69422 -1.72451,-2.58678 0,-15.52066 0,-15.52066 z"
         inkscape:connector-curvature="0"
         style="fill:#2f2e41" />
      <path
         id="path1399"
         transform="translate(-156.67339,-122.4694)"
         d="m 780.43026,453.826 c 0,0 -13.79614,93.124 -1.72451,123.303 12.07163,30.179 24.14325,38.80169 24.14325,38.80169 l 91.39944,85.36363 c 0,0 28.45455,-14.6584 25.86777,-24.14325 0,0 -6.03581,-3.449 -6.89807,-6.03581 -0.86226,-2.58681 -12.07162,-3.449 -12.07162,-3.449 0,0 -5.17356,-6.03582 -5.17356,-9.48485 0,-3.44903 -44.83746,-64.66941 -59.49586,-68.98075 0,0 -7.76034,-9.48485 -6.89808,-11.20936 0.86226,-1.72451 -2.58677,-7.76033 -2.58677,-7.76033 l 8.62259,-33.6281 54.32231,-8.62259 c 0,0 22.41873,-79.32783 3.449,-85.36364 C 874.41642,436.58083 780.43026,453.826 780.43026,453.826 Z"
         inkscape:connector-curvature="0"
         style="fill:#2f2e41" />
      <path
         id="path1401"
         transform="translate(-156.67339,-122.4694)"
         d="m 888.21263,514.18413 1.72452,13.79615 c 0,0 0,36.21487 -1.72452,39.66391 -1.72452,3.44904 -2.58678,8.62259 0,12.07162 2.58678,3.44903 6.89807,12.07163 5.17356,15.52066 -1.72451,3.44903 3.449,100.8843 -3.449,107.78237 -6.898,6.89807 -4.3113,15.52066 -3.449,16.38292 0.8623,0.86226 -0.86226,4.3113 -0.86226,4.3113 0,0 -35.35261,6.03581 -32.76583,0 2.58678,-6.03581 2.58677,-9.48485 4.31129,-11.20937 1.72452,-1.72452 0,-4.31129 0,-4.31129 0,0 2.58678,-27.59229 0,-29.31681 -2.58678,-1.72452 -10.34719,-84.50137 -10.34719,-85.36359 0,-0.86222 -2.58677,-2.58678 -2.58677,-6.03582 0,-3.44904 0,-14.6584 -4.3113,-16.38292 -4.3113,-1.72452 -3.449,-43.9752 -3.449,-43.9752 z"
         inkscape:connector-curvature="0"
         style="fill:#2f2e41" />
      <path
         id="path1403"
         transform="translate(-156.67339,-122.4694)"
         d="m 826.99225,206.35769 c 0,0 3.449,25.86777 13.79614,31.04132 10.34714,5.17355 17.24518,7.76033 17.24518,7.76033 l -8.62257,30.17907 -3.449,25.86777 h -39.664 l -21.55644,-17.24518 6.89807,-28.45455 3.449,-5.17355 c 0,0 4.31129,-18.9697 0.86225,-25.00551 -3.44904,-6.03581 31.04137,-18.9697 31.04137,-18.9697 z"
         inkscape:connector-curvature="0"
         style="fill:#ffb9b9" />
      <path
         id="path1405"
         transform="translate(-156.67339,-122.4694)"
         d="m 809.74707,269.30259 6.03581,11.20937 c 0,0 4.3113,-15.52066 10.34711,-18.10744 6.03581,-2.58678 20.69421,-6.89807 20.69421,-10.3471 0,-3.44903 -0.86226,-12.07163 2.58678,-12.07163 3.44904,0 37.07713,10.34711 42.25069,13.79614 5.17356,3.44903 6.03581,6.89807 6.03581,6.89807 l -9.48485,99.15978 c 0,0 13.79614,46.562 9.48485,64.66942 -4.31129,18.10742 -7.76033,20.69422 -18.10744,23.281 -10.34711,2.58678 -4.31129,-6.03582 -34.49036,2.58677 -30.17907,8.62259 -49.14876,6.03581 -56.04683,6.03581 -6.89807,0 -11.20936,3.449 -12.93388,4.3113 -1.72452,0.8623 -0.86226,-4.3113 5.17355,-12.07163 6.03581,-7.76033 3.449,-20.69421 3.449,-20.69421 0,0 -6.89807,-22.41873 -2.58678,-31.04132 4.31129,-8.62259 10.34711,-19.832 5.17356,-23.281 -5.17355,-3.449 -12.07163,-29.31681 -12.07163,-29.31681 l -18.9697,-67.2562 38.80166,-26.73 c 0,0 -1.72452,12.07162 4.31129,14.6584 6.03581,2.58678 10.34715,4.31128 10.34715,4.31128 z"
         inkscape:connector-curvature="0"
         style="fill:#575a89" />
      <path
         id="path1407"
         transform="translate(-156.67339,-122.4694)"
         d="M 761.46057,276.20067 H 756.287 c 0,0 -8.62259,14.6584 -8.62259,25.00551 0,10.34711 4.3113,68.98071 4.3113,68.98071 l 25.00551,25.86777 6.03581,-19.832 1.72452,-43.9752 z"
         inkscape:connector-curvature="0"
         style="fill:#575a89" />
      <path
         id="path1409"
         transform="translate(-156.67339,-122.4694)"
         d="m 775.25671,367.60011 c 0,0 -28.45454,-7.76033 -27.59229,4.3113 0.86225,12.07163 5.17356,26.73 18.9697,30.17906 13.79614,3.44906 18.10744,-15.52066 18.10744,-15.52066 0,0 1.72452,-17.24518 -9.48485,-18.9697 z"
         inkscape:connector-curvature="0"
         style="fill:#575a89" />
      <path
         id="path1411"
         transform="translate(-156.67339,-122.4694)"
         d="m 882.17682,407.264 c 0,0 -1.72452,39.66391 -12.07163,43.9752 l 25.00551,6.0358 c 0,0 12.07163,-41.38843 10.34711,-43.11294 -1.72452,-1.72451 -23.28099,-6.89806 -23.28099,-6.89806 z"
         inkscape:connector-curvature="0"
         style="fill:#ffb9b9" />
      <path
         id="path1413"
         transform="rotate(-23.59797,379.45197,658.22686)"
         d="m 742.84892,321.36239 h 16.15939 a 2.27559,2.27559 0 0 1 2.27559,2.27559 v 41.12367 a 2.77953,2.77953 0 0 1 -2.77953,2.77953 h -15.15151 a 2.77953,2.77953 0 0 1 -2.77953,-2.77953 V 323.638 a 2.27559,2.27559 0 0 1 2.27559,-2.27561 z"
         inkscape:connector-curvature="0"
         style="fill:#2f2e41" />
      <path
         id="path1415"
         transform="rotate(-23.59797,379.45197,658.22686)"
         d="m 742.84892,321.36239 h 16.15939 a 2.27559,2.27559 0 0 1 2.27559,2.27559 v 41.12367 a 2.77953,2.77953 0 0 1 -2.77953,2.77953 h -15.15151 a 2.77953,2.77953 0 0 1 -2.77953,-2.77953 V 323.638 a 2.27559,2.27559 0 0 1 2.27559,-2.27561 z"
         inkscape:connector-curvature="0"
         style="opacity:0.1" />
      <path
         id="path1417"
         transform="rotate(-23.59797,378.92316,659.60317)"
         d="M 743.35566,323.7882 H 757.444 a 2.27559,2.27559 0 0 1 2.27559,2.27559 v 39.02463 a 2.77953,2.77953 0 0 1 -2.77953,2.77953 h -13.08047 a 2.77953,2.77953 0 0 1 -2.77953,-2.77953 v -39.02463 a 2.27559,2.27559 0 0 1 2.27559,-2.27559 z"
         inkscape:connector-curvature="0"
         style="fill:#2f2e41" />
      <ellipse
         id="ellipse1419"
         transform="rotate(-23.59795,373.83748,653.63401)"
         ry="4.19807"
         rx="4.1421099"
         cy="339.85855"
         cx="745.31421"
         style="fill:#f2f2f2" />
      <path
         id="path1421"
         transform="translate(-156.67339,-122.4694)"
         d="m 888.64376,272.3205 5.60468,-8.19146 c 0,0 20.69422,31.90358 18.9697,53.46006 -1.72452,21.55648 -3.449,22.41873 -3.449,25.86776 0,3.44903 -4.3113,3.449 0,7.76033 4.3113,4.31133 10.3471,10.34711 6.89807,13.79615 -3.44903,3.44904 -6.03582,3.449 -5.17356,7.76033 a 57.01221,57.01221 0 0 1 0.86226,9.48485 c 0,0 -7.3292,14.22727 -9.916,14.22727 -2.5868,0 -27.16115,22.84986 -27.16115,20.26308 0,-2.58678 2.58677,-20.69421 2.58677,-23.281 0,-2.58679 0.86226,-11.20936 2.58678,-13.79614 1.72452,-2.58678 1.72452,-1.72452 0,-4.3113 -1.72452,-2.58678 -1.72452,0 -1.72452,-2.58677 0,-2.58677 0.86226,-6.03582 -1.72451,-6.89807 -2.58677,-0.86225 -5.17356,0 -3.449,-4.3113 1.72456,-4.3113 0,-7.76033 -0.86226,-7.76033 -0.86226,0 -5.17355,-0.86226 -2.58678,-3.449 2.58677,-2.58674 -5.17355,-52.59779 -5.17355,-52.59779 0,0 1.29331,-12.50279 23.71207,-25.43667 z"
         inkscape:connector-curvature="0"
         style="opacity:0.1" />
      <path
         id="path1423"
         transform="translate(-156.67339,-122.4694)"
         d="m 883.90134,253.78193 14.6584,6.89807 c 0,0 20.69421,31.90359 18.9697,53.46006 -1.72451,21.55647 -3.449,22.41873 -3.449,25.86777 0,3.44904 -4.31129,3.449 0,7.76033 4.31129,4.31133 10.34711,10.34711 6.89807,13.79614 -3.44904,3.44903 -6.03581,3.449 -5.17355,7.76033 a 57.01228,57.01228 0 0 1 0.86226,9.48485 c 0,0 -7.76033,41.38843 -10.34711,41.38843 -2.58678,0 -26.73,-4.3113 -26.73,-6.89807 0,-2.58677 2.58678,-20.69422 2.58678,-23.281 0,-2.58678 0.86226,-11.20937 2.58678,-13.79615 1.72452,-2.58678 1.72451,-1.72451 0,-4.31129 -1.72451,-2.58678 -1.72452,0 -1.72452,-2.58678 0,-2.58678 0.86226,-6.03581 -1.72452,-6.89807 -2.58678,-0.86226 -5.17355,0 -3.449,-4.31129 1.72455,-4.31129 0,-7.76034 -0.86225,-7.76034 -0.86225,0 -5.17356,-0.86225 -2.58678,-3.449 2.58678,-2.58675 -5.17355,-52.5978 -5.17355,-52.5978 0,0 -7.76045,-27.5923 14.65829,-40.52619 z"
         inkscape:connector-curvature="0"
         style="fill:#575a89" />
      <path
         id="path1425"
         transform="translate(-156.67339,-122.4694)"
         d="m 753.06237,373.7584 a 3.61426,3.61426 0 0 1 -4.157,-1.87589 c -3.96236,-7.92253 -14.69832,-31.1598 -4.69,-31.87468 9.233,-0.6595 17.45712,17.34444 20.8144,25.84817 a 4.10765,4.10765 0 0 1 -2.77644,5.48373 z"
         inkscape:connector-curvature="0"
         style="fill:#ffb9b9" />
      <circle
         id="circle1427"
         r="31.90358"
         cy="76.12796"
         cx="646.1756"
         style="fill:#ffb9b9" />
      <path
         id="path1429"
         transform="translate(-156.67339,-122.4694)"
         d="m 791.12583,180.2234 a 62.85212,62.85212 0 0 1 -12.26475,2.8953 c -3.14212,0.49024 -6.8191,0.74125 -9.02744,-1.54708 -2.16719,-2.2457 -1.81659,-5.99168 -0.33836,-8.74028 1.47823,-2.7486 3.84626,-4.90348 5.62269,-7.46945 2.79389,-4.03564 4.44281,-9.38581 8.91037,-11.41883 a 16.3903,16.3903 0 0 1 5.79859,-1.08311 c 11.59287,-0.73911 23.65963,-1.405 34.3956,3.03117 a 25.316,25.316 0 0 1 10.382,7.38693 27.56767,27.56767 0 0 1 4.14985,8.04652 52.51278,52.51278 0 0 1 -9.44766,50.42489 c -3.91263,-3.52517 -2.211,-11.67073 -7.16171,-13.467 -1.62421,-0.58931 -3.46031,-0.17922 -5.124,-0.64571 -5.22862,-1.4661 -4.966,-9.54653 -9.31879,-12.79321 a 8.31294,8.31294 0 0 1 -2.47865,-2.0369 5.06592,5.06592 0 0 1 -0.48223,-2.56887 c -0.0318,-3.0271 1.39012,-10.71635 -1.49749,-12.79123 -2.93931,-2.112 -9.29367,1.75696 -12.11802,2.77686 z"
         inkscape:connector-curvature="0"
         style="fill:#2f2e41" />
      <path
         id="path1431"
         transform="translate(-156.67339,-122.4694)"
         d="m 773.75827,702.74794 c 0,0 -2.34533,-50.44293 -50.42446,-44.57962"
         inkscape:connector-curvature="0"
         style="fill:#e6e6e6" />
      <path
         id="path1433"
         transform="translate(-156.67339,-122.4694)"
         d="m 976.48488,584.61844 c 0,0 2.34533,-50.44293 50.42442,-44.57962"
         inkscape:connector-curvature="0"
         style="fill:#e6e6e6" />
      <path
         id="path1435"
         transform="translate(-156.67339,-122.4694)"
         d="m 975.49127,745.54612 c -0.0606,-0.53125 -5.77149,-53.42871 17.35254,-81.42286 8.53419,-10.332 19.96969,-16.11816 33.98829,-17.19628 l 0.1543,1.99414 c -13.4551,1.03515 -24.4229,6.57714 -32.59767,16.47168 -22.583,27.335 -16.96973,79.40429 -16.91113,79.92675 z"
         inkscape:connector-curvature="0"
         style="fill:#e6e6e6" />
      <polygon
         id="polygon1437"
         points="440.354,296.824 440.354,330.021 407.157,296.824 68.348,296.824 68.348,169.893 455,169.893 455,296.824 "
         style="fill:#e6e6e6" />
      <rect
         id="rect1439"
         height="101.54506"
         width="365.17166"
         y="182.25349"
         x="79.087982"
         style="fill:#ffffff" />
      <rect
         id="rect1441"
         height="5.3357201"
         width="175.8208"
         y="211.90022"
         x="108.45338"
         style="fill:#f9a826" />
      <rect
         id="rect1443"
         height="5.3357201"
         width="306.44089"
         y="230.35817"
         x="108.45338"
         style="fill:#e6e6e6" />
      <rect
         id="rect1445"
         height="5.3357201"
         width="306.14081"
         y="248.81612"
         x="108.45338"
         style="fill:#e6e6e6" />
      <polygon
         id="polygon1447"
         points="14.646,466.717 14.646,499.914 47.843,466.717 386.652,466.717 386.652,339.785 0,339.785 0,466.717 "
         style="fill:#e6e6e6" />
      <rect
         id="rect1449"
         height="101.54506"
         width="365.17166"
         y="352.14621"
         x="10.74034"
         style="fill:#ffffff" />
      <rect
         id="rect1451"
         height="5.3357201"
         width="175.8208"
         y="382.76932"
         x="43.034931"
         style="fill:#f9a826" />
      <rect
         id="rect1453"
         height="5.3357201"
         width="306.44089"
         y="401.22726"
         x="43.034931"
         style="fill:#e6e6e6" />
      <rect
         id="rect1455"
         height="5.3357201"
         width="306.14081"
         y="419.68521"
         x="43.034931"
         style="fill:#e6e6e6" />
      <polygon
         id="polygon1457"
         points="14.646,126.931 14.646,160.129 47.843,126.931 386.652,126.931 386.652,0 0,0 0,126.931 "
         style="fill:#e6e6e6" />
      <rect
         id="rect1459"
         height="101.54506"
         width="365.17166"
         y="12.36079"
         x="10.74034"
         style="fill:#ffffff" />
      <rect
         id="rect1461"
         height="5.3357201"
         width="175.8208"
         y="42.983921"
         x="43.034931"
         style="fill:#f9a826" />
      <rect
         id="rect1463"
         height="5.3357201"
         width="306.44089"
         y="61.44186"
         x="43.034931"
         style="fill:#e6e6e6" />
      <rect
         id="rect1465"
         height="5.3357201"
         width="306.14081"
         y="79.899803"
         x="43.034931"
         style="fill:#e6e6e6" />
      <rect
         id="rect1467"
         height="110"
         width="2"
         y="521.57379"
         x="615.3042"
         style="fill:#e6e6e6" />
      <rect
         id="rect1469"
         height="221"
         width="2"
         y="410.57379"
         x="817.3042"
         style="fill:#e6e6e6" />
      <circle
         id="circle1471"
         r="16.417271"
         cy="508.72769"
         cx="617.0849"
         style="fill:#f9a826" />
      <circle
         id="circle1473"
         r="16.417271"
         cy="395.28885"
         cx="819.81146"
         style="fill:#f9a826" />
      <circle
         id="circle1475"
         r="16.417271"
         cy="525.45435"
         cx="870.23596"
         style="fill:#e6e6e6" />
    </g>
    <path
       sodipodi:nodetypes="ccc"
       inkscape:connector-curvature="0"
       id="path1528"
       d="m -321.12942,44.660833 1.61828,-1.250811 c -0.32755,-1.493564 -3.49885,-1.340812 -1.61828,1.250811 z"
       style="fill:#575a89;fill-opacity:1;stroke:none;stroke-width:0.26458332px;stroke-linecap:butt;stroke-linejoin:miter;stroke-opacity:1" />
    <path
       style="fill:none;stroke:#575a89;stroke-width:2.64583334;stroke-linecap:butt;stroke-linejoin:miter;stroke-opacity:1;stroke-miterlimit:4;stroke-dasharray:63.50000017,63.50000017;stroke-dashoffset:0"
       d="m -334.84888,141.1634 5.59413,21.57737 2.19771,42.95496"
       id="path2240"
       inkscape:connector-curvature="0" />
    <path
       style="fill:none;stroke:#575a89;stroke-width:2.64583334;stroke-linecap:butt;stroke-linejoin:miter;stroke-miterlimit:4;stroke-dasharray:31.75000008,2.64583334;stroke-dashoffset:0;stroke-opacity:1"
       d="m -331.78542,47.66843 c 5.03599,-11.68977 9.72055,-28.457093 29.58517,-15.335621"
       id="path2242"
       inkscape:connector-curvature="0"
       sodipodi:nodetypes="cc" />
    <path
       style="fill:none;stroke:#575a89;stroke-width:2.64583334;stroke-linecap:butt;stroke-linejoin:miter;stroke-opacity:1;stroke-miterlimit:4;stroke-dasharray:none;stroke-dashoffset:0"
       d="m -299.08637,59.648878 c 16.50182,3.921625 19.18428,43.186002 18.18095,58.738402"
       id="path2244"
       inkscape:connector-curvature="0"
       sodipodi:nodetypes="cc" />
    <path
       style="fill:none;stroke:#575a89;stroke-width:2.64583334;stroke-linecap:butt;stroke-linejoin:miter;stroke-opacity:1;stroke-miterlimit:4;stroke-dasharray:63.50000017,63.50000017;stroke-dashoffset:0"
       d="m -281.10524,134.17073 c 5.40686,22.41296 -3.8706,41.15484 -8.19139,61.13589"
       id="path2246"
       inkscape:connector-curvature="0"
       sodipodi:nodetypes="cc" />
    <path
       style="opacity:0.20400002;fill:#fbfbfb;fill-opacity:1;stroke:none;stroke-width:0.26458332px;stroke-linecap:butt;stroke-linejoin:miter;stroke-opacity:1"
       d="m -294.82904,208.31255 c 1.22939,2.22441 3.04738,3.09016 4.8179,4.06545 1.48696,-0.0799 3.29604,0.53816 3.26062,-2.84021 4.18271,2.60542 -2.44563,-1.52338 -6.77831,-4.2222 -1.96899,0.58939 -4.67115,0.98323 -1.30021,2.99696 z"
       id="path2248"
       inkscape:connector-curvature="0"
       sodipodi:nodetypes="ccccc" />
    <circle
       style="opacity:0.47999998;vector-effect:none;fill:#ff2a2a;fill-opacity:1;fill-rule:evenodd;stroke:#000000;stroke-width:0.40000001;stroke-linecap:butt;stroke-linejoin:round;stroke-miterlimit:4;stroke-dasharray:none;stroke-dashoffset:0;stroke-opacity:1;paint-order:normal"
       id="path967"
       cx="-411.9527"
       cy="99.217491"
       r="18.082972" />
    <circle
       r="18.082972"
       cy="159.11734"
       cx="-378.04712"
       id="circle969"
       style="opacity:1;vector-effect:none;fill:#575a89;fill-opacity:1;fill-rule:evenodd;stroke:none;stroke-width:0.40000001;stroke-linecap:butt;stroke-linejoin:round;stroke-miterlimit:4;stroke-dasharray:none;stroke-dashoffset:0;stroke-opacity:1;paint-order:normal" />
    <circle
       style="opacity:0.47999998;vector-effect:none;fill:#ff2a2a;fill-opacity:1;fill-rule:evenodd;stroke:#000000;stroke-width:0.40000001;stroke-linecap:butt;stroke-linejoin:round;stroke-miterlimit:4;stroke-dasharray:none;stroke-dashoffset:0;stroke-opacity:1;paint-order:normal"
       id="circle971"
       cx="-257.11725"
       cy="56.270439"
       r="18.082972" />
    <circle
       r="18.082972"
       cy="129.16742"
       cx="-226.60222"
       id="circle973"
       style="opacity:0.47999998;vector-effect:none;fill:#575a89;fill-opacity:1;fill-rule:evenodd;stroke:#000000;stroke-width:0.40000001;stroke-linecap:butt;stroke-linejoin:round;stroke-miterlimit:4;stroke-dasharray:none;stroke-dashoffset:0;stroke-opacity:1;paint-order:normal" />
    <circle
       style="opacity:0.47999998;vector-effect:none;fill:#ff2a2a;fill-opacity:1;fill-rule:evenodd;stroke:#000000;stroke-width:0.40000001;stroke-linecap:butt;stroke-linejoin:round;stroke-miterlimit:4;stroke-dasharray:none;stroke-dashoffset:0;stroke-opacity:1;paint-order:normal"
       id="circle975"
       cx="-396.69519"
       cy="16.148846"
       r="18.082972" />
    <circle
       r="18.082972"
       cy="178.33051"
       cx="-161.61658"
       id="circle977"
       style="opacity:0.47999998;vector-effect:none;fill:#2f2e41;fill-opacity:1;fill-rule:evenodd;stroke:#000000;stroke-width:0.40000001;stroke-linecap:butt;stroke-linejoin:round;stroke-miterlimit:4;stroke-dasharray:none;stroke-dashoffset:0;stroke-opacity:1;paint-order:normal" />
    <circle
       style="opacity:0.47999998;vector-effect:none;fill:#ff2a2a;fill-opacity:1;fill-rule:evenodd;stroke:#000000;stroke-width:0.40000001;stroke-linecap:butt;stroke-linejoin:round;stroke-miterlimit:4;stroke-dasharray:none;stroke-dashoffset:0;stroke-opacity:1;paint-order:normal"
       id="circle979"
       cx="-175.17877"
       cy="69.267578"
       r="18.082972" />
  </g>
</svg>
