<?xml version="1.0" encoding="UTF-8" standalone="no"?>
<!-- Created with Inkscape (http://www.inkscape.org/) -->

<svg
   xmlns:dc="http://purl.org/dc/elements/1.1/"
   xmlns:cc="http://creativecommons.org/ns#"
   xmlns:rdf="http://www.w3.org/1999/02/22-rdf-syntax-ns#"
   xmlns:svg="http://www.w3.org/2000/svg"
   xmlns="http://www.w3.org/2000/svg"
   xmlns:xlink="http://www.w3.org/1999/xlink"
   xmlns:sodipodi="http://sodipodi.sourceforge.net/DTD/sodipodi-0.dtd"
   xmlns:inkscape="http://www.inkscape.org/namespaces/inkscape"
   width="1000"
   height="1000"
   viewBox="0 0 264.58333 264.58334"
   version="1.1"
   id="svg858"
   inkscape:export-filename="C:\Users\TRIBY\Desktop\4th sem\hjlf3g.png"
   inkscape:export-xdpi="300"
   inkscape:export-ydpi="300"
   inkscape:version="0.92.4 (5da689c313, 2019-01-14)"
   sodipodi:docname="canvan.svg">
  <defs
     id="defs852">
    <linearGradient
       inkscape:collect="always"
       id="linearGradient2942">
      <stop
         style="stop-color:#ff5259;stop-opacity:1;"
         offset="0"
         id="stop2938" />
      <stop
         style="stop-color:#ff9652;stop-opacity:1"
         offset="1"
         id="stop2940" />
    </linearGradient>
    <linearGradient
       inkscape:collect="always"
       id="linearGradient2926">
      <stop
         style="stop-color:#533672;stop-opacity:1;"
         offset="0"
         id="stop2922" />
      <stop
         style="stop-color:#533672;stop-opacity:0;"
         offset="1"
         id="stop2924" />
    </linearGradient>
    <linearGradient
       inkscape:collect="always"
       id="linearGradient2881-8">
      <stop
         style="stop-color:#cf8aff;stop-opacity:1;"
         offset="0"
         id="stop2877" />
      <stop
         style="stop-color:#cf8aff;stop-opacity:0;"
         offset="1"
         id="stop2879" />
    </linearGradient>
    <linearGradient
       inkscape:collect="always"
       xlink:href="#linearGradient2881-8"
       id="linearGradient2883"
       x1="125.15625"
       y1="109.80469"
       x2="1.4277344"
       y2="-1.4277344"
       gradientUnits="userSpaceOnUse" />
    <linearGradient
       inkscape:collect="always"
       xlink:href="#linearGradient2881-8"
       id="linearGradient2896"
       x1="845.81854"
       y1="956.39343"
       x2="1010"
       y2="956.39343"
       gradientUnits="userSpaceOnUse" />
    <linearGradient
       inkscape:collect="always"
       xlink:href="#linearGradient2881-8"
       id="linearGradient2904"
       x1="208.09233"
       y1="268.28958"
       x2="217.02559"
       y2="268.28958"
       gradientUnits="userSpaceOnUse" />
    <linearGradient
       inkscape:collect="always"
       xlink:href="#linearGradient2881-8"
       id="linearGradient2912"
       x1="0.37775472"
       y1="275.35367"
       x2="0.37775472"
       y2="263.53864"
       gradientUnits="userSpaceOnUse" />
    <linearGradient
       inkscape:collect="always"
       xlink:href="#linearGradient2926"
       id="linearGradient2928"
       x1="861.53142"
       y1="987.82213"
       x2="944.61523"
       y2="987.82213"
       gradientUnits="userSpaceOnUse" />
    <linearGradient
       inkscape:collect="always"
       xlink:href="#linearGradient2942"
       id="linearGradient2944"
       x1="-6.4114985"
       y1="156.99542"
       x2="66.59948"
       y2="156.99542"
       gradientUnits="userSpaceOnUse" />
    <linearGradient
       inkscape:collect="always"
       xlink:href="#linearGradient2942"
       id="linearGradient2960"
       x1="1.4277344"
       y1="521.51062"
       x2="59.942722"
       y2="521.51062"
       gradientUnits="userSpaceOnUse" />
    <linearGradient
       inkscape:collect="always"
       xlink:href="#linearGradient2942"
       id="linearGradient2968"
       x1="919.82336"
       y1="51.959412"
       x2="1010"
       y2="51.959412"
       gradientUnits="userSpaceOnUse" />
  </defs>
  <sodipodi:namedview
     id="base"
     pagecolor="#ffffff"
     bordercolor="#666666"
     borderopacity="1.0"
     inkscape:pageopacity="0"
     inkscape:pageshadow="2"
     inkscape:zoom="0.175"
     inkscape:cx="2093.1551"
     inkscape:cy="584.55017"
     inkscape:document-units="px"
     inkscape:current-layer="layer1"
     showgrid="false"
     units="px"
     showguides="false"
     inkscape:window-width="1920"
     inkscape:window-height="1001"
     inkscape:window-x="-9"
     inkscape:window-y="-9"
     inkscape:window-maximized="1" />
  <metadata
     id="metadata855">
    <rdf:RDF>
      <cc:Work
         rdf:about="">
        <dc:format>image/svg+xml</dc:format>
        <dc:type
           rdf:resource="http://purl.org/dc/dcmitype/StillImage" />
        <dc:title />
      </cc:Work>
    </rdf:RDF>
  </metadata>
  <g
     inkscape:label="Layer 1"
     inkscape:groupmode="layer"
     id="layer1"
     transform="translate(0,-32.41665)">
    <rect
       style="opacity:1;fill:#5d306b;fill-opacity:1;stroke:none;stroke-width:1;stroke-linecap:butt;stroke-linejoin:bevel;stroke-miterlimit:4;stroke-dasharray:2.99999995, 0.99999998999999995;stroke-dashoffset:0;stroke-opacity:1;paint-order:normal"
       id="rect2791"
       width="266.8512"
       height="266.47321"
       x="0.37797835"
       y="32.038673"
       ry="0"
       inkscape:export-xdpi="300"
       inkscape:export-ydpi="300" />
    <g
       id="g1522"
       transform="matrix(0.0737858,0,0,0.0737858,115.8442,181.18791)"
       style="stroke-width:4.77177238"
       inkscape:export-xdpi="300"
       inkscape:export-ydpi="300">
      <path
         id="path1403"
         d="m 512,255.10547 c 0,81.50781 -38.29688,154.05469 -97.875,200.66015 h -0.008 c -43.21094,33.8086 -97.61328,53.94532 -156.72266,53.94532 -35.42969,0 -69.16015,-7.23047 -99.80859,-20.30469 -19.78516,-8.4375 -38.28125,-19.30859 -55.11719,-32.25781 -0.60547,-0.45703 -1.20703,-0.92578 -1.80859,-1.39063 C 85.402344,443.81641 71.53125,430.17187 59.351562,415.11328 54.375,408.97266 49.675781,402.58203 45.28125,395.97266 18.425781,355.62891 2.785156,307.19141 2.785156,255.10547 2.785156,114.49219 116.77734,0.5 257.39453,0.5 398.00781,0.5 512,114.49219 512,255.10547 Z m 0,0"
         inkscape:connector-curvature="0"
         style="fill:#533672;fill-opacity:1;stroke-width:4.77177238" />
      <path
         id="path1405"
         d="m 72.714844,1.960938 c -9.394532,-2.679688 -19.257813,2.054687 -23.042969,11.0625 -8.03125,19.125 -8.164063,41.464843 1.523437,61.640624 C 63.324219,99.925781 87.734375,115.30078 113.82813,117.10938 128.73437,95.613281 131.99609,66.953125 119.86719,41.6875 110.17969,21.515625 92.664062,7.648438 72.714844,1.960938 Z m 0,0"
         inkscape:connector-curvature="0"
         style="fill:#ffd073;stroke-width:4.77177238" />
      <path
         id="path1407"
         d="m 87.71875,47.996094 c -4.988281,-1.957032 -9.910156,0.40625 -11.503906,5.523437 -3.378906,10.863281 -2.519532,23.9375 3.34375,36.148438 7.34375,15.292971 20.648436,25.300781 34.269536,27.441411 6.84765,-11.96875 7.35546,-28.613286 0.0156,-43.906255 C 107.98047,60.996094 98.3125,52.152344 87.71875,47.996094 Z m 0,0"
         inkscape:connector-curvature="0"
         style="fill:#ff9c40;stroke-width:4.77177238" />
      <path
         id="path1409"
         d="m 0.746094,152.33984 c -2.679688,9.39453 2.054687,19.25782 11.0625,23.04297 19.128906,8.03125 41.46875,8.16406 61.640625,-1.52344 C 98.710938,161.72656 114.08594,137.32031 115.89453,111.22656 94.402344,96.320312 65.738281,93.054688 40.476562,105.1875 20.300781,114.875 6.433594,132.39062 0.746094,152.33984 Z m 0,0"
         inkscape:connector-curvature="0"
         style="fill:#ffd073;stroke-width:4.77177238" />
      <path
         id="path1411"
         d="m 46.78125,137.33203 c -1.957031,4.98828 0.40625,9.91406 5.523438,11.50391 10.867187,3.38281 23.9375,2.52343 36.148437,-3.33985 15.292965,-7.34375 25.300785,-20.64843 27.441405,-34.26953 -11.96484,-6.84765 -28.61328,-7.35547 -43.902342,-0.0156 C 59.78125,117.07422 50.9375,126.74219 46.78125,137.33203 Z m 0,0"
         inkscape:connector-curvature="0"
         style="fill:#ff9c40;stroke-width:4.77177238" />
      <path
         id="path1413"
         d="m 414.11719,455.76562 c -43.21094,33.8086 -97.61328,53.94532 -156.72266,53.94532 -35.42969,0 -69.16015,-7.23047 -99.80859,-20.30469 -20.49219,-8.73828 -39.61328,-20.08594 -56.92578,-33.64844 14.70312,-46.52734 56.44922,-81.05859 106.80859,-85.12109 3.30469,-0.27344 6.64063,-0.40625 10.01953,-0.40625 h 79.78125 c 9.43359,0 18.60938,1.05078 27.42188,3.0664 42.42187,9.70313 76.45703,41.41016 89.42578,82.46875 z m 0,0"
         inkscape:connector-curvature="0"
         style="fill:#151a1c;stroke-width:4.77177238" />
      <path
         id="path1415"
         d="m 414.11719,455.76562 c -43.21094,33.8086 -97.61328,53.94532 -156.72266,53.94532 -35.42969,0 -69.16015,-7.23047 -99.80859,-20.30469 0.21094,-7.52344 1.08203,-14.88281 2.58984,-22 3.49219,-16.67969 10.40235,-32.10156 19.94141,-45.52734 22.19922,-31.25782 58.70703,-51.64844 99.96093,-51.64844 h 17.19922 c 54.79688,0 101.16797,35.94531 116.83985,85.53515 z m 0,0"
         inkscape:connector-curvature="0"
         style="fill:#2f373b;stroke-width:4.77177238" />
      <path
         id="path1417"
         d="m 327.8125,374.05078 v 11.04688 c 0,38.88671 -31.52734,70.41406 -70.41797,70.41406 h -0.0117 c -30.625,0 -56.70312,-19.5625 -66.3789,-46.87891 -2.60938,-7.35937 -4.03516,-15.27344 -4.03516,-23.53515 v -11.03125 c 6.63281,-1.71094 13.48437,-2.86719 20.50781,-3.4336 3.3086,-0.26953 6.64453,-0.40234 10.02344,-0.40234 h 79.77734 c 9.4336,0 18.60938,1.05078 27.42578,3.0664 1.03516,0.24219 2.08594,0.48438 3.10938,0.75391 z m 0,0"
         inkscape:connector-curvature="0"
         style="fill:#e0916e;stroke-width:4.77177238" />
      <path
         id="path1419"
         d="m 280.08203,370.23047 c -35.08984,0 -66.73828,14.75781 -89.07812,38.40234 -2.60938,-7.36328 -4.03516,-15.27343 -4.03516,-23.53515 V 374.0625 c 6.63281,-1.70703 13.48437,-2.86328 20.50781,-3.42969 3.3086,-0.26953 6.64453,-0.40234 10.02344,-0.40234 z m 0,0"
         inkscape:connector-curvature="0"
         style="fill:#ad6042;stroke-width:4.77177238" />
      <path
         id="path1421"
         d="m 301.09766,323.03906 v 53.64063 c 0,19.63672 -12.94922,36.23828 -30.78516,41.75 -4.08203,1.26953 -8.43359,1.95312 -12.93359,1.95312 -24.14063,0 -43.70313,-19.5664 -43.70313,-43.70312 v -53.64063 z m 0,0"
         inkscape:connector-curvature="0"
         style="fill:#ad6042;stroke-width:4.77177238" />
      <path
         id="path1423"
         d="m 301.09766,373.28125 v 3.39844 c 0,19.63672 -12.94922,36.23828 -30.78516,41.75 -16.09375,-4.94532 -28.19141,-18.9375 -30.42969,-36.0586 2.92188,0.17969 5.85938,0.26953 8.8086,0.26953 8.26953,0 16.375,-0.65625 24.27343,-1.95312 9.73047,-1.56641 19.12891,-4.07031 28.13282,-7.40625 z m 0,0"
         inkscape:connector-curvature="0"
         style="fill:#e0916e;stroke-width:4.77177238" />
      <path
         id="path1425"
         d="m 137.48047,235.125 c 0,20.23437 -14.78125,37.01172 -34.13672,40.125 -2.11328,0.34375 -4.289062,0.52344 -6.511719,0.52344 -22.453125,0 -40.648437,-18.19532 -40.648437,-40.64844 0,-22.45703 18.195312,-40.64844 40.648437,-40.64844 2.222657,0 4.398439,0.17969 6.511719,0.51953 19.35547,3.11328 34.13672,19.89453 34.13672,40.12891 z m 0,0"
         inkscape:connector-curvature="0"
         style="fill:#e0916e;stroke-width:4.77177238" />
      <path
         id="path1427"
         d="m 137.48047,235.125 c 0,20.23437 -14.78125,37.01172 -34.13672,40.125 -3.515625,-12.78125 -5.390625,-26.23828 -5.390625,-40.125 0,-13.88672 1.875,-27.34375 5.390625,-40.12891 19.35547,3.11328 34.13672,19.89453 34.13672,40.12891 z m 0,0"
         inkscape:connector-curvature="0"
         style="fill:#ad6042;stroke-width:4.77177238" />
      <path
         id="path1429"
         d="m 111.36328,235.125 c 0,8.02344 -6.50781,14.52734 -14.531249,14.52734 -8.023437,0 -14.527343,-6.5039 -14.527343,-14.52734 0,-8.02344 6.503906,-14.52734 14.527343,-14.52734 8.023439,0 14.531249,6.5039 14.531249,14.52734 z m 0,0"
         inkscape:connector-curvature="0"
         style="fill:#ad6042;stroke-width:4.77177238" />
      <path
         id="path1431"
         d="m 377.28516,235.125 c 0,20.23437 14.78125,37.01172 34.13671,40.125 2.11719,0.34375 4.28907,0.52344 6.51172,0.52344 22.45703,0 40.64844,-18.19532 40.64844,-40.64844 0,-22.45703 -18.19141,-40.64844 -40.64844,-40.64844 -2.21875,0 -4.39453,0.17969 -6.51172,0.51953 -19.35546,3.11328 -34.13671,19.89453 -34.13671,40.12891 z m 0,0"
         inkscape:connector-curvature="0"
         style="fill:#e0916e;stroke-width:4.77177238" />
      <g
         id="g1439"
         style="fill:#ad6042;stroke-width:4.77177238">
        <path
           id="path1433"
           d="m 377.28516,235.125 c 0,20.23437 14.78125,37.01172 34.13671,40.125 3.51563,-12.78125 5.39454,-26.23828 5.39454,-40.125 0,-13.88672 -1.87891,-27.34375 -5.39454,-40.12891 -19.35546,3.11328 -34.13671,19.89453 -34.13671,40.12891 z m 0,0"
           inkscape:connector-curvature="0"
           style="stroke-width:4.77177238" />
        <path
           id="path1435"
           d="m 408.62109,155.93359 v 57.58985 c 0,75.25781 -54.98047,137.69531 -126.96875,149.27734 -0.24218,0.043 -0.49609,0.082 -0.73828,0.125 -7.65625,1.22266 -15.51562,1.82813 -23.53515,1.82813 -83.51953,0 -151.23047,-67.71094 -151.23047,-151.23047 v -57.58985 c 0,-17.58593 3,-34.48828 8.54687,-50.1914 C 135.375,46.886719 191.46094,4.691406 257.37891,4.691406 h 0.0156 c 8.00391,0 15.875,0.617188 23.54688,1.828125 72.33593,11.304688 127.67968,73.898438 127.67968,149.414059 z m 0,0"
           inkscape:connector-curvature="0"
           style="stroke-width:4.77177238" />
        <path
           id="path1437"
           d="m 432.46094,235.125 c 0,8.02344 -6.50391,14.52734 -14.52735,14.52734 -8.02343,0 -14.52734,-6.5039 -14.52734,-14.52734 0,-8.02344 6.50391,-14.52734 14.52734,-14.52734 8.02344,0 14.52735,6.5039 14.52735,14.52734 z m 0,0"
           inkscape:connector-curvature="0"
           style="stroke-width:4.77177238" />
      </g>
      <path
         id="path1441"
         d="m 408.62109,155.93359 v 57.58985 c 0,75.25781 -54.98047,137.6914 -126.96875,149.27734 -0.24218,0.043 -0.49609,0.082 -0.73828,0.1211 C 208.57422,351.62109 153.24609,289.02344 153.24609,213.52344 v -57.58985 c 0,-75.515621 55.34375,-138.109371 127.69532,-149.414059 72.33593,11.304688 127.67968,73.898438 127.67968,149.414059 z m 0,0"
         inkscape:connector-curvature="0"
         style="fill:#e0916e;stroke-width:4.77177238" />
      <path
         id="path1443"
         d="m 274.53516,247.91406 h -34.3125 c -4.08594,0 -7.39844,-3.3125 -7.39844,-7.39844 0,-4.08984 3.3125,-7.40234 7.39844,-7.40234 h 34.3125 c 4.08984,0 7.40234,3.3125 7.40234,7.40234 0,4.08594 -3.3125,7.39844 -7.40234,7.39844 z m 0,0"
         inkscape:connector-curvature="0"
         style="fill:#ad6042;stroke-width:4.77177238" />
      <path
         id="path1445"
         d="m 225.44141,199.32422 c 0,12.45312 -10.09766,22.55078 -22.55079,22.55078 -12.45703,0 -22.55078,-10.09766 -22.55078,-22.55078 0,-12.45703 10.09375,-22.55078 22.55078,-22.55078 12.45313,0 22.55079,10.09375 22.55079,22.55078 z m 0,0"
         inkscape:connector-curvature="0"
         style="fill:#151a1c;stroke-width:4.77177238" />
      <path
         id="path1447"
         d="m 220.84375,195.34375 c 0,5.33594 -4.32422,9.66406 -9.66406,9.66406 -5.33594,0 -9.66407,-4.32812 -9.66407,-9.66406 0,-5.33984 4.32813,-9.66406 9.66407,-9.66406 5.33984,0 9.66406,4.32422 9.66406,9.66406 z m 0,0"
         inkscape:connector-curvature="0"
         style="fill:#ffffff;stroke-width:4.77177238" />
      <path
         id="path1449"
         d="m 334.43359,199.32422 c 0,12.45312 -10.09765,22.55078 -22.55078,22.55078 -12.45703,0 -22.55078,-10.09766 -22.55078,-22.55078 0,-12.45703 10.09375,-22.55078 22.55078,-22.55078 12.45313,0 22.55078,10.09375 22.55078,22.55078 z m 0,0"
         inkscape:connector-curvature="0"
         style="fill:#151a1c;stroke-width:4.77177238" />
      <path
         id="path1451"
         d="m 330.94141,195.34375 c 0,5.33594 -4.32422,9.66406 -9.66407,9.66406 -5.33593,0 -9.66406,-4.32812 -9.66406,-9.66406 0,-5.33984 4.32813,-9.66406 9.66406,-9.66406 5.33985,0 9.66407,4.32422 9.66407,9.66406 z m 0,0"
         inkscape:connector-curvature="0"
         style="fill:#ffffff;stroke-width:4.77177238" />
      <path
         id="path1453"
         d="m 420.91406,108.20313 v 57.03515 c 0,4.4375 -1.25,8.58203 -3.39844,12.11719 -4.08593,6.69922 -11.46484,11.16797 -19.89062,11.16797 H 117.14063 c -12.85547,0 -23.277349,-10.42188 -23.277349,-23.28516 v -57.03515 c 0,-12.855474 10.421879,-23.277349 23.277349,-23.277349 H 397.625 c 12.86328,0 23.28906,10.421875 23.28906,23.277349 z m 0,0"
         inkscape:connector-curvature="0"
         style="fill:#ff9c40;stroke-width:4.77177238" />
      <path
         id="path1455"
         d="m 216.67578,290.16797 c 0,-3.06641 0.69922,-5.96485 1.94531,-8.55078 3.19141,-6.60938 9.95313,-11.17188 17.78125,-11.17188 h 41.98438 c 5.44531,0 10.37109,2.20313 13.93359,5.77735 1.5586,1.55859 2.86719,3.38672 3.83594,5.39453 1.24609,2.58594 1.94141,5.48437 1.94141,8.55078 0,10.89062 -8.82032,19.71484 -19.71094,19.71484 h -41.98438 c -5.44531,0 -10.38281,-2.20312 -13.94922,-5.76562 -3.5625,-3.57813 -5.77734,-8.50391 -5.77734,-13.94922 z m 0,0"
         inkscape:connector-curvature="0"
         style="fill:#c92888;stroke-width:4.77177238" />
      <path
         id="path1457"
         d="m 218.62109,281.61719 c 3.19141,-6.60938 9.95313,-11.17188 17.78125,-11.17188 h 41.98438 c 5.44531,0 10.37109,2.20313 13.93359,5.77735 1.5586,1.55859 2.86719,3.38672 3.83594,5.39453 -3.17969,6.60937 -9.94531,11.17187 -17.76953,11.17187 h -41.98438 c -5.44531,0 -10.38281,-2.20312 -13.94922,-5.77734 -1.55859,-1.5625 -2.85546,-3.37891 -3.83203,-5.39453 z m 0,0"
         inkscape:connector-curvature="0"
         style="fill:#ffffff;stroke-width:4.77177238" />
      <path
         id="path1459"
         d="m 420.91406,108.20313 v 57.03515 c 0,4.4375 -1.25,8.58203 -3.39844,12.11719 H 178.25781 c -12.85547,0 -23.28906,-10.42578 -23.28906,-23.28906 V 97.03125 c 0,-4.4375 1.23828,-8.582031 3.39844,-12.105469 H 397.625 c 12.86328,0 23.28906,10.421875 23.28906,23.277349 z m 0,0"
         inkscape:connector-curvature="0"
         style="fill:#ffd073;stroke-width:4.77177238" />
      <path
         id="path1461"
         d="m 218.22656,365.37109 c -18.91406,18.91407 -47.91015,21.59766 -69.68359,8.0586 -3.60938,-2.24219 -7.01953,-4.92578 -10.14844,-8.0586 -22.04687,-22.04687 -22.04687,-57.78515 0,-79.83203 22.04297,-22.04687 57.78516,-22.04687 79.83203,0 3.12891,3.13282 5.81641,6.54297 8.0586,10.14844 13.53906,21.77734 10.85546,50.76953 -8.0586,69.68359 z m 0,0"
         inkscape:connector-curvature="0"
         style="fill:#151a1c;stroke-width:4.77177238" />
      <path
         id="path1463"
         d="m 218.22656,365.37109 c -18.91406,18.91407 -47.91015,21.59766 -69.68359,8.0586 -13.53906,-21.77344 -10.85938,-50.76563 8.05859,-69.6836 18.91406,-18.91406 47.90625,-21.59765 69.6836,-8.05859 13.53906,21.77734 10.85546,50.76953 -8.0586,69.68359 z m 0,0"
         inkscape:connector-curvature="0"
         style="fill:#2f373b;stroke-width:4.77177238" />
      <path
         id="path1465"
         d="m 223.62109,370.76562 c -2,2 -4.62109,3 -7.24218,3 -2.625,0 -5.24219,-1 -7.24219,-3 L 133,294.62891 c -4,-3.9961 -4,-10.48047 0.004,-14.48047 2,-2 4.62109,-3 7.23828,-2.9961 2.62109,-0.004 5.23828,0.9961 7.23828,2.9961 l 76.13672,76.13672 c 4,4 4,10.48437 0.004,14.48046 z m 0,0"
         inkscape:connector-curvature="0"
         style="fill:#d8d4ce;stroke-width:4.77177238" />
      <path
         id="path1467"
         d="m 223.62109,370.76562 c -2,2 -4.62109,3 -7.24218,3 -2.625,0 -5.24219,-1 -7.24219,-3 l -52.85156,-52.84765 c -3.9961,-4 -3.9961,-10.48047 0.004,-14.48438 2,-2 4.6211,-3 7.23828,-2.99609 2.6211,-0.004 5.23828,0.99609 7.24219,2.99609 l 52.84766,52.85157 c 4,4 4,10.48437 0.004,14.48046 z m 0,0"
         inkscape:connector-curvature="0"
         style="fill:#f2efea;stroke-width:4.77177238" />
      <path
         id="path1469"
         d="m 170.375,380.67578 -31.95703,28.42969 -19.99219,17.78125 -24.195311,21.52344 c -0.257813,-0.1836 -0.511719,-0.36719 -0.773438,-0.55079 -7.542969,-5.3789 -14.746093,-11.45703 -21.515625,-18.23046 -3.425781,-3.42578 -6.679687,-6.96094 -9.742187,-10.60157 -2.511719,-2.96875 -4.90625,-6.01172 -7.179688,-9.11328 l 21.863281,-24.57422 17.78125,-19.99218 28.425778,-31.94922 z m 0,0"
         inkscape:connector-curvature="0"
         style="fill:#f2efea;stroke-width:4.77177238" />
      <path
         id="path1471"
         d="m 64.910156,422.16797 c -0.921875,-1.03516 -1.820312,-2.08203 -2.710937,-3.14063 -2.507813,-2.96875 -4.90625,-6.01172 -7.175781,-9.11328 l 21.859374,-24.57031 17.78125,-19.99219 28.425778,-31.95312 13.44532,13.44531 -29.42969,30.94922 -18.406251,19.36328 z m 0,0"
         inkscape:connector-curvature="0"
         style="fill:#d8d4ce;stroke-width:4.77177238" />
      <path
         id="path1473"
         d="m 106.16797,453.44922 -3.69922,3.69922 c -0.60547,-0.45703 -1.20703,-0.92578 -1.80859,-1.39063 -21.492191,-16.8164 -40.226566,-37.01953 -55.37891,-59.78515 l 1.703125,-1.70703 c 11.941406,-11.92969 31.289063,-11.92969 43.222656,0 l 15.960939,15.96484 c 0.11328,0.11328 0.21875,0.21875 0.3125,0.33203 11.61719,11.94922 11.50391,31.0625 -0.3125,42.88672 z m 0,0"
         inkscape:connector-curvature="0"
         style="fill:#ad6042;stroke-width:4.77177238" />
      <path
         id="path1475"
         d="m 106.16797,453.44922 -3.69922,3.69922 c -0.60547,-0.45703 -1.20703,-0.92578 -1.80859,-1.39063 -15.257816,-11.9414 -29.12891,-25.58593 -41.308598,-40.64453 l 4.238282,-4.23828 c 11.828125,-11.81641 30.9375,-11.93359 42.890626,-0.3125 11.61719,11.94922 11.50391,31.0625 -0.3125,42.88672 z m 0,0"
         inkscape:connector-curvature="0"
         style="fill:#e0916e;stroke-width:4.77177238" />
    </g>
    <g
       style="stroke-width:12.92459869"
       transform="matrix(0.07668564,0,0,0.07668564,22.514838,181.04557)"
       id="g2020"
       inkscape:export-xdpi="300"
       inkscape:export-ydpi="300">
      <path
         style="fill:#533672;stroke-width:12.92459869"
         inkscape:connector-curvature="0"
         d="m 501,250.5 c 0,135.31 -109.69,245 -245,245 -135.31,0 -245,-109.69 -245,-245 0,-135.31 109.69,-245 245,-245 135.31,0 245,109.69 245,245 z"
         id="path1976" />
      <path
         style="fill:#644189;stroke-width:12.92459869"
         inkscape:connector-curvature="0"
         d="M 328.895,484.473 C 230.916,482.816 152,402.874 152,304.5 c 0,-99.411 80.589,-180 180,-180 77.439,0 143.456,48.902 168.855,117.509 0.096,2.819 0.145,5.649 0.145,8.491 0,109.925 -72.394,202.941 -172.105,233.973 z"
         id="path1978" />
      <path
         style="fill:#fff68e;stroke-width:12.92459869"
         inkscape:connector-curvature="0"
         d="m 247.756,292.092 -17.559,74.918 c -1.074,4.581 -7.304,5.278 -9.364,1.048 l -33.686,-69.183 c -1.297,-2.664 -4.613,-3.622 -7.131,-2.06 l -65.391,40.559 c -3.998,2.48 -8.897,-1.432 -7.362,-5.88 l 25.1,-72.739 c 0.966,-2.801 -0.701,-5.823 -3.586,-6.499 L 53.86,234.697 c -4.581,-1.074 -5.278,-7.304 -1.048,-9.364 l 69.183,-33.686 c 2.664,-1.297 3.622,-4.613 2.06,-7.131 L 83.496,119.125 c -2.48,-3.998 1.432,-8.897 5.88,-7.362 l 72.739,25.1 c 2.801,0.966 5.823,-0.701 6.499,-3.586 l 17.559,-74.918 c 1.074,-4.581 7.304,-5.278 9.364,-1.048 l 33.686,69.183 c 1.297,2.664 4.613,3.622 7.131,2.06 l 65.391,-40.559 c 3.998,-2.48 8.897,1.432 7.362,5.88 l -25.1,72.739 c -0.966,2.801 0.701,5.823 3.586,6.499 l 74.918,17.559 c 4.581,1.074 5.278,7.304 1.048,9.364 l -69.183,33.686 c -2.664,1.297 -3.622,4.613 -2.06,7.131 l 40.559,65.391 c 2.48,3.998 -1.432,8.897 -5.88,7.362 l -72.739,-25.1 c -2.802,-0.966 -5.824,0.701 -6.5,3.586 z"
         id="path1980" />
      <path
         style="fill:#36818b;stroke-width:12.92459869"
         inkscape:connector-curvature="0"
         d="m 2.929,484.609 c -3.905,-3.905 -3.905,-10.237 0,-14.142 l 74.929,-74.929 c 3.905,-3.905 10.237,-3.905 14.142,0 3.905,3.905 3.905,10.237 0,14.142 l -74.929,74.929 c -3.905,3.905 -10.237,3.905 -14.142,0 z"
         id="path1982" />
      <path
         style="fill:#badfe4;stroke-width:12.92459869"
         inkscape:connector-curvature="0"
         d="m 404.657,240.165 c -43.433,43.433 -113.851,43.433 -157.284,0 -43.433,-43.433 -43.433,-113.851 0,-157.284 43.433,-43.433 113.851,-43.433 157.284,0 43.433,43.433 43.433,113.851 0,157.284 z"
         id="path1984" />
      <path
         style="fill:#95ced6;stroke-width:12.92459869"
         inkscape:connector-curvature="0"
         d="m 404.657,240.165 c -43.433,43.433 -113.851,43.433 -157.284,0 -43.433,-43.433 -43.433,-113.851 0,-157.284 43.433,-43.433 113.851,-43.433 157.284,0 43.433,43.433 43.433,113.851 0,157.284 z"
         id="path1986" />
      <path
         style="fill:#badfe4;stroke-width:12.92459869"
         inkscape:connector-curvature="0"
         d="m 404.657,240.165 c -35.724,35.724 -89.706,42.064 -131.91,19.021 -23.044,-42.205 -16.704,-96.186 19.021,-131.91 35.725,-35.724 89.706,-42.064 131.91,-19.021 23.044,42.205 16.704,96.186 -19.021,131.91 z"
         id="path1988" />
      <path
         style="fill:#70bdc8;stroke-width:12.92459869"
         inkscape:connector-curvature="0"
         d="m 405.513,239.3 c -0.283,0.29 -0.568,0.578 -0.855,0.865 -43.433,43.433 -113.851,43.433 -157.284,0 -43.433,-43.433 -43.433,-113.851 0,-157.284 0.287,-0.287 0.576,-0.572 0.865,-0.855 z"
         id="path1990" />
      <path
         style="fill:#95ced6;stroke-width:12.92459869"
         inkscape:connector-curvature="0"
         d="m 291.767,127.275 c 0.287,-0.287 0.576,-0.572 0.865,-0.855 l 112.88,112.88 c -0.283,0.29 -0.568,0.578 -0.855,0.865 -35.724,35.724 -89.706,42.064 -131.91,19.021 C 249.703,216.981 256.043,163 291.767,127.275 Z"
         id="path1992" />
      <path
         style="fill:#4cacba;stroke-width:12.92459869"
         inkscape:connector-curvature="0"
         d="M 287.278,135.207 234.952,82.881 c -3.905,-3.905 -3.905,-10.237 0,-14.142 3.905,-3.905 10.237,-3.905 14.142,0 l 52.326,52.326 c 3.905,3.905 3.905,10.237 0,14.142 -3.906,3.905 -10.237,3.905 -14.142,0 z"
         id="path1994" />
      <path
         style="fill:#70bdc8;stroke-width:12.92459869"
         inkscape:connector-curvature="0"
         d="M 404.657,252.587 280.207,128.136 c -3.905,-3.905 -3.905,-10.237 0,-14.142 3.905,-3.905 10.237,-3.905 14.142,0 L 418.8,238.445 c 3.905,3.905 3.905,10.237 0,14.142 -3.906,3.905 -10.237,3.905 -14.143,0 z"
         id="path1996" />
      <path
         style="fill:#fff5f5;stroke-width:12.92459869"
         inkscape:connector-curvature="0"
         d="m 350.917,198.846 -39.598,-39.598 c -3.905,-3.905 -3.905,-10.237 0,-14.142 3.905,-3.905 10.237,-3.905 14.142,0 l 39.598,39.598 c 3.905,3.905 3.905,10.237 0,14.142 -3.905,3.906 -10.237,3.906 -14.142,0 z"
         id="path1998" />
      <path
         style="fill:#3f97a4;stroke-width:12.92459869"
         inkscape:connector-curvature="0"
         d="M 291.52,266.729 132.421,425.828 c -5.858,5.858 -15.355,5.858 -21.213,0 l -6.364,-6.364 -17.678,17.678 C 81.308,443 71.811,443 65.953,437.142 L 50.397,421.586 c -5.858,-5.858 -5.858,-15.355 0,-21.213 l 17.678,-17.678 -6.364,-6.364 c -5.858,-5.858 -5.858,-15.355 0,-21.213 l 159.099,-159.1 z"
         id="path2000" />
      <path
         style="fill:#4cacba;stroke-width:12.92459869"
         inkscape:connector-curvature="0"
         d="M 111.208,425.828 85.752,400.372 c -5.858,-5.858 -5.858,-15.355 0,-21.213 L 244.851,220.06 291.52,266.729 132.421,425.828 c -5.858,5.858 -15.355,5.858 -21.213,0 z"
         id="path2002" />
      <path
         style="fill:#95ced6;stroke-width:12.92459869"
         inkscape:connector-curvature="0"
         d="m 287.161,279.573 -79.196,-79.196 c -3.905,-3.905 -3.905,-10.237 0,-14.142 3.905,-3.905 10.237,-3.905 14.142,0 l 79.196,79.196 c 3.905,3.905 3.905,10.237 0,14.142 -3.905,3.905 -10.237,3.905 -14.142,0 z"
         id="path2004" />
      <path
         style="fill:#badfe4;stroke-width:12.92459869"
         inkscape:connector-curvature="0"
         d="m 287.161,279.573 -50.912,-50.912 c -3.905,-3.905 -3.905,-10.237 0,-14.142 3.905,-3.905 10.237,-3.905 14.142,0 l 50.912,50.912 c 3.905,3.905 3.905,10.237 0,14.142 -3.905,3.905 -10.237,3.905 -14.142,0 z"
         id="path2006" />
      <path
         style="fill:#70bdc8;stroke-width:12.92459869"
         inkscape:connector-curvature="0"
         d="m 342.315,235.732 -79.196,-79.196 c -3.905,-3.905 -3.905,-10.237 0,-14.142 3.905,-3.905 10.237,-3.905 14.142,0 l 79.196,79.196 c 3.905,3.905 3.905,10.237 0,14.142 -3.905,3.906 -10.236,3.906 -14.142,0 z m -28.284,14.143 c 3.905,-3.905 3.905,-10.237 0,-14.142 l -65.054,-65.054 c -3.905,-3.905 -10.237,-3.905 -14.142,0 -3.905,3.905 -3.905,10.237 0,14.142 l 65.054,65.054 c 3.905,3.905 10.237,3.905 14.142,0 z"
         id="path2008" />
      <path
         style="fill:#95ced6;stroke-width:12.92459869"
         inkscape:connector-curvature="0"
         d="m 355.043,78.755 c 3.905,-3.905 10.237,-3.905 14.142,0 l 50.912,50.912 c 3.905,3.905 3.905,10.237 0,14.142 -3.905,3.905 -10.237,3.905 -14.142,0 L 355.043,92.897 c -3.905,-3.905 -3.905,-10.237 0,-14.142 z m 50.912,93.338 -79.196,-79.196 c -3.905,-3.905 -10.237,-3.905 -14.142,0 -3.905,3.905 -3.905,10.237 0,14.142 l 79.196,79.196 c 3.905,3.905 10.237,3.905 14.142,0 3.905,-3.905 3.905,-10.237 0,-14.142 z"
         id="path2010" />
      <path
         style="fill:#36818b;stroke-width:12.92459869"
         inkscape:connector-curvature="0"
         d="m 215.036,292.301 -21.213,-21.213 c -3.905,-3.905 -3.905,-10.237 0,-14.142 3.905,-3.905 10.237,-3.905 14.142,0 l 21.213,21.213 c 3.905,3.905 3.905,10.237 0,14.142 -3.905,3.905 -10.237,3.905 -14.142,0 z"
         id="path2012" />
      <path
         style="fill:#fff5f5;stroke-width:12.92459869"
         inkscape:connector-curvature="0"
         d="m 194.53,271.795 c -3.905,-3.905 -3.905,-10.237 0,-14.142 3.905,-3.905 10.237,-3.905 14.142,0 3.905,3.905 3.905,10.237 0,14.142 -3.905,3.905 -10.237,3.905 -14.142,0 z"
         id="path2014" />
      <path
         style="fill:#e9cc5a;stroke-width:12.92459869"
         inkscape:connector-curvature="0"
         d="m 403.892,325.639 14.156,-4.146 c 1.154,-0.338 2.226,0.734 1.888,1.888 l -4.146,14.156 c -0.082,0.279 -0.082,0.576 0,0.855 l 4.146,14.156 c 0.338,1.154 -0.734,2.226 -1.888,1.888 l -14.156,-4.146 c -0.279,-0.082 -0.576,-0.082 -0.855,0 l -14.156,4.146 c -1.154,0.338 -2.226,-0.734 -1.888,-1.888 l 4.146,-14.156 c 0.082,-0.279 0.082,-0.576 0,-0.855 l -4.146,-14.156 c -0.338,-1.154 0.734,-2.226 1.888,-1.888 l 14.156,4.146 c 0.279,0.081 0.576,0.081 0.855,0 z"
         id="path2016" />
      <path
         style="fill:#fff5f5;stroke-width:12.92459869"
         inkscape:connector-curvature="0"
         d="m 312.295,386.567 18.606,-5.45 c 1.517,-0.444 2.926,0.964 2.482,2.482 l -5.45,18.606 c -0.108,0.367 -0.108,0.757 0,1.124 l 5.45,18.606 c 0.444,1.517 -0.964,2.926 -2.482,2.482 l -18.606,-5.45 c -0.367,-0.108 -0.757,-0.108 -1.124,0 l -18.606,5.45 c -1.517,0.444 -2.926,-0.964 -2.482,-2.482 l 5.45,-18.606 c 0.108,-0.367 0.108,-0.757 0,-1.124 l -5.45,-18.606 c -0.444,-1.517 0.964,-2.926 2.482,-2.482 l 18.606,5.45 c 0.367,0.107 0.757,0.107 1.124,0 z m 60.329,-321.54 -7.543,20.386 c -0.203,0.547 -0.634,0.979 -1.182,1.182 l -20.386,7.543 c -1.741,0.644 -1.741,3.107 0,3.751 l 20.386,7.543 c 0.547,0.203 0.979,0.634 1.182,1.182 L 372.624,127 c 0.644,1.741 3.107,1.741 3.751,0 l 7.543,-20.386 c 0.203,-0.547 0.634,-0.979 1.182,-1.182 l 20.386,-7.543 c 1.741,-0.644 1.741,-3.107 0,-3.751 L 385.1,86.595 c -0.547,-0.203 -0.979,-0.634 -1.182,-1.182 l -7.543,-20.386 c -0.644,-1.742 -3.106,-1.742 -3.751,0 z"
         id="path2018" />
    </g>
    <g
       style="stroke-width:15.56859875"
       transform="matrix(0.06366218,0,0,0.06366218,208.53237,183.0641)"
       id="g2266"
       inkscape:export-xdpi="300"
       inkscape:export-ydpi="300">
      <path
         style="fill:#533672;stroke-width:15.56859875"
         inkscape:connector-curvature="0"
         d="m 490,256 c 0,135.31 -109.69,245 -245,245 -14.471,0 -28.648,-1.255 -42.43,-3.661 C 199.812,496.857 3.475,297.395 3.167,295.496 1.083,282.639 0,269.446 0,256 0,120.69 109.69,11 245,11 380.31,11 490,120.69 490,256 Z"
         id="path2222" />
      <path
         style="fill:#644189;stroke-width:15.56859875"
         inkscape:connector-curvature="0"
         d="M 416.861,256 C 416.861,350.916 339.916,427.861 245,427.861 150.084,427.861 73.139,350.916 73.139,256 73.139,161.084 150.084,84.139 245,84.139 c 94.916,0 171.861,76.945 171.861,171.861 z"
         id="path2224" />
      <path
         style="fill:#36818b;stroke-width:15.56859875"
         inkscape:connector-curvature="0"
         d="M 107.904,436.199 63.34,391.635 368.573,86.402 l 44.564,44.564 z"
         id="path2226" />
      <path
         style="fill:#f87b67;stroke-width:15.56859875"
         inkscape:connector-curvature="0"
         d="m 308.645,334.436 c -1.178,1.307 -2.397,2.589 -3.655,3.848 -0.606,0.606 -1.219,1.203 -1.836,1.791 -17.056,16.231 -28.636,37.232 -33.098,60.35 -5.328,27.604 -18.68,53.967 -40.057,75.343 -8.442,8.442 -17.662,15.632 -27.428,21.571 C 100.288,479.48 19.809,398.188 3.167,295.493 c 5.74,-9.235 12.608,-17.954 20.606,-25.953 21.556,-21.555 48.181,-34.952 76.038,-40.188 22.609,-4.25 43.4,-15.604 59.121,-32.399 1.064,-1.137 2.159,-2.254 3.286,-3.352 0.825,-0.804 1.661,-1.592 2.506,-2.362 26.176,-23.854 67.993,-16.295 84.126,15.231 4.715,9.215 10.93,17.861 18.644,25.575 7.577,7.577 16.052,13.707 25.083,18.391 31.437,16.306 39.789,57.705 16.068,84 z"
         id="path2228" />
      <path
         style="fill:#e5554e;stroke-width:15.56859875"
         inkscape:connector-curvature="0"
         d="m 246.968,203.092 c -19.513,-11.747 -45.693,-10.523 -64.121,6.271 -0.845,0.771 -1.681,1.558 -2.506,2.362 -1.126,1.097 -2.221,2.215 -3.285,3.352 -15.721,16.795 -36.512,28.148 -59.121,32.399 -27.857,5.237 -54.482,18.633 -76.038,40.188 -12.998,12.998 -23.012,27.897 -30.046,43.825 -3.766,-11.641 -6.685,-23.664 -8.684,-35.995 5.74,-9.235 12.608,-17.954 20.606,-25.952 21.556,-21.556 48.181,-34.952 76.038,-40.188 22.609,-4.25 43.4,-15.604 59.121,-32.399 1.064,-1.137 2.159,-2.254 3.285,-3.352 0.825,-0.804 1.661,-1.592 2.506,-2.362 25.214,-22.979 64.94,-16.809 82.245,11.851 z"
         id="path2230" />
      <path
         style="fill:#23535a;stroke-width:15.56859875"
         inkscape:connector-curvature="0"
         d="m 177.192,413.917 c -25.286,25.286 -66.284,25.286 -91.57,0 -25.286,-25.286 -25.286,-66.284 0,-91.57 25.286,-25.286 66.284,-25.286 91.57,0 25.286,25.287 25.286,66.284 0,91.57 z"
         id="path2232" />
      <path
         style="fill:#95ced6;stroke-width:15.56859875"
         inkscape:connector-curvature="0"
         d="m 90.2,418.496 -9.157,-9.157 305.233,-305.233 9.157,9.157 z M 372.541,90.37 363.384,81.213 58.151,386.446 l 9.157,9.157 z m 45.175,45.174 -9.157,-9.157 -305.234,305.234 9.157,9.157 z"
         id="path2234" />
      <path
         style="fill:#f5e8b4;stroke-width:15.56859875"
         inkscape:connector-curvature="0"
         d="m 111.978,399.771 -18.314,18.314 c -3.372,3.372 -8.838,3.372 -12.209,0 -3.371,-3.372 -3.371,-8.838 0,-12.209 l 18.314,-18.314 c 3.371,-3.372 8.838,-3.372 12.209,0 3.371,3.371 3.371,8.837 0,12.209 z M 89.085,364.669 c -3.371,-3.372 -8.838,-3.372 -12.209,0 l -18.314,18.314 c -3.372,3.372 -3.372,8.838 0,12.209 3.372,3.372 8.838,3.372 12.209,0 l 18.314,-18.314 c 3.372,-3.371 3.372,-8.837 0,-12.209 z m 45.175,45.175 c -3.371,-3.372 -8.838,-3.372 -12.209,0 l -18.314,18.314 c -3.372,3.372 -3.372,8.838 0,12.209 3.371,3.371 8.838,3.371 12.209,0 l 18.314,-18.314 c 3.371,-3.371 3.371,-8.838 0,-12.209 z"
         id="path2236" />
      <path
         style="fill:#fff5f5;stroke-width:15.56859875"
         inkscape:connector-curvature="0"
         d="m 118.082,393.666 -6.105,6.105 c -3.371,3.372 -8.838,3.372 -12.209,0 -3.372,-3.372 -3.372,-8.838 0,-12.209 l 6.105,-6.104 c 3.371,-3.372 8.838,-3.372 12.209,0 3.371,3.372 3.372,8.837 0,12.208 z M 95.19,358.564 c -3.371,-3.372 -8.838,-3.372 -12.209,0 l -6.105,6.104 c -3.372,3.372 -3.372,8.838 0,12.209 3.372,3.371 8.838,3.372 12.209,0 l 6.105,-6.104 c 3.371,-3.371 3.371,-8.837 0,-12.209 z m 45.174,45.175 c -3.371,-3.372 -8.838,-3.372 -12.209,0 l -6.105,6.105 c -3.372,3.372 -3.372,8.838 0,12.209 3.372,3.372 8.838,3.372 12.209,0 l 6.105,-6.104 c 3.372,-3.372 3.372,-8.839 0,-12.21 z"
         id="path2238" />
      <path
         style="fill:#fa9084;stroke-width:15.56859875"
         inkscape:connector-curvature="0"
         d="M 404.412,138.443 361.096,95.127 c -9.343,-9.343 -10.325,-23.51 -2.193,-31.643 L 414.919,7.468 c 8.132,-8.132 22.299,-7.151 31.643,2.193 l 43.316,43.316 c 9.343,9.343 10.325,23.51 2.193,31.643 l -56.016,56.016 c -8.133,8.132 -22.3,7.151 -31.643,-2.193 z"
         id="path2240" />
      <path
         style="fill:#f87b67;stroke-width:15.56859875"
         inkscape:connector-curvature="0"
         d="m 360.644,94.665 c -8.921,-9.343 -9.74,-23.181 -1.741,-31.18 L 414.919,7.469 c 7.999,-7.999 21.837,-7.18 31.18,1.741 z"
         id="path2242" />
      <path
         style="fill:#fbb3a8;stroke-width:15.56859875"
         inkscape:connector-curvature="0"
         d="m 412.334,45.813 c 3.181,3.181 3.181,8.339 0,11.521 -3.181,3.181 -8.339,3.181 -11.521,0 L 383.532,40.053 c -3.181,-3.181 -3.181,-8.339 0,-11.521 3.181,-3.181 8.339,-3.181 11.521,0 z m 21.601,-21.6 -17.281,-17.281 c -3.181,-3.181 -8.339,-3.181 -11.52,0 -3.181,3.181 -3.181,8.339 0,11.52 l 17.281,17.281 c 3.181,3.181 8.339,3.181 11.521,0 3.18,-3.181 3.18,-8.339 -10e-4,-11.52 z m -59.907,25.345 c -3.181,-3.181 -8.339,-3.181 -11.52,0 -3.181,3.181 -3.181,8.339 0,11.521 l 17.281,17.281 c 3.181,3.181 8.339,3.181 11.52,0 3.181,-3.181 3.181,-8.339 0,-11.521 z"
         id="path2244" />
      <path
         style="fill:#e5554e;stroke-width:15.56859875"
         inkscape:connector-curvature="0"
         d="m 374.667,45.588 c 3.181,3.181 3.181,8.339 0,11.521 l -5.76,5.76 c -3.181,3.181 -8.339,3.181 -11.52,0 -3.181,-3.181 -3.181,-8.339 0,-11.52 l 5.76,-5.761 c 3.18,-3.181 8.338,-3.181 11.52,0 z m 10.368,-21.889 -5.76,5.76 c -3.181,3.181 -3.181,8.339 0,11.52 3.181,3.181 8.339,3.181 11.52,0 l 5.76,-5.76 c 3.181,-3.181 3.181,-8.339 0,-11.52 -3.181,-3.181 -8.339,-3.181 -11.52,0 z M 417.869,2.386 c -3.181,-3.181 -8.339,-3.181 -11.52,0 l -5.76,5.76 c -3.181,3.181 -3.181,8.339 0,11.521 3.181,3.181 8.339,3.181 11.521,0 l 5.76,-5.76 c 3.18,-3.182 3.18,-8.34 -10e-4,-11.521 z"
         id="path2246" />
      <path
         style="fill:#fbb3a8;stroke-width:15.56859875"
         inkscape:connector-curvature="0"
         d="M 492.498,82.775 475.217,65.494 c -3.181,-3.181 -8.339,-3.181 -11.52,0 -3.181,3.181 -3.181,8.339 0,11.52 l 17.281,17.281 c 3.181,3.181 8.339,3.181 11.521,0 3.18,-3.181 3.18,-8.338 -0.001,-11.52 z m -59.907,25.345 c -3.181,-3.181 -8.339,-3.181 -11.52,0 -3.181,3.181 -3.181,8.339 0,11.521 l 17.281,17.281 c 3.181,3.181 8.339,3.181 11.52,0 3.181,-3.181 3.181,-8.339 0,-11.521 z m 21.601,-21.601 c -3.181,-3.181 -8.339,-3.181 -11.52,0 -3.181,3.181 -3.181,8.339 0,11.521 l 17.281,17.281 c 3.181,3.181 8.339,3.181 11.52,0 3.181,-3.181 3.181,-8.339 0,-11.521 z"
         id="path2248" />
      <path
         style="fill:#fff5f5;stroke-width:15.56859875"
         inkscape:connector-curvature="0"
         d="m 454.192,86.519 c 3.181,3.181 3.181,8.339 0,11.521 -3.181,3.181 -8.339,3.181 -11.52,0 l -5.76,-5.76 c -3.181,-3.181 -3.181,-8.339 0,-11.521 3.181,-3.181 8.339,-3.181 11.52,0 z m -27.361,15.841 c -3.181,-3.181 -8.339,-3.181 -11.521,0 -3.181,3.181 -3.181,8.339 0,11.52 l 5.76,5.761 c 3.181,3.181 8.339,3.181 11.52,0 3.181,-3.181 3.181,-8.339 0,-11.521 z m 48.386,-36.865 -5.76,-5.761 c -3.181,-3.181 -8.339,-3.181 -11.52,0 -3.181,3.181 -3.181,8.339 0,11.521 l 5.76,5.76 c 3.181,3.181 8.339,3.181 11.52,0 3.181,-3.182 3.181,-8.339 0,-11.52 z m -57.123,-2.401 c 3.181,-3.181 3.181,-8.339 0,-11.52 l -5.76,-5.761 c -3.181,-3.181 -8.339,-3.181 -11.52,0 -3.181,3.181 -3.181,8.339 0,11.521 l 5.76,5.76 c 3.181,3.182 8.339,3.182 11.52,0 z m 10.081,-21.601 c 3.181,3.181 8.339,3.181 11.521,0 3.181,-3.181 3.181,-8.339 0,-11.52 l -5.76,-5.761 c -3.181,-3.181 -8.339,-3.181 -11.52,0 -3.181,3.181 -3.181,8.339 0,11.521 z m -36.866,25.346 c -3.181,-3.181 -8.339,-3.181 -11.521,0 -3.181,3.181 -3.181,8.339 0,11.52 l 5.76,5.761 c 3.181,3.181 8.339,3.181 11.52,0 3.181,-3.181 3.181,-8.339 0,-11.521 z"
         id="path2250" />
      <path
         style="fill:#f87b67;stroke-width:15.56859875"
         inkscape:connector-curvature="0"
         d="m 498.614,83.131 c 3.181,3.181 3.181,8.339 0,11.521 l -5.76,5.76 c -3.181,3.181 -8.339,3.181 -11.521,0 -3.181,-3.181 -3.181,-8.339 0,-11.521 l 5.76,-5.76 c 3.182,-3.181 8.34,-3.181 11.521,0 z m -21.313,21.313 c -3.181,-3.181 -8.339,-3.181 -11.52,0 l -5.76,5.76 c -3.181,3.181 -3.181,8.339 0,11.52 3.181,3.181 8.339,3.181 11.52,0 l 5.76,-5.76 c 3.181,-3.181 3.181,-8.339 0,-11.52 z m -33.409,21.889 -5.76,5.761 c -3.181,3.181 -3.181,8.339 0,11.52 3.181,3.181 8.339,3.181 11.52,0 l 5.76,-5.76 c 3.181,-3.181 3.181,-8.339 0,-11.521 -3.181,-3.181 -8.339,-3.181 -11.52,0 z"
         id="path2252" />
      <path
         style="fill:#fff36c;stroke-width:15.56859875"
         inkscape:connector-curvature="0"
         d="m 188.644,68.077 c 2.337,-0.033 4.584,0.33 6.68,1.026 V 9.501 c 0,-6.676 6.71,-11.266 12.932,-8.846 l 60.757,23.628 c 5.766,2.242 9.563,7.794 9.563,13.98 v 77.082 c 0,12.598 -9.852,23.289 -22.445,23.65 -13.704,0.393 -24.819,-11.139 -23.732,-24.985 0.878,-11.18 9.932,-20.265 21.109,-21.177 4,-0.326 7.807,0.366 11.193,1.845 V 36.481 L 209.2,14.897 v 73.231 h -10e-4 c 10e-4,0.071 10e-4,0.142 10e-4,0.212 0,11.192 -9.073,20.266 -20.266,20.266 -11.552,0 -20.847,-9.666 -20.237,-21.351 0.549,-10.533 9.401,-19.031 19.947,-19.178 z"
         id="path2254" />
      <path
         style="fill:#eac23f;stroke-width:15.56859875"
         inkscape:connector-curvature="0"
         d="m 234.122,106.95 c 3.582,8.521 12.121,14.446 22.008,14.162 12.592,-0.361 22.443,-11.049 22.446,-23.646 v 17.878 c 0,12.599 -9.852,23.289 -22.446,23.65 -13.704,0.393 -24.819,-11.14 -23.732,-24.985 0.195,-2.478 0.792,-4.853 1.724,-7.059 z m -45.188,1.656 c 11.192,0 20.266,-9.073 20.266,-20.266 0,-0.071 -10e-4,-0.142 -10e-4,-0.212 h 10e-4 v -17.67 c 0,11.192 -9.073,20.266 -20.266,20.266 -7.97,0 -14.866,-4.601 -18.176,-11.292 -1.188,2.387 -1.916,5.034 -2.062,7.824 -0.609,11.684 8.686,21.35 20.238,21.35 z m 20.264,-38.361 c 0.001,0.07 0.001,0.142 0.001,0.212 v -0.212 z"
         id="path2256" />
      <path
         style="fill:#95ced6;stroke-width:15.56859875"
         inkscape:connector-curvature="0"
         d="m 370.384,288.5 c 2.76,-0.35 5.414,-0.058 7.834,0.746 v -49.075 c 0,-7.034 7.069,-11.869 13.624,-9.32 l 48.978,19.047 c 5.766,2.242 9.563,7.794 9.563,13.98 v 65.371 c 0,11.046 -8.702,20.427 -19.746,20.588 -11.739,0.171 -21.205,-9.749 -20.283,-21.643 0.751,-9.694 8.595,-17.579 18.286,-18.377 3.472,-0.286 6.778,0.314 9.717,1.598 v -50.447 l -48.111,-18.71 v 63.479 h -10e-4 c 0,0.062 10e-4,0.123 10e-4,0.184 0,9.702 -7.865,17.567 -17.567,17.567 -10.363,0 -18.631,-8.974 -17.455,-19.575 0.881,-7.947 7.228,-14.407 15.16,-15.413 z"
         id="path2258" />
      <path
         style="fill:#70bdc8;stroke-width:15.56859875"
         inkscape:connector-curvature="0"
         d="m 411.896,321.943 c 3.096,7.245 10.336,12.296 18.741,12.173 11.045,-0.161 19.747,-9.542 19.747,-20.587 v 15.719 c 0,11.045 -8.702,20.426 -19.747,20.588 -11.739,0.171 -21.205,-9.749 -20.283,-21.643 0.17,-2.196 0.705,-4.3 1.542,-6.25 z m -56.673,-18.03 c -1.176,10.601 7.092,19.575 17.455,19.575 9.702,0 17.567,-7.865 17.567,-17.567 0,-0.062 0,-0.123 -10e-4,-0.184 h 10e-4 v -15.535 c 0,9.702 -7.865,17.567 -17.567,17.567 -6.876,0 -12.83,-3.952 -15.715,-9.708 -0.906,1.802 -1.509,3.776 -1.74,5.852 z"
         id="path2260" />
      <path
         style="fill:#fff5f5;stroke-width:15.56859875"
         inkscape:connector-curvature="0"
         d="m 79.428,225.878 c 4.392,-0.39 8.575,0.356 12.288,1.978 v -83.41 c 0,-4.552 4.067,-8.027 8.564,-7.318 l 30.184,4.766 c 3.601,0.569 6.253,3.672 6.253,7.318 0,4.552 -4.067,8.028 -8.564,7.317 l -21.436,-3.385 v 97.055 c 0,13.363 -10.906,25.183 -24.263,25.567 -14.839,0.427 -26.87,-12.081 -25.652,-27.079 0.974,-12.001 10.634,-21.743 22.626,-22.809 z"
         id="path2262" />
      <path
         style="fill:#f5e8b4;stroke-width:15.56859875"
         inkscape:connector-curvature="0"
         d="m 58.198,242.288 c 3.557,9.841 13.115,16.811 24.255,16.491 13.357,-0.384 24.263,-12.204 24.263,-25.566 V 250.2 c 0,13.363 -10.906,25.183 -24.263,25.566 -14.839,0.427 -26.87,-12.081 -25.652,-27.08 0.181,-2.224 0.66,-4.37 1.397,-6.398 z"
         id="path2264" />
    </g>
    <text
       xml:space="preserve"
       style="font-style:normal;font-weight:normal;font-size:70.23526764px;line-height:1.25;font-family:sans-serif;letter-spacing:0px;word-spacing:0px;fill:#000000;fill-opacity:1;stroke:none;stroke-width:0.26458332"
       x="42.155266"
       y="191.56129"
       id="text2524"><tspan
         sodipodi:role="line"
         x="42.155266"
         y="255.63905"
         style="font-style:normal;font-variant:normal;font-weight:normal;font-stretch:normal;font-size:2.11666679px;line-height:0;font-family:sans-serif;-inkscape-font-specification:sans-serif;stroke-width:0.26458332"
         id="tspan2544" /></text>
    <text
       xml:space="preserve"
       style="font-style:normal;font-weight:normal;font-size:50.79999924px;line-height:1.25;font-family:sans-serif;letter-spacing:0px;word-spacing:0px;fill:#ffffff;fill-opacity:1;stroke:none;stroke-width:0.26458332;"
       x="120.23521"
       y="230.02605"
       id="text2528"
       inkscape:export-xdpi="300"
       inkscape:export-ydpi="300"><tspan
         sodipodi:role="line"
         id="tspan2526"
         x="120.23521"
         y="230.02605"
         style="font-size:7.76111126px;stroke-width:0.26458332;fill:#ffffff;fill-opacity:1;">Rapping</tspan></text>
    <text
       id="text2532"
       y="228.45387"
       x="200.96478"
       style="font-style:normal;font-weight:normal;font-size:66.50665283px;line-height:1.25;font-family:sans-serif;letter-spacing:0px;word-spacing:0px;fill:#ffffff;fill-opacity:1;stroke:none;stroke-width:0.26458332;"
       xml:space="preserve"
       inkscape:export-xdpi="300"
       inkscape:export-ydpi="300"><tspan
         style="font-style:normal;font-variant:normal;font-weight:normal;font-stretch:normal;font-size:7.76111126px;font-family:sans-serif;-inkscape-font-specification:sans-serif;stroke-width:0.26458332;fill:#ffffff;fill-opacity:1;"
         y="228.45387"
         x="200.96478"
         id="tspan2530"
         sodipodi:role="line">Instrumental</tspan></text>
    <flowRoot
       xml:space="preserve"
       id="flowRoot2566"
       style="font-style:normal;font-weight:normal;font-size:24px;line-height:1.25;font-family:sans-serif;text-align:center;letter-spacing:0px;word-spacing:0px;text-anchor:middle;fill:#ffffff;fill-opacity:1;stroke:none;stroke-width:0.98796076"
       transform="matrix(0.26780755,0,0,0.26780755,10.320407,-7.1958651)"
       inkscape:export-xdpi="300"
       inkscape:export-ydpi="300"><flowRegion
         id="flowRegion2568"
         style="font-size:24px;text-align:center;text-anchor:middle;fill:#ffffff;fill-opacity:1;stroke-width:0.98796076"><rect
           id="rect2570"
           width="918.28424"
           height="128.7523"
           x="8.5714283"
           y="572.85712"
           style="font-size:24px;text-align:center;text-anchor:middle;fill:#ffffff;fill-opacity:1;stroke-width:0.98796076" /></flowRegion><flowPara
         id="flowPara2578"
         style="text-align:center;text-anchor:middle;fill:#ffffff;fill-opacity:1;stroke-width:0.98796076">Symphony is a musical event in which you can send your videos of either singing - rapping or instrumentals. You can choose any track you want and also can play any instrument</flowPara><flowPara
         style="text-align:center;text-anchor:middle;fill:#ffffff;fill-opacity:1;stroke-width:0.98796076"
         id="flowPara2666" /></flowRoot>    <rect
       style="opacity:1;fill:url(#linearGradient2944);fill-opacity:1;stroke:none;stroke-width:2;stroke-linecap:butt;stroke-linejoin:bevel;stroke-miterlimit:4;stroke-dasharray:none;stroke-dashoffset:0;stroke-opacity:1;paint-order:normal"
       id="rect2584"
       width="71.010979"
       height="71.010979"
       x="-5.4114985"
       y="121.48993"
       transform="rotate(-45)"
       inkscape:export-xdpi="300"
       inkscape:export-ydpi="300" />
    <rect
       style="opacity:1;fill:#7fa0e7;fill-opacity:0.99215686;stroke:none;stroke-width:0.10001251;stroke-linecap:butt;stroke-linejoin:bevel;stroke-miterlimit:4;stroke-dasharray:none;stroke-dashoffset:0;stroke-opacity:1;paint-order:normal"
       id="rect2590"
       width="31.561876"
       height="4.5519853"
       x="103.50019"
       y="-38.211143"
       ry="2.2759926"
       transform="rotate(40.624013)"
       inkscape:export-xdpi="300"
       inkscape:export-ydpi="300" />
    <rect
       transform="rotate(40.624013)"
       ry="2.2759926"
       y="-33.889126"
       x="98.81147"
       height="4.5519853"
       width="31.561876"
       id="rect2592"
       style="opacity:1;fill:#7fa0e7;fill-opacity:0.99215686;stroke:none;stroke-width:0.10001251;stroke-linecap:butt;stroke-linejoin:bevel;stroke-miterlimit:4;stroke-dasharray:none;stroke-dashoffset:0;stroke-opacity:1;paint-order:normal"
       inkscape:export-xdpi="300"
       inkscape:export-ydpi="300" />
    <rect
       transform="rotate(133.45069)"
       ry="2.2759926"
       y="-187.18744"
       x="-76.866707"
       height="4.5519853"
       width="31.561876"
       id="rect2594"
       style="opacity:1;fill:#5885e7;fill-opacity:0.76078431;stroke:none;stroke-width:0.10001251;stroke-linecap:butt;stroke-linejoin:bevel;stroke-miterlimit:4;stroke-dasharray:none;stroke-dashoffset:0;stroke-opacity:1;paint-order:normal"
       inkscape:export-xdpi="300"
       inkscape:export-ydpi="300" />
    <rect
       style="opacity:1;fill:#5885e8;fill-opacity:0.75892861;stroke:none;stroke-width:0.10001251;stroke-linecap:butt;stroke-linejoin:bevel;stroke-miterlimit:4;stroke-dasharray:none;stroke-dashoffset:0;stroke-opacity:1;paint-order:normal"
       id="rect2596"
       width="33.642796"
       height="4.8521042"
       x="-83.698647"
       y="-183.02122"
       ry="2.4260521"
       transform="rotate(133.45069)"
       inkscape:export-xdpi="300"
       inkscape:export-ydpi="300" />
    <rect
       style="opacity:1;fill:#5885e7;fill-opacity:0.76078431;stroke:none;stroke-width:0.10001251;stroke-linecap:butt;stroke-linejoin:bevel;stroke-miterlimit:4;stroke-dasharray:none;stroke-dashoffset:0;stroke-opacity:1;paint-order:normal"
       id="rect2598"
       width="31.561876"
       height="4.5519853"
       x="-203.17899"
       y="7.4491768"
       ry="2.2759926"
       transform="rotate(-134.60314)"
       inkscape:export-xdpi="300"
       inkscape:export-ydpi="300" />
    <rect
       transform="rotate(-134.60314)"
       ry="2.2759926"
       y="11.771173"
       x="-207.86771"
       height="4.5519853"
       width="31.561876"
       id="rect2600"
       style="opacity:1;fill:#5885e7;fill-opacity:0.76078431;stroke:none;stroke-width:0.10001251;stroke-linecap:butt;stroke-linejoin:bevel;stroke-miterlimit:4;stroke-dasharray:none;stroke-dashoffset:0;stroke-opacity:1;paint-order:normal"
       inkscape:export-xdpi="300"
       inkscape:export-ydpi="300" />
    <rect
       transform="rotate(-42.792296)"
       ry="2.2759926"
       y="136.83926"
       x="-20.602911"
       height="4.5519853"
       width="31.561876"
       id="rect2602"
       style="opacity:1;fill:#5885e7;fill-opacity:0.76078431;stroke:none;stroke-width:0.10001251;stroke-linecap:butt;stroke-linejoin:bevel;stroke-miterlimit:4;stroke-dasharray:none;stroke-dashoffset:0;stroke-opacity:1;paint-order:normal"
       inkscape:export-xdpi="300"
       inkscape:export-ydpi="300" />
    <rect
       style="opacity:1;fill:#6a76d1;fill-opacity:0.73214285;stroke:none;stroke-width:0.10001251;stroke-linecap:butt;stroke-linejoin:bevel;stroke-miterlimit:4;stroke-dasharray:none;stroke-dashoffset:0;stroke-opacity:1;paint-order:normal"
       id="rect2604"
       width="31.561876"
       height="4.5519853"
       x="-25.291643"
       y="141.16125"
       ry="2.2759926"
       transform="rotate(-42.792296)"
       inkscape:export-xdpi="300"
       inkscape:export-ydpi="300" />
    <rect
       style="opacity:1;fill:#ff9955;fill-opacity:0.90625;stroke:none;stroke-width:0.1000125;stroke-linecap:butt;stroke-linejoin:bevel;stroke-miterlimit:4;stroke-dasharray:none;stroke-dashoffset:0;stroke-opacity:0.22767855;paint-order:normal"
       id="rect2606"
       width="15.074702"
       height="14.005572"
       x="58.929836"
       y="148.36433"
       ry="0"
       transform="rotate(-45.60597)"
       inkscape:export-xdpi="300"
       inkscape:export-ydpi="300" />
    <rect
       transform="rotate(-45.60597)"
       ry="0"
       y="141.29887"
       x="-13.07596"
       height="11.529208"
       width="12.409301"
       id="rect2608"
       style="opacity:1;fill:#ff9955;fill-opacity:0.83035715;stroke:none;stroke-width:0.1000125;stroke-linecap:butt;stroke-linejoin:bevel;stroke-miterlimit:4;stroke-dasharray:none;stroke-dashoffset:0;stroke-opacity:0.22767855;paint-order:normal"
       inkscape:export-xdpi="300"
       inkscape:export-ydpi="300" />
    <circle
       r="1.8207942"
       cy="127.77206"
       cx="73.191032"
       id="circle2612"
       style="opacity:0.85448914;vector-effect:none;fill:#756ec3;fill-opacity:0.76339285;fill-rule:evenodd;stroke:none;stroke-width:0.40000001;stroke-linecap:butt;stroke-linejoin:round;stroke-miterlimit:4;stroke-dasharray:none;stroke-dashoffset:0;stroke-opacity:1;paint-order:normal"
       inkscape:export-xdpi="300"
       inkscape:export-ydpi="300" />
    <circle
       style="opacity:0.85448914;vector-effect:none;fill:#7571e2;fill-opacity:1;fill-rule:evenodd;stroke:none;stroke-width:0.40000001;stroke-linecap:butt;stroke-linejoin:round;stroke-miterlimit:4;stroke-dasharray:none;stroke-dashoffset:0;stroke-opacity:1;paint-order:normal"
       id="circle2614"
       cx="191.77026"
       cy="60.402664"
       r="1.8207942"
       inkscape:export-xdpi="300"
       inkscape:export-ydpi="300" />
    <circle
       r="2.2759929"
       cy="57.671471"
       cx="164.91354"
       id="circle2616"
       style="opacity:0.87900002;vector-effect:none;fill:#e27e71;fill-opacity:1;fill-rule:evenodd;stroke:none;stroke-width:0.40000001;stroke-linecap:butt;stroke-linejoin:round;stroke-miterlimit:4;stroke-dasharray:none;stroke-dashoffset:0;stroke-opacity:1;paint-order:normal"
       inkscape:export-xdpi="300"
       inkscape:export-ydpi="300" />
    <circle
       style="opacity:0.85448914;vector-effect:none;fill:#d7e271;fill-opacity:1;fill-rule:evenodd;stroke:none;stroke-width:0.40000001;stroke-linecap:butt;stroke-linejoin:round;stroke-miterlimit:4;stroke-dasharray:none;stroke-dashoffset:0;stroke-opacity:1;paint-order:normal"
       id="circle2618"
       cx="98.226944"
       cy="113.6609"
       r="2.5035923"
       inkscape:export-xdpi="300"
       inkscape:export-ydpi="300" />
    <rect
       style="opacity:1;fill:#ff0018;fill-opacity:0.66666667;stroke:none;stroke-width:0.1000125;stroke-linecap:butt;stroke-linejoin:bevel;stroke-miterlimit:4;stroke-dasharray:none;stroke-dashoffset:0;stroke-opacity:0.22767855;paint-order:normal"
       id="rect2620"
       width="5.4037743"
       height="5.0205278"
       x="-20.941042"
       y="169.37961"
       ry="0"
       transform="rotate(-45.60597)"
       inkscape:export-xdpi="300"
       inkscape:export-ydpi="300" />
    <rect
       transform="rotate(-45.60597)"
       ry="0"
       y="134.84087"
       x="76.474693"
       height="5.0205278"
       width="5.4037743"
       id="rect2622"
       style="opacity:1;fill:#ff0018;fill-opacity:0.66666667;stroke:none;stroke-width:0.1000125;stroke-linecap:butt;stroke-linejoin:bevel;stroke-miterlimit:4;stroke-dasharray:none;stroke-dashoffset:0;stroke-opacity:0.22767855;paint-order:normal"
       inkscape:export-xdpi="300"
       inkscape:export-ydpi="300" />
    <circle
       style="opacity:0.85448914;vector-effect:none;fill:#7fa0e7;fill-opacity:0.99215686;fill-rule:evenodd;stroke:none;stroke-width:0.39999998;stroke-linecap:butt;stroke-linejoin:round;stroke-miterlimit:4;stroke-dasharray:none;stroke-dashoffset:0;stroke-opacity:1;paint-order:normal"
       id="circle2626"
       cx="104.35814"
       cy="66.971626"
       r="4.8110242"
       inkscape:export-xdpi="300"
       inkscape:export-ydpi="300" />
    <path
       transform="matrix(0.31535649,0.04251563,-0.04251563,0.31535649,22.002338,111.98537)"
       inkscape:transform-center-y="-0.76861214"
       inkscape:transform-center-x="0.6569407"
       d="m 239.25892,-182.27383 -29.81577,-3.19657 17.67619,-24.22293 z"
       inkscape:randomized="0"
       inkscape:rounded="0"
       inkscape:flatsided="true"
       sodipodi:arg2="1.677599"
       sodipodi:arg1="0.63040142"
       sodipodi:r2="8.6563978"
       sodipodi:r1="17.312796"
       sodipodi:cy="-192.47919"
       sodipodi:cx="225.2738"
       sodipodi:sides="3"
       id="path2628"
       style="opacity:0.87900002;fill:#9500ff;fill-opacity:0.66666667;stroke:none;stroke-width:0.31429768;stroke-linecap:butt;stroke-linejoin:bevel;stroke-miterlimit:4;stroke-dasharray:none;stroke-dashoffset:0;stroke-opacity:0.22767855;paint-order:normal"
       sodipodi:type="star"
       inkscape:export-xdpi="300"
       inkscape:export-ydpi="300" />
    <text
       id="text2638"
       y="98.217781"
       x="47.389118"
       style="font-style:normal;font-weight:normal;font-size:35.36803818px;line-height:1.25;font-family:sans-serif;letter-spacing:0px;word-spacing:0px;fill:#ffffff;fill-opacity:0.99215686;stroke:none;stroke-width:0.96983725;"
       xml:space="preserve"
       inkscape:export-xdpi="300"
       inkscape:export-ydpi="300"><tspan
         style="font-style:normal;font-variant:normal;font-weight:normal;font-stretch:normal;font-family:Cambria;-inkscape-font-specification:Cambria;fill:#ffffff;fill-opacity:0.99215686;stroke-width:0.96983725;"
         y="98.217781"
         x="47.389118"
         id="tspan2636"
         sodipodi:role="line"> Symphony</tspan></text>
    <text
       xml:space="preserve"
       style="font-style:normal;font-weight:normal;font-size:8.46666622px;line-height:1.25;font-family:sans-serif;letter-spacing:0px;word-spacing:0px;fill:#000000;fill-opacity:1;stroke:none;stroke-width:0.26458332"
       x="273.7196"
       y="193.48363"
       id="text2670"
       inkscape:export-xdpi="300"
       inkscape:export-ydpi="300"><tspan
         sodipodi:role="line"
         id="tspan2668"
         x="273.7196"
         y="193.48363"
         style="stroke-width:0.26458332"> </tspan></text>
    <text
       id="text2674"
       y="231.53795"
       x="27.631037"
       style="font-style:normal;font-weight:normal;font-size:50.79999924px;line-height:1.25;font-family:sans-serif;letter-spacing:0px;word-spacing:0px;fill:#ffffff;fill-opacity:1;stroke:none;stroke-width:0.26458332;"
       xml:space="preserve"
       inkscape:export-xdpi="300"
       inkscape:export-ydpi="300"><tspan
         style="font-size:7.76111126px;stroke-width:0.26458332;fill:#ffffff;fill-opacity:1;"
         y="231.53795"
         x="27.631037"
         id="tspan2672"
         sodipodi:role="line">Singing</tspan></text>
    <path
       style="opacity:1;fill:url(#linearGradient2896);fill-opacity:1.0;stroke:none;stroke-width:3.77952743;stroke-linecap:butt;stroke-linejoin:bevel;stroke-miterlimit:4;stroke-dasharray:11.33858253, 3.77952754000000013;stroke-dashoffset:0;stroke-opacity:1;paint-order:normal"
       d="M 860.18945 907.07227 C 855.12369 907.04318 850.21544 909.72331 847.5957 914.49219 C 843.78517 921.42874 846.30173 930.0801 853.23828 933.89062 L 983.98047 1005.7148 L 1010 1005.7148 L 1010 987.4082 L 866.99414 908.84961 C 864.82647 907.65882 862.49207 907.08549 860.18945 907.07227 z "
       transform="matrix(0.26458333,0,0,0.26458333,0,32.41665)"
       id="rect2715"
       inkscape:export-xdpi="300"
       inkscape:export-ydpi="300" />
    <path
       style="opacity:1;fill:url(#linearGradient2912);fill-opacity:1;stroke:none;stroke-width:0.99999994;stroke-linecap:butt;stroke-linejoin:bevel;stroke-miterlimit:4;stroke-dasharray:2.9999999, 0.99999996999999996;stroke-dashoffset:0;stroke-opacity:1;paint-order:normal"
       d="m 0.37775472,261.36874 v 2.16989 H 29.984215 v -2.16989 z m 0,8.59999 v 2.16989 H 29.984215 v -2.16989 z m 0,8.59999 v 2.16989 H 29.984215 v -2.16989 z m 0,8.59999 v 2.1699 H 29.984215 v -2.1699 z"
       id="rect2723"
       inkscape:connector-curvature="0"
       inkscape:export-xdpi="300"
       inkscape:export-ydpi="300" />
    <circle
       cy="268.28958"
       cx="212.55896"
       id="circle2725"
       style="opacity:0.85448914;vector-effect:none;fill:url(#linearGradient2904);fill-opacity:1.0;fill-rule:evenodd;stroke:none;stroke-width:0.40000001;stroke-linecap:butt;stroke-linejoin:round;stroke-miterlimit:4;stroke-dasharray:none;stroke-dashoffset:0;stroke-opacity:1;paint-order:normal"
       r="4.4666276"
       inkscape:export-xdpi="300"
       inkscape:export-ydpi="300" />
    <path
       style="opacity:1;fill:#7e4cb4;fill-opacity:1;stroke:none;stroke-width:3.77952743;stroke-linecap:butt;stroke-linejoin:bevel;stroke-miterlimit:4;stroke-dasharray:11.33858253, 3.77952754000000013;stroke-dashoffset:0;stroke-opacity:1;paint-order:normal"
       d="M 1.4277344 247.14258 L 1.4277344 275.71484 L 61.875 275.71484 C 69.789287 275.71484 76.160156 269.34202 76.160156 261.42773 C 76.160156 253.51345 69.789287 247.14258 61.875 247.14258 L 1.4277344 247.14258 z "
       transform="matrix(0.26458333,0,0,0.26458333,0,32.41665)"
       id="rect2727"
       inkscape:export-xdpi="300"
       inkscape:export-ydpi="300" />
    <path
       style="opacity:1;fill:url(#linearGradient2968);fill-opacity:1.0;stroke:none;stroke-width:3.77952743;stroke-linecap:butt;stroke-linejoin:bevel;stroke-miterlimit:4;stroke-dasharray:11.33858287, 3.77952769000000011;stroke-dashoffset:0;stroke-opacity:1;paint-order:normal"
       d="M 1003.4961 -1.4277344 L 932.58008 49.748047 C 918.79411 59.696532 915.70581 78.803874 925.6543 92.589844 C 935.60278 106.37581 954.71012 109.46411 968.49609 99.515625 L 1010 69.564453 L 1010 -1.4277344 L 1003.4961 -1.4277344 z "
       transform="matrix(0.26458333,0,0,0.26458333,0,32.41665)"
       id="rect2755"
       inkscape:export-xdpi="300"
       inkscape:export-ydpi="300" />
    <path
       d="m 258.54628,63.498249 a 1.8207942,1.8207942 0 0 1 -1.82079,1.82079 1.8207942,1.8207942 0 0 1 -1.82079,-1.82079 1.8207942,1.8207942 0 0 1 1.82079,-1.8208 1.8207942,1.8207942 0 0 1 1.82079,1.8208 z m -8.88241,0 a 1.8207942,1.8207942 0 0 1 -1.8208,1.82079 1.8207942,1.8207942 0 0 1 -1.82079,-1.82079 1.8207942,1.8207942 0 0 1 1.82079,-1.8208 1.8207942,1.8207942 0 0 1 1.8208,1.8208 z m -8.88248,0 a 1.8207942,1.8207942 0 0 1 -1.82079,1.82079 1.8207942,1.8207942 0 0 1 -1.8208,-1.82079 1.8207942,1.8207942 0 0 1 1.8208,-1.8208 1.8207942,1.8207942 0 0 1 1.82079,1.8208 z m 17.76489,-7.9375 a 1.8207942,1.8207942 0 0 1 -1.82079,1.82079 1.8207942,1.8207942 0 0 1 -1.82079,-1.82079 1.8207942,1.8207942 0 0 1 1.82079,-1.8208 1.8207942,1.8207942 0 0 1 1.82079,1.8208 z m -8.88241,0 a 1.8207942,1.8207942 0 0 1 -1.8208,1.82079 1.8207942,1.8207942 0 0 1 -1.82079,-1.82079 1.8207942,1.8207942 0 0 1 1.82079,-1.8208 1.8207942,1.8207942 0 0 1 1.8208,1.8208 z m -8.88248,0 a 1.8207942,1.8207942 0 0 1 -1.82079,1.82079 1.8207942,1.8207942 0 0 1 -1.8208,-1.82079 1.8207942,1.8207942 0 0 1 1.8208,-1.8208 1.8207942,1.8207942 0 0 1 1.82079,1.8208 z m 17.76489,-7.9375 a 1.8207942,1.8207942 0 0 1 -1.82079,1.82079 1.8207942,1.8207942 0 0 1 -1.82079,-1.82079 1.8207942,1.8207942 0 0 1 1.82079,-1.8208 1.8207942,1.8207942 0 0 1 1.82079,1.8208 z m -8.88241,0 a 1.8207942,1.8207942 0 0 1 -1.8208,1.82079 1.8207942,1.8207942 0 0 1 -1.82079,-1.82079 1.8207942,1.8207942 0 0 1 1.82079,-1.8208 1.8207942,1.8207942 0 0 1 1.8208,1.8208 z m -8.88248,0 a 1.8207942,1.8207942 0 0 1 -1.82079,1.82079 1.8207942,1.8207942 0 0 1 -1.8208,-1.82079 1.8207942,1.8207942 0 0 1 1.8208,-1.8208 1.8207942,1.8207942 0 0 1 1.82079,1.8208 z"
       style="opacity:0.85448914;vector-effect:none;fill:#ffffff;fill-opacity:0.93303573;fill-rule:evenodd;stroke:none;stroke-width:0.40000001;stroke-linecap:butt;stroke-linejoin:round;stroke-miterlimit:4;stroke-dasharray:none;stroke-dashoffset:0;stroke-opacity:1;paint-order:normal"
       id="path2758"
       inkscape:connector-curvature="0"
       inkscape:export-xdpi="300"
       inkscape:export-ydpi="300" />
    <text
       id="text2785"
       y="263.50284"
       x="123.57214"
       style="font-style:normal;font-weight:normal;font-size:50.79999924px;line-height:1.25;font-family:sans-serif;letter-spacing:0px;word-spacing:0px;fill:#ffffff;fill-opacity:1;stroke:none;stroke-width:0.26458332;"
       xml:space="preserve"
       inkscape:export-xdpi="300"
       inkscape:export-ydpi="300"><tspan
         style="font-size:7.76111126px;stroke-width:0.26458332;fill:#ffffff;fill-opacity:1;"
         y="263.50284"
         x="123.57214"
         id="tspan2783"
         sodipodi:role="line">Rules:</tspan></text>
    <path
       style="opacity:1;fill:url(#linearGradient2928);fill-opacity:1;stroke:none;stroke-width:3.77952743;stroke-linecap:butt;stroke-linejoin:bevel;stroke-miterlimit:4;stroke-dasharray:11.33858253, 3.77952754000000013;stroke-dashoffset:0;stroke-opacity:1;paint-order:normal"
       d="M 875.90234 969.92969 C 870.83658 969.9006 865.92833 972.58073 863.30859 977.34961 C 859.49806 984.28617 862.01462 992.93752 868.95117 996.74805 L 885.27344 1005.7148 L 944.61523 1005.7148 L 882.70898 971.70703 C 880.54131 970.51624 878.20496 969.94291 875.90234 969.92969 z "
       transform="matrix(0.26458333,0,0,0.26458333,0,32.41665)"
       id="rect2787"
       inkscape:export-xdpi="300"
       inkscape:export-ydpi="300" />
    <path
       style="opacity:1;fill:url(#linearGradient2960);fill-opacity:1.0;stroke:none;stroke-width:3.77952743;stroke-linecap:butt;stroke-linejoin:bevel;stroke-miterlimit:4;stroke-dasharray:11.33858253, 3.77952754000000013;stroke-dashoffset:0;stroke-opacity:1;paint-order:normal"
       d="M 1.4277344 494.06641 L 1.4277344 526.66602 L 38.765625 547.17773 C 45.702181 550.98826 54.355486 548.47171 58.166016 541.53516 C 61.976546 534.5986 59.45804 525.9453 52.521484 522.13477 L 1.4277344 494.06641 z "
       transform="matrix(0.26458333,0,0,0.26458333,0,32.41665)"
       id="rect2789"
       inkscape:export-xdpi="300"
       inkscape:export-ydpi="300" />
    <path
       style="opacity:0.87900002;fill:url(#linearGradient2883);fill-opacity:1;stroke:none;stroke-width:0.37800005;stroke-linecap:butt;stroke-linejoin:bevel;stroke-miterlimit:4;stroke-dasharray:none;stroke-dashoffset:0;stroke-opacity:0.22767855;paint-order:normal"
       d="M 1.4277344 -1.4277344 L 1.4277344 79.419922 L 125.15625 109.80469 L 92.833984 -1.4277344 L 1.4277344 -1.4277344 z "
       transform="matrix(0.26458333,0,0,0.26458333,0,32.41665)"
       id="path2845"
       inkscape:export-xdpi="300"
       inkscape:export-ydpi="300" />
    <flowRoot
       xml:space="preserve"
       id="flowRoot2853"
       style="fill:black;fill-opacity:1;stroke:none;font-family:sans-serif;font-style:normal;font-weight:normal;font-size:32px;line-height:1.25;letter-spacing:0px;word-spacing:0px"><flowRegion
         id="flowRegion2855"><rect
           id="rect2857"
           width="236.3757"
           height="90.913727"
           x="1234.4064"
           y="733.3197" /></flowRegion><flowPara
         id="flowPara2859" /></flowRoot>    <flowRoot
       xml:space="preserve"
       id="flowRoot2861"
       style="font-style:normal;font-weight:normal;font-size:32px;line-height:1.25;font-family:sans-serif;letter-spacing:0px;word-spacing:0px;fill:#ffffff;fill-opacity:1;stroke:none;stroke-width:1.34226882;"
       transform="matrix(0.1971165,0,0,0.1971165,202.65961,297.27287)"><flowRegion
         id="flowRegion2863"
         style="stroke-width:1.34226882;fill:#ffffff;fill-opacity:1;"><rect
           id="rect2865"
           width="668.12927"
           height="150.14532"
           x="-666.70068"
           y="-151.5739"
           style="stroke-width:1.34226882;fill:#ffffff;fill-opacity:1;" /></flowRegion><flowPara
         id="flowPara2867"
         style="text-align:center;text-anchor:middle;stroke-width:1.80168557;fill:#ffffff;fill-opacity:1;">Content must not be vulgar</flowPara><flowPara
         id="flowPara2869"
         style="text-align:center;text-anchor:middle;stroke-width:1.80168557;fill:#ffffff;fill-opacity:1;">Rap can either be with or without beats</flowPara><flowPara
         id="flowPara2871"
         style="text-align:center;text-anchor:middle;stroke-width:1.80168557;fill:#ffffff;fill-opacity:1;">Max Length could be 1.5 min</flowPara></flowRoot>    <text
       inkscape:export-ydpi="300"
       inkscape:export-xdpi="300"
       xml:space="preserve"
       style="font-style:normal;font-variant:normal;font-weight:bold;font-stretch:normal;font-size:50.79999924px;line-height:1.25;font-family:sans-serif;-inkscape-font-specification:'sans-serif Bold';letter-spacing:0px;word-spacing:0px;fill:#ffffff;fill-opacity:1;stroke:none;stroke-width:0.26458332"
       x="114.73673"
       y="70.625961"
       id="text2875"><tspan
         sodipodi:role="line"
         id="tspan2873"
         x="114.73673"
         y="70.625961"
         style="font-style:normal;font-variant:normal;font-weight:bold;font-stretch:normal;font-size:7.76111126px;font-family:sans-serif;-inkscape-font-specification:'sans-serif Bold';fill:#ffffff;fill-opacity:1;stroke-width:0.26458332">Caravan</tspan></text>
  </g>
</svg>
