<?xml version="1.0" encoding="UTF-8" standalone="no"?>
<svg
   xmlns:dc="http://purl.org/dc/elements/1.1/"
   xmlns:cc="http://creativecommons.org/ns#"
   xmlns:rdf="http://www.w3.org/1999/02/22-rdf-syntax-ns#"
   xmlns:svg="http://www.w3.org/2000/svg"
   xmlns="http://www.w3.org/2000/svg"
   xmlns:sodipodi="http://sodipodi.sourceforge.net/DTD/sodipodi-0.dtd"
   xmlns:inkscape="http://www.inkscape.org/namespaces/inkscape"
   sodipodi:docname="dino illstration.svg"
   inkscape:version="1.0 (4035a4fb49, 2020-05-01)"
   id="svg8"
   version="1.1"
   viewBox="0 0 210 297"
   height="1122.5197"
   width="793.70081">
  <defs
     id="defs2">
    <inkscape:path-effect
       simplify_just_coalesce="false"
       simplify_individual_paths="false"
       helper_size="0"
       smooth_angles="360"
       threshold="0.024"
       steps="1"
       lpeversion="1"
       is_visible="true"
       id="path-effect986"
       effect="simplify" />
    <inkscape:path-effect
       simplify_just_coalesce="false"
       simplify_individual_paths="false"
       helper_size="0"
       smooth_angles="360"
       threshold="0.024"
       steps="1"
       lpeversion="1"
       is_visible="true"
       id="path-effect980"
       effect="simplify" />
  </defs>
  <sodipodi:namedview
     showborder="false"
     inkscape:showpageshadow="false"
     units="px"
     inkscape:window-maximized="1"
     inkscape:window-y="-9"
     inkscape:window-x="-9"
     inkscape:window-height="1001"
     inkscape:window-width="1920"
     showgrid="false"
     inkscape:document-rotation="0"
     inkscape:current-layer="g857"
     inkscape:document-units="px"
     inkscape:cy="269.7401"
     inkscape:cx="-243.05069"
     inkscape:zoom="0.35"
     inkscape:pageshadow="2"
     inkscape:pageopacity="0.0"
     borderopacity="1.0"
     bordercolor="#666666"
     pagecolor="#ffffff"
     id="base" />
  <metadata
     id="metadata5">
    <rdf:RDF>
      <cc:Work
         rdf:about="">
        <dc:format>image/svg+xml</dc:format>
        <dc:type
           rdf:resource="http://purl.org/dc/dcmitype/StillImage" />
        <dc:title></dc:title>
      </cc:Work>
    </rdf:RDF>
  </metadata>
  <g
     id="layer1"
     inkscape:groupmode="layer"
     inkscape:label="Layer 1">
    <rect
       y="18.898809"
       x="-70.227989"
       height="86.934525"
       width="137.58333"
       id="rect833"
       style="fill:none;stroke:#ffffff;stroke-width:0.529167;stroke-linejoin:bevel;paint-order:stroke fill markers" />
    <g
       transform="matrix(-1.0583333,0,0,1.0583333,242.27448,111.59723)"
       id="g871">
      <g
         id="g857">
        <path
           sodipodi:nodetypes="cccccccccccccccccccccccsscscc"
           id="path1003"
           fill="#94be24"
           d="m 330.68852,-402.19235 c 0,0 0.26133,1.78172 -2.01928,12.42456 -16.89152,2.89288 -24.32711,46.22102 -49.41313,54.90083 -3.70597,11.1417 -19.93155,13.49358 -19.93155,13.49358 -2.90914,13.0917 -11.60415,24.15489 -23.63752,30.0755 0.0953,7.67127 2.83974,15.07371 7.76831,20.95306 8.00622,2.05607 13.9985,8.71311 15.20405,16.89074 h -30.40808 c -1.02152,-19.26637 -15.20405,-37.8438 -15.20405,-37.8438 3.00322,-5.3296 4.18749,-11.49283 3.3734,-17.55593 0,0 -49.19932,53.28541 -88.68231,22.44973 -0.68894,-0.5464 -1.35412,-1.06904 -1.97178,-1.61544 -3.56138,-2.95936 -6.53499,-6.56154 -8.76607,-10.61907 -10.54781,-19.9553 8.88485,-39.3167 9.83511,-40.24319 -17.65095,22.0221 4.75126,42.19121 24.30271,39.81558 3.59113,-0.41062 7.03858,-1.64649 10.07267,-3.61096 4.35945,-2.95544 7.70891,-7.17542 9.59756,-12.09196 4.32367,-11.05105 9.93736,-21.55281 16.72443,-31.28706 3.22587,-4.53328 6.91186,-8.72082 10.99918,-12.49583 12.13946,-11.07044 25.11042,-14.99023 39.1504,-18.17358 4.15354,-0.85666 8.19487,-2.18782 12.04445,-3.9673 4.02813,-1.78298 7.41151,-4.76002 9.69259,-8.52851 3.65847,-6.17665 4.25237,-14.4676 5.98657,-25.72809 3.37341,-21.78454 26.34575,-19.24261 34.47042,-19.43267 8.12465,-0.19004 9.45501,-7.76831 20.76302,-3.20709 11.30801,4.5612 11.33177,20.95306 11.33177,20.95306 -9.12245,-1.18782 -16.72446,1.5204 -25.84688,9.97765 -9.12243,8.45724 -14.87145,7.41197 -14.87145,7.41197 15.29906,4.48995 39.43546,-2.94578 39.43546,-2.94578 z"
           style="fill:#be242f;fill-opacity:1;stroke-width:0.999999" />
        <path
           id="path960"
           d="m 193.00379,119.45404 c -8.4452,-0.81369 -17.28329,-3.38144 -24.89401,-7.23249 -7.10448,-3.59491 -12.8167,-7.7289 -18.42033,-13.33097 -5.68373,-5.68217 -10.32945,-12.171571 -13.70717,-19.146966 -2.22587,-4.596634 -3.60904,-8.394216 -5.19045,-14.250727 -0.38692,-1.4329 -0.85472,-2.317256 -1.6572,-3.132852 -0.79263,-0.805609 -1.4888,-1.207939 -3.03687,-1.755087 -4.4208,-1.562478 -7.3634,-2.947766 -10.96128,-5.160232 C 108.91413,51.618351 103.31154,46.202618 99.18455,40.024821 91.84426,29.036942 88.93798,15.525498 91.11193,2.494802 c 2.89123,-17.330127 14.30135,-32.006253 30.43106,-39.141653 4.60335,-2.03642 9.43778,-3.36694 14.73693,-4.055905 0.72939,-0.09482 1.61123,-0.261151 1.95965,-0.369594 1.32074,-0.411059 2.62734,-1.659396 3.14906,-3.008635 0.49395,-1.277398 0.48113,-1.428924 -1.24028,-14.660252 -0.86553,-6.652801 -1.65698,-12.897901 -1.75877,-13.878004 -0.27275,-2.626223 -0.27278,-10.548347 -5e-5,-13.122001 0.26803,-2.529373 0.57031,-4.655828 0.95187,-6.696006 3.20554,-17.139842 12.5206,-32.223792 26.12236,-42.300132 9.90534,-7.33798 21.33395,-11.78857 33.85803,-13.18516 1.9223,-0.21437 2.7067,-0.24087 7.128,-0.24087 4.41468,0 5.20858,0.0268 7.12801,0.24012 11.38964,1.26615 21.54341,4.91308 30.88801,11.09405 3.94196,2.60741 6.91958,5.00379 10.13663,8.15797 4.21749,4.13505 6.82862,7.29447 9.90759,11.98801 1.99616,3.04291 2.70907,3.99376 4.01409,5.35391 5.39883,5.62687 13.2867,8.04635 21.09651,6.471 1.52258,-0.30712 3.35688,-0.93659 6.73922,-2.31265 3.1703,-1.28981 4.4806,-1.76097 7.79896,-2.80442 5.40898,-1.70083 11.26471,-2.93923 17.19087,-3.63567 5.90473,-0.6939 13.63577,-0.77437 19.6126,-0.20411 21.70441,2.07081 42.00576,11.67366 57.51318,27.204629 3.70565,3.71129 5.96935,6.306767 8.88547,10.187853 6.10782,8.128867 10.79034,16.967694 13.97267,26.374997 2.79697,8.268199 4.35388,16.318845 4.85128,25.085663 0.16459,2.900873 0.0711,10.420458 -0.16358,13.146848 -0.83274,9.677377 -2.89871,18.501658 -6.39377,27.309406 -2.40194,6.053035 -5.23837,11.46427 -8.95485,17.083768 -5.3986,8.162941 -11.91389,15.32273 -19.6248,21.566139 -9.90406,8.019136 -21.77031,14.114207 -34.03943,17.484244 -6.06291,1.665351 -10.84275,2.487449 -18.58258,3.196058 -2.3315,0.213466 -11.51022,0.175133 -14.20201,-0.05935 -7.9366,-0.691232 -14.02812,-1.864944 -20.84401,-4.016213 -5.10346,-1.610784 -8.14444,-2.083944 -12.6264,-1.964581 -5.44104,0.144891 -9.91346,1.251345 -14.86563,3.677664 -6.02365,2.951284 -11.34376,7.742738 -14.94826,13.462883 -4.75802,7.550722 -10.12727,13.495172 -17.22975,19.075572 -5.80284,4.55927 -13.581,8.70174 -20.89801,11.12979 -5.16901,1.71526 -9.64122,2.66307 -15.69731,3.32679 -1.94651,0.21334 -11.88757,0.21125 -14.1107,-0.003 z"
           style="fill:#fdd9a2;fill-opacity:1;stroke-width:1" />
        <circle
           transform="scale(-1,1)"
           r="88.571426"
           cy="42.960632"
           cx="-239.6561"
           id="path911"
           style="opacity:1;vector-effect:none;fill:#fdd9a2;fill-opacity:1;fill-rule:evenodd;stroke:none;stroke-width:0.377953;stroke-linecap:butt;stroke-linejoin:round;stroke-miterlimit:4;stroke-dasharray:none;stroke-dashoffset:0;stroke-opacity:1;paint-order:normal" />
        <path
           style="fill:#a41923;fill-opacity:1;stroke-width:2.25000008;stroke:#000000;stroke-opacity:1;stroke-miterlimit:4;stroke-dasharray:none"
           d="m 179.33447,79.359268 a -20.298808,20.298808 0 0 1 0,18.096837 c 0,0 5.8865,11.193535 4.51985,21.997855 h 22.64947 V 67.936132 L 171.82765,50.98948 Z"
           fill="#82a626"
           id="path837" />
        <path
           style="fill:#be242f;fill-opacity:1;stroke-width:2.25000008;stroke-miterlimit:4;stroke-dasharray:none;stroke:#000000;stroke-opacity:1"
           d="m 300.79713,-17.453125 c 0,0 0.24054,1.639997 -1.85866,11.4362565 -2.0992,9.7962574 -28.68903,14.4538534 -28.68903,14.4538534 1.88053,13.6885201 -6.99734,25.6058441 -6.99734,25.6058441 a -13.303668,13.303668 0 0 1 10.25547,15.897052 -11.07327,11.07327 0 0 0 -12.57332,-0.699732 c -3.49867,-5.35733 -7.47841,-4.723197 -7.47841,-4.723197 -3.41118,10.255457 -18.34612,12.420256 -18.34612,12.420256 a -40.689456,40.689456 0 0 1 -21.7573,27.683176 -30.613306,30.613306 0 0 0 7.15039,19.286386 -18.897157,18.897157 0 0 1 13.99466,15.54719 H 206.50816 C 205.5679,101.7201 192.5135,84.620384 192.5135,84.620384 a -25.89667,25.89667 0 0 0 3.10507,-16.159453 c 0,0 -45.28583,49.046889 -81.62819,20.663981 -0.63414,-0.502932 -1.24641,-0.983999 -1.81494,-1.486932 a -34.022316,34.022316 0 0 1 -8.06878,-9.77439 c -9.7088,-18.367984 8.17811,-36.189302 9.05278,-37.042102 -16.24692,20.270382 4.37333,38.835167 22.36959,36.648501 a -21.567074,21.567074 0 0 0 9.27145,-3.32373 -23.725311,23.725311 0 0 0 8.83413,-11.130124 -138.72857,138.72857 0 0 1 15.39411,-28.798373 -74.28756,74.28756 0 0 1 10.12426,-11.501856 C 190.32683,12.526047 202.26603,8.9180504 215.18922,5.9879201 a -50.949288,50.949288 0 0 0 11.08639,-3.6517293 -19.793689,19.793689 0 0 0 8.9216,-7.8501268 c 3.36746,-5.685328 3.91412,-13.316788 5.51038,-23.681579 3.10507,-20.051714 24.25011,-17.711983 31.72851,-17.886916 7.47839,-0.174933 8.70293,-7.150393 19.11145,-2.951997 10.40853,4.198396 10.4304,19.286382 10.4304,19.286382 -8.39681,-1.093333 -15.39413,1.399465 -23.79092,9.183991 -8.3968,7.784526 -13.68852,6.822393 -13.68852,6.822393 14.08212,4.132797 36.29862,-2.711463 36.29862,-2.711463 z"
           fill="#94be24"
           id="path839" />
        <g
           transform="matrix(2.1866647,0,0,2.1866647,61.40109,-105.90371)"
           style="fill:#a41923;fill-opacity:1;stroke-width:0.4573175;stroke-miterlimit:4;stroke-dasharray:none;stroke:#000000;stroke-opacity:1"
           fill="#82a626"
           id="g855">
          <path
             style="fill:#a41923;fill-opacity:1;stroke-width:0.4573175;stroke-miterlimit:4;stroke-dasharray:none;stroke:#000000;stroke-opacity:1"
             d="m 55.44,61.78 a 3.529,3.529 0 0 1 -3.53,3.53 3.58,3.58 0 0 1 -2.69,-1.23 33.973,33.973 0 0 1 4.63,-5.26 3.542,3.542 0 0 1 1.59,2.96 z"
             id="path843" />
          <circle
             style="fill:#a41923;fill-opacity:1;stroke-width:0.4573175;stroke-miterlimit:4;stroke-dasharray:none;stroke:#000000;stroke-opacity:1"
             cx="69.969002"
             cy="59.094002"
             r="2.3440001"
             id="circle845" />
          <path
             style="fill:#a41923;fill-opacity:1;stroke-width:0.4573175;stroke-miterlimit:4;stroke-dasharray:none;stroke:#000000;stroke-opacity:1"
             d="m 80.06,47.59 a 2.722,2.722 0 0 1 -4.66,1.91 9.052,9.052 0 0 0 4.08,-3.59 2.674,2.674 0 0 1 0.58,1.68 z"
             id="path847" />
          <circle
             style="fill:#a41923;fill-opacity:1;stroke-width:0.4573175;stroke-miterlimit:4;stroke-dasharray:none;stroke:#000000;stroke-opacity:1"
             cx="58.688"
             cy="71.938004"
             r="1.563"
             id="circle849" />
          <path
             style="fill:#a41923;fill-opacity:1;stroke-width:0.4573175;stroke-miterlimit:4;stroke-dasharray:none;stroke:#000000;stroke-opacity:1"
             d="m 38.5,83.56 a 2.309,2.309 0 0 1 -4.6,0.3 9.863,9.863 0 0 0 4.24,-1.52 2.213,2.213 0 0 1 0.36,1.22 z"
             id="path851" />
          <path
             style="fill:#a41923;fill-opacity:1;stroke-width:0.4573175;stroke-miterlimit:4;stroke-dasharray:none;stroke:#000000;stroke-opacity:1"
             d="m 24.05,86.48 a 2.917,2.917 0 0 1 -0.83,2.03 15.559,15.559 0 0 1 -3.69,-4.47 2.917,2.917 0 0 1 4.52,2.44 z"
             id="path853" />
        </g>
        <ellipse
           style="opacity:1;vector-effect:none;fill:#000000;fill-opacity:1;fill-rule:evenodd;stroke:none;stroke-width:0.377963;stroke-linecap:butt;stroke-linejoin:round;stroke-miterlimit:4;stroke-dasharray:none;stroke-dashoffset:0;stroke-opacity:1;paint-order:normal"
           id="ellipse901"
           cx="-258.98294"
           cy="53.539913"
           transform="matrix(-0.94881429,0.31583453,0.30620247,0.95196641,0,0)"
           rx="2.743041"
           ry="4.0327892" />
        <ellipse
           ry="2.1219397"
           rx="1.608591"
           transform="matrix(-0.96018474,0.27936584,0.34535686,0.93847144,0,0)"
           cy="45.190197"
           cx="-255.51584"
           id="path899"
           style="opacity:1;vector-effect:none;fill:#ffffff;fill-opacity:1;fill-rule:evenodd;stroke:#ffffff;stroke-width:0.378408;stroke-linecap:butt;stroke-linejoin:round;stroke-miterlimit:4;stroke-dasharray:none;stroke-dashoffset:0;stroke-opacity:1;paint-order:normal" />
        <g
           style="stroke-width:1.16223"
           transform="matrix(0.86041241,0,0,0.86041241,239.665,104.80718)"
           id="g932">
          <path
             style="opacity:1;vector-effect:none;fill:#be242f;fill-opacity:1;fill-rule:evenodd;stroke:none;stroke-width:0.43927;stroke-linecap:butt;stroke-linejoin:round;stroke-miterlimit:4;stroke-dasharray:none;stroke-dashoffset:0;stroke-opacity:1;paint-order:normal"
             id="path913"
             transform="scale(-1)"
             sodipodi:type="arc"
             sodipodi:cx="-114.91652"
             sodipodi:cy="56.111866"
             sodipodi:rx="32.142857"
             sodipodi:ry="36.183468"
             sodipodi:start="0"
             sodipodi:end="3.131789"
             sodipodi:arc-type="slice"
             d="M -82.773663,56.111866 A 32.142857,36.183468 0 0 1 -114.75896,92.294899 32.142857,36.183468 0 0 1 -147.05783,56.46659 l 32.14131,-0.354724 z" />
          <path
             d="M -65.452221,56.111866 A 19.642857,22.11212 0 0 1 -84.998792,78.22372 19.642857,22.11212 0 0 1 -104.73699,56.328642 l 19.641912,-0.216776 z"
             sodipodi:arc-type="slice"
             sodipodi:end="3.131789"
             sodipodi:start="0"
             sodipodi:ry="22.11212"
             sodipodi:rx="19.642857"
             sodipodi:cy="56.111866"
             sodipodi:cx="-85.095078"
             sodipodi:type="arc"
             transform="scale(-1)"
             id="path917"
             style="opacity:1;vector-effect:none;fill:#be242f;fill-opacity:1;fill-rule:evenodd;stroke:none;stroke-width:0.43927;stroke-linecap:butt;stroke-linejoin:round;stroke-miterlimit:4;stroke-dasharray:none;stroke-dashoffset:0;stroke-opacity:1;paint-order:normal" />
          <path
             style="opacity:1;vector-effect:none;fill:#be242f;fill-opacity:1;fill-rule:evenodd;stroke:none;stroke-width:0.43927;stroke-linecap:butt;stroke-linejoin:round;stroke-miterlimit:4;stroke-dasharray:none;stroke-dashoffset:0;stroke-opacity:1;paint-order:normal"
             id="path919"
             transform="scale(-1)"
             sodipodi:type="arc"
             sodipodi:cx="-140.45222"
             sodipodi:cy="56.111866"
             sodipodi:rx="19.642857"
             sodipodi:ry="22.11212"
             sodipodi:start="0"
             sodipodi:end="3.131789"
             sodipodi:arc-type="slice"
             d="m -120.80937,56.111866 a 19.642857,22.11212 0 0 1 -19.54657,22.111854 19.642857,22.11212 0 0 1 -19.7382,-21.895078 l 19.64192,-0.216776 z" />
        </g>
        <g
           id="g944"
           transform="matrix(0.86041241,0,0,0.86041241,64.9086,24.50005)"
           style="stroke-width:1.16223">
          <path
             d="M -82.773663,56.111866 A 32.142857,36.183468 0 0 1 -114.75896,92.294899 32.142857,36.183468 0 0 1 -147.05783,56.46659 l 32.14131,-0.354724 z"
             sodipodi:arc-type="slice"
             sodipodi:end="3.131789"
             sodipodi:start="0"
             sodipodi:ry="36.183468"
             sodipodi:rx="32.142857"
             sodipodi:cy="56.111866"
             sodipodi:cx="-114.91652"
             sodipodi:type="arc"
             transform="scale(-1)"
             id="path938"
             style="opacity:1;vector-effect:none;fill:#be242f;fill-opacity:1;fill-rule:evenodd;stroke:none;stroke-width:0.43927;stroke-linecap:butt;stroke-linejoin:round;stroke-miterlimit:4;stroke-dasharray:none;stroke-dashoffset:0;stroke-opacity:1;paint-order:normal" />
          <path
             style="opacity:1;vector-effect:none;fill:#be242f;fill-opacity:1;fill-rule:evenodd;stroke:none;stroke-width:0.43927;stroke-linecap:butt;stroke-linejoin:round;stroke-miterlimit:4;stroke-dasharray:none;stroke-dashoffset:0;stroke-opacity:1;paint-order:normal"
             id="path940"
             transform="scale(-1)"
             sodipodi:type="arc"
             sodipodi:cx="-85.095078"
             sodipodi:cy="56.111866"
             sodipodi:rx="19.642857"
             sodipodi:ry="22.11212"
             sodipodi:start="0"
             sodipodi:end="3.131789"
             sodipodi:arc-type="slice"
             d="M -65.452221,56.111866 A 19.642857,22.11212 0 0 1 -84.998792,78.22372 19.642857,22.11212 0 0 1 -104.73699,56.328642 l 19.641912,-0.216776 z" />
          <path
             d="m -120.80937,56.111866 a 19.642857,22.11212 0 0 1 -19.54657,22.111854 19.642857,22.11212 0 0 1 -19.7382,-21.895078 l 19.64192,-0.216776 z"
             sodipodi:arc-type="slice"
             sodipodi:end="3.131789"
             sodipodi:start="0"
             sodipodi:ry="22.11212"
             sodipodi:rx="19.642857"
             sodipodi:cy="56.111866"
             sodipodi:cx="-140.45222"
             sodipodi:type="arc"
             transform="scale(-1)"
             id="path942"
             style="opacity:1;vector-effect:none;fill:#be242f;fill-opacity:1;fill-rule:evenodd;stroke:none;stroke-width:0.43927;stroke-linecap:butt;stroke-linejoin:round;stroke-miterlimit:4;stroke-dasharray:none;stroke-dashoffset:0;stroke-opacity:1;paint-order:normal" />
        </g>
        <path
           sodipodi:nodetypes="ccccscccccccccccsssccccccccccccccccccccccccccscscccccccccccccccccccccccccccccccccccccccccccccccccccc"
           id="path976"
           d="m 458.62472,-214.39229 v -25.15053 h -4.84918 -4.84918 v -13.51546 c 0,-12.2867 -0.14037,-13.51486 -1.54293,-13.50869 -0.84862,0.004 -7.0256,-0.0638 -13.72664,-0.15059 l -12.18372,-0.15729 0.2183,-5.95127 0.2183,-5.95127 -6.28645,-0.25815 -6.28648,-0.25816 -0.26309,-5.03186 -0.26344,-5.03183 -3.96751,-0.0938 c -2.18213,-0.0515 -4.66181,-0.15059 -5.51044,-0.22042 -1.44223,-0.11849 -1.54292,-2.47957 -1.54292,-36.18079 0,-38.50734 -0.1922,-36.91011 4.40835,-36.63891 6.85741,0.40426 6.17169,-0.96222 6.17169,12.29866 v 11.90254 h 6.61252 6.61252 v 6.5276 6.52763 l 5.95127,-0.0282 5.95127,-0.0282 0.25745,6.72654 0.25745,6.72653 c 47.03389,-67.74642 81.17676,-56.56449 87.88137,-91.91391 -1.09112,-51.90233 9.8543,-52.67978 61.48785,-52.67978 40.93248,-0.33744 63.92105,-0.73262 63.92105,38.66271 v 27.20102 l -13.00462,0.60486 c -7.15257,0.33257 -21.47169,0.55983 -31.82027,0.50481 l -18.81564,-0.10015 v 7.58295 7.58296 l 17.49313,0.19855 17.49314,0.19856 v 3.84376 3.8438 l -23.58466,-0.14001 -23.58467,-0.14001 v 15.0318 15.03179 h 11.40966 c 7.07402,0 11.62879,0.35454 11.98629,0.93302 0.31705,0.51317 0.29307,5.47256 -0.0536,11.02087 l -0.63029,10.08785 h -5.18429 -5.18432 v -5.73085 -5.73085 h -6.17169 -6.17169 v 21.12297 c 4.83164,43.22865 -22.74585,74.758 -40.29625,77.84446 l -0.18021,25.34802 h 9.21729 9.21726 v 6.17169 6.17168 h -13.22505 -13.22504 l -0.13825,-2.86542 c -0.0762,-1.57599 -0.17527,-9.80858 -0.22042,-18.29465 l -0.0822,-15.42923 -6.3921,-0.25921 -6.39211,-0.25886 v -6.5744 -6.5739 h -7.05336 -7.05335 v 6.57225 6.57224 l -5.89629,0.26063 -5.89626,0.26062 0.22783,5.51043 0.22782,5.51043 h -7.11571 -7.11574 v 6.61252 6.61252 h 7.9753 7.9753 l -0.26062,5.95127 -0.26062,5.95127 -13.44546,0.24338 -13.44547,0.24337 v -25.15054 z m 99.62867,-222.65997 v -7.06881 l -6.3921,0.25851 -6.39211,0.2585 -0.25744,6.81041 -0.25745,6.81045 h 6.64959 6.64962 z"
           style="fill:#be242f;fill-opacity:1;stroke-width:1" />
        <circle
           transform="scale(-1,1)"
           r="26.428574"
           cy="-69.731903"
           cx="-331.77792"
           id="path992"
           style="opacity:0.48;vector-effect:none;fill:#ffffff;fill-opacity:1;fill-rule:evenodd;stroke:#000000;stroke-width:2.25000008;stroke-linecap:butt;stroke-linejoin:round;stroke-miterlimit:4;stroke-dasharray:none;stroke-dashoffset:0;stroke-opacity:1;paint-order:normal" />
      </g>
    </g>
  </g>
</svg>
