<?xml version="1.0" encoding="UTF-8" standalone="no"?>
<!-- Created with Inkscape (http://www.inkscape.org/) -->

<svg
   xmlns:dc="http://purl.org/dc/elements/1.1/"
   xmlns:cc="http://creativecommons.org/ns#"
   xmlns:rdf="http://www.w3.org/1999/02/22-rdf-syntax-ns#"
   xmlns:svg="http://www.w3.org/2000/svg"
   xmlns="http://www.w3.org/2000/svg"
   xmlns:xlink="http://www.w3.org/1999/xlink"
   xmlns:sodipodi="http://sodipodi.sourceforge.net/DTD/sodipodi-0.dtd"
   xmlns:inkscape="http://www.inkscape.org/namespaces/inkscape"
   width="793.70081"
   height="1122.5197"
   viewBox="0 0 210 297"
   version="1.1"
   id="svg8"
   inkscape:version="0.92.4 (5da689c313, 2019-01-14)"
   sodipodi:docname="mega circle.svg">
  <defs
     id="defs2">
    <linearGradient
       inkscape:collect="always"
       id="linearGradient818">
      <stop
         style="stop-color:#ff00c9;stop-opacity:1"
         offset="0"
         id="stop814" />
      <stop
         style="stop-color:#43008b;stop-opacity:1"
         offset="1"
         id="stop816" />
    </linearGradient>
    <inkscape:path-effect
       effect="curvestitching"
       id="path-effect824"
       is_visible="true"
       count="75"
       startpoint_edge_variation="0;1"
       startpoint_spacing_variation="0;1"
       endpoint_edge_variation="0;1"
       endpoint_spacing_variation="0;1"
       strokepath="M 0,0 C 6.007029,6.5723114 -11.137181,46.517655 -8.4989848,59.865355 -5.616553,74.448738 16.945597,62.459528 21.573555,68.852236 31.196682,82.14489 37.432732,96.777161 53.88945,76.597895 79.069054,45.722604 169.39446,464.17059 -32.141421,138.98015"
       prop_scale="1"
       scale_y_rel="false"
       strokepath-nodetypes="csssc" />
    <linearGradient
       inkscape:collect="always"
       xlink:href="#linearGradient818"
       id="linearGradient820"
       x1="-342.97647"
       y1="-73.290794"
       x2="363.89453"
       y2="502.74493"
       gradientUnits="userSpaceOnUse"
       gradientTransform="translate(33.261906,1.5119048)" />
  </defs>
  <sodipodi:namedview
     id="base"
     pagecolor="#331c45"
     bordercolor="#666666"
     borderopacity="1.0"
     inkscape:pageopacity="0"
     inkscape:pageshadow="2"
     inkscape:zoom="0.175"
     inkscape:cx="199.5453"
     inkscape:cy="236.06843"
     inkscape:document-units="px"
     inkscape:current-layer="layer1"
     showgrid="false"
     showborder="false"
     units="px"
     inkscape:window-width="1920"
     inkscape:window-height="1001"
     inkscape:window-x="-9"
     inkscape:window-y="-9"
     inkscape:window-maximized="1" />
  <metadata
     id="metadata5">
    <rdf:RDF>
      <cc:Work
         rdf:about="">
        <dc:format>image/svg+xml</dc:format>
        <dc:type
           rdf:resource="http://purl.org/dc/dcmitype/StillImage" />
        <dc:title></dc:title>
      </cc:Work>
    </rdf:RDF>
  </metadata>
  <g
     inkscape:label="Layer 1"
     inkscape:groupmode="layer"
     id="layer1">
    <path
       style="opacity:0.96284832;vector-effect:none;fill:none;fill-opacity:1;fill-rule:evenodd;stroke:url(#linearGradient820);stroke-width:2;stroke-linecap:butt;stroke-linejoin:round;stroke-miterlimit:4;stroke-dasharray:none;stroke-dashoffset:0;stroke-opacity:1;paint-order:normal"
       d="m 234.09925,17.91185 c 15.52019,9.78282 -28.77481,69.24105 -21.95858,89.10898 7.44725,21.70722 65.74044,3.8614 77.69756,13.37688 24.863,19.78598 40.9749,41.56597 83.49365,11.52933 65.05582,-45.95756 298.42699,576.898 -222.2755,92.85535 M 249.91277,33.9835 c 14.63006,11.05817 -34.50552,66.56423 -29.39556,86.93661 5.58302,22.25838 65.14419,9.39783 76.2484,19.8888 23.08951,21.81437 37.29543,44.87677 82.17676,18.5372 68.67068,-40.30086 248.4695,600.03123 -229.20602,73.75755 M 264.08541,51.21398 c 13.62632,12.24533 -39.93894,63.43431 -36.56973,84.16253 3.68113,22.64717 64.02946,14.82588 74.1952,26.21043 21.13808,23.67243 33.33161,47.8437 80.2079,25.36067 71.72311,-34.40016 196.71289,618.72523 -234.27846,54.27881 M 276.64216,69.51183 c 12.51773,13.33886 -45.06949,59.86914 -43.46773,80.80359 1.75006,22.87249 62.42395,20.11915 71.57288,32.31136 19.02381,25.35184 29.11052,50.45376 77.62399,31.96679 74.22804,-28.28598 143.42294,632.90979 -237.56004,34.51781 M 287.58793,88.79154 c 11.31405,14.33303 -49.88443,55.88447 -50.06705,76.87391 -0.19953,22.93258 60.35574,25.25114 68.41778,38.16079 16.76376,26.84362 24.66348,52.69271 74.463,38.32228 76.19574,-21.98745 88.92443,642.49726 -239.1084,14.57037 m 155.61473,-147.7534 c 10.02603,15.22217 -54.36413,51.4968 -56.3363,72.38861 -2.15475,22.82591 57.85335,30.19536 64.76755,43.72799 14.37702,28.13906 20.02598,54.5468 70.76412,44.39402 77.63189,-15.53425 33.60002,647.4063 -238.97187,-5.4667 m 167.4389,-134.07268 c 8.66526,16.00114 -58.48284,46.72592 -62.23622,67.36702 -4.10085,22.55197 54.9456,34.92554 60.66104,48.98298 11.88439,29.23033 15.23715,56.00419 66.56754,50.14935 78.53807,-8.95819 -22.11705,647.58273 -237.19068,-25.49213 M 310.53045,151.59332 c 7.24398,16.66551 -62.21034,41.59693 -67.72178,61.8353 -6.02166,22.11196 51.66155,39.41565 56.13794,53.89671 9.30796,30.11114 10.33883,57.05624 61.9142,55.55654 78.91293,-2.29459 -77.75603,643.01684 -233.79898,-45.39755 M 314.7367,173.80438 c 5.77478,17.21181 -65.514,36.14159 -72.74485,55.82821 -7.90025,21.50912 48.03042,43.64012 51.23841,58.44147 6.67052,30.77712 5.37429,57.69836 56.84547,60.585 78.75348,4.41672 -132.82625,633.75425 -228.82779,-65.06568 M 317.1378,196.41872 c 4.2702,17.63756 -68.36125,30.39885 -77.25739,49.38972 -9.71971,20.74898 44.08141,47.57372 46.00261,62.59092 3.99483,31.22595 0.3868,57.93022 51.40264,65.2053 78.05681,11.13124 -186.8373,619.90085 -222.30804,-84.36956 m 202.71186,-69.96934 c 2.74249,17.94129 -70.722,24.41449 -81.21455,42.57265 -11.46391,19.83918 39.8436,51.19162 40.47022,66.32005 1.30295,31.45726 -4.5819,57.75563 45.62666,69.38916 C 399.39342,415.34748 83.252089,999.1667 108.29764,294.37452 M 316.3608,242.15914 c 1.20318,18.12225 -72.57087,18.23989 -84.57753,35.43698 -13.1182,18.78913 35.34579,54.46926 34.67999,69.60491 -1.38442,31.47225 -9.49289,57.18172 39.55765,73.10918 C 381.07069,444.68005 16.177728,999.4284 101.25408,298.9776 m 211.8846,-34.07553 c -0.33707,18.18031 -73.88881,11.93011 -87.31568,28.04743 -14.66989,17.6094 30.61643,57.38234 28.66949,72.42227 -4.04838,31.27323 -14.31104,56.21786 33.23468,76.3387 C 360.47451,472.49635 -50.302762,994.34831 93.892009,303.0108 M 308.0302,287.29418 c -1.8686,18.11541 -74.66385,5.54147 -89.40749,20.47034 -16.10855,16.31093 25.68359,59.90661 22.47488,74.74916 -6.67204,30.86279 -19.00548,54.87416 26.69566,79.05111 69.92503,36.99197 -383.56153,522.42852 -181.537841,-155.12396 m 214.806991,2.69764 c -3.38275,17.92741 -74.89111,-0.87093 -90.84051,12.77051 -17.42594,14.90432 20.57492,62.01775 16.13095,76.56235 -9.24055,30.24328 -23.54956,53.16003 19.97732,81.21976 66.59831,42.93278 -426.1783,488.73032 -167.943041,-170.45691 m 213.892441,21.01369 c -4.87174,17.61561 -74.57177,-7.25548 -91.61016,5.00825 -18.61575,13.39906 15.31776,63.69124 9.67136,77.83798 -11.7408,29.41594 -27.92033,51.08276 13.11535,82.81725 62.78666,48.55539 -465.67122,451.75476 -153.127021,-184.55453 m 211.409201,39.09367 c -6.32835,17.17859 -73.71138,-13.56587 -91.71743,-2.76302 -19.67299,11.80292 9.93917,64.90229 3.12889,78.55109 -14.16093,28.38055 -32.09742,48.6464 6.14475,83.81544 58.51245,53.8104 -501.86767,411.66811 -137.171981,-197.28013 m 207.378581,56.8193 c -7.74573,16.61397 -72.31756,-19.76252 -91.16602,-10.49847 -20.59338,10.12167 4.46614,65.6257 -3.46407,78.6755 -16.48963,27.13502 -36.0617,45.85113 -0.89984,84.18502 C 227.77059,580.608 -360.6411,890.53718 53.808349,313.44942 m 201.820301,74.09339 c -9.11688,15.91841 -70.3973,-25.81281 -89.95877,-18.16227 -21.3724,8.35881 -1.07435,65.83592 -10.075,78.18362 -18.71547,25.67516 -39.7937,42.69272 -7.98369,83.89547 48.67091,63.04228 -563.74424,322.54852 -102.183621,-218.11319 m 194.783251,90.80178 c -10.43119,15.08983 -67.96053,-31.67725 -88.09922,-25.70943 -22.00307,6.52028 -6.64152,65.50886 -16.65475,77.05064 -20.82097,23.99937 -43.263621,39.17226 -15.05428,82.91899 43.16171,66.9347 -589.01626,273.68767 -83.360422,-225.97765 m 186.505482,106.7062 c -11.66309,14.14187 -65.05467,-37.25958 -85.62358,-33.01613 -22.4731,4.6363 -12.12704,64.64995 -23.07527,75.29518 C 92.083609,483.55117 68.444819,496.7635 92.874759,542.68761 130.2538,612.95378 -517.06181,765.48851 28.815268,310.71743 M 205.77261,432.4998 c -12.80415,13.08454 -61.70509,-42.54274 -82.55522,-40.05446 -22.78036,2.71862 -17.49101,63.28633 -29.290401,72.95297 -24.53501,20.10028 -49.19418,31.25138 -28.69296,78.99051 31.36792,73.04327 -626.386279,170.24075 -44.42756,-236.13938 M 186.9732,444.25171 c -13.84872,11.92713 -57.92823,-47.51751 -78.90917,-46.8065 -22.923291,0.77681 -22.706951,61.44593 -35.269421,70.05963 -26.12174,17.91086 -51.62049,26.91313 -35.177941,76.11322 25.157931,75.27862 -638.283398,116.30219 -24.56139,-238.54772 M 167.235,454.38762 c -14.79105,10.67989 -53.73985,-52.16768 -74.699611,-53.24524 -22.90013,-1.17732 -27.74835,59.15705 -40.98154,66.65218 -27.516391,15.58498 -53.6686403,22.36618 -41.395661,72.67832 18.77827,76.98013 -645.540548,61.33948 -4.5568497,-239.24815 M 146.64948,462.88378 c -15.62572,9.35398 -49.157821,-56.47045 -69.943381,-59.33517 -22.7098,-3.12992 -32.58881,56.44836 -46.396341,62.7689 -28.7106197,13.14258 -55.32567,17.64791 -47.31321,68.72551 12.2594607,78.1513 -648.087598,5.76186 15.4874307,-238.28469 M 125.32046,469.70116 c -16.34788,7.96141 -44.204361,-60.39752 -64.662941,-65.03378 -22.352571,-5.06547 -37.202201,53.34881 -51.4842507,58.44908 -29.6973403,10.60523 -56.5812403,12.79898 -52.8983803,64.29542 5.63496,78.7921 -645.890808,-49.97676 35.4669307,-235.69428 M 103.36902,474.79092 c -16.953591,6.51458 -38.907771,-63.91724 -58.888611,-70.2942 -21.8306,-6.96731 -41.5626807,49.88757 -56.216871,53.73274 -30.47116,7.99544 -57.428642,7.86212 -58.119972,59.42919 -1.05776,78.90023 -638.967146,-105.39319 55.268982,-231.50901 m 95.523611,191.95109 c -17.43986,5.02613 -33.30341,-66.99668 -52.659741,-75.06788 -21.1482797,-8.81842 -45.64485,46.09384 -60.56719,48.66006 -31.02873,5.33605 -57.865392,2.88076 -62.947939,54.16827 -7.776549,78.47245 -627.392249,-159.9943 74.771439,-225.75953 m 78.650331,199.4803 c -17.804731,3.50849 -27.433751,-69.60418 -46.024881,-79.30802 -20.3122193,-10.60218 -49.42365,41.99682 -64.50951,43.27106 -31.368742,2.64958 -57.893328,-2.10242 -67.353488,48.55379 -14.47451,77.50651 -611.30111,-213.29768 93.842648,-218.47811 m 61.15095,205.57561 c -18.04714,1.97359 -21.3476,-71.7118 -39.0406593,-82.97247 -19.3310407,-12.30314 -52.8744707,37.62542 -68.0194427,37.60497 -31.491666,-0.0426 -57.518026,-7.0469 -71.308796,42.62633 -21.1006,76.00254 -590.88135,-264.85138 112.342498,-209.70191 m 43.18327,210.16808 c -18.1666493,0.43254 -15.0983793,-73.29716 -31.76979,-86.0263 -18.21479,-13.90759 -55.972872,33.0083 -71.073442,31.69999 -31.399306,-2.72044 -56.747866,-11.91561 -74.786886,36.42552 -27.60058,73.96435 -566.35962,-314.25009 130.124538,-199.47567 m 24.913071,213.209 c -18.163241,-1.10449 -8.742151,-74.34469 -24.278201,-88.4434 -16.97433,-15.40392 -58.694559,28.17372 -73.648428,25.593 -31.09427,-5.36621 -55.59285,-16.67549 -77.76118,29.98987 -33.91865,71.40033 -537.98359,-361.14533 147.038958,-187.85323 m 6.5065,214.67107 c -18.03683,-2.62836 -2.33489,-74.84605 -16.63184,-90.20684 -15.62052,-16.78285 -61.015328,23.14953 -75.721408,19.31946 -30.57906,-7.96404 -54.06287,-21.29783 -80.20507,23.35665 -39.9989,68.32362 -506.00121,-405.24855 162.935918,-174.89808 m -11.87696,214.54703 c -17.787052,-4.13084 4.0697,-74.79953 -8.89367,-91.30832 -14.163492,-18.03714 -62.910728,17.96321 -77.268848,12.91355 -29.85556,-10.49998 -52.16643,-25.75794 -82.09162,16.5621 -45.78703,64.75178 -470.64045,-446.326879 177.668798,-160.68272 m -30.091042,212.84573 c -17.412867,-5.60454 10.422562,-74.20879 -1.12073,-91.74643 -12.61194,-19.16123 -64.356106,12.64197 -78.266416,6.40847 -28.92433,-12.96161 -49.90934,-30.0343 -83.39305,9.64147 -51.23173,60.70591 -432.09179,-484.19158 191.096978,-145.28667 m -48.007319,209.58603 c -16.912409,-7.04237 16.680597,-73.08069 6.637677,-91.52386 -10.972677,-20.15056 -65.326516,7.21278 -78.688546,-0.1633 -27.78428,-15.33741 -47.29377,-34.10736 -84.08067,2.62955 -56.28576,56.20931 -390.49515,-518.68131 203.088008,-128.7939 m -65.518008,204.78954 c -16.2828,-8.43754 22.807706,-71.42294 14.341189,-90.64437 -9.250299,-21.00088 -65.796549,1.70264 -78.508329,-6.76934 -26.43221,-17.61617 -44.31772,-37.95804 -84.12455,-4.43905 -60.90646,51.28572 -345.93255,-549.64098 213.518718,-111.28941 m -82.536418,198.47199 c -15.52017,-9.78282 28.77482,-69.24105 21.95858,-89.10897 -7.44725,-21.70721 -65.74043,-3.86139 -77.69755,-13.37688 -24.863,-19.78599 -40.9749,-41.56597 -83.49365,-11.52933 -65.05582,45.95755 -298.42699,-576.898 222.275498,-92.85536 m -98.856388,190.79888 c -14.63005,-11.05817 34.50551,-66.56422 29.39556,-86.9366 -5.58302,-22.25837 -65.14419,-9.39782 -76.24841,-19.8888 -23.0895,-21.81435 -37.29542,-44.87676 -82.17675,-18.53719 -68.67067,40.30086 -248.4695,-600.03123 229.206018,-73.75754 M -160.01257,376.72827 c -13.62633,-12.24533 39.93894,-63.4343 36.56973,-84.16251 -3.68114,-22.64717 -64.02946,-14.82588 -74.19519,-26.21043 -21.1381,-23.67244 -33.33162,-47.8437 -80.20793,-25.36067 -71.72309,34.40016 -196.71286,-618.72521 234.278478,-54.27882 M -172.56931,358.43043 c -12.51773,-13.33886 45.06949,-59.86913 43.46771,-80.80357 -1.75005,-22.8725 -62.42393,-20.11916 -71.57287,-32.31137 -19.02382,-25.35184 -29.11052,-50.45376 -77.62399,-31.96679 -74.22804,28.28598 -143.42294,-632.90979 237.560038,-34.51781 M -183.5151,339.15071 c -11.31405,-14.33301 49.88444,-55.88446 50.06706,-76.87391 0.19952,-22.93256 -60.35575,-25.25112 -68.41778,-38.16077 -16.76377,-26.84361 -24.66348,-52.69271 -74.463,-38.3223 -76.19574,21.98747 -88.92441,-642.49724 239.108398,-14.57035 M -192.83515,318.97677 c -10.02603,-15.22216 54.36413,-51.49679 56.33631,-72.3886 2.15473,-22.8259 -57.85336,-30.19536 -64.76756,-43.72799 -14.37702,-28.13907 -20.02599,-54.5468 -70.76412,-44.39403 -77.63188,15.53426 -33.60002,-647.40626 238.971868,5.4667 M -200.49755,298.00553 c -8.66526,-16.00113 58.48284,-46.72593 62.23622,-67.36701 4.10084,-22.55197 -54.9456,-34.92554 -60.66104,-48.98298 -11.88438,-29.23033 -15.23715,-56.00419 -66.56753,-50.14935 -78.53808,8.95819 22.11704,-647.5827 237.190658,25.49213 M -206.45761,276.34896 c -7.24399,-16.66552 62.21033,-41.59694 67.72178,-61.83531 6.02166,-22.11196 -51.66155,-39.41565 -56.13794,-53.89671 -9.30796,-30.11114 -10.33882,-57.05624 -61.91422,-55.55655 -78.91291,2.29461 77.75606,-643.01679 233.798998,45.39756 M -210.66386,254.13788 c -5.77479,-17.21181 65.51399,-36.14158 72.74485,-55.8282 7.90024,-21.50912 -48.03042,-43.64013 -51.23841,-58.44147 -6.67052,-30.77712 -5.3743,-57.69837 -56.84547,-60.58502 -78.75347,-4.41672 132.82626,-633.75425 228.827788,65.06571 m -195.889858,87.17465 c -4.27021,-17.63758 68.36125,-30.39885 77.25739,-49.38972 9.71971,-20.74898 -44.08142,-47.57373 -46.00261,-62.59092 -3.99482,-31.22596 -0.3868,-57.93023 -51.40264,-65.20532 -78.05681,-11.13124 186.837308,-619.90082 222.308039,84.36959 M -213.61664,208.6765 c -2.74249,-17.94129 70.722,-24.41448 81.21455,-42.57264 11.4639,-19.83918 -39.84361,-51.19162 -40.47022,-66.320075 -1.30295,-31.457245 4.5819,-57.755605 -45.62666,-69.389135 C -295.3206,12.59477 20.820759,-571.22443 -4.2248013,133.56774 m -208.0631687,52.2154 c -1.20317,-18.12228 72.57088,-18.2399 84.57754,-35.43699 13.1182,-18.78913 -35.34578,-54.46927 -34.68,-69.60492 1.38443,-31.47225 9.4929,-57.18172 -39.55764,-73.10919 C -276.99785,-16.737793 87.895119,-571.48618 2.8187583,128.96466 M -209.06583,163.0402 c 0.33707,-18.18032 73.8888,-11.93012 87.31567,-28.04743 14.66989,-17.6094 -30.61644,-57.38235 -28.66948,-72.42228 4.04836,-31.27322 14.31104,-56.21786 -33.23469,-76.338695 C -256.40167,-44.554092 154.3756,-566.40607 10.180828,124.93146 m -214.138198,15.71663 c 1.86861,-18.11542 74.66386,-5.54147 89.40749,-20.47034 16.108549,-16.31093 -25.68358,-59.90661 -22.47486,-74.74916 6.67203,-30.8628 19.00546,-54.8741662 -26.69567,-79.051127 -69.92502,-36.99196 383.56154,-522.428453 181.537838,155.123977 M -196.98957,118.8038 c 3.38276,-17.92742 74.89112,0.87094 90.84052,-12.77051 17.425946,-14.90434 -20.57493,-62.01776 -16.13096,-76.56237 9.24056,-30.24327102 23.549569,-53.160026 -19.97731,-81.219747 -66.59831,-42.93278 426.17831,-488.730343 167.943038,170.456907 M -188.20672,97.69439 c 4.87173,-17.61561 74.57177,7.25548 91.610159,-5.00826 18.615747,-13.39905 -15.317759,-63.69124 -9.671369,-77.83797 11.740819,-29.415945 27.920336,-51.082755 -13.11534,-82.817257 C -182.16993,-116.52448 346.28795,-519.72383 33.743738,116.58544 M -177.66545,77.49176 c 6.32835,-17.17858 73.71138,13.56587 91.717426,2.76304 19.672992,-11.80293 -9.939167,-64.90229 -3.1289,-78.551091 14.16094,-28.380571 32.097432,-48.646415 -6.144747,-83.815456 C -153.7341,-135.92213 406.64601,-493.77984 41.950308,115.1684 M -165.42827,58.34909 c 7.74574,-16.61397 72.317559,19.76251 91.166026,10.49847 20.593382,-10.12168 -4.46613,-65.625709 3.46406,-78.6754982 16.489652,-27.1350288 36.061722,-45.8511218 0.89985,-84.1850188 C -123.69775,-152.66573 464.71394,-462.59489 50.264489,114.49285 M -151.55582,40.39944 c 9.11689,-15.9184 70.397306,25.81282 89.958778,18.16228 21.3724,-8.3588 1.07435,-65.835913 10.075,-78.18362 18.71546,-25.675157 39.79369,-42.69272 7.98369,-83.89546 -48.670899,-63.04228 563.744242,-322.54852 102.183621,218.11319 M -136.13799,23.79404 c 10.4312,-15.0898438 67.960526,31.67724 88.099228,25.70943 22.00307,-6.52029 6.64152,-65.508865 16.65475,-77.050651 20.820971,-23.999366 43.26362,-39.172256 15.05428,-82.918979 -43.16171,-66.93469 589.016272,-273.68764 83.360411,225.97766 M -119.4748,8.8052782 c 11.6631,-14.1418722 65.054668,37.2595918 85.623588,33.0161318 22.4731,-4.6363 12.12704,-64.649935 23.075271,-75.29518 22.765179,-22.135147 46.403959,-35.347477 21.974019,-81.27157 -37.37903,-70.26617 609.936582,-222.80089 64.059491,231.97018 M -101.69978,-4.557537 c 12.804156,-13.084549 61.705088,42.542727 82.555228,40.054457 22.7803603,-2.71863 17.4910107,-63.286329 29.2904,-72.952968 24.535,-20.100293 49.194181,-31.251379 28.69296,-78.990512 C 7.4708983,-189.48984 665.22509,-286.6873 83.266379,119.69283 M -82.900364,-16.309452 C -69.051654,-28.236582 -24.972142,31.20805 -3.9912013,30.49706 18.932098,29.72023 18.715758,-30.948877 31.278228,-39.562577 57.399969,-57.473444 82.898719,-66.475707 66.456169,-115.6758 41.298238,-190.95442 704.73957,-231.97796 91.017559,122.87194 M -63.162162,-26.445371 c 14.79105,-10.679878 53.7398507,52.167691 74.69961,53.245251 22.90012,1.17732 27.74835,-59.157053 40.981541,-66.652183 27.51639,-15.584969 53.668641,-22.366171 41.39567,-72.678317 -18.77827,-76.98012 645.540541,-61.33945 4.55683,239.24815 M -42.576632,-34.941514 c 15.62571,-9.353986 49.1578103,56.470434 69.94336,59.335154 22.709811,3.12993 32.588821,-56.448353 46.396351,-62.768892 28.710631,-13.142585 55.325681,-17.647914 47.313221,-68.725508 -12.25947,-78.15129 648.0876,-5.76183 -15.48745,238.2847 M -21.247632,-41.758911 c 16.3478907,-7.961405 44.204371,60.397521 64.662951,65.033791 22.35257,5.06547 37.20219,-53.348808 51.48425,-58.449082 29.697341,-10.605236 56.581241,-12.798988 52.898381,-64.295413 -5.63496,-78.792095 645.89085,49.976769 -35.46694,235.694275 M 0.70381832,-46.848663 C 17.657418,-53.363246 39.611588,17.06858 59.592429,23.44553 c 21.8306,6.96731 41.562681,-49.887558 56.216881,-53.732727 30.47116,-7.995437 57.42864,-7.862118 58.11996,-59.4292 C 174.98703,-168.61661 812.8964,15.6768 118.66029,141.79264 M 23.136679,-50.158472 c 17.439859,-5.026137 33.30341,66.996672 52.65975,75.067882 21.14827,8.81842 45.644831,-46.093845 60.567181,-48.660062 31.02874,-5.336054 57.8654,-2.880761 62.94794,-54.168265 C 207.0881,-156.39136 826.7038,82.07539 124.54011,147.84063 M 45.889779,-51.639689 c 17.80473,-3.508502 27.43375,69.604179 46.02487,79.308019 20.312231,10.60218 49.423661,-41.996819 64.509531,-43.271057 31.36873,-2.649584 57.89332,2.10241 67.35348,-48.55379 C 238.25218,-141.66303 835.0788,149.14118 129.93499,154.32159 M 68.784069,-51.254026 c 18.04713,-1.973593 21.34758,71.711806 39.040651,82.972466 19.33104,12.30314 52.87447,-37.625419 68.01945,-37.604966 31.49166,0.04253 57.51801,7.046908 71.3088,-42.626328 C 268.25357,-124.51539 838.0343,216.33856 134.81046,161.18907 M 91.627189,-48.979022 C 109.79385,-49.411566 106.72558,24.31813 123.39698,37.04729 141.61177,50.95486 179.36984,4.038982 194.47042,5.347292 225.86973,8.067721 251.2183,17.2629 269.25731,-31.078231 296.8579,-105.04258 835.6169,283.17188 139.13277,168.39746 M 114.21971,-44.811553 c 18.16323,1.104489 8.74214,74.344683 24.27819,88.443393 16.97432,15.40392 58.69457,-28.17372 73.64844,-25.593 31.09426,5.36622 55.59284,16.67549 77.76117,-29.989866 C 323.82616,-83.351357 827.8911,349.19431 142.86855,175.90221 m -6.50651,-214.671077 c 18.03683,2.628355 2.3349,74.846037 16.63186,90.206837 15.62051,16.78284 61.01532,-23.14953 75.72141,-19.31946 30.57905,7.96405 54.06286,21.29783 80.20507,-23.3566598 C 348.91928,-59.561767 814.9216,414.01042 145.98445,183.65995 M 157.86142,-30.8871 c 17.78705,4.130852 -4.06972,74.79953 8.89366,91.30833 14.16349,18.03714 62.91072,-17.96321 77.26886,-12.91355 29.85555,10.49998 52.16643,25.75794 82.09161,-16.5621 C 371.90258,-33.806195 796.756,477.27247 148.44674,191.6283 M 178.5378,-21.217427 c 17.41287,5.604524 -10.42257,74.208777 1.12072,91.746427 12.61194,19.16122 64.35612,-12.64196 78.26642,-6.40847 28.92434,12.96161 49.90934,30.03431 83.39305,-9.64146 C 392.54974,-6.226851 773.4098,538.67065 150.22101,199.76574 M 198.22834,-9.8203082 c 16.91241,7.0423812 -16.68061,73.0806982 -6.63768,91.5238682 10.97267,20.15057 65.32652,-7.21279 78.68854,0.16329 27.78427,15.33742 47.29378,34.10738 84.08067,-2.62954 C 410.64564,23.028 744.85502,597.91863 151.27186,208.03122 M 216.78987,3.241669 c 16.2828,8.437539 -22.8077,71.422931 -14.3412,90.644371 9.25031,21.0009 65.79655,-1.70263 78.50834,6.76934 26.43221,17.61618 44.31772,37.95805 84.12455,4.43906 60.90646,-51.28574 345.93256,549.64098 -213.51872,111.28941 m 82.53641,-198.472 c 15.52019,9.78282 -28.77481,69.24105 -21.95858,89.10898 7.44725,21.70722 65.74044,3.8614 77.69756,13.37688 24.863,19.78598 40.9749,41.56597 83.49365,11.52933 65.05582,-45.95756 298.42699,576.898 -222.2755,92.85535"
       id="circle819"
       inkscape:connector-curvature="0" />
  </g>
</svg>
