<?xml version="1.0" encoding="UTF-8" standalone="no"?>
<!-- Created with Inkscape (http://www.inkscape.org/) -->

<svg
   xmlns:dc="http://purl.org/dc/elements/1.1/"
   xmlns:cc="http://creativecommons.org/ns#"
   xmlns:rdf="http://www.w3.org/1999/02/22-rdf-syntax-ns#"
   xmlns:svg="http://www.w3.org/2000/svg"
   xmlns="http://www.w3.org/2000/svg"
   xmlns:sodipodi="http://sodipodi.sourceforge.net/DTD/sodipodi-0.dtd"
   xmlns:inkscape="http://www.inkscape.org/namespaces/inkscape"
   width="1080"
   height="1080"
   viewBox="0 0 1166400 1166400"
   version="1.1"
   id="svg8"
   inkscape:version="0.92.4 (5da689c313, 2019-01-14)"
   sodipodi:docname="pubg poster.svg">
  <defs
     id="defs2" />
  <sodipodi:namedview
     id="base"
     pagecolor="#353f6e"
     bordercolor="#666666"
     borderopacity="1.0"
     inkscape:pageopacity="0"
     inkscape:pageshadow="2"
     inkscape:zoom="0.70710678"
     inkscape:cx="786.92736"
     inkscape:cy="594.59774"
     inkscape:document-units="px"
     inkscape:current-layer="layer1"
     showgrid="false"
     units="px"
     inkscape:showpageshadow="false"
     inkscape:window-width="1920"
     inkscape:window-height="1001"
     inkscape:window-x="-9"
     inkscape:window-y="-9"
     inkscape:window-maximized="1" />
  <metadata
     id="metadata5">
    <rdf:RDF>
      <cc:Work
         rdf:about="">
        <dc:format>image/svg+xml</dc:format>
        <dc:type
           rdf:resource="http://purl.org/dc/dcmitype/StillImage" />
        <dc:title></dc:title>
      </cc:Work>
    </rdf:RDF>
  </metadata>
  <g
     inkscape:label="Layer 1"
     inkscape:groupmode="layer"
     id="layer1"
     transform="translate(0,-45921.225)">
    <rect
       style="opacity:0.997;fill:#f0fdfc;fill-opacity:1;stroke-width:10800;stroke-linejoin:bevel;paint-order:stroke fill markers"
       id="rect1753"
       width="1176060"
       height="1173005.2"
       x="-3054.7012"
       y="36261.227" />
    <text
       xml:space="preserve"
       style="font-style:normal;font-variant:normal;font-weight:normal;font-stretch:normal;font-size:287386.125px;line-height:1.25;font-family:Futura-Bold;-inkscape-font-specification:Futura-Bold;letter-spacing:0px;word-spacing:0px;fill:#4db6ac;fill-opacity:1;stroke-width:3079.13720703"
       x="413849.44"
       y="1188751.8"
       id="text819"><tspan
         sodipodi:role="line"
         id="tspan817"
         x="413849.44"
         y="1188751.8"
         style="font-style:normal;font-variant:normal;font-weight:normal;font-stretch:normal;font-family:'Wolf\'s Bane';-inkscape-font-specification:'Wolf\'s Bane';fill:#4db6ac;fill-opacity:1;stroke-width:3079.13720703">PUBG</tspan></text>
    <g
       id="g967"
       transform="matrix(5960.4845,0,0,5960.4845,59565.703,177511.75)">
	<g
   id="g829">
		<path
   id="path827"
   d="m 48.5,59.5 h -9 C 39.224,59.5 39,59.276 39,59 c 0,-0.276 0.224,-0.5 0.5,-0.5 h 9 c 0.276,0 0.5,0.224 0.5,0.5 0,0.276 -0.224,0.5 -0.5,0.5 z"
   class="st0"
   inkscape:connector-curvature="0"
   style="fill:#263238" />

	</g>

	<g
   id="g833">
		<path
   id="path831"
   d="m 52.5,59.5 h -2 C 50.224,59.5 50,59.276 50,59 c 0,-0.276 0.224,-0.5 0.5,-0.5 h 2 c 0.276,0 0.5,0.224 0.5,0.5 0,0.276 -0.224,0.5 -0.5,0.5 z"
   class="st0"
   inkscape:connector-curvature="0"
   style="fill:#263238" />

	</g>

	<g
   id="g837">
		<path
   id="path835"
   d="m 24.5,59.5 h -9 C 15.224,59.5 15,59.276 15,59 c 0,-0.276 0.224,-0.5 0.5,-0.5 h 9 c 0.276,0 0.5,0.224 0.5,0.5 0,0.276 -0.224,0.5 -0.5,0.5 z"
   class="st0"
   inkscape:connector-curvature="0"
   style="fill:#263238" />

	</g>

	<g
   id="g841">
		<path
   id="path839"
   d="m 13.5,59.5 h -2 C 11.224,59.5 11,59.276 11,59 c 0,-0.276 0.224,-0.5 0.5,-0.5 h 2 c 0.276,0 0.5,0.224 0.5,0.5 0,0.276 -0.224,0.5 -0.5,0.5 z"
   class="st0"
   inkscape:connector-curvature="0"
   style="fill:#263238" />

	</g>

	<g
   id="g845">
		<path
   id="path843"
   d="M 13,7.5 H 9 C 8.724,7.5 8.5,7.276 8.5,7 8.5,6.724 8.724,6.5 9,6.5 h 4 c 0.276,0 0.5,0.224 0.5,0.5 0,0.276 -0.224,0.5 -0.5,0.5 z"
   class="st0"
   inkscape:connector-curvature="0"
   style="fill:#263238" />

	</g>

	<g
   id="g849">
		<path
   id="path847"
   d="M 11,9.5 C 10.724,9.5 10.5,9.276 10.5,9 V 5 c 0,-0.276 0.224,-0.5 0.5,-0.5 0.276,0 0.5,0.224 0.5,0.5 v 4 c 0,0.276 -0.224,0.5 -0.5,0.5 z"
   class="st0"
   inkscape:connector-curvature="0"
   style="fill:#263238" />

	</g>

	<g
   id="g853">
		<path
   id="path851"
   d="M 8,12.5 H 4 C 3.724,12.5 3.5,12.276 3.5,12 3.5,11.724 3.724,11.5 4,11.5 h 4 c 0.276,0 0.5,0.224 0.5,0.5 0,0.276 -0.224,0.5 -0.5,0.5 z"
   class="st0"
   inkscape:connector-curvature="0"
   style="fill:#263238" />

	</g>

	<g
   id="g857">
		<path
   id="path855"
   d="M 6,14.5 C 5.724,14.5 5.5,14.276 5.5,14 V 10 C 5.5,9.724 5.724,9.5 6,9.5 6.276,9.5 6.5,9.724 6.5,10 v 4 c 0,0.276 -0.224,0.5 -0.5,0.5 z"
   class="st0"
   inkscape:connector-curvature="0"
   style="fill:#263238" />

	</g>

	<g
   id="g863">
		<path
   id="path859"
   d="m 25.001,27.997 h -14 c -0.552,0 -1,-0.448 -1,-1 v -6 h 16 v 6 c 0,0.553 -0.448,1 -1,1 z"
   class="st1"
   inkscape:connector-curvature="0"
   style="fill:#4db6ac" />

		<path
   id="path861"
   d="m 25.001,28.498 h -14 c -0.827,0 -1.5,-0.673 -1.5,-1.5 v -6 c 0,-0.276 0.224,-0.5 0.5,-0.5 h 16 c 0.276,0 0.5,0.224 0.5,0.5 v 6 c 0,0.827 -0.673,1.5 -1.5,1.5 z m -14.5,-7 v 5.5 c 0,0.276 0.225,0.5 0.5,0.5 h 14 c 0.275,0 0.5,-0.224 0.5,-0.5 v -5.5 z"
   class="st0"
   inkscape:connector-curvature="0"
   style="fill:#263238" />

	</g>

	<g
   id="g867">
		<path
   id="path865"
   d="M 9.5,26 C 8.121,26 7,24.878 7,23.5 7,22.122 8.121,21 9.5,21 c 0.199,0 0.398,0.028 0.627,0.087 0.221,0.058 0.374,0.256 0.374,0.484 v 3.858 c 0,0.228 -0.154,0.427 -0.375,0.484 C 9.896,25.973 9.697,26 9.5,26 Z m 0,-4 C 8.673,22 8,22.673 8,23.5 8,24.327 8.673,25 9.5,25 h 10e-4 z"
   class="st0"
   inkscape:connector-curvature="0"
   style="fill:#263238" />

	</g>

	<g
   id="g871">
		<path
   id="path869"
   d="m 26.5,26 c -0.196,0 -0.4,-0.028 -0.624,-0.086 -0.221,-0.057 -0.375,-0.256 -0.375,-0.484 v -3.859 c 0,-0.228 0.154,-0.427 0.375,-0.484 C 26.101,21.028 26.305,21 26.5,21 c 1.379,0 2.5,1.122 2.5,2.5 0,1.378 -1.121,2.5 -2.5,2.5 z m 0.001,-4 v 3 C 27.328,25 28,24.327 28,23.5 28,22.673 27.328,22 26.501,22 Z"
   class="st0"
   inkscape:connector-curvature="0"
   style="fill:#263238" />

	</g>

	<g
   id="g875">
		<path
   id="path873"
   d="m 32,53 c -0.276,0 -0.5,-0.224 -0.5,-0.5 V 39.885 c 0,-1.851 -1.11,-3.491 -2.828,-4.178 l -6.857,-2.743 c -0.19,-0.076 -0.314,-0.26 -0.314,-0.464 v -1.751 c 0,-0.276 0.224,-0.5 0.5,-0.5 0.276,0 0.5,0.224 0.5,0.5 v 1.413 l 6.543,2.617 c 2.101,0.84 3.457,2.845 3.457,5.107 V 52.5 C 32.5,52.776 32.276,53 32,53 Z"
   class="st0"
   inkscape:connector-curvature="0"
   style="fill:#263238" />

	</g>

	<g
   id="g879">
		<path
   id="path877"
   d="M 4,53 C 3.724,53 3.5,52.776 3.5,52.5 V 39.885 c 0,-2.262 1.357,-4.266 3.458,-5.107 L 13.5,32.161 v -1.413 c 0,-0.276 0.224,-0.5 0.5,-0.5 0.276,0 0.5,0.224 0.5,0.5 V 32.5 c 0,0.205 -0.124,0.388 -0.314,0.464 L 7.33,35.707 C 5.61,36.395 4.5,38.035 4.5,39.885 V 52.5 C 4.5,52.776 4.276,53 4,53 Z"
   class="st0"
   inkscape:connector-curvature="0"
   style="fill:#263238" />

	</g>

	<g
   id="g885">
		<path
   id="path881"
   d="M 26,19.5 H 10 v -1 c 0,-2.761 2.239,-5 5,-5 h 6 c 2.761,0 5,2.239 5,5 z"
   class="st1"
   inkscape:connector-curvature="0"
   style="fill:#4db6ac" />

		<path
   id="path883"
   d="M 26,20 H 10 C 9.724,20 9.5,19.776 9.5,19.5 v -1 C 9.5,15.467 11.968,13 15,13 h 6 c 3.032,0 5.5,2.467 5.5,5.5 v 1 C 26.5,19.776 26.276,20 26,20 Z M 10.5,19 h 15 V 18.5 C 25.5,16.019 23.481,14 21,14 h -6 c -2.481,0 -4.5,2.019 -4.5,4.5 z"
   class="st0"
   inkscape:connector-curvature="0"
   style="fill:#263238" />

	</g>

	<g
   id="g891">
		<path
   id="path887"
   d="M 26,21 H 10 C 9.448,21 9,20.552 9,20 v 0 c 0,-0.552 0.448,-1 1,-1 h 16 c 0.552,0 1,0.448 1,1 v 0 c 0,0.552 -0.447,1 -1,1 z"
   class="st1"
   inkscape:connector-curvature="0"
   style="fill:#4db6ac" />

		<path
   id="path889"
   d="M 26,21.5 H 10 C 9.173,21.5 8.5,20.827 8.5,20 8.5,19.173 9.173,18.5 10,18.5 h 16 c 0.827,0 1.5,0.673 1.5,1.5 0,0.827 -0.673,1.5 -1.5,1.5 z m -16,-2 c -0.275,0 -0.5,0.224 -0.5,0.5 0,0.276 0.225,0.5 0.5,0.5 h 16 c 0.275,0 0.5,-0.224 0.5,-0.5 0,-0.276 -0.225,-0.5 -0.5,-0.5 z"
   class="st0"
   inkscape:connector-curvature="0"
   style="fill:#263238" />

	</g>

	<g
   id="g897">
		<rect
   id="rect893"
   height="4"
   width="10"
   class="st2"
   y="21"
   x="13.001"
   style="fill:#ffd740" />

		<path
   id="path895"
   d="m 23.001,25.5 h -10 c -0.276,0 -0.5,-0.224 -0.5,-0.5 v -4 c 0,-0.276 0.224,-0.5 0.5,-0.5 h 10 c 0.276,0 0.5,0.224 0.5,0.5 v 4 c 0,0.276 -0.224,0.5 -0.5,0.5 z m -9.5,-1 h 9 v -3 h -9 z"
   class="st0"
   inkscape:connector-curvature="0"
   style="fill:#263238" />

	</g>

	<g
   id="g901">
		<path
   id="path899"
   d="m 18,32 c -2.814,0 -5.442,-1.391 -7.028,-3.722 -0.104,-0.153 -0.115,-0.351 -0.029,-0.515 0.087,-0.164 0.257,-0.266 0.442,-0.266 h 13.231 c 0.186,0 0.355,0.103 0.442,0.266 0.086,0.164 0.075,0.362 -0.029,0.516 C 23.441,30.609 20.814,32 18,32 Z M 12.409,28.497 C 13.823,30.08 15.85,31 18,31 c 2.15,0 4.177,-0.921 5.592,-2.503 z"
   class="st0"
   inkscape:connector-curvature="0"
   style="fill:#263238" />

	</g>

	<g
   id="g907">
		<rect
   id="rect903"
   height="3"
   width="18"
   class="st1"
   y="42.5"
   x="9"
   style="fill:#4db6ac" />

		<path
   id="path905"
   d="M 27,46 H 9 C 8.724,46 8.5,45.776 8.5,45.5 v -3 C 8.5,42.224 8.724,42 9,42 h 18 c 0.276,0 0.5,0.224 0.5,0.5 v 3 C 27.5,45.776 27.276,46 27,46 Z M 9.5,45 h 17 v -2 h -17 z"
   class="st0"
   inkscape:connector-curvature="0"
   style="fill:#263238" />

	</g>

	<g
   id="g911">
		<path
   id="path909"
   d="m 27,53 c -0.276,0 -0.5,-0.224 -0.5,-0.5 V 34.838 l -3.231,-1.292 c -0.676,2.324 -2.802,3.954 -5.268,3.954 -2.466,0 -4.592,-1.63 -5.268,-3.955 L 9.5,34.838 V 52.5 C 9.5,52.776 9.276,53 9,53 8.724,53 8.5,52.776 8.5,52.5 v -18 c 0,-0.205 0.124,-0.388 0.314,-0.464 l 4.088,-1.635 c 0.141,-0.057 0.298,-0.045 0.429,0.028 0.132,0.073 0.224,0.202 0.249,0.35 0.378,2.156 2.237,3.721 4.421,3.721 2.184,0 4.043,-1.565 4.421,-3.721 0.025,-0.148 0.117,-0.277 0.249,-0.35 0.132,-0.073 0.29,-0.083 0.429,-0.028 l 4.086,1.634 c 0.19,0.076 0.314,0.26 0.314,0.464 v 18 C 27.5,52.776 27.276,53 27,53 Z"
   class="st0"
   inkscape:connector-curvature="0"
   style="fill:#263238" />

	</g>

	<g
   id="g917">
		<path
   id="path913"
   d="m 53.001,27.997 h -14 c -0.552,0 -1,-0.448 -1,-1 v -6 h 16 v 6 c 0,0.553 -0.448,1 -1,1 z"
   class="st1"
   inkscape:connector-curvature="0"
   style="fill:#4db6ac" />

		<path
   id="path915"
   d="m 53.001,28.498 h -14 c -0.827,0 -1.5,-0.673 -1.5,-1.5 v -6 c 0,-0.276 0.224,-0.5 0.5,-0.5 h 16 c 0.276,0 0.5,0.224 0.5,0.5 v 6 c 0,0.827 -0.673,1.5 -1.5,1.5 z m -14.5,-7 v 5.5 c 0,0.276 0.225,0.5 0.5,0.5 h 14 c 0.275,0 0.5,-0.224 0.5,-0.5 v -5.5 z"
   class="st0"
   inkscape:connector-curvature="0"
   style="fill:#263238" />

	</g>

	<g
   id="g921">
		<path
   id="path919"
   d="m 54.5,26 c -0.196,0 -0.4,-0.028 -0.624,-0.086 -0.221,-0.057 -0.375,-0.256 -0.375,-0.484 v -3.859 c 0,-0.228 0.154,-0.427 0.375,-0.484 C 54.101,21.028 54.305,21 54.5,21 c 1.379,0 2.5,1.122 2.5,2.5 0,1.378 -1.121,2.5 -2.5,2.5 z m 10e-4,-4 v 3 C 55.328,25 56,24.327 56,23.5 56,22.673 55.328,22 54.501,22 Z"
   class="st0"
   inkscape:connector-curvature="0"
   style="fill:#263238" />

	</g>

	<g
   id="g925">
		<path
   id="path923"
   d="M 37.5,26 C 36.121,26 35,24.878 35,23.5 35,22.122 36.121,21 37.5,21 c 0.199,0 0.398,0.028 0.627,0.087 0.221,0.058 0.374,0.256 0.374,0.484 v 3.858 c 0,0.228 -0.154,0.427 -0.375,0.484 C 37.896,25.973 37.697,26 37.5,26 Z m 0,-4 c -0.827,0 -1.5,0.673 -1.5,1.5 0,0.827 0.673,1.5 1.5,1.5 h 10e-4 z"
   class="st0"
   inkscape:connector-curvature="0"
   style="fill:#263238" />

	</g>

	<g
   id="g929">
		<path
   id="path927"
   d="m 60,53 c -0.276,0 -0.5,-0.224 -0.5,-0.5 V 39.885 c 0,-1.851 -1.11,-3.491 -2.828,-4.178 l -6.857,-2.743 c -0.19,-0.076 -0.314,-0.26 -0.314,-0.464 v -1.751 c 0,-0.276 0.224,-0.5 0.5,-0.5 0.276,0 0.5,0.224 0.5,0.5 v 1.413 l 6.543,2.617 c 2.101,0.84 3.457,2.845 3.457,5.107 V 52.5 C 60.5,52.776 60.276,53 60,53 Z"
   class="st0"
   inkscape:connector-curvature="0"
   style="fill:#263238" />

	</g>

	<g
   id="g933">
		<path
   id="path931"
   d="m 32,53 c -0.276,0 -0.5,-0.224 -0.5,-0.5 V 39.885 c 0,-2.262 1.357,-4.266 3.458,-5.107 L 41.5,32.161 v -1.413 c 0,-0.276 0.224,-0.5 0.5,-0.5 0.276,0 0.5,0.224 0.5,0.5 V 32.5 c 0,0.205 -0.124,0.388 -0.314,0.464 l -6.856,2.743 c -1.719,0.688 -2.829,2.328 -2.829,4.178 V 52.5 C 32.5,52.776 32.276,53 32,53 Z"
   class="st0"
   inkscape:connector-curvature="0"
   style="fill:#263238" />

	</g>

	<g
   id="g939">
		<path
   id="path935"
   d="M 54,19.5 H 38 v -1 c 0,-2.761 2.239,-5 5,-5 h 6 c 2.761,0 5,2.239 5,5 z"
   class="st1"
   inkscape:connector-curvature="0"
   style="fill:#4db6ac" />

		<path
   id="path937"
   d="M 54,20 H 38 c -0.276,0 -0.5,-0.224 -0.5,-0.5 v -1 C 37.5,15.467 39.968,13 43,13 h 6 c 3.032,0 5.5,2.467 5.5,5.5 v 1 C 54.5,19.776 54.276,20 54,20 Z M 38.5,19 h 15 V 18.5 C 53.5,16.019 51.481,14 49,14 h -6 c -2.481,0 -4.5,2.019 -4.5,4.5 z"
   class="st0"
   inkscape:connector-curvature="0"
   style="fill:#263238" />

	</g>

	<g
   id="g945">
		<path
   id="path941"
   d="M 54,21 H 38 c -0.552,0 -1,-0.448 -1,-1 v 0 c 0,-0.552 0.448,-1 1,-1 h 16 c 0.552,0 1,0.448 1,1 v 0 c 0,0.552 -0.447,1 -1,1 z"
   class="st1"
   inkscape:connector-curvature="0"
   style="fill:#4db6ac" />

		<path
   id="path943"
   d="M 54,21.5 H 38 c -0.827,0 -1.5,-0.673 -1.5,-1.5 0,-0.827 0.673,-1.5 1.5,-1.5 h 16 c 0.827,0 1.5,0.673 1.5,1.5 0,0.827 -0.673,1.5 -1.5,1.5 z m -16,-2 c -0.275,0 -0.5,0.224 -0.5,0.5 0,0.276 0.225,0.5 0.5,0.5 h 16 c 0.275,0 0.5,-0.224 0.5,-0.5 0,-0.276 -0.225,-0.5 -0.5,-0.5 z"
   class="st0"
   inkscape:connector-curvature="0"
   style="fill:#263238" />

	</g>

	<g
   id="g951">
		<rect
   id="rect947"
   height="4"
   width="10"
   class="st2"
   y="21"
   x="41.000999"
   style="fill:#ffd740" />

		<path
   id="path949"
   d="m 51.001,25.5 h -10 c -0.276,0 -0.5,-0.224 -0.5,-0.5 v -4 c 0,-0.276 0.224,-0.5 0.5,-0.5 h 10 c 0.276,0 0.5,0.224 0.5,0.5 v 4 c 0,0.276 -0.224,0.5 -0.5,0.5 z m -9.5,-1 h 9 v -3 h -9 z"
   class="st0"
   inkscape:connector-curvature="0"
   style="fill:#263238" />

	</g>

	<g
   id="g955">
		<path
   id="path953"
   d="m 46,32 c -2.814,0 -5.442,-1.391 -7.028,-3.722 -0.104,-0.153 -0.115,-0.351 -0.029,-0.515 0.087,-0.164 0.257,-0.266 0.442,-0.266 h 13.231 c 0.186,0 0.355,0.103 0.442,0.266 0.086,0.164 0.075,0.362 -0.029,0.516 C 51.441,30.609 48.814,32 46,32 Z M 40.409,28.497 C 41.823,30.08 43.85,31 46,31 c 2.15,0 4.177,-0.921 5.592,-2.503 z"
   class="st0"
   inkscape:connector-curvature="0"
   style="fill:#263238" />

	</g>

	<g
   id="g961">
		<rect
   id="rect957"
   height="3"
   width="18"
   class="st1"
   y="42.5"
   x="37"
   style="fill:#4db6ac" />

		<path
   id="path959"
   d="M 55,46 H 37 c -0.276,0 -0.5,-0.224 -0.5,-0.5 v -3 C 36.5,42.224 36.724,42 37,42 h 18 c 0.276,0 0.5,0.224 0.5,0.5 v 3 C 55.5,45.776 55.276,46 55,46 Z M 37.5,45 h 17 v -2 h -17 z"
   class="st0"
   inkscape:connector-curvature="0"
   style="fill:#263238" />

	</g>

	<g
   id="g965">
		<path
   id="path963"
   d="m 55,53 c -0.276,0 -0.5,-0.224 -0.5,-0.5 V 34.838 l -3.231,-1.292 c -0.676,2.324 -2.802,3.954 -5.268,3.954 -2.466,0 -4.592,-1.63 -5.268,-3.955 L 37.5,34.838 V 52.5 c 0,0.276 -0.224,0.5 -0.5,0.5 -0.276,0 -0.5,-0.224 -0.5,-0.5 v -18 c 0,-0.205 0.124,-0.388 0.314,-0.464 l 4.088,-1.635 c 0.14,-0.057 0.298,-0.045 0.429,0.028 0.132,0.073 0.224,0.202 0.249,0.35 0.378,2.156 2.237,3.721 4.421,3.721 2.184,0 4.043,-1.565 4.421,-3.721 0.025,-0.148 0.117,-0.277 0.249,-0.35 0.132,-0.073 0.29,-0.083 0.429,-0.028 l 4.086,1.634 c 0.19,0.076 0.314,0.26 0.314,0.464 v 18 C 55.5,52.776 55.276,53 55,53 Z"
   class="st0"
   inkscape:connector-curvature="0"
   style="fill:#263238" />

	</g>

</g>
    <g
       id="g1190"
       transform="matrix(5210.2225,0,0,5210.2225,72299.351,498294.13)">
	<g
   id="g1052">
		<path
   id="path1050"
   d="M 13,6.5 H 9 C 8.724,6.5 8.5,6.276 8.5,6 8.5,5.724 8.724,5.5 9,5.5 h 4 c 0.276,0 0.5,0.224 0.5,0.5 0,0.276 -0.223,0.5 -0.5,0.5 z"
   class="st0"
   inkscape:connector-curvature="0"
   style="fill:#263238" />

	</g>

	<g
   id="g1056">
		<path
   id="path1054"
   d="M 11,8.5 C 10.724,8.5 10.5,8.276 10.5,8 V 4 c 0,-0.276 0.224,-0.5 0.5,-0.5 0.276,0 0.5,0.224 0.5,0.5 v 4 c 0,0.276 -0.223,0.5 -0.5,0.5 z"
   class="st0"
   inkscape:connector-curvature="0"
   style="fill:#263238" />

	</g>

	<g
   id="g1060">
		<path
   id="path1058"
   d="M 8,11.5 H 4 C 3.724,11.5 3.5,11.276 3.5,11 3.5,10.724 3.724,10.5 4,10.5 h 4 c 0.276,0 0.5,0.224 0.5,0.5 0,0.276 -0.223,0.5 -0.5,0.5 z"
   class="st0"
   inkscape:connector-curvature="0"
   style="fill:#263238" />

	</g>

	<g
   id="g1064">
		<path
   id="path1062"
   d="M 6,13.5 C 5.724,13.5 5.5,13.276 5.5,13 V 9 C 5.5,8.724 5.724,8.5 6,8.5 6.276,8.5 6.5,8.724 6.5,9 v 4 c 0,0.276 -0.223,0.5 -0.5,0.5 z"
   class="st0"
   inkscape:connector-curvature="0"
   style="fill:#263238" />

	</g>

	<g
   id="g1068">
		<path
   id="path1066"
   d="m 22.5,60.5 c -0.146,0 -0.286,-0.064 -0.381,-0.176 l -2.5,-2.938 c -0.088,-0.104 -0.13,-0.238 -0.117,-0.374 l 1.5,-15.062 C 21.027,41.694 21.243,41.5 21.5,41.5 h 2 c 0.257,0 0.472,0.194 0.498,0.45 l 1.5,15.062 c 0.014,0.136 -0.029,0.271 -0.117,0.374 l -2.5,2.938 C 22.786,60.436 22.647,60.5 22.5,60.5 Z M 20.519,56.9 22.5,59.228 24.481,56.9 23.047,42.5 h -1.095 z"
   class="st0"
   inkscape:connector-curvature="0"
   style="fill:#263238" />

	</g>

	<g
   id="g1072">
		<path
   id="path1070"
   d="M 4.5,60.5 C 4.224,60.5 4,60.276 4,60 V 46.945 C 4,43.74 5.903,40.854 8.849,39.591 l 6.973,-2.988 c 0.251,-0.109 0.547,0.009 0.656,0.263 0.109,0.254 -0.009,0.548 -0.263,0.657 L 9.242,40.511 C 6.666,41.616 5,44.142 5,46.945 V 60 c 0,0.276 -0.223,0.5 -0.5,0.5 z"
   class="st0"
   inkscape:connector-curvature="0"
   style="fill:#263238" />

	</g>

	<g
   id="g1076">
		<path
   id="path1074"
   d="M 40.5,60.5 C 40.224,60.5 40,60.276 40,60 V 46.945 c 0,-2.804 -1.666,-5.33 -4.243,-6.434 l -6.973,-2.988 c -0.254,-0.109 -0.372,-0.403 -0.263,-0.657 0.109,-0.254 0.404,-0.371 0.656,-0.263 l 6.973,2.988 C 39.097,40.854 41,43.74 41,46.945 V 60 c 0,0.276 -0.223,0.5 -0.5,0.5 z"
   class="st0"
   inkscape:connector-curvature="0"
   style="fill:#263238" />

	</g>

	<g
   id="g1080">
		<path
   id="path1078"
   d="m 16.019,42.5 c -0.081,0 -0.162,-0.02 -0.235,-0.059 C 15.621,42.354 15.519,42.184 15.519,42 v -4.937 c 0,-0.2 0.119,-0.381 0.303,-0.46 l 2.482,-1.063 c 0.221,-0.093 0.479,-0.018 0.613,0.183 l 2,3 c 0.153,0.229 0.091,0.539 -0.138,0.692 l -4.482,3 C 16.213,42.472 16.116,42.5 16.019,42.5 Z m 0.5,-5.106 v 3.67 l 3.289,-2.201 -1.493,-2.239 z"
   class="st0"
   inkscape:connector-curvature="0"
   style="fill:#263238" />

	</g>

	<g
   id="g1084">
		<path
   id="path1082"
   d="m 28.981,42.5 c -0.097,0 -0.194,-0.028 -0.278,-0.085 l -4.481,-3 c -0.229,-0.153 -0.291,-0.463 -0.138,-0.692 l 2,-3 c 0.134,-0.2 0.394,-0.276 0.613,-0.183 l 2.481,1.063 c 0.184,0.079 0.303,0.26 0.303,0.46 V 42 c 0,0.185 -0.102,0.354 -0.265,0.441 -0.073,0.039 -0.154,0.059 -0.235,0.059 z m -3.788,-3.638 3.288,2.201 v -3.67 l -1.796,-0.771 z"
   class="st0"
   inkscape:connector-curvature="0"
   style="fill:#263238" />

	</g>

	<g
   id="g1088">
		<path
   id="path1086"
   d="m 23.5,42.5 h -2 C 20.673,42.5 20,41.827 20,41 v -1 c 0,-0.827 0.673,-1.5 1.5,-1.5 h 2 c 0.827,0 1.5,0.673 1.5,1.5 v 1 c 0,0.827 -0.672,1.5 -1.5,1.5 z m -2,-3 C 21.224,39.5 21,39.725 21,40 v 1 c 0,0.275 0.224,0.5 0.5,0.5 h 2 c 0.276,0 0.5,-0.225 0.5,-0.5 v -1 c 0,-0.275 -0.224,-0.5 -0.5,-0.5 z"
   class="st0"
   inkscape:connector-curvature="0"
   style="fill:#263238" />

	</g>

	<g
   id="g1092">
		<path
   id="path1090"
   d="m 20.744,39.865 c -0.009,0 -0.019,0 -0.028,-0.001 -0.157,-0.009 -0.3,-0.091 -0.388,-0.222 L 18.084,36.277 C 18.03,36.195 18,36.099 18,36 v -1.753 c 0,-0.276 0.224,-0.5 0.5,-0.5 0.276,0 0.5,0.224 0.5,0.5 v 1.602 l 1.866,2.799 C 21.064,38.552 21.28,38.5 21.5,38.5 h 2 c 0.221,0 0.437,0.052 0.634,0.147 L 26,35.849 v -1.602 c 0,-0.276 0.224,-0.5 0.5,-0.5 0.276,0 0.5,0.224 0.5,0.5 V 36 c 0,0.099 -0.029,0.195 -0.084,0.277 l -2.244,3.365 c -0.087,0.131 -0.231,0.213 -0.388,0.222 -0.156,0.011 -0.31,-0.057 -0.411,-0.178 C 23.815,39.617 23.688,39.5 23.5,39.5 h -2 c -0.188,0 -0.315,0.117 -0.374,0.188 -0.095,0.113 -0.235,0.177 -0.382,0.177 z"
   class="st0"
   inkscape:connector-curvature="0"
   style="fill:#263238" />

	</g>

	<g
   id="g1098">
		<path
   id="path1094"
   d="m 32.001,30.498 h -19 c -0.552,0 -1,-0.448 -1,-1 v -8 h 21 v 8 c 0,0.552 -0.448,1 -1,1 z"
   class="st1"
   inkscape:connector-curvature="0"
   style="fill:#4db6ac" />

		<path
   id="path1096"
   d="m 32.001,30.998 h -19 c -0.827,0 -1.5,-0.673 -1.5,-1.5 v -8 c 0,-0.276 0.224,-0.5 0.5,-0.5 h 21 c 0.276,0 0.5,0.224 0.5,0.5 v 8 c 0,0.827 -0.673,1.5 -1.5,1.5 z m -19.5,-9 v 7.5 c 0,0.275 0.224,0.5 0.5,0.5 h 19 c 0.276,0 0.5,-0.225 0.5,-0.5 v -7.5 z"
   class="st0"
   inkscape:connector-curvature="0"
   style="fill:#263238" />

	</g>

	<g
   id="g1104">
		<path
   id="path1100"
   d="m 32.001,30.498 h -19 c -0.552,0 -1,-0.448 -1,-1 v -8 h 21 v 8 c 0,0.552 -0.448,1 -1,1 z"
   class="st1"
   inkscape:connector-curvature="0"
   style="fill:#4db6ac" />

		<path
   id="path1102"
   d="m 32.001,30.998 h -19 c -0.827,0 -1.5,-0.673 -1.5,-1.5 v -8 c 0,-0.276 0.224,-0.5 0.5,-0.5 h 21 c 0.276,0 0.5,0.224 0.5,0.5 v 8 c 0,0.827 -0.673,1.5 -1.5,1.5 z m -19.5,-9 v 7.5 c 0,0.275 0.224,0.5 0.5,0.5 h 19 c 0.276,0 0.5,-0.225 0.5,-0.5 v -7.5 z"
   class="st0"
   inkscape:connector-curvature="0"
   style="fill:#263238" />

	</g>

	<g
   id="g1108">
		<path
   id="path1106"
   d="m 22.5,35.5 c -2.652,0 -5.242,-0.929 -7.291,-2.616 -0.213,-0.175 -0.244,-0.49 -0.068,-0.703 0.176,-0.213 0.491,-0.245 0.704,-0.068 1.871,1.54 4.234,2.388 6.655,2.388 2.421,0 4.785,-0.848 6.655,-2.388 0.214,-0.177 0.528,-0.145 0.704,0.068 0.175,0.213 0.145,0.528 -0.068,0.703 C 27.742,34.571 25.153,35.5 22.5,35.5 Z"
   class="st0"
   inkscape:connector-curvature="0"
   style="fill:#263238" />

	</g>

	<g
   id="g1114">
		<path
   id="path1110"
   d="m 33.5,21.498 h -22 c -0.552,0 -1,-0.448 -1,-1 v -1 c 0,-0.552 0.448,-1 1,-1 h 22 c 0.552,0 1,0.448 1,1 v 1 c 0,0.552 -0.447,1 -1,1 z"
   class="st1"
   inkscape:connector-curvature="0"
   style="fill:#4db6ac" />

		<path
   id="path1112"
   d="m 33.5,21.998 h -22 c -0.827,0 -1.5,-0.673 -1.5,-1.5 v -1 c 0,-0.827 0.673,-1.5 1.5,-1.5 h 22 c 0.827,0 1.5,0.673 1.5,1.5 v 1 c 0,0.827 -0.672,1.5 -1.5,1.5 z m -22,-3 c -0.276,0 -0.5,0.225 -0.5,0.5 v 1 c 0,0.275 0.224,0.5 0.5,0.5 h 22 c 0.276,0 0.5,-0.225 0.5,-0.5 v -1 c 0,-0.275 -0.224,-0.5 -0.5,-0.5 z"
   class="st0"
   inkscape:connector-curvature="0"
   style="fill:#263238" />

	</g>

	<g
   id="g1120">
		<path
   id="path1116"
   d="M 33.299,18.498 C 32.371,13.935 28.337,10.5 23.5,10.5 h -2 c -4.837,0 -8.871,3.434 -9.799,7.997 h 21.598 z"
   class="st1"
   inkscape:connector-curvature="0"
   style="fill:#4db6ac" />

		<path
   id="path1118"
   d="M 33.299,18.998 H 11.702 c -0.15,0 -0.292,-0.067 -0.387,-0.184 C 11.22,18.698 11.182,18.545 11.212,18.398 12.201,13.532 16.528,10 21.5,10 h 2 c 4.973,0 9.299,3.532 10.289,8.398 0.03,0.147 -0.008,0.3 -0.103,0.416 -0.095,0.117 -0.237,0.184 -0.387,0.184 z m -20.965,-1 H 32.667 C 31.553,13.908 27.792,11 23.5,11 h -2 c -4.292,0 -8.052,2.908 -9.166,6.998 z"
   class="st0"
   inkscape:connector-curvature="0"
   style="fill:#263238" />

	</g>

	<g
   id="g1126">
		<polygon
   id="polygon1122"
   points="30,21.5 30,27.5 24.501,27.5 22.5,25.5 20.501,27.5 15,27.5 15,21.5 "
   class="st2"
   style="fill:#ffd740" />

		<path
   id="path1124"
   d="m 30,28 h -5.5 c -0.133,0 -0.26,-0.053 -0.354,-0.146 L 22.5,26.207 20.854,27.853 C 20.761,27.947 20.634,28 20.501,28 H 15 c -0.276,0 -0.5,-0.224 -0.5,-0.5 v -6 C 14.5,21.224 14.724,21 15,21 h 15 c 0.276,0 0.5,0.224 0.5,0.5 v 6 C 30.5,27.776 30.277,28 30,28 Z M 24.708,27 H 29.5 v -5 h -14 v 5 h 4.793 l 1.853,-1.854 c 0.187,-0.188 0.519,-0.188 0.707,0 z"
   class="st0"
   inkscape:connector-curvature="0"
   style="fill:#263238" />

	</g>

	<g
   id="g1130">
		<path
   id="path1128"
   d="m 12,27.741 c -0.216,0 -0.412,-0.141 -0.478,-0.353 -0.04,-0.13 -0.078,-0.26 -0.115,-0.39 C 9.796,26.949 8.5,25.623 8.5,24 c 0,-1.654 1.346,-3 3,-3 H 12 c 0.276,0 0.5,0.224 0.5,0.5 v 5.741 c 0,0.247 -0.181,0.458 -0.426,0.494 C 12.05,27.739 12.025,27.741 12,27.741 Z M 11.5,22 c -1.103,0 -2,0.897 -2,2 0,1.103 0.897,2 2,2 v 0 z"
   class="st0"
   inkscape:connector-curvature="0"
   style="fill:#263238" />

	</g>

	<g
   id="g1134">
		<path
   id="path1132"
   d="m 33.001,27.735 c -0.025,0 -0.05,-0.002 -0.075,-0.006 -0.245,-0.037 -0.425,-0.247 -0.425,-0.494 V 21.5 c 0,-0.276 0.224,-0.5 0.5,-0.5 h 0.5 c 1.654,0 3,1.346 3,3 0,1.623 -1.296,2.95 -2.908,2.999 -0.036,0.129 -0.074,0.257 -0.114,0.384 -0.066,0.212 -0.262,0.352 -0.478,0.352 z M 33.501,22 v 4 c 1.103,0 2,-0.897 2,-2 0,-1.103 -0.897,-2 -2,-2 z"
   class="st0"
   inkscape:connector-curvature="0"
   style="fill:#263238" />

	</g>

	<g
   id="g1138">
		<polygon
   id="polygon1136"
   points="13.5,38.143 10.5,39.429 10.5,60 13.5,60 "
   class="st2"
   style="fill:#ffd740" />

	</g>

	<g
   id="g1142">
		<polygon
   id="polygon1140"
   points="34.5,39.429 31.5,38.143 31.5,60 34.5,60 "
   class="st2"
   style="fill:#ffd740" />

	</g>

	<g
   id="g1146">
		<path
   id="path1144"
   d="M 13.5,60.5 C 13.224,60.5 13,60.276 13,60 V 38.901 l -2,0.857 V 60 c 0,0.276 -0.224,0.5 -0.5,0.5 C 10.224,60.5 10,60.276 10,60 V 39.429 c 0,-0.2 0.119,-0.381 0.303,-0.46 l 3,-1.286 c 0.154,-0.064 0.332,-0.049 0.472,0.043 C 13.916,37.817 14,37.975 14,38.143 V 60 c 0,0.276 -0.223,0.5 -0.5,0.5 z"
   class="st0"
   inkscape:connector-curvature="0"
   style="fill:#263238" />

	</g>

	<g
   id="g1150">
		<path
   id="path1148"
   d="M 34.5,60.5 C 34.224,60.5 34,60.276 34,60 V 39.759 L 32,38.902 V 60 c 0,0.276 -0.224,0.5 -0.5,0.5 C 31.224,60.5 31,60.276 31,60 V 38.143 c 0,-0.168 0.084,-0.325 0.225,-0.417 0.14,-0.093 0.318,-0.108 0.472,-0.043 l 3,1.286 C 34.881,39.048 35,39.229 35,39.429 V 60 c 0,0.276 -0.223,0.5 -0.5,0.5 z"
   class="st0"
   inkscape:connector-curvature="0"
   style="fill:#263238" />

	</g>

	<g
   id="g1154">
		<path
   id="path1152"
   d="M 47.5,14.5 C 47.224,14.5 47,14.276 47,14 V 12.5 H 45 V 14 c 0,0.276 -0.224,0.5 -0.5,0.5 C 44.224,14.5 44,14.276 44,14 v -2 c 0,-0.276 0.224,-0.5 0.5,-0.5 h 3 c 0.276,0 0.5,0.224 0.5,0.5 v 2 c 0,0.276 -0.223,0.5 -0.5,0.5 z"
   class="st0"
   inkscape:connector-curvature="0"
   style="fill:#263238" />

	</g>

	<g
   id="g1160">
		<path
   id="path1156"
   d="m 43.5,31.5 v 18.803 c 0,0.453 0.123,0.898 0.356,1.287 l 0.787,1.311 C 44.877,53.29 45,53.734 45,54.188 V 57 h 3.5 v -3.505 l 1.055,-0.703 C 49.833,52.607 50,52.295 50,51.96 V 31.5 c 0,-0.552 -0.448,-1 -1,-1 h -4.5 c -0.552,0 -1,0.448 -1,1 z"
   class="st1"
   inkscape:connector-curvature="0"
   style="fill:#4db6ac" />

		<path
   id="path1158"
   d="M 48.5,57.5 H 45 c -0.276,0 -0.5,-0.224 -0.5,-0.5 v -2.812 c 0,-0.362 -0.099,-0.718 -0.285,-1.028 L 43.428,51.848 C 43.148,51.382 43,50.848 43,50.304 V 31.5 C 43,30.673 43.673,30 44.5,30 H 49 c 0.827,0 1.5,0.673 1.5,1.5 v 20.461 c 0,0.503 -0.25,0.969 -0.668,1.248 L 49,53.764 V 57 c 0,0.276 -0.223,0.5 -0.5,0.5 z m -3,-1 H 48 v -3.004 c 0,-0.167 0.083,-0.323 0.223,-0.416 l 1.055,-0.703 c 0.14,-0.093 0.223,-0.248 0.223,-0.416 V 31.5 c 0,-0.275 -0.224,-0.5 -0.5,-0.5 h -4.5 c -0.276,0 -0.5,0.225 -0.5,0.5 v 18.803 c 0,0.363 0.099,0.719 0.285,1.029 l 0.787,1.312 c 0.28,0.466 0.428,0.999 0.428,1.543 V 56.5 Z"
   class="st0"
   inkscape:connector-curvature="0"
   style="fill:#263238" />

	</g>

	<g
   id="g1164">
		<path
   id="path1162"
   d="m 55.5,43.775 c -0.276,0 -0.5,-0.224 -0.5,-0.5 v -2.366 l -3.257,-1.955 c -0.237,-0.143 -0.313,-0.449 -0.171,-0.686 0.142,-0.236 0.449,-0.315 0.686,-0.172 l 3.5,2.101 C 55.908,40.288 56,40.45 56,40.626 v 2.649 c 0,0.277 -0.223,0.5 -0.5,0.5 z"
   class="st0"
   inkscape:connector-curvature="0"
   style="fill:#263238" />

	</g>

	<g
   id="g1168">
		<path
   id="path1166"
   d="m 58,52.025 c -0.075,0 -0.151,-0.017 -0.223,-0.053 l -6,-3 c -0.247,-0.124 -0.347,-0.424 -0.224,-0.671 0.124,-0.247 0.423,-0.349 0.671,-0.224 l 5.553,2.776 1.553,-3.105 -7.553,-3.776 c -0.247,-0.124 -0.347,-0.424 -0.224,-0.671 0.124,-0.246 0.423,-0.349 0.671,-0.224 l 8,4 c 0.247,0.124 0.347,0.424 0.224,0.671 l -2,4 C 58.36,51.924 58.184,52.025 58,52.025 Z"
   class="st0"
   inkscape:connector-curvature="0"
   style="fill:#263238" />

	</g>

	<g
   id="g1172">
		<path
   id="path1170"
   d="m 52.001,39 c -0.184,0 -0.36,-0.102 -0.448,-0.276 -0.124,-0.247 -0.023,-0.547 0.224,-0.671 l 7.553,-3.776 -1.553,-3.105 -5.553,2.776 c -0.248,0.125 -0.547,0.023 -0.671,-0.224 -0.124,-0.247 -0.023,-0.547 0.224,-0.671 l 6,-3 c 0.248,-0.124 0.547,-0.022 0.671,0.224 l 2,4 c 0.124,0.247 0.023,0.547 -0.224,0.671 l -8,4 C 52.152,38.983 52.076,39 52.001,39 Z"
   class="st0"
   inkscape:connector-curvature="0"
   style="fill:#263238" />

	</g>

	<g
   id="g1176">
		<path
   id="path1174"
   d="m 48.5,19.5 h -5 C 43.224,19.5 43,19.276 43,19 v -3 c 0,-0.276 0.224,-0.5 0.5,-0.5 h 5 c 0.276,0 0.5,0.224 0.5,0.5 v 3 c 0,0.276 -0.223,0.5 -0.5,0.5 z m -4.5,-1 h 4 v -2 h -4 z"
   class="st0"
   inkscape:connector-curvature="0"
   style="fill:#263238" />

	</g>

	<g
   id="g1180">
		<path
   id="path1178"
   d="M 44.5,29 C 44.224,29 44,28.776 44,28.5 V 21 c 0,-0.276 0.224,-0.5 0.5,-0.5 0.276,0 0.5,0.224 0.5,0.5 v 7.5 c 0,0.276 -0.223,0.5 -0.5,0.5 z"
   class="st0"
   inkscape:connector-curvature="0"
   style="fill:#263238" />

	</g>

	<g
   id="g1184">
		<path
   id="path1182"
   d="M 47.5,29 C 47.224,29 47,28.776 47,28.5 V 21 c 0,-0.276 0.224,-0.5 0.5,-0.5 0.276,0 0.5,0.224 0.5,0.5 v 7.5 c 0,0.276 -0.223,0.5 -0.5,0.5 z"
   class="st0"
   inkscape:connector-curvature="0"
   style="fill:#263238" />

	</g>

	<g
   id="g1188">
		<path
   id="path1186"
   d="m 45,60.5 c -0.276,0 -0.5,-0.224 -0.5,-0.5 v -3 c 0,-0.276 0.224,-0.5 0.5,-0.5 h 3.5 c 0.276,0 0.5,0.224 0.5,0.5 v 2.996 c 0,0.276 -0.224,0.5 -0.5,0.5 -0.276,0 -0.5,-0.224 -0.5,-0.5 V 57.5 H 45.5 V 60 c 0,0.276 -0.223,0.5 -0.5,0.5 z"
   class="st0"
   inkscape:connector-curvature="0"
   style="fill:#263238" />

	</g>

</g>
    <g
       id="g1503"
       transform="matrix(6253.5146,0,0,6253.5146,401663.69,561640.31)">
	<g
   id="g1275">
		<path
   id="path1273"
   d="m 58.5,59 h -9 C 49.224,59 49,58.776 49,58.5 49,58.224 49.224,58 49.5,58 h 9 c 0.276,0 0.5,0.224 0.5,0.5 0,0.276 -0.224,0.5 -0.5,0.5 z"
   class="st0"
   inkscape:connector-curvature="0"
   style="fill:#263238" />

	</g>

	<g
   id="g1279">
		<path
   id="path1277"
   d="m 62.5,59 h -2 C 60.224,59 60,58.776 60,58.5 60,58.224 60.224,58 60.5,58 h 2 c 0.276,0 0.5,0.224 0.5,0.5 0,0.276 -0.224,0.5 -0.5,0.5 z"
   class="st0"
   inkscape:connector-curvature="0"
   style="fill:#263238" />

	</g>

	<g
   id="g1283">
		<path
   id="path1281"
   d="m 14.5,59 h -9 C 5.224,59 5,58.776 5,58.5 5,58.224 5.224,58 5.5,58 h 9 c 0.276,0 0.5,0.224 0.5,0.5 0,0.276 -0.224,0.5 -0.5,0.5 z"
   class="st0"
   inkscape:connector-curvature="0"
   style="fill:#263238" />

	</g>

	<g
   id="g1287">
		<path
   id="path1285"
   d="m 3.5,59 h -2 C 1.224,59 1,58.776 1,58.5 1,58.224 1.224,58 1.5,58 h 2 C 3.776,58 4,58.224 4,58.5 4,58.776 3.776,59 3.5,59 Z"
   class="st0"
   inkscape:connector-curvature="0"
   style="fill:#263238" />

	</g>

	<g
   id="g1291">
		<path
   id="path1289"
   d="m 9.5,3 h -4 C 5.224,3 5,2.776 5,2.5 5,2.224 5.224,2 5.5,2 h 4 C 9.776,2 10,2.224 10,2.5 10,2.776 9.776,3 9.5,3 Z"
   class="st0"
   inkscape:connector-curvature="0"
   style="fill:#263238" />

	</g>

	<g
   id="g1295">
		<path
   id="path1293"
   d="M 7.5,5 C 7.224,5 7,4.776 7,4.5 v -4 C 7,0.224 7.224,0 7.5,0 7.776,0 8,0.224 8,0.5 v 4 C 8,4.776 7.776,5 7.5,5 Z"
   class="st0"
   inkscape:connector-curvature="0"
   style="fill:#263238" />

	</g>

	<g
   id="g1299">
		<path
   id="path1297"
   d="m 4.5,8 h -4 C 0.224,8 0,7.776 0,7.5 0,7.224 0.224,7 0.5,7 h 4 C 4.776,7 5,7.224 5,7.5 5,7.776 4.776,8 4.5,8 Z"
   class="st0"
   inkscape:connector-curvature="0"
   style="fill:#263238" />

	</g>

	<g
   id="g1303">
		<path
   id="path1301"
   d="M 2.5,10 C 2.224,10 2,9.776 2,9.5 v -4 C 2,5.224 2.224,5 2.5,5 2.776,5 3,5.224 3,5.5 v 4 C 3,9.776 2.776,10 2.5,10 Z"
   class="st0"
   inkscape:connector-curvature="0"
   style="fill:#263238" />

	</g>

	<g
   id="g1309">
		<path
   id="path1305"
   d="m 56.501,27.497 h -14 c -0.552,0 -1,-0.448 -1,-1 v -6 h 16 v 6 c 0,0.553 -0.448,1 -1,1 z"
   class="st1"
   inkscape:connector-curvature="0"
   style="fill:#4db6ac" />

		<path
   id="path1307"
   d="m 56.501,27.998 h -14 c -0.827,0 -1.5,-0.673 -1.5,-1.5 v -6 c 0,-0.276 0.224,-0.5 0.5,-0.5 h 16 c 0.276,0 0.5,0.224 0.5,0.5 v 6 c 0,0.827 -0.673,1.5 -1.5,1.5 z m -14.5,-7 v 5.5 c 0,0.276 0.225,0.5 0.5,0.5 h 14 c 0.275,0 0.5,-0.224 0.5,-0.5 v -5.5 z"
   class="st0"
   inkscape:connector-curvature="0"
   style="fill:#263238" />

	</g>

	<g
   id="g1313">
		<path
   id="path1311"
   d="m 41,25.5 c -1.379,0 -2.5,-1.122 -2.5,-2.5 0,-1.378 1.121,-2.5 2.5,-2.5 0.199,0 0.398,0.028 0.627,0.087 0.221,0.058 0.374,0.256 0.374,0.484 v 3.858 c 0,0.228 -0.154,0.427 -0.375,0.484 C 41.396,25.473 41.197,25.5 41,25.5 Z m 0,-4 c -0.827,0 -1.5,0.673 -1.5,1.5 0,0.827 0.673,1.5 1.5,1.5 h 10e-4 z"
   class="st0"
   inkscape:connector-curvature="0"
   style="fill:#263238" />

	</g>

	<g
   id="g1317">
		<path
   id="path1315"
   d="m 58,25.5 c -0.196,0 -0.4,-0.028 -0.624,-0.086 -0.221,-0.057 -0.375,-0.256 -0.375,-0.484 v -3.859 c 0,-0.228 0.154,-0.427 0.375,-0.484 C 57.601,20.528 57.805,20.5 58,20.5 c 1.379,0 2.5,1.122 2.5,2.5 0,1.378 -1.121,2.5 -2.5,2.5 z m 10e-4,-4 v 3 c 0.827,0 1.499,-0.673 1.499,-1.5 0,-0.827 -0.672,-1.5 -1.499,-1.5 z"
   class="st0"
   inkscape:connector-curvature="0"
   style="fill:#263238" />

	</g>

	<g
   id="g1321">
		<path
   id="path1319"
   d="M 63.5,52.5 C 63.224,52.5 63,52.276 63,52 V 39.385 c 0,-1.851 -1.11,-3.491 -2.828,-4.178 L 53.315,32.464 C 53.124,32.388 53,32.205 53,32 v -1.751 c 0,-0.276 0.224,-0.5 0.5,-0.5 0.276,0 0.5,0.224 0.5,0.5 v 1.413 l 6.543,2.617 C 62.644,35.118 64,37.123 64,39.385 V 52 c 0,0.276 -0.224,0.5 -0.5,0.5 z"
   class="st0"
   inkscape:connector-curvature="0"
   style="fill:#263238" />

	</g>

	<g
   id="g1325">
		<path
   id="path1323"
   d="m 43.001,33.5 c -0.198,0 -0.386,-0.119 -0.464,-0.314 -0.103,-0.256 0.021,-0.547 0.278,-0.65 L 45,31.662 v -1.413 c 0,-0.276 0.224,-0.5 0.5,-0.5 0.276,0 0.5,0.224 0.5,0.5 V 32 c 0,0.205 -0.124,0.388 -0.314,0.464 l -2.499,1 C 43.126,33.489 43.062,33.5 43.001,33.5 Z"
   class="st0"
   inkscape:connector-curvature="0"
   style="fill:#263238" />

	</g>

	<g
   id="g1331">
		<path
   id="path1327"
   d="m 57.5,19 h -16 v -1 c 0,-2.761 2.239,-5 5,-5 h 6 c 2.761,0 5,2.239 5,5 z"
   class="st1"
   inkscape:connector-curvature="0"
   style="fill:#4db6ac" />

		<path
   id="path1329"
   d="m 57.5,19.5 h -16 C 41.224,19.5 41,19.276 41,19 v -1 c 0,-3.033 2.468,-5.5 5.5,-5.5 h 6 c 3.032,0 5.5,2.467 5.5,5.5 v 1 c 0,0.276 -0.224,0.5 -0.5,0.5 z M 42,18.5 H 57 V 18 c 0,-2.481 -2.019,-4.5 -4.5,-4.5 h -6 C 44.019,13.5 42,15.519 42,18 Z"
   class="st0"
   inkscape:connector-curvature="0"
   style="fill:#263238" />

	</g>

	<g
   id="g1337">
		<path
   id="path1333"
   d="m 57.5,20.5 h -16 c -0.552,0 -1,-0.448 -1,-1 v 0 c 0,-0.552 0.448,-1 1,-1 h 16 c 0.552,0 1,0.448 1,1 v 0 c 0,0.552 -0.447,1 -1,1 z"
   class="st1"
   inkscape:connector-curvature="0"
   style="fill:#4db6ac" />

		<path
   id="path1335"
   d="m 57.5,21 h -16 C 40.673,21 40,20.327 40,19.5 40,18.673 40.673,18 41.5,18 h 16 c 0.827,0 1.5,0.673 1.5,1.5 0,0.827 -0.673,1.5 -1.5,1.5 z m -16,-2 c -0.275,0 -0.5,0.224 -0.5,0.5 0,0.276 0.225,0.5 0.5,0.5 h 16 C 57.775,20 58,19.776 58,19.5 58,19.224 57.775,19 57.5,19 Z"
   class="st0"
   inkscape:connector-curvature="0"
   style="fill:#263238" />

	</g>

	<g
   id="g1343">
		<rect
   id="rect1339"
   height="4"
   width="10"
   class="st2"
   y="20.5"
   x="44.500999"
   style="fill:#ffd740" />

		<path
   id="path1341"
   d="m 54.501,25 h -10 c -0.276,0 -0.5,-0.224 -0.5,-0.5 v -4 c 0,-0.276 0.224,-0.5 0.5,-0.5 h 10 c 0.276,0 0.5,0.224 0.5,0.5 v 4 c 0,0.276 -0.224,0.5 -0.5,0.5 z m -9.5,-1 h 9 v -3 h -9 z"
   class="st0"
   inkscape:connector-curvature="0"
   style="fill:#263238" />

	</g>

	<g
   id="g1347">
		<path
   id="path1345"
   d="m 49.5,31.5 c -2.814,0 -5.442,-1.391 -7.028,-3.722 -0.104,-0.153 -0.115,-0.351 -0.029,-0.515 0.087,-0.164 0.257,-0.266 0.442,-0.266 h 13.231 c 0.186,0 0.355,0.103 0.442,0.266 0.086,0.164 0.075,0.362 -0.029,0.516 -1.588,2.33 -4.215,3.721 -7.029,3.721 z m -5.591,-3.503 c 1.414,1.583 3.441,2.503 5.591,2.503 2.15,0 4.177,-0.921 5.592,-2.503 z"
   class="st0"
   inkscape:connector-curvature="0"
   style="fill:#263238" />

	</g>

	<g
   id="g1351">
		<path
   id="path1349"
   d="M 58.5,52.5 C 58.224,52.5 58,52.276 58,52 V 34.338 L 54.769,33.046 C 54.093,35.37 51.967,37 49.501,37 47.035,37 44.909,35.37 44.233,33.045 l -1.047,0.419 c -0.257,0.104 -0.547,-0.022 -0.649,-0.279 -0.102,-0.257 0.021,-0.547 0.278,-0.65 L 44.402,31.9 c 0.14,-0.057 0.297,-0.045 0.429,0.028 0.132,0.073 0.224,0.202 0.249,0.35 0.378,2.157 2.237,3.722 4.421,3.722 2.184,0 4.043,-1.565 4.421,-3.721 0.025,-0.148 0.117,-0.277 0.249,-0.35 0.132,-0.072 0.289,-0.083 0.429,-0.028 l 4.086,1.634 C 58.876,33.612 59,33.795 59,34 v 18 c 0,0.276 -0.224,0.5 -0.5,0.5 z"
   class="st0"
   inkscape:connector-curvature="0"
   style="fill:#263238" />

	</g>

	<g
   id="g1357">
		<path
   id="path1353"
   d="m 39.001,40.997 h -14 c -0.552,0 -1,-0.448 -1,-1 v -6 h 16 v 6 c 0,0.553 -0.448,1 -1,1 z"
   class="st1"
   inkscape:connector-curvature="0"
   style="fill:#4db6ac" />

		<path
   id="path1355"
   d="m 39.001,41.498 h -14 c -0.827,0 -1.5,-0.673 -1.5,-1.5 v -6 c 0,-0.276 0.224,-0.5 0.5,-0.5 h 16 c 0.276,0 0.5,0.224 0.5,0.5 v 6 c 0,0.827 -0.673,1.5 -1.5,1.5 z m -14.5,-7 v 5.5 c 0,0.276 0.225,0.5 0.5,0.5 h 14 c 0.275,0 0.5,-0.224 0.5,-0.5 v -5.5 z"
   class="st0"
   inkscape:connector-curvature="0"
   style="fill:#263238" />

	</g>

	<g
   id="g1361">
		<path
   id="path1359"
   d="M 23.5,39 C 22.121,39 21,37.878 21,36.5 21,35.122 22.121,34 23.5,34 c 0.199,0 0.398,0.028 0.627,0.087 0.221,0.058 0.374,0.256 0.374,0.484 v 3.858 c 0,0.228 -0.154,0.427 -0.375,0.484 C 23.896,38.973 23.697,39 23.5,39 Z m 0,-4 c -0.827,0 -1.5,0.673 -1.5,1.5 0,0.827 0.673,1.5 1.5,1.5 h 0.001 z"
   class="st0"
   inkscape:connector-curvature="0"
   style="fill:#263238" />

	</g>

	<g
   id="g1365">
		<path
   id="path1363"
   d="m 40.5,39 c -0.196,0 -0.4,-0.028 -0.624,-0.086 -0.221,-0.057 -0.375,-0.256 -0.375,-0.484 v -3.859 c 0,-0.228 0.154,-0.427 0.375,-0.484 C 40.101,34.028 40.305,34 40.5,34 c 1.379,0 2.5,1.122 2.5,2.5 0,1.378 -1.121,2.5 -2.5,2.5 z m 10e-4,-4 v 3 C 41.328,38 42,37.327 42,36.5 42,35.673 41.328,35 40.501,35 Z"
   class="st0"
   inkscape:connector-curvature="0"
   style="fill:#263238" />

	</g>

	<g
   id="g1369">
		<path
   id="path1367"
   d="m 46,64 c -0.276,0 -0.5,-0.224 -0.5,-0.5 V 52.885 c 0,-1.851 -1.11,-3.491 -2.828,-4.178 l -6.857,-2.743 c -0.19,-0.076 -0.314,-0.26 -0.314,-0.464 v -1.751 c 0,-0.276 0.224,-0.5 0.5,-0.5 0.276,0 0.5,0.224 0.5,0.5 v 1.413 l 6.543,2.617 c 2.101,0.84 3.457,2.845 3.457,5.107 V 63.5 C 46.5,63.776 46.276,64 46,64 Z"
   class="st0"
   inkscape:connector-curvature="0"
   style="fill:#263238" />

	</g>

	<g
   id="g1373">
		<path
   id="path1371"
   d="m 18,64 c -0.276,0 -0.5,-0.224 -0.5,-0.5 V 52.885 c 0,-2.262 1.357,-4.266 3.458,-5.106 L 27.5,45.162 v -1.413 c 0,-0.276 0.224,-0.5 0.5,-0.5 0.276,0 0.5,0.224 0.5,0.5 V 45.5 c 0,0.205 -0.124,0.388 -0.314,0.464 l -6.856,2.743 c -1.719,0.688 -2.829,2.327 -2.829,4.178 V 63.5 C 18.5,63.776 18.276,64 18,64 Z"
   class="st0"
   inkscape:connector-curvature="0"
   style="fill:#263238" />

	</g>

	<g
   id="g1379">
		<path
   id="path1375"
   d="M 40,32.5 H 24 v -1 c 0,-2.761 2.239,-5 5,-5 h 6 c 2.761,0 5,2.239 5,5 z"
   class="st1"
   inkscape:connector-curvature="0"
   style="fill:#4db6ac" />

		<path
   id="path1377"
   d="M 40,33 H 24 c -0.276,0 -0.5,-0.224 -0.5,-0.5 v -1 C 23.5,28.467 25.968,26 29,26 h 6 c 3.032,0 5.5,2.467 5.5,5.5 v 1 C 40.5,32.776 40.276,33 40,33 Z M 24.5,32 h 15 V 31.5 C 39.5,29.019 37.481,27 35,27 h -6 c -2.481,0 -4.5,2.019 -4.5,4.5 z"
   class="st0"
   inkscape:connector-curvature="0"
   style="fill:#263238" />

	</g>

	<g
   id="g1385">
		<path
   id="path1381"
   d="M 40,34 H 24 c -0.552,0 -1,-0.448 -1,-1 v 0 c 0,-0.552 0.448,-1 1,-1 h 16 c 0.552,0 1,0.448 1,1 v 0 c 0,0.552 -0.447,1 -1,1 z"
   class="st1"
   inkscape:connector-curvature="0"
   style="fill:#4db6ac" />

		<path
   id="path1383"
   d="M 40,34.5 H 24 c -0.827,0 -1.5,-0.673 -1.5,-1.5 0,-0.827 0.673,-1.5 1.5,-1.5 h 16 c 0.827,0 1.5,0.673 1.5,1.5 0,0.827 -0.673,1.5 -1.5,1.5 z m -16,-2 c -0.275,0 -0.5,0.224 -0.5,0.5 0,0.276 0.225,0.5 0.5,0.5 h 16 c 0.275,0 0.5,-0.224 0.5,-0.5 0,-0.276 -0.225,-0.5 -0.5,-0.5 z"
   class="st0"
   inkscape:connector-curvature="0"
   style="fill:#263238" />

	</g>

	<g
   id="g1391">
		<rect
   id="rect1387"
   height="4"
   width="10"
   class="st2"
   y="34"
   x="27.000999"
   style="fill:#ffd740" />

		<path
   id="path1389"
   d="m 37.001,38.5 h -10 c -0.276,0 -0.5,-0.224 -0.5,-0.5 v -4 c 0,-0.276 0.224,-0.5 0.5,-0.5 h 10 c 0.276,0 0.5,0.224 0.5,0.5 v 4 c 0,0.276 -0.224,0.5 -0.5,0.5 z m -9.5,-1 h 9 v -3 h -9 z"
   class="st0"
   inkscape:connector-curvature="0"
   style="fill:#263238" />

	</g>

	<g
   id="g1395">
		<path
   id="path1393"
   d="m 32,45 c -2.814,0 -5.442,-1.391 -7.028,-3.722 -0.104,-0.153 -0.115,-0.351 -0.029,-0.515 0.087,-0.164 0.257,-0.266 0.442,-0.266 h 13.231 c 0.186,0 0.355,0.103 0.442,0.266 0.086,0.164 0.075,0.362 -0.029,0.516 C 37.441,43.609 34.814,45 32,45 Z M 26.409,41.497 C 27.823,43.08 29.85,44 32,44 c 2.15,0 4.177,-0.921 5.592,-2.503 z"
   class="st0"
   inkscape:connector-curvature="0"
   style="fill:#263238" />

	</g>

	<g
   id="g1401">
		<path
   id="path1397"
   d="m 39.001,14.997 h -14 c -0.552,0 -1,-0.448 -1,-1 v -6 h 16 v 6 c 0,0.553 -0.448,1 -1,1 z"
   class="st1"
   inkscape:connector-curvature="0"
   style="fill:#4db6ac" />

		<path
   id="path1399"
   d="m 39.001,15.498 h -14 c -0.827,0 -1.5,-0.673 -1.5,-1.5 v -6 c 0,-0.276 0.224,-0.5 0.5,-0.5 h 16 c 0.276,0 0.5,0.224 0.5,0.5 v 6 c 0,0.827 -0.673,1.5 -1.5,1.5 z m -14.5,-7 v 5.5 c 0,0.276 0.225,0.5 0.5,0.5 h 14 c 0.275,0 0.5,-0.224 0.5,-0.5 v -5.5 z"
   class="st0"
   inkscape:connector-curvature="0"
   style="fill:#263238" />

	</g>

	<g
   id="g1405">
		<path
   id="path1403"
   d="M 23.5,13 C 22.121,13 21,11.878 21,10.5 21,9.122 22.121,8 23.5,8 c 0.199,0 0.398,0.028 0.627,0.087 0.221,0.058 0.374,0.256 0.374,0.484 v 3.858 c 0,0.228 -0.154,0.427 -0.375,0.484 C 23.896,12.973 23.697,13 23.5,13 Z m 0,-4 C 22.673,9 22,9.673 22,10.5 c 0,0.827 0.673,1.5 1.5,1.5 h 0.001 z"
   class="st0"
   inkscape:connector-curvature="0"
   style="fill:#263238" />

	</g>

	<g
   id="g1409">
		<path
   id="path1407"
   d="M 40.5,13 C 40.304,13 40.1,12.972 39.876,12.914 39.655,12.857 39.501,12.658 39.501,12.43 V 8.571 c 0,-0.228 0.154,-0.427 0.375,-0.484 C 40.101,8.028 40.305,8 40.5,8 41.879,8 43,9.122 43,10.5 43,11.878 41.879,13 40.5,13 Z m 10e-4,-4 v 3 C 41.328,12 42,11.327 42,10.5 42,9.673 41.328,9 40.501,9 Z"
   class="st0"
   inkscape:connector-curvature="0"
   style="fill:#263238" />

	</g>

	<g
   id="g1415">
		<path
   id="path1411"
   d="M 40,6.5 H 24 v -1 c 0,-2.761 2.239,-5 5,-5 h 6 c 2.761,0 5,2.239 5,5 z"
   class="st1"
   inkscape:connector-curvature="0"
   style="fill:#4db6ac" />

		<path
   id="path1413"
   d="M 40,7 H 24 C 23.724,7 23.5,6.776 23.5,6.5 v -1 C 23.5,2.467 25.968,0 29,0 h 6 c 3.032,0 5.5,2.467 5.5,5.5 v 1 C 40.5,6.776 40.276,7 40,7 Z M 24.5,6 h 15 V 5.5 C 39.5,3.019 37.481,1 35,1 h -6 c -2.481,0 -4.5,2.019 -4.5,4.5 z"
   class="st0"
   inkscape:connector-curvature="0"
   style="fill:#263238" />

	</g>

	<g
   id="g1421">
		<path
   id="path1417"
   d="M 40,8 H 24 C 23.448,8 23,7.552 23,7 v 0 c 0,-0.552 0.448,-1 1,-1 h 16 c 0.552,0 1,0.448 1,1 v 0 c 0,0.552 -0.447,1 -1,1 z"
   class="st1"
   inkscape:connector-curvature="0"
   style="fill:#4db6ac" />

		<path
   id="path1419"
   d="M 40,8.5 H 24 C 23.173,8.5 22.5,7.827 22.5,7 22.5,6.173 23.173,5.5 24,5.5 h 16 c 0.827,0 1.5,0.673 1.5,1.5 0,0.827 -0.673,1.5 -1.5,1.5 z m -16,-2 c -0.275,0 -0.5,0.224 -0.5,0.5 0,0.276 0.225,0.5 0.5,0.5 H 40 C 40.275,7.5 40.5,7.276 40.5,7 40.5,6.724 40.275,6.5 40,6.5 Z"
   class="st0"
   inkscape:connector-curvature="0"
   style="fill:#263238" />

	</g>

	<g
   id="g1427">
		<rect
   id="rect1423"
   height="4"
   width="10"
   class="st2"
   y="8"
   x="27.000999"
   style="fill:#ffd740" />

		<path
   id="path1425"
   d="m 37.001,12.5 h -10 c -0.276,0 -0.5,-0.224 -0.5,-0.5 V 8 c 0,-0.276 0.224,-0.5 0.5,-0.5 h 10 c 0.276,0 0.5,0.224 0.5,0.5 v 4 c 0,0.276 -0.224,0.5 -0.5,0.5 z m -9.5,-1 h 9 v -3 h -9 z"
   class="st0"
   inkscape:connector-curvature="0"
   style="fill:#263238" />

	</g>

	<g
   id="g1431">
		<path
   id="path1429"
   d="m 32,19 c -2.814,0 -5.442,-1.391 -7.028,-3.722 -0.104,-0.153 -0.115,-0.351 -0.029,-0.515 0.087,-0.164 0.257,-0.266 0.442,-0.266 h 13.231 c 0.186,0 0.355,0.103 0.442,0.266 0.086,0.164 0.075,0.362 -0.029,0.516 C 37.441,17.609 34.814,19 32,19 Z M 26.409,15.497 C 27.823,17.08 29.85,18 32,18 c 2.15,0 4.177,-0.921 5.592,-2.503 z"
   class="st0"
   inkscape:connector-curvature="0"
   style="fill:#263238" />

	</g>

	<g
   id="g1437">
		<rect
   id="rect1433"
   height="3"
   width="18"
   class="st1"
   y="55.5"
   x="23"
   style="fill:#4db6ac" />

		<path
   id="path1435"
   d="M 41,59 H 23 c -0.276,0 -0.5,-0.224 -0.5,-0.5 v -3 C 22.5,55.224 22.724,55 23,55 h 18 c 0.276,0 0.5,0.224 0.5,0.5 v 3 C 41.5,58.776 41.276,59 41,59 Z M 23.5,58 h 17 v -2 h -17 z"
   class="st0"
   inkscape:connector-curvature="0"
   style="fill:#263238" />

	</g>

	<g
   id="g1441">
		<path
   id="path1439"
   d="m 41,64 c -0.276,0 -0.5,-0.224 -0.5,-0.5 V 47.838 l -3.231,-1.292 c -0.676,2.324 -2.802,3.954 -5.268,3.954 -2.466,0 -4.592,-1.63 -5.268,-3.955 L 23.5,47.838 V 63.5 c 0,0.276 -0.224,0.5 -0.5,0.5 -0.276,0 -0.5,-0.224 -0.5,-0.5 v -16 c 0,-0.205 0.124,-0.388 0.314,-0.464 l 4.088,-1.635 c 0.14,-0.056 0.297,-0.045 0.429,0.028 0.132,0.073 0.224,0.202 0.249,0.35 0.378,2.156 2.237,3.721 4.421,3.721 2.184,0 4.043,-1.565 4.421,-3.721 0.025,-0.148 0.117,-0.277 0.249,-0.35 0.132,-0.073 0.29,-0.084 0.429,-0.028 l 4.086,1.634 c 0.19,0.076 0.314,0.26 0.314,0.464 v 16 C 41.5,63.776 41.276,64 41,64 Z"
   class="st0"
   inkscape:connector-curvature="0"
   style="fill:#263238" />

	</g>

	<g
   id="g1447">
		<path
   id="path1443"
   d="m 41.227,42 c -0.21,0.233 -0.454,0.432 -0.727,0.59 V 45 h 18 v -3 z"
   class="st1"
   inkscape:connector-curvature="0"
   style="fill:#4db6ac" />

		<path
   id="path1445"
   d="m 58.5,45.5 h -18 C 40.224,45.5 40,45.276 40,45 v -2.41 c 0,-0.178 0.095,-0.343 0.249,-0.433 0.227,-0.132 0.432,-0.297 0.607,-0.493 0.095,-0.105 0.229,-0.165 0.371,-0.165 H 58.5 c 0.276,0 0.5,0.224 0.5,0.5 v 3 C 59,45.276 58.776,45.5 58.5,45.5 Z M 41,44.5 h 17 v -2 H 41.44 c -0.137,0.133 -0.284,0.255 -0.44,0.364 z"
   class="st0"
   inkscape:connector-curvature="0"
   style="fill:#263238" />

	</g>

	<g
   id="g1453">
		<path
   id="path1449"
   d="m 7.5,27.497 h 14 c 0.552,0 1,-0.448 1,-1 v -6 h -16 v 6 c 0,0.553 0.447,1 1,1 z"
   class="st1"
   inkscape:connector-curvature="0"
   style="fill:#4db6ac" />

		<path
   id="path1451"
   d="m 21.5,27.998 h -14 c -0.827,0 -1.5,-0.673 -1.5,-1.5 v -6 c 0,-0.276 0.224,-0.5 0.5,-0.5 h 16 c 0.276,0 0.5,0.224 0.5,0.5 v 6 c 0,0.827 -0.673,1.5 -1.5,1.5 z m -14.5,-7 v 5.5 c 0,0.276 0.225,0.5 0.5,0.5 h 14 c 0.275,0 0.5,-0.224 0.5,-0.5 v -5.5 z"
   class="st0"
   inkscape:connector-curvature="0"
   style="fill:#263238" />

	</g>

	<g
   id="g1457">
		<path
   id="path1455"
   d="m 6,25.5 c -1.379,0 -2.5,-1.122 -2.5,-2.5 0,-1.378 1.121,-2.5 2.5,-2.5 0.197,0 0.396,0.027 0.625,0.086 C 6.846,20.644 7,20.843 7,21.071 V 24.93 C 7,25.158 6.846,25.357 6.625,25.414 6.396,25.473 6.198,25.5 6,25.5 Z m 0,-4 c -0.827,0 -1.5,0.673 -1.5,1.5 0,0.827 0.673,1.5 1.5,1.5 z"
   class="st0"
   inkscape:connector-curvature="0"
   style="fill:#263238" />

	</g>

	<g
   id="g1461">
		<path
   id="path1459"
   d="m 23,25.5 c -0.195,0 -0.4,-0.028 -0.625,-0.087 C 22.154,25.356 22,25.157 22,24.929 v -3.858 c 0,-0.228 0.153,-0.426 0.373,-0.484 0.225,-0.058 0.43,-0.087 0.627,-0.087 1.379,0 2.5,1.122 2.5,2.5 0,1.378 -1.121,2.5 -2.5,2.5 z m 0,-4 v 3 c 0.827,0 1.5,-0.673 1.5,-1.5 0,-0.827 -0.673,-1.5 -1.5,-1.5 z"
   class="st0"
   inkscape:connector-curvature="0"
   style="fill:#263238" />

	</g>

	<g
   id="g1465">
		<path
   id="path1463"
   d="M 0.5,52.5 C 0.224,52.5 0,52.276 0,52 V 39.385 C 0,37.123 1.357,35.118 3.458,34.278 L 10,31.662 v -1.413 c 0,-0.276 0.224,-0.5 0.5,-0.5 0.276,0 0.5,0.224 0.5,0.5 V 32 c 0,0.205 -0.124,0.388 -0.314,0.464 L 3.83,35.207 C 2.11,35.895 1,37.534 1,39.385 V 52 c 0,0.276 -0.224,0.5 -0.5,0.5 z"
   class="st0"
   inkscape:connector-curvature="0"
   style="fill:#263238" />

	</g>

	<g
   id="g1469">
		<path
   id="path1467"
   d="m 21,33.5 c -0.062,0 -0.125,-0.011 -0.186,-0.036 l -2.5,-1 C 18.124,32.388 18,32.205 18,32 v -1.751 c 0,-0.276 0.224,-0.5 0.5,-0.5 0.276,0 0.5,0.224 0.5,0.5 v 1.413 l 2.186,0.874 c 0.257,0.103 0.381,0.394 0.278,0.65 C 21.386,33.381 21.198,33.5 21,33.5 Z"
   class="st0"
   inkscape:connector-curvature="0"
   style="fill:#263238" />

	</g>

	<g
   id="g1475">
		<path
   id="path1471"
   d="m 6.5,19 h 16 v -1 c 0,-2.761 -2.239,-5 -5,-5 h -6 c -2.761,0 -5,2.239 -5,5 z"
   class="st1"
   inkscape:connector-curvature="0"
   style="fill:#4db6ac" />

		<path
   id="path1473"
   d="M 22.5,19.5 H 6.5 C 6.224,19.5 6,19.276 6,19 v -1 c 0,-3.033 2.468,-5.5 5.5,-5.5 h 6 c 3.032,0 5.5,2.467 5.5,5.5 v 1 c 0,0.276 -0.224,0.5 -0.5,0.5 z M 7,18.5 H 22 V 18 c 0,-2.481 -2.019,-4.5 -4.5,-4.5 h -6 C 9.019,13.5 7,15.519 7,18 Z"
   class="st0"
   inkscape:connector-curvature="0"
   style="fill:#263238" />

	</g>

	<g
   id="g1481">
		<path
   id="path1477"
   d="m 6.5,20.5 h 16 c 0.552,0 1,-0.448 1,-1 v 0 c 0,-0.552 -0.448,-1 -1,-1 h -16 c -0.552,0 -1,0.448 -1,1 v 0 c 0,0.552 0.448,1 1,1 z"
   class="st1"
   inkscape:connector-curvature="0"
   style="fill:#4db6ac" />

		<path
   id="path1479"
   d="M 22.5,21 H 6.5 C 5.673,21 5,20.327 5,19.5 5,18.673 5.673,18 6.5,18 h 16 c 0.827,0 1.5,0.673 1.5,1.5 0,0.827 -0.673,1.5 -1.5,1.5 z M 6.5,19 C 6.225,19 6,19.224 6,19.5 6,19.776 6.225,20 6.5,20 h 16 C 22.775,20 23,19.776 23,19.5 23,19.224 22.775,19 22.5,19 Z"
   class="st0"
   inkscape:connector-curvature="0"
   style="fill:#263238" />

	</g>

	<g
   id="g1487">
		<rect
   id="rect1483"
   height="4"
   width="10"
   class="st2"
   y="20.5"
   x="9.5"
   style="fill:#ffd740" />

		<path
   id="path1485"
   d="M 19.5,25 H 9.5 C 9.224,25 9,24.776 9,24.5 v -4 C 9,20.224 9.224,20 9.5,20 h 10 c 0.276,0 0.5,0.224 0.5,0.5 v 4 C 20,24.776 19.776,25 19.5,25 Z M 10,24 h 9 v -3 h -9 z"
   class="st0"
   inkscape:connector-curvature="0"
   style="fill:#263238" />

	</g>

	<g
   id="g1491">
		<path
   id="path1489"
   d="M 14.5,31.5 C 11.686,31.5 9.058,30.109 7.472,27.778 7.368,27.625 7.357,27.427 7.443,27.263 7.53,27.099 7.7,26.997 7.885,26.997 h 13.231 c 0.186,0 0.355,0.103 0.442,0.266 0.086,0.164 0.075,0.362 -0.029,0.516 C 19.941,30.109 17.314,31.5 14.5,31.5 Z M 8.909,27.997 c 1.414,1.583 3.441,2.503 5.591,2.503 2.15,0 4.177,-0.921 5.592,-2.503 z"
   class="st0"
   inkscape:connector-curvature="0"
   style="fill:#263238" />

	</g>

	<g
   id="g1495">
		<path
   id="path1493"
   d="M 5.5,52.5 C 5.224,52.5 5,52.276 5,52 V 34 c 0,-0.205 0.124,-0.388 0.314,-0.464 l 4.087,-1.634 c 0.139,-0.056 0.298,-0.045 0.429,0.028 0.132,0.073 0.224,0.202 0.249,0.35 0.378,2.155 2.237,3.72 4.421,3.72 2.184,0 4.042,-1.565 4.42,-3.721 0.025,-0.148 0.117,-0.277 0.249,-0.35 0.132,-0.073 0.29,-0.084 0.429,-0.028 l 1.588,0.635 c 0.257,0.103 0.381,0.394 0.278,0.65 -0.102,0.257 -0.393,0.383 -0.649,0.279 L 19.767,33.046 C 19.092,35.37 16.965,37 14.5,37 12.034,37 9.907,35.37 9.232,33.046 L 6,34.338 V 52 c 0,0.276 -0.224,0.5 -0.5,0.5 z"
   class="st0"
   inkscape:connector-curvature="0"
   style="fill:#263238" />

	</g>

	<g
   id="g1501">
		<path
   id="path1497"
   d="m 22.774,42 c 0.21,0.233 0.454,0.432 0.727,0.59 V 45 h -18 v -3 z"
   class="st1"
   inkscape:connector-curvature="0"
   style="fill:#4db6ac" />

		<path
   id="path1499"
   d="M 23.5,45.5 H 5.5 C 5.224,45.5 5,45.276 5,45 v -3 c 0,-0.276 0.224,-0.5 0.5,-0.5 h 17.273 c 0.142,0 0.276,0.06 0.371,0.165 0.177,0.196 0.381,0.362 0.606,0.493 0.155,0.09 0.25,0.254 0.25,0.432 V 45 c 0,0.276 -0.224,0.5 -0.5,0.5 z M 6,44.5 H 23 V 42.864 C 22.845,42.755 22.697,42.634 22.561,42.5 H 6 Z"
   class="st0"
   inkscape:connector-curvature="0"
   style="fill:#263238" />

	</g>

</g>
    <g
       id="g1705"
       transform="matrix(-4917.0828,0,0,4917.0828,1127369.6,202703.01)">
	<g
   id="g1633">
		<path
   id="path1631"
   d="m 26,31 c -0.276,0 -0.5,-0.224 -0.5,-0.5 v -8.706 c 0,-0.276 0.224,-0.5 0.5,-0.5 0.276,0 0.5,0.224 0.5,0.5 V 30.5 c 0,0.277 -0.223,0.5 -0.5,0.5 z"
   class="st0"
   inkscape:connector-curvature="0"
   style="fill:#263238" />

	</g>

	<g
   id="g1637">
		<path
   id="path1635"
   d="m 18.735,32.095 c -0.167,0 -0.33,-0.083 -0.424,-0.235 l -3.785,-6.048 c -0.146,-0.234 -0.076,-0.542 0.159,-0.689 0.233,-0.147 0.542,-0.077 0.689,0.159 l 3.785,6.048 c 0.146,0.234 0.076,0.542 -0.159,0.689 -0.083,0.052 -0.174,0.076 -0.265,0.076 z"
   class="st0"
   inkscape:connector-curvature="0"
   style="fill:#263238" />

	</g>

	<g
   id="g1641">
		<path
   id="path1639"
   d="m 38,31 c -0.276,0 -0.5,-0.224 -0.5,-0.5 v -8.706 c 0,-0.276 0.224,-0.5 0.5,-0.5 0.276,0 0.5,0.224 0.5,0.5 V 30.5 c 0,0.277 -0.223,0.5 -0.5,0.5 z"
   class="st0"
   inkscape:connector-curvature="0"
   style="fill:#263238" />

	</g>

	<g
   id="g1645">
		<path
   id="path1643"
   d="m 32,42 c -2.481,0 -4.5,-2.019 -4.5,-4.5 0,-2.481 2.019,-4.5 4.5,-4.5 2.481,0 4.5,2.019 4.5,4.5 0,2.481 -2.018,4.5 -4.5,4.5 z m 0,-8 c -1.93,0 -3.5,1.57 -3.5,3.5 0,1.93 1.571,3.5 3.5,3.5 1.929,0 3.5,-1.57 3.5,-3.5 C 35.5,35.57 33.93,34 32,34 Z"
   class="st0"
   inkscape:connector-curvature="0"
   style="fill:#263238" />

	</g>

	<g
   id="g1649">
		<path
   id="path1647"
   d="m 36,51.5 h -8 c -0.276,0 -0.5,-0.224 -0.5,-0.5 v -6.45 l -5.721,-9.644 c -0.562,-0.948 -0.249,-2.177 0.699,-2.74 0.95,-0.561 2.179,-0.248 2.741,0.699 L 30.046,41 h 3.909 l 4.825,-8.135 c 0.563,-0.948 1.792,-1.262 2.741,-0.7 0,0 0,0 0,0 0.948,0.563 1.262,1.792 0.699,2.74 L 36.5,44.55 V 51 c 0,0.276 -0.223,0.5 -0.5,0.5 z m -7.5,-1 h 7 v -6.087 c 0,-0.09 0.024,-0.178 0.07,-0.255 l 5.79,-9.762 c 0.281,-0.474 0.125,-1.089 -0.349,-1.371 -0.475,-0.28 -1.089,-0.124 -1.371,0.35 l -4.97,8.38 C 34.58,41.907 34.417,42 34.24,42 h -4.479 c -0.177,0 -0.34,-0.093 -0.43,-0.245 l -4.971,-8.38 c -0.281,-0.473 -0.896,-0.629 -1.371,-0.349 -0.474,0.281 -0.63,0.896 -0.349,1.371 l 5.791,9.762 c 0.046,0.077 0.07,0.165 0.07,0.255 V 50.5 Z"
   class="st0"
   inkscape:connector-curvature="0"
   style="fill:#263238" />

	</g>

	<g
   id="g1653">
		<path
   id="path1651"
   d="m 38,64 v 0 c -1.654,0 -3,-1.346 -3,-3 v -2.5 c 0,-1.103 -0.897,-2 -2,-2 h -2.5 c -1.654,0 -3,-1.346 -3,-3 V 51 c 0,-0.276 0.224,-0.5 0.5,-0.5 h 5 c 4.411,0 8,3.589 8,8 V 61 c 0,1.655 -1.345,3 -3,3 z M 28.5,51.5 v 2 c 0,1.103 0.897,2 2,2 H 33 c 1.654,0 3,1.346 3,3 V 61 c 0,1.103 0.897,2 2,2 1.103,0 2,-0.897 2,-2 v -2.5 c 0,-3.86 -3.14,-7 -7,-7 z"
   class="st0"
   inkscape:connector-curvature="0"
   style="fill:#263238" />

	</g>

	<g
   id="g1657">
		<path
   id="path1655"
   d="m 43,64 c -1.654,0 -3,-1.346 -3,-3 v -2.5 c 0,-3.86 -3.14,-7 -7,-7 -0.276,0 -0.5,-0.224 -0.5,-0.5 0,-0.276 0.224,-0.5 0.5,-0.5 v 0 h 5 c 4.411,0 8,3.589 8,8 V 61 c 0,1.655 -1.345,3 -3,3 z M 36.871,51.5 c 2.461,1.366 4.13,3.992 4.13,7 V 61 c 0,1.103 0.897,2 2,2 1.103,0 2,-0.897 2,-2 v -2.5 c 0,-3.86 -3.14,-7 -7,-7 z"
   class="st0"
   inkscape:connector-curvature="0"
   style="fill:#263238" />

	</g>

	<g
   id="g1663">
		<path
   id="path1659"
   d="m 8.005,23.435 c 1.28,2.568 4.43,3.495 6.944,2.112 4.999,-2.751 10.885,-4.23 17.051,-4.23 6.167,0 12.052,1.479 17.052,4.229 2.513,1.383 5.664,0.455 6.944,-2.112 L 61.269,12.855 C 62.535,10.315 61.444,7.214 58.851,6.059 50.71,2.431 41.539,0.5 32,0.5 22.462,0.5 13.291,2.431 5.15,6.059 2.557,7.214 1.465,10.315 2.732,12.856 Z"
   class="st1"
   inkscape:connector-curvature="0"
   style="fill:#4db6ac" />

		<path
   id="path1661"
   d="m 12.48,26.69 c -0.558,0 -1.117,-0.084 -1.665,-0.256 C 9.384,25.987 8.227,25.001 7.557,23.658 L 2.285,13.079 C 1.607,11.719 1.516,10.182 2.03,8.751 2.539,7.332 3.575,6.214 4.947,5.603 13.171,1.938 22.526,0 32,0 c 9.475,0 18.83,1.938 27.054,5.603 1.372,0.611 2.408,1.729 2.917,3.149 0.514,1.431 0.423,2.967 -0.255,4.327 l -5.273,10.579 c -0.669,1.343 -1.827,2.329 -3.258,2.776 -1.463,0.457 -3.017,0.298 -4.375,-0.45 C 43.854,23.257 38.041,21.817 32,21.817 c -6.041,0 -11.854,1.441 -16.81,4.168 -0.85,0.468 -1.776,0.705 -2.71,0.705 z M 32,1 C 22.666,1 13.451,2.907 5.354,6.516 4.233,7.016 3.387,7.929 2.971,9.089 2.55,10.261 2.624,11.52 3.179,12.633 l 5.273,10.579 v 0 c 0.548,1.097 1.493,1.903 2.662,2.268 1.2,0.373 2.477,0.243 3.594,-0.371 5.104,-2.808 11.083,-4.292 17.292,-4.292 6.209,0 12.189,1.484 17.292,4.292 1.116,0.614 2.393,0.747 3.594,0.371 1.169,-0.365 2.114,-1.171 2.662,-2.268 L 60.821,12.633 C 61.376,11.52 61.449,10.261 61.029,9.09 60.613,7.93 59.767,7.016 58.646,6.516 50.55,2.907 41.336,1 32,1 Z"
   class="st0"
   inkscape:connector-curvature="0"
   style="fill:#263238" />

	</g>

	<g
   id="g1667">
		<path
   id="path1665"
   d="m 45.266,32.096 c -0.091,0 -0.182,-0.024 -0.265,-0.076 -0.234,-0.146 -0.305,-0.455 -0.159,-0.689 l 3.785,-6.049 c 0.146,-0.234 0.456,-0.304 0.689,-0.159 0.234,0.146 0.305,0.455 0.159,0.689 l -3.785,6.049 c -0.094,0.152 -0.257,0.235 -0.424,0.235 z"
   class="st0"
   inkscape:connector-curvature="0"
   style="fill:#263238" />

	</g>

	<g
   id="g1673">
		<path
   id="path1669"
   d="m 18.51,23.873 c 4.146,-1.666 8.732,-2.556 13.49,-2.556 4.759,0 9.345,0.89 13.49,2.556 L 52.257,3.571 C 45.882,1.56 39.043,0.5 32,0.5 24.958,0.5 18.118,1.56 11.743,3.571 Z"
   class="st2"
   inkscape:connector-curvature="0"
   style="fill:#ffd740" />

		<path
   id="path1671"
   d="m 18.51,24.373 c -0.072,0 -0.144,-0.016 -0.21,-0.046 -0.125,-0.058 -0.221,-0.165 -0.264,-0.295 L 11.269,3.729 C 11.227,3.602 11.237,3.463 11.298,3.344 11.359,3.224 11.465,3.135 11.593,3.094 18.1,1.041 24.966,0 32,0 c 7.034,0 13.9,1.041 20.408,3.094 0.128,0.041 0.234,0.13 0.295,0.25 0.061,0.119 0.071,0.258 0.029,0.385 l -6.767,20.302 c -0.043,0.131 -0.139,0.238 -0.264,0.295 -0.125,0.058 -0.268,0.061 -0.396,0.01 -4.16,-1.672 -8.636,-2.52 -13.304,-2.52 -4.667,0 -9.143,0.848 -13.304,2.52 -0.06,0.024 -0.124,0.037 -0.187,0.037 z M 12.379,3.897 18.818,23.214 c 4.139,-1.591 8.571,-2.397 13.183,-2.397 4.612,0 9.044,0.806 13.183,2.397 L 51.623,3.896 C 45.356,1.975 38.757,1 32,1 25.243,1 18.645,1.975 12.379,3.897 Z"
   class="st0"
   inkscape:connector-curvature="0"
   style="fill:#263238" />

	</g>

	<g
   id="g1679">
		<path
   id="path1675"
   d="m 27.644,21.579 c 1.431,-0.167 2.884,-0.262 4.356,-0.262 1.472,0 2.925,0.095 4.356,0.262 L 39.23,0.885 C 36.851,0.636 34.439,0.5 32,0.5 c -2.439,0 -4.851,0.136 -7.23,0.385 z"
   class="st1"
   inkscape:connector-curvature="0"
   style="fill:#4db6ac" />

		<path
   id="path1677"
   d="m 36.357,22.079 c -0.019,0 -0.039,-0.001 -0.059,-0.003 -2.943,-0.344 -5.652,-0.344 -8.596,0 -0.28,0.031 -0.516,-0.159 -0.553,-0.428 L 24.275,0.954 C 24.256,0.82 24.293,0.683 24.377,0.577 24.46,0.47 24.584,0.402 24.718,0.388 c 4.91,-0.516 9.656,-0.516 14.565,0 0.135,0.014 0.258,0.082 0.341,0.189 0.083,0.106 0.12,0.243 0.102,0.377 l -2.874,20.694 c -0.035,0.249 -0.249,0.431 -0.495,0.431 z M 25.336,1.331 28.072,21.029 c 2.687,-0.281 5.17,-0.281 7.856,0 L 38.664,1.331 c -4.495,-0.439 -8.831,-0.439 -13.328,0 z"
   class="st0"
   inkscape:connector-curvature="0"
   style="fill:#263238" />

	</g>

	<g
   id="g1683">
		<path
   id="path1681"
   d="m 53.492,52.009 c -0.005,-1.105 0.887,-2.004 1.991,-2.009 1.105,-0.005 2.004,0.887 2.009,1.991 1.105,-0.005 2.004,0.886 2.009,1.991 0.005,1.105 -0.887,2.004 -1.991,2.009 l -4,0.018 c -1.105,0.005 -2.004,-0.887 -2.009,-1.991 -0.005,-1.104 0.886,-2.004 1.991,-2.009 z"
   class="st3"
   inkscape:connector-curvature="0"
   style="fill:#4fc3f7" />

	</g>

	<g
   id="g1687">
		<path
   id="path1685"
   d="m 62,41.5 h -2 c -0.276,0 -0.5,-0.224 -0.5,-0.5 0,-0.276 0.224,-0.5 0.5,-0.5 h 2 c 0.276,0 0.5,0.224 0.5,0.5 0,0.276 -0.223,0.5 -0.5,0.5 z"
   class="st0"
   inkscape:connector-curvature="0"
   style="fill:#263238" />

	</g>

	<g
   id="g1691">
		<path
   id="path1689"
   d="M 58,41.5 H 45.5 C 45.224,41.5 45,41.276 45,41 c 0,-0.276 0.224,-0.5 0.5,-0.5 H 58 c 0.276,0 0.5,0.224 0.5,0.5 0,0.276 -0.223,0.5 -0.5,0.5 z"
   class="st0"
   inkscape:connector-curvature="0"
   style="fill:#263238" />

	</g>

	<g
   id="g1695">
		<path
   id="path1693"
   d="M 4,56.5 H 2 C 1.724,56.5 1.5,56.276 1.5,56 1.5,55.724 1.724,55.5 2,55.5 h 2 c 0.276,0 0.5,0.224 0.5,0.5 0,0.276 -0.223,0.5 -0.5,0.5 z"
   class="st0"
   inkscape:connector-curvature="0"
   style="fill:#263238" />

	</g>

	<g
   id="g1699">
		<path
   id="path1697"
   d="M 18.5,56.5 H 6 C 5.724,56.5 5.5,56.276 5.5,56 5.5,55.724 5.724,55.5 6,55.5 h 12.5 c 0.276,0 0.5,0.224 0.5,0.5 0,0.276 -0.223,0.5 -0.5,0.5 z"
   class="st0"
   inkscape:connector-curvature="0"
   style="fill:#263238" />

	</g>

	<g
   id="g1703">
		<path
   id="path1701"
   d="m 5,38.491 c 0,-1.657 1.343,-3 3,-3 1.657,0 3,1.343 3,3 1.657,0 3,1.343 3,3 0,1.657 -1.343,3 -3,3 H 5 c -1.657,0 -3,-1.343 -3,-3 0,-1.657 1.344,-3 3,-3 z"
   class="st3"
   inkscape:connector-curvature="0"
   style="fill:#4fc3f7" />

	</g>

</g>
  </g>
  <style
     id="style825"
     type="text/css">
	.st0{fill:#263238;}
	.st1{fill:#4DB6AC;}
	.st2{fill:#FFD740;}
	.st3{fill:#4FC3F7;}
	.st4{fill:#FF5252;}
	.st5{fill:#FFFFFF;}
</style>
  <style
     id="style1048"
     type="text/css">
	.st0{fill:#263238;}
	.st1{fill:#4DB6AC;}
	.st2{fill:#FFD740;}
	.st3{fill:#4FC3F7;}
	.st4{fill:#FF5252;}
	.st5{fill:#FFFFFF;}
</style>
  <style
     id="style1271"
     type="text/css">
	.st0{fill:#263238;}
	.st1{fill:#4DB6AC;}
	.st2{fill:#FFD740;}
	.st3{fill:#4FC3F7;}
	.st4{fill:#FF5252;}
	.st5{fill:#FFFFFF;}
</style>
  <style
     id="style1629"
     type="text/css">
	.st0{fill:#263238;}
	.st1{fill:#4DB6AC;}
	.st2{fill:#FFD740;}
	.st3{fill:#4FC3F7;}
	.st4{fill:#FF5252;}
	.st5{fill:#FFFFFF;}
</style>
</svg>
