<?xml version="1.0" encoding="UTF-8" standalone="no"?>
<svg
   xmlns:dc="http://purl.org/dc/elements/1.1/"
   xmlns:cc="http://creativecommons.org/ns#"
   xmlns:rdf="http://www.w3.org/1999/02/22-rdf-syntax-ns#"
   xmlns:svg="http://www.w3.org/2000/svg"
   xmlns="http://www.w3.org/2000/svg"
   xmlns:sodipodi="http://sodipodi.sourceforge.net/DTD/sodipodi-0.dtd"
   xmlns:inkscape="http://www.inkscape.org/namespaces/inkscape"
   sodipodi:docname="turtle.svg"
   inkscape:version="1.0 (4035a4fb49, 2020-05-01)"
   id="svg1596"
   version="1.1"
   viewBox="0 0 210 297"
   height="1122.5197"
   width="793.70081">
  <defs
     id="defs1590">
    <inkscape:path-effect
       simplify_just_coalesce="false"
       simplify_individual_paths="false"
       helper_size="0"
       smooth_angles="360"
       threshold="0.00108696"
       steps="1"
       lpeversion="1"
       is_visible="true"
       id="path-effect2263"
       effect="simplify" />
    <inkscape:path-effect
       simplify_just_coalesce="false"
       simplify_individual_paths="false"
       helper_size="0"
       smooth_angles="360"
       threshold="0.00108696"
       steps="1"
       lpeversion="1"
       is_visible="true"
       id="path-effect2259"
       effect="simplify" />
    <inkscape:path-effect
       simplify_just_coalesce="false"
       simplify_individual_paths="false"
       helper_size="0"
       smooth_angles="360"
       threshold="0.00108696"
       steps="1"
       lpeversion="1"
       is_visible="true"
       id="path-effect2255"
       effect="simplify" />
    <inkscape:path-effect
       simplify_just_coalesce="false"
       simplify_individual_paths="false"
       helper_size="0"
       smooth_angles="360"
       threshold="0.00108696"
       steps="1"
       lpeversion="1"
       is_visible="true"
       id="path-effect2251"
       effect="simplify" />
    <inkscape:path-effect
       simplify_just_coalesce="false"
       simplify_individual_paths="false"
       helper_size="0"
       smooth_angles="360"
       threshold="0.00108696"
       steps="1"
       lpeversion="1"
       is_visible="true"
       id="path-effect2247"
       effect="simplify" />
    <inkscape:path-effect
       simplify_just_coalesce="false"
       simplify_individual_paths="false"
       helper_size="0"
       smooth_angles="360"
       threshold="0.00108696"
       steps="1"
       lpeversion="1"
       is_visible="true"
       id="path-effect2243"
       effect="simplify" />
    <inkscape:path-effect
       simplify_just_coalesce="false"
       simplify_individual_paths="false"
       helper_size="0"
       smooth_angles="360"
       threshold="0.00108696"
       steps="1"
       lpeversion="1"
       is_visible="true"
       id="path-effect2239"
       effect="simplify" />
    <inkscape:path-effect
       simplify_just_coalesce="false"
       simplify_individual_paths="false"
       helper_size="0"
       smooth_angles="360"
       threshold="0.00108696"
       steps="1"
       lpeversion="1"
       is_visible="true"
       id="path-effect2235"
       effect="simplify" />
    <inkscape:path-effect
       simplify_just_coalesce="false"
       simplify_individual_paths="false"
       helper_size="0"
       smooth_angles="360"
       threshold="0.00108696"
       steps="1"
       lpeversion="1"
       is_visible="true"
       id="path-effect2231"
       effect="simplify" />
    <inkscape:path-effect
       simplify_just_coalesce="false"
       simplify_individual_paths="false"
       helper_size="0"
       smooth_angles="360"
       threshold="0.00108696"
       steps="1"
       lpeversion="1"
       is_visible="true"
       id="path-effect2227"
       effect="simplify" />
    <inkscape:path-effect
       simplify_just_coalesce="false"
       simplify_individual_paths="false"
       helper_size="0"
       smooth_angles="360"
       threshold="0.00108696"
       steps="1"
       lpeversion="1"
       is_visible="true"
       id="path-effect2223"
       effect="simplify" />
    <inkscape:path-effect
       simplify_just_coalesce="false"
       simplify_individual_paths="false"
       helper_size="0"
       smooth_angles="360"
       threshold="0.00108696"
       steps="1"
       lpeversion="1"
       is_visible="true"
       id="path-effect2219"
       effect="simplify" />
    <inkscape:path-effect
       simplify_just_coalesce="false"
       simplify_individual_paths="false"
       helper_size="0"
       smooth_angles="360"
       threshold="0.00108696"
       steps="1"
       lpeversion="1"
       is_visible="true"
       id="path-effect2215"
       effect="simplify" />
    <inkscape:path-effect
       simplify_just_coalesce="false"
       simplify_individual_paths="false"
       helper_size="0"
       smooth_angles="360"
       threshold="0.00108696"
       steps="1"
       lpeversion="1"
       is_visible="true"
       id="path-effect2211"
       effect="simplify" />
    <inkscape:path-effect
       simplify_just_coalesce="false"
       simplify_individual_paths="false"
       helper_size="0"
       smooth_angles="360"
       threshold="0.00108696"
       steps="1"
       lpeversion="1"
       is_visible="true"
       id="path-effect2207"
       effect="simplify" />
    <inkscape:path-effect
       simplify_just_coalesce="false"
       simplify_individual_paths="false"
       helper_size="0"
       smooth_angles="360"
       threshold="0.00108696"
       steps="1"
       lpeversion="1"
       is_visible="true"
       id="path-effect2203"
       effect="simplify" />
    <inkscape:path-effect
       simplify_just_coalesce="false"
       simplify_individual_paths="false"
       helper_size="0"
       smooth_angles="360"
       threshold="0.00108696"
       steps="1"
       lpeversion="1"
       is_visible="true"
       id="path-effect2199"
       effect="simplify" />
    <inkscape:path-effect
       simplify_just_coalesce="false"
       simplify_individual_paths="false"
       helper_size="0"
       smooth_angles="360"
       threshold="0.00108696"
       steps="1"
       lpeversion="1"
       is_visible="true"
       id="path-effect2195"
       effect="simplify" />
    <inkscape:path-effect
       simplify_just_coalesce="false"
       simplify_individual_paths="false"
       helper_size="0"
       smooth_angles="360"
       threshold="0.00108696"
       steps="1"
       lpeversion="1"
       is_visible="true"
       id="path-effect2191"
       effect="simplify" />
    <inkscape:path-effect
       simplify_just_coalesce="false"
       simplify_individual_paths="false"
       helper_size="0"
       smooth_angles="360"
       threshold="0.00108696"
       steps="1"
       lpeversion="1"
       is_visible="true"
       id="path-effect2187"
       effect="simplify" />
    <inkscape:path-effect
       simplify_just_coalesce="false"
       simplify_individual_paths="false"
       helper_size="0"
       smooth_angles="360"
       threshold="0.00108696"
       steps="1"
       lpeversion="1"
       is_visible="true"
       id="path-effect2183"
       effect="simplify" />
    <inkscape:path-effect
       simplify_just_coalesce="false"
       simplify_individual_paths="false"
       helper_size="0"
       smooth_angles="360"
       threshold="0.00108696"
       steps="1"
       lpeversion="1"
       is_visible="true"
       id="path-effect2179"
       effect="simplify" />
    <inkscape:path-effect
       simplify_just_coalesce="false"
       simplify_individual_paths="false"
       helper_size="0"
       smooth_angles="360"
       threshold="0.00108696"
       steps="1"
       lpeversion="1"
       is_visible="true"
       id="path-effect2175"
       effect="simplify" />
    <inkscape:path-effect
       simplify_just_coalesce="false"
       simplify_individual_paths="false"
       helper_size="0"
       smooth_angles="360"
       threshold="0.00108696"
       steps="1"
       lpeversion="1"
       is_visible="true"
       id="path-effect2171"
       effect="simplify" />
    <inkscape:path-effect
       simplify_just_coalesce="false"
       simplify_individual_paths="false"
       helper_size="0"
       smooth_angles="360"
       threshold="0.00108696"
       steps="1"
       lpeversion="1"
       is_visible="true"
       id="path-effect2167"
       effect="simplify" />
    <inkscape:path-effect
       simplify_just_coalesce="false"
       simplify_individual_paths="false"
       helper_size="0"
       smooth_angles="360"
       threshold="0.00108696"
       steps="1"
       lpeversion="1"
       is_visible="true"
       id="path-effect2163"
       effect="simplify" />
  </defs>
  <sodipodi:namedview
     inkscape:window-maximized="1"
     inkscape:window-y="-9"
     inkscape:window-x="-9"
     inkscape:window-height="1001"
     inkscape:window-width="1920"
     showborder="false"
     inkscape:showpageshadow="false"
     units="px"
     showgrid="false"
     inkscape:document-rotation="0"
     inkscape:current-layer="layer1"
     inkscape:document-units="px"
     inkscape:cy="870.88938"
     inkscape:cx="1070.4527"
     inkscape:zoom="0.32983399"
     inkscape:pageshadow="2"
     inkscape:pageopacity="0.0"
     borderopacity="1.0"
     bordercolor="#666666"
     pagecolor="#ffffff"
     id="base" />
  <metadata
     id="metadata1593">
    <rdf:RDF>
      <cc:Work
         rdf:about="">
        <dc:format>image/svg+xml</dc:format>
        <dc:type
           rdf:resource="http://purl.org/dc/dcmitype/StillImage" />
        <dc:title></dc:title>
      </cc:Work>
    </rdf:RDF>
  </metadata>
  <g
     id="layer1"
     inkscape:groupmode="layer"
     inkscape:label="Layer 1">
    <path
       inkscape:original-d="m 138.96908,294.95477 c -1.90605,-0.63532 -7.66809,-1.60359 -10.7772,-0.56722 -0.72052,0.24017 -3.56901,2.18604 -4.53776,1.70166 -6.52754,-3.26376 -15.50122,-4.97799 -22.68883,-7.37387 -15.577307,-5.19243 -27.208405,-23.44209 -43.108777,-26.09215 -19.419451,-3.23657 -41.463407,-5.09694 -61.2598373,-2.26888 -7.6146487,1.08781 -6.8427797,4.55583 -11.3444147,6.80665 -4.133703,2.06685 -27.987963,-7.47095 -33.466022,-10.20998 -5.83635,-2.91817 -4.930992,-9.29476 -7.373869,-14.18051 -0.913277,-1.82656 -3.970545,-5.23627 -3.970545,-6.23943 0,-2.31093 8.439045,1.77093 11.344414,-1.13444 2.53841,-2.53841 15.314959,1.06391 15.314959,-5.10499 0,-2.26087 -2.836103,-4.02609 -2.836103,-6.23943 0,-1.1958 -0.288879,-2.55776 -1.134442,-3.40332 -4.687102,-4.6871 -22.026233,0.66259 -25.524932,-2.83611 -3.095651,-3.09565 1.841693,-11.42381 -1.134441,-14.74774 1.651045,-16.22431 9.819751,-26.46064 22.121609,-36.30212 3.028299,-2.42264 7.222106,-3.81878 9.642752,-6.23943 2.938982,-2.93898 13.127821,0.72905 17.016621,-0.56722 13.1721556,-4.39072 25.994311,-2.33539 38.003787,-1.13444 7.21359,0.72136 26.005388,4.451 30.629918,9.07553 3.656065,3.65606 9.333886,7.04817 11.911634,11.34441 8.305287,13.84215 13.863857,28.04438 26.092152,40.27267 14.536147,16.88855 34.251457,20.87084 55.020417,27.79382"
       inkscape:path-effect="#path-effect2163"
       id="path2161"
       d="m 138.96908,294.95477 c -3.01547,-0.84193 -6.1907,-1.07823 -9.32626,-0.89201 -2.04814,0.12164 -3.56797,2.53648 -5.54513,2.10225 -1.10293,-0.24223 -2.10704,-0.87068 -3.16392,-1.29943 -7.00608,-2.8422 -14.59733,-3.91989 -21.597124,-6.74505 -7.473703,-3.01643 -13.597871,-8.41608 -19.804595,-13.40465 -5.605631,-4.50545 -11.386263,-9.23144 -18.382017,-11.31229 -3.327537,-0.98976 -6.794853,-1.37097 -10.220957,-1.85623 -16.728407,-2.36934 -33.803043,-3.91337 -50.59542189,-1.66918 -3.39410111,0.4536 -7.20846001,0.49487 -9.92206771,2.85366 -1.8174724,1.57983 -3.1268084,4.1644 -5.6034734,4.58945 -2.355853,0.40432 -4.752732,-0.20705 -7.019426,-0.79634 -7.26739,-1.88937 -14.423131,-4.29656 -21.234052,-7.43752 -2.177221,-1.00406 -4.554885,-1.71174 -6.4547,-3.21162 -2.748547,-2.16994 -3.50143,-5.76839 -4.260517,-8.9892 -0.541989,-2.29966 -1.618535,-4.39781 -2.917625,-6.39894 -0.841763,-1.29666 -2.953395,-2.45727 -2.479969,-3.95663 0.408403,-1.29343 2.242996,-0.67478 3.241486,-0.54836 2.40471,0.30446 5.397248,1.62297 7.32732,-0.0267 1.033865,-0.88366 2.280396,-1.36305 3.670265,-1.51025 3.375988,-0.35754 6.849267,0.0193 10.147223,-1.00835 1.626463,-0.5068 2.651607,-2.31513 2.151215,-3.97222 -0.629966,-2.08618 -2.70288,-3.51286 -2.728303,-5.86787 -0.01754,-1.62457 -0.924214,-3.19002 -2.437951,-3.87221 -2.928385,-1.31972 -6.24604,-1.14722 -9.38073,-1.06733 -4.086235,0.10414 -8.190587,0.71233 -12.273971,0.21897 -1.442703,-0.17431 -2.980117,-0.92684 -3.368126,-2.45013 -0.702776,-2.75905 0.271861,-5.56479 0.563716,-8.31421 0.179867,-1.69444 -1.054817,-3.23125 -0.882689,-5.04738 0.730737,-7.71004 3.365951,-15.24758 7.792208,-21.62619 4.093464,-5.89903 9.251576,-11.05614 15.059098,-15.22592 2.971731,-2.13369 6.100402,-3.9309 9.209411,-5.94597 1.895647,-1.22864 4.288497,-0.95456 6.432864,-0.79041 3.158639,0.24179 6.393666,1.46657 9.48773,0.66742 2.01076,-0.51935 3.991568,-1.16941 6.0283467,-1.61312 9.09928868,-1.98229 18.4790165,-1.14951 27.6616873,-0.24606 4.664794,0.45895 9.327444,0.98143 13.925725,1.91961 6.010539,1.22632 12.03686,2.64095 17.678435,5.10143 1.87784,0.81899 3.521561,2.04363 5.030649,3.44414 3.655834,3.39281 8.280572,5.94701 10.897084,10.29107 6.790078,11.27322 12.229997,23.39069 20.333839,33.85459 1.969336,2.54286 4.28299,4.78863 6.39456,7.20726 6.336591,7.25804 14.574833,12.61998 23.351213,16.47857 10.07337,4.42882 20.74547,7.23555 31.15604,10.7268"
       style="fill:none;stroke:#000000;stroke-width:0.264583px;stroke-linecap:butt;stroke-linejoin:miter;stroke-opacity:1" />
    <path
       inkscape:original-d="m 6.8066485,175.83842 c -3.7814715,5.67221 -7.9179779,11.12315 -11.3444143,17.01662 -2.7329926,4.70075 -3.9208307,18.87421 2.268883,14.74774 5.3428418,-3.56189 17.2763448,-21.03494 13.6132968,-28.36104 -2.0185221,-4.03704 -3.1293016,3.639 -4.5377655,-3.40332 z"
       inkscape:path-effect="#path-effect2167"
       id="path2165"
       d="m 6.8066485,175.83842 c -3.8042566,5.70782 -8.1232556,11.09697 -11.4081831,17.12852 -0.7313816,1.34291 -1.1806027,2.82111 -1.5082253,4.3077 -0.470521,2.13499 -0.7621246,4.33073 -0.6282305,6.5168 0.068233,1.11404 0.2078992,2.25698 0.7010235,3.27216 0.2824969,0.58157 0.7699382,1.12594 1.4322383,1.24915 0.7510492,0.13972 1.5008721,-0.17836 2.1212687,-0.57239 1.1722582,-0.74454 2.17679015,-1.72164 3.11711114,-2.73433 2.21741756,-2.38807 4.15962036,-5.02455 5.87505546,-7.79144 1.811727,-2.9222 3.4474437,-5.98579 4.5117533,-9.26288 0.635499,-1.95675 1.128705,-4.01209 0.988523,-6.08156 -0.0806,-1.1898 -0.383536,-2.41714 -1.121614,-3.37272 -0.221489,-0.28676 -0.55773,-0.56842 -0.9438064,-0.49541 -0.5311576,0.10045 -0.8946048,0.53462 -1.3259422,0.82248 -0.2031248,0.13556 -0.4922811,0.19564 -0.697719,0.0298 C 7.593908,178.59117 7.439462,178.1792 7.307362,177.79622 7.0874526,177.15867 6.9409007,176.49839 6.8066485,175.83842 Z"
       style="fill:none;stroke:#000000;stroke-width:0.264583px;stroke-linecap:butt;stroke-linejoin:miter;stroke-opacity:1" />
    <path
       inkscape:original-d="m 5.672207,187.75005 c -0.3818136,3.2093 -2.5642077,5.69564 -3.9705449,8.50832"
       inkscape:path-effect="#path-effect2171"
       id="path2169"
       d="m 5.672207,187.75005 c -0.1289439,1.10081 -0.48798,2.16277 -0.9583692,3.16234 -0.8726126,1.85428 -2.09635,3.51486 -3.0121757,5.34598"
       style="fill:none;stroke:#000000;stroke-width:0.264583px;stroke-linecap:butt;stroke-linejoin:miter;stroke-opacity:1" />
    <path
       inkscape:original-d="m -53.885967,179.24174 c 0.378148,-11.72256 0.0445,-23.48978 1.134441,-35.16768 0.61409,-6.57952 7.242796,-16.17295 10.209974,-18.15106 0.629274,-0.41952 0,1.51258 0,2.26888 0,3.78147 0,7.56294 0,11.34442 0,9.03232 0.689785,20.22041 3.403322,28.36103"
       inkscape:path-effect="#path-effect2175"
       id="path2173"
       d="m -53.885967,179.24174 c 0.380626,-11.77333 -0.193853,-23.60536 1.14993,-35.32243 0.270348,-2.35729 1.098838,-4.61411 2.107916,-6.74612 1.377965,-2.91141 3.044957,-5.70101 5.078795,-8.19914 0.865608,-1.06321 1.989878,-1.88874 2.866043,-2.95279 0.139464,-0.16937 0.426702,-0.23489 0.420572,0.0897 -0.01496,0.79209 -0.279255,1.55541 -0.278841,2.35261 0.0021,4.08284 -0.02976,8.16584 0.0039,12.24854 0.05099,6.18023 0.362704,12.37698 1.35279,18.48346 0.477156,2.94292 1.106614,5.86932 2.046605,8.70172"
       style="fill:none;stroke:#000000;stroke-width:0.264583px;stroke-linecap:butt;stroke-linejoin:miter;stroke-opacity:1" />
    <path
       inkscape:original-d="m 146.91017,247.30822 c 11.84883,1.36165 19.64464,-29.62302 28.76533,-38.7437 15.05414,-15.05415 47.7487,-26.97789 68.18455,-32.08685 9.89345,-2.67391 19.78689,-5.34781 29.68033,-8.02172 2.40651,-0.26738 4.85198,-0.29483 7.21955,-0.80216 6.53523,-1.40041 11.79102,-5.5669 20.05428,-7.21955 22.60512,-4.52102 56.44038,12.14793 76.20627,20.05428 5.76151,2.30461 13.82858,2.80168 19.25211,6.41737 10.12476,6.74986 17.77778,16.09877 25.66948,24.86731 11.55353,12.83728 26.1793,24.50014 30.48249,41.7129"
       inkscape:path-effect="#path-effect2179"
       id="path2177"
       d="m 146.91017,247.30822 c 3.63449,0.40997 6.69079,-2.24778 8.80287,-4.8871 4.41351,-5.51525 7.30147,-12.02796 10.49677,-18.27711 2.62595,-5.13566 4.78936,-10.72153 8.82651,-14.90286 5.97476,-6.18813 13.35355,-10.8302 20.92589,-14.79557 13.69771,-7.17302 28.22687,-12.76629 43.15732,-16.71926 11.48648,-3.04115 22.58603,-8.20754 34.42085,-9.27037 3.63599,-0.32653 7.32741,-0.52697 10.78893,-1.84682 5.47847,-2.08889 10.66573,-5.06369 16.4849,-6.17489 9.16911,-1.75089 18.60551,-0.30105 27.54804,1.94565 16.9355,4.25483 32.65716,12.0596 48.92997,18.21535 6.48914,2.45474 13.81157,2.76991 19.68823,6.78949 10.58762,7.24183 18.49684,17.4915 27.16064,26.78334 8.16267,8.75438 17.25287,16.90087 23.32989,27.344 2.17889,3.74434 3.90591,7.76475 4.95358,11.97403"
       style="fill:none;stroke:#000000;stroke-width:0.264583px;stroke-linecap:butt;stroke-linejoin:miter;stroke-opacity:1" />
    <path
       inkscape:original-d="m 146.91017,247.30822 c 7.94392,8.67924 11.04196,8.73559 15.93059,-1.04166 4.63324,-9.26648 5.00325,-20.2445 12.83474,-28.07599 8.53686,-8.53686 18.19593,-12.39467 28.87816,-16.8456 1.81787,-0.75744 10.42823,-1.95225 10.42823,-3.20868 0,-5.14959 21.05249,-14.23704 26.47165,-16.04342 16.86228,-5.62077 69.39687,-12.16324 86.6345,-6.41737 10.4389,3.47963 28.07226,13.63467 40.10856,20.85645 13.82352,8.29411 28.95343,13.02849 42.51507,21.65862 13.09278,8.33178 21.69848,21.73838 28.076,34.49336 0.23198,0.46399 3.40741,2.10481 4.01084,2.40652 11.64998,5.82498 11.68765,-3.66595 9.62605,-1.60435"
       inkscape:path-effect="#path-effect2187"
       id="path2185"
       d="m 146.91017,247.30822 c 2.23001,2.32063 4.43869,4.89792 7.48658,6.15157 1.95431,0.80384 4.01498,-0.37593 5.21633,-1.92354 3.92115,-5.05132 5.77215,-11.29333 7.62261,-17.31584 1.83195,-5.96228 4.32426,-11.9288 8.8408,-16.4266 6.47329,-6.44643 14.65017,-10.8466 23.06032,-14.17962 2.77788,-1.1009 5.49643,-2.3343 8.42884,-3.04963 2.36247,-0.5763 6.05869,0.28484 7.04271,-1.96073 0.61328,-1.39952 1.37703,-2.91031 2.67193,-3.99897 4.40104,-3.70008 9.62625,-6.25256 14.80973,-8.65173 4.91425,-2.27456 9.97187,-4.27377 15.25814,-5.52104 13.0512,-3.07938 26.37212,-4.96796 39.7276,-6.02867 10.97682,-0.87179 22.04626,-1.42173 33.03224,-0.33241 4.10818,0.40735 8.12207,1.47457 11.92578,3.08735 10.23944,4.34154 19.96204,9.79219 29.52552,15.43869 5.44213,3.21316 10.86103,6.47374 16.53524,9.27606 11.75342,5.80466 24.29453,10.27724 35.01999,17.93774 10.86087,7.75721 20.47828,18.25106 24.60647,30.77556 0.56725,1.72098 1.85041,2.79855 3.43843,3.642 2.88197,1.53071 6.07822,3.17186 9.44921,2.65584 1.57019,-0.24036 3.66675,-2.00432 2.69145,-3.51648 -0.22376,-0.34693 -0.67046,-0.11975 -0.87553,0.11833"
       style="fill:none;stroke:#000000;stroke-width:0.264583px;stroke-linecap:butt;stroke-linejoin:miter;stroke-opacity:1" />
    <path
       inkscape:original-d="m 407.50299,300.81421 c -13.11267,19.66896 -13.62488,12.42763 -36.89988,24.06512 -5.03851,2.51926 -7.29228,9.07899 -11.23039,12.03259 -9.06635,6.79974 -25.83374,4.63767 -36.09772,5.6152 -41.66351,3.96795 -63.65698,5.5082 -105.8866,0 -9.45412,-1.23315 -44.01416,-4.56817 -49.73461,-11.2304 -10.05365,-11.70882 -19.12314,-24.22797 -28.68471,-36.34195 -0.39492,26.99041 -3.81653,39.93842 17.45431,61.20926 16.90411,16.9041 52.70853,12.83474 74.60192,12.83474 21.57329,0 41.95622,-0.95153 63.37153,-4.01086 8.53365,-1.21909 14.53081,-4.97958 24.06514,-5.6152 6.19683,-0.41312 13.33211,1.56583 19.25211,-0.80217 12.65441,-5.06177 50.03389,-25.16658 60.16284,-35.29553 5.19157,-5.19158 6.82866,-15.46733 9.62606,-22.4608 z"
       inkscape:path-effect="#path-effect2191"
       id="path2189"
       d="m 407.50299,300.81421 c -3.08504,4.50627 -6.10797,9.24801 -10.49209,12.60403 -4.06291,3.11014 -9.15035,4.22775 -13.85592,5.98997 -4.60097,1.72305 -9.32606,3.34003 -13.46505,5.98896 -4.45984,2.85427 -6.11193,8.43699 -10.31721,11.51475 -4.88452,3.57489 -11.09478,4.51722 -16.98073,4.94828 -7.48845,0.54842 -15.00103,0.27734 -22.49139,0.98688 -21.94897,2.07915 -43.99691,3.85488 -66.06885,2.98878 -13.51713,-0.53041 -26.95517,-2.15896 -40.37592,-3.7904 -11.42022,-1.38825 -22.96061,-2.47977 -34.06714,-5.55103 -3.71196,-1.02646 -7.78231,-1.74619 -10.74591,-4.28264 -1.57883,-1.35127 -2.81473,-3.05216 -4.13892,-4.64543 -8.82708,-10.62079 -25.43713,-46.41763 -25.53478,-32.61159 -0.0647,9.14457 -0.84088,18.30463 -0.12139,27.44145 0.55138,7.00198 2.66145,13.88698 6.33196,19.89537 3.45288,5.65215 7.70115,10.85823 12.67213,15.21257 6.79436,5.95153 15.69204,8.79638 24.45349,10.25737 15.8528,2.64349 31.96646,1.21739 47.94467,1.23888 21.89853,0.0294 43.951,-0.36481 65.52519,-4.23438 7.02844,-1.26063 13.6142,-4.21587 20.72605,-5.21487 6.58072,-0.92439 13.42326,1.65067 19.80418,-0.502 3.72741,-1.25748 7.27212,-3.00561 10.79195,-4.74752 12.73394,-6.30184 25.32169,-12.98749 37.17252,-20.83074 4.81754,-3.1884 9.92274,-6.17112 13.84787,-10.44294 3.37564,-3.6738 4.94426,-8.54835 6.41827,-13.20853 0.95297,-3.01287 1.80207,-6.06429 2.96702,-9.00522 z"
       style="fill:none;stroke:#000000;stroke-width:0.264583px;stroke-linecap:butt;stroke-linejoin:miter;stroke-opacity:1" />
    <path
       inkscape:original-d="m 452.42456,253.4861 c -0.0413,0.20669 -1.79697,4.71672 0,5.6152 41.97688,20.98844 87.40507,8.17036 122.73221,48.93246 6.09434,7.03191 12.84576,12.84208 20.05428,17.64776 1.44338,0.96224 9.25542,13.02004 11.2304,12.03256 5.69008,-2.84504 54.039,-28.75417 59.36067,-21.65863 0.78433,1.04579 17.20609,39.75166 13.63689,40.10856 -21.98304,2.19831 -53.01199,-10.28306 -71.39323,-7.21953 -12.35988,2.05997 -26.17722,12.90833 -39.3064,9.62605 -20.70134,-5.17533 -41.36437,-14.19593 -60.16283,-24.06513 -3.49142,-1.83301 -14.61826,-9.11828 -21.65861,-11.2304 -22.08011,-6.62403 -41.21108,-5.62932 -61.76719,-14.43908 -4.27717,-1.83306 -14.15253,-5.05748 -19.25211,-6.41736 -1.23693,-0.32986 -5.69347,-0.80219 -5.6152,-0.80219 2.42133,0 4.81303,-0.53478 7.21955,-0.80216"
       inkscape:path-effect="#path-effect2199"
       id="path2197"
       d="m 452.42456,253.4861 c -0.47746,1.62513 -1.95598,4.03425 -0.51762,5.12444 2.31148,1.75197 5.23637,2.73846 7.92919,3.84952 16.91701,6.98 35.16665,9.42404 52.9924,12.97211 14.59466,2.90495 29.16265,7.15094 41.93316,15.02784 8.23452,5.07908 15.23941,11.85607 21.69028,19.039 5.57812,6.21114 13.33417,10.10043 18.91268,16.30449 2.79538,3.10884 4.78422,6.93916 7.88767,9.7512 1.00642,0.91192 2.16633,2.69164 3.84494,1.8268 13.26162,-6.83252 26.48606,-13.92146 40.56799,-18.89997 4.57542,-1.61759 9.2247,-3.48679 14.11749,-3.64486 1.56716,-0.0506 3.59054,0.16244 4.34099,1.83764 3.88928,8.68193 7.61388,17.46001 10.62426,26.48429 1.24932,3.74511 2.13983,7.59368 3.17955,11.42233 0.56186,2.06899 -1.82315,1.72374 -3.10478,1.7753 -10.79476,0.43428 -21.46629,-1.70463 -32.02591,-3.66436 -9.8598,-1.82985 -19.7357,-3.98672 -29.80276,-4.23262 -4.7858,-0.1169 -9.52756,0.83017 -14.04032,2.41979 -8.19104,2.88529 -16.01471,7.18193 -24.77079,8.19851 -3.42015,0.39708 -6.81558,-0.31217 -10.11178,-1.19521 -20.24252,-5.42292 -39.86538,-13.31217 -58.03475,-23.66955 -6.57729,-3.74936 -12.85583,-8.28952 -20.10273,-10.60777 -13.24173,-4.23597 -27.14062,-5.57535 -40.73455,-8.21429 -7.92781,-1.539 -15.59776,-4.11494 -23.14844,-7.00836 -6.03372,-2.31212 -12.0766,-4.79848 -18.41985,-6.02718 -1.76762,-0.34239 -7.14656,-0.73829 -5.34744,-0.73882 2.42983,-7.2e-4 4.81422,-0.53523 7.21955,-0.80216"
       style="fill:none;stroke:#000000;stroke-width:0.264583px;stroke-linecap:butt;stroke-linejoin:miter;stroke-opacity:1" />
    <path
       inkscape:original-d="m 363.38356,314.45112 c -1.87174,1.87172 -3.74346,3.74346 -5.6152,5.6152"
       inkscape:path-effect="#path-effect2203"
       id="path2201"
       d="m 363.38356,314.45112 c -1.87174,1.87172 -3.74347,3.74347 -5.6152,5.6152"
       style="fill:none;stroke:#000000;stroke-width:0.264583px;stroke-linecap:butt;stroke-linejoin:miter;stroke-opacity:1" />
    <path
       inkscape:original-d="m 138.96908,294.95477 c -8.46169,29.71752 -18.83581,67.43422 6.22391,92.49391 17.04002,17.04004 44.93474,11.73343 66.58021,14.43911 14.77407,1.84674 29.3624,5.57985 44.11942,7.21953 25.77155,2.8635 51.8806,2.40652 77.81062,2.40652 7.07652,0 63.30881,0.86487 64.17368,0 8.57382,-8.57383 12.36025,-27.6356 14.43908,-40.10856 0.72004,-4.32015 -1.3875,-10.27655 0,-14.43908 5.10934,-15.328 16.04343,-29.19929 16.04343,-45.72376"
       inkscape:path-effect="#path-effect2207"
       id="path2205"
       d="m 138.96908,294.95477 c -4.61908,16.28799 -9.22626,32.85049 -9.49991,49.8982 -0.18739,11.67388 2.16539,23.67391 8.51727,33.62209 4.33856,6.79496 10.23535,12.77322 17.58366,16.28713 9.53346,4.55883 20.26442,5.49955 30.67832,5.88297 10.13356,0.3731 20.30638,0.38202 30.36632,1.91108 14.82215,2.25289 29.46244,5.65727 44.41637,7.07872 25.66651,2.43973 51.47636,1.69197 77.21971,1.91232 18.26721,0.15636 36.55764,1.1859 54.80402,0.27239 1.60511,-0.0804 3.70269,0.85218 4.82208,-0.30583 4.85301,-5.02044 7.53131,-11.68176 9.54778,-18.24577 2.27682,-7.41149 4.35289,-14.97185 4.99472,-22.69116 0.37713,-4.53578 -1.57717,-9.19251 -0.10342,-13.61071 4.16912,-12.49873 12.00204,-23.56567 14.95919,-36.49789 0.69149,-3.02403 1.08608,-6.12157 1.08424,-9.22587"
       style="fill:none;stroke:#000000;stroke-width:0.264583px;stroke-linecap:butt;stroke-linejoin:miter;stroke-opacity:1" />
    <path
       inkscape:original-d="m 384.24,370.60311 c -7.99822,13.41462 -6.35288,10.87192 -7.21952,26.47165 16.93431,15.57148 40.39369,19.26656 51.33896,-4.81303 4.66913,-10.27208 6.80827,-16.86595 1.60434,-27.27382 -6.09915,-12.19831 -22.74817,-9.95244 -33.69119,-10.42823 -7.3588,-0.31994 -48.76797,-2.09778 -49.73462,0.80217 -5.03718,15.11155 9.97132,21.62141 18.44994,27.27383 3.1057,2.07046 7.76046,16.02501 9.62605,10.42822"
       inkscape:path-effect="#path-effect2211"
       id="path2209"
       d="m 384.24,370.60311 c -1.73032,2.9513 -3.55473,5.85714 -5.04403,8.94185 -0.88316,1.82924 -1.43632,3.81154 -1.61925,5.83571 -0.2744,3.03626 -0.69758,6.09677 -0.42733,9.13195 0.0796,0.8942 -0.56693,2.16599 0.0698,2.74407 5.4666,4.96273 11.88647,9.04835 19.02915,11.08428 5.30317,1.5116 11.08674,1.68448 16.34576,-0.14187 4.8395,-1.68066 8.88523,-5.13569 11.90688,-9.22665 2.43854,-3.3015 4.10917,-7.073 5.66473,-10.84687 1.57409,-3.81881 2.87118,-7.8617 2.8256,-12.03955 -0.0453,-4.1512 -1.42431,-8.18765 -3.39689,-11.79646 -1.64255,-3.00502 -4.33294,-5.35915 -7.42683,-6.79582 -4.18248,-1.94217 -8.84041,-2.50433 -13.39931,-2.71824 -4.7494,-0.22285 -9.50452,-0.098 -14.25635,-0.29141 -11.16312,-0.45427 -22.33604,-0.93559 -33.50858,-0.73769 -3.87219,0.0686 -7.78802,-0.073 -11.6053,0.6132 -0.89858,0.16154 -2.11301,-0.0165 -2.65329,0.74389 -0.56706,0.79812 -0.69433,1.87496 -0.89115,2.82764 -0.65155,3.15375 -0.31943,6.51943 1.08161,9.43677 1.73632,3.61548 4.77756,6.38992 7.9587,8.73616 3.27785,2.41757 7.13966,4.00467 10.24065,6.63725 1.06743,0.90619 1.7792,2.14068 2.48991,3.32676 1.36573,2.27923 2.39774,4.78143 4.05994,6.86181 0.45631,0.57111 0.91548,1.33017 1.67883,1.43961 0.61933,0.0888 0.97116,-0.57117 1.16119,-1.05745 0.032,-0.0819 0.0617,-0.16473 0.0895,-0.24815"
       style="fill:none;stroke:#000000;stroke-width:0.264583px;stroke-linecap:butt;stroke-linejoin:miter;stroke-opacity:1" />
    <path
       inkscape:original-d="m 399.48127,360.17488 c 12.82528,-1.39798 25.64554,0 38.50421,0 5.11659,0 10.14203,0.80216 15.24127,0.80216 5.34781,0 10.69559,0 16.0434,0 5.61065,0 59.96832,-2.60104 64.17371,1.60436 1.96271,1.9627 6.2557,6.80167 9.62605,8.82388 1.72653,1.03592 5.86837,1.86817 8.02171,2.40652 0.77822,0.19454 2.40652,-0.80219 2.40652,0 0,19.69775 7.88091,21.89329 -4.01085,41.71288 -1.3331,2.22184 -4.89727,9.65414 -7.21955,10.42823 -13.11299,4.371 -68.79865,5.6152 -84.22798,5.6152 -5.6152,0 -11.2304,0 -16.8456,0 -2.40649,0 -7.21953,-2.40651 -7.21953,0 0,0.0799 0.83563,-0.62166 -0.80216,-1.60435 -3.25398,-1.95236 -7.41966,-2.55659 -10.42824,-4.81301 -8.60255,-6.45192 -18.37584,-7.14544 -25.66947,-14.43908 -0.11782,-0.11782 -5.8742,0.80217 -6.41737,0.80217"
       inkscape:path-effect="#path-effect2215"
       id="path2213"
       d="m 399.48127,360.17488 c 13.04443,-1.41917 26.1528,-0.20997 39.22315,0.005 5.28252,0.0869 10.53056,0.80676 15.821,0.79704 5.28159,-0.01 10.5656,0.13664 15.84487,-0.0162 15.91354,-0.46065 31.84708,-1.32771 47.75867,-0.60467 4.30867,0.19579 8.67407,0.24422 12.89125,1.21416 1.0811,0.24865 2.11523,0.69167 2.92478,1.52101 2.78538,2.85345 5.38812,6.01317 8.80635,8.11626 1.82218,1.12111 3.94126,1.63525 6.01192,2.04936 0.88709,0.17741 1.75262,0.57578 2.6552,0.57777 0.69049,0.002 2.0841,-0.98242 2.08111,0.43553 -0.0108,5.11909 0.73772,10.19764 1.69416,15.21544 0.72295,3.79284 1.21255,7.71004 0.49323,11.54942 -1.04252,5.56445 -3.98016,10.50795 -6.71262,15.39005 -1.59433,2.8486 -3.14137,5.74647 -5.16685,8.33133 -0.62957,0.80344 -1.54998,1.24181 -2.53085,1.4986 -5.19079,1.35895 -10.5471,1.94791 -15.87526,2.45334 -15.50246,1.47057 -31.07217,2.07334 -46.63283,2.52251 -9.03704,0.26086 -18.07769,0.36198 -27.11826,0.33714 -3.60309,-0.01 -7.21961,0.28511 -10.80966,-0.0151 -1.99025,-0.16644 -3.9762,-0.38117 -5.88446,-1.03384 -0.53879,-0.18428 -0.99942,1.3104 -0.87656,0.97018 0.39503,-1.09391 -1.08262,-1.65796 -1.84466,-2.0416 -3.28528,-1.65393 -6.9669,-2.45724 -9.99609,-4.66852 -4.60654,-3.36273 -10.03267,-5.25465 -15.18995,-7.57119 -3.62976,-1.63041 -5.97558,-6.75432 -9.97415,-6.49635 -2.14712,0.13852 -4.27351,0.59869 -6.41737,0.80217"
       style="fill:none;stroke:#000000;stroke-width:0.264583px;stroke-linecap:butt;stroke-linejoin:miter;stroke-opacity:1" />
    <path
       inkscape:original-d="m 547.08078,381.03132 c -57.02848,1.71889 -8.54985,24.73029 2.40651,19.25212"
       inkscape:path-effect="#path-effect2219"
       id="path2217"
       d="m 547.08078,381.03132 c -5.32931,0.17409 -10.67974,0.44779 -15.9325,1.40141 -2.60225,0.47243 -5.23542,1.01557 -7.63258,2.16124 -1.1953,0.57127 -2.39286,1.2922 -3.15077,2.41269 -0.50299,0.74362 -0.653,1.70056 -0.41691,2.56691 0.34181,1.25431 1.20201,2.29296 2.13628,3.15987 1.79892,1.66922 3.93235,2.93539 6.12939,4.00268 3.46592,1.68369 7.13509,2.97034 10.91305,3.72818 2.41536,0.48451 4.89688,0.83466 7.35946,0.58844 1.02965,-0.10295 2.06739,-0.30749 3.00109,-0.7693"
       style="fill:none;stroke:#000000;stroke-width:0.264583px;stroke-linecap:butt;stroke-linejoin:miter;stroke-opacity:1" />
    <path
       inkscape:original-d="m 549.48729,400.28344 c -28.04077,1.13231 -44.02645,15.00486 -19.25211,23.26296 4.60253,1.53418 13.09862,-0.35711 15.24124,0"
       inkscape:path-effect="#path-effect2223"
       id="path2221"
       d="m 549.48729,400.28344 c -5.94211,0.25012 -11.89974,1.00988 -17.60303,2.7312 -3.19238,0.9635 -6.36067,2.16418 -9.14349,4.02546 -1.57207,1.05147 -3.06779,2.31996 -4.0205,3.98065 -0.65477,1.14135 -0.92832,2.5218 -0.61953,3.81586 0.37909,1.58865 1.46811,2.90429 2.69227,3.93418 1.98173,1.66723 4.32363,2.85267 6.7238,3.78326 1.06064,0.41123 2.11567,0.85609 3.21778,1.1417 1.72066,0.4459 3.51484,0.4909 5.28209,0.44711 2.49358,-0.0618 4.96626,-0.43052 7.45353,-0.58332 0.6661,-0.0409 1.34169,-0.10524 2.00621,-0.0131"
       style="fill:none;stroke:#000000;stroke-width:0.264583px;stroke-linecap:butt;stroke-linejoin:miter;stroke-opacity:1" />
    <path
       inkscape:original-d="m 141.9843,344.13145 c -1.33241,15.2568 -9.61148,28.95099 -6.41736,44.92159 3.42727,17.13635 25.57917,35.52396 43.31724,25.66948 21.61044,-12.00579 11.8751,-44.27689 -1.60434,-57.75632 -2.38837,-2.38837 -6.90991,-2.77593 -9.62605,-4.81304 -9.76757,-7.32567 -19.4766,-9.83138 -30.48251,-12.03256"
       inkscape:path-effect="#path-effect2231"
       id="path2229"
       d="m 141.9843,344.13145 c -0.68993,7.93985 -3.27533,15.52541 -5.1605,23.22411 -1.43674,5.86739 -2.36128,11.93979 -1.80418,17.99422 0.30814,3.34877 1.11511,6.65514 2.48641,9.73184 2.73806,6.14324 7.13021,11.51235 12.46907,15.57697 4.75811,3.62248 10.42722,6.25495 16.44213,6.75584 4.49376,0.37422 9.05459,-0.72972 12.96772,-2.97699 4.13237,-2.37318 7.53815,-5.99755 9.57703,-10.31729 2.51467,-5.32779 3.02314,-11.40357 2.34195,-17.19582 -0.86584,-7.3624 -3.38626,-14.50649 -7.14928,-20.8754 -2.00085,-3.38644 -4.16942,-6.78996 -7.16423,-9.35368 -1.63633,-1.40079 -3.74328,-2.0248 -5.72702,-2.75375 -1.43925,-0.52887 -2.82466,-1.20839 -4.06743,-2.12822 -4.83117,-3.57575 -10.27597,-6.27529 -15.97332,-8.17213 -4.58704,-1.52718 -9.31613,-2.57292 -14.05137,-3.52055"
       style="fill:none;stroke:#000000;stroke-width:0.264583px;stroke-linecap:butt;stroke-linejoin:miter;stroke-opacity:1" />
    <path
       inkscape:original-d="m 154.81904,366.59224 c -0.80217,4.81304 -2.57466,9.56257 -2.40651,14.43908 0.32081,9.30349 19.40738,30.04251 21.65862,12.03256 0.67596,-5.4076 2.55498,-23.91666 -1.60434,-28.07597 -6.76444,-6.76444 -19.06796,-10.79653 -24.06513,-0.80219"
       inkscape:path-effect="#path-effect2235"
       id="path2233"
       d="m 154.81904,366.59224 c -0.67547,4.05578 -2.06342,7.98768 -2.34993,12.10506 -0.0945,1.35862 -0.13287,2.74141 0.18593,4.07709 0.57609,2.41362 1.71464,4.65803 3.0485,6.7338 1.8419,2.86638 4.03589,5.54504 6.69506,7.68532 1.50359,1.21019 3.16477,2.31329 5.05362,2.80468 1.20671,0.31393 2.56672,0.25133 3.63844,-0.44217 1.23848,-0.80141 1.9386,-2.18974 2.36979,-3.55711 0.57407,-1.82048 0.72467,-3.73263 0.91657,-5.62056 0.4813,-4.73518 0.83227,-9.49787 0.6813,-14.2584 -0.0815,-2.56963 -0.21088,-5.17107 -0.89225,-7.65922 -0.3348,-1.22258 -0.73754,-2.51099 -1.65079,-3.42342 -2.46185,-2.45965 -5.42101,-4.44628 -8.67851,-5.6799 -2.53505,-0.96003 -5.31346,-1.46452 -8.01368,-1.0025 -2.04213,0.34942 -3.95342,1.37497 -5.38425,2.87687 -0.82877,0.86994 -1.50103,1.88089 -2.03716,2.95394"
       style="fill:none;stroke:#000000;stroke-width:0.264583px;stroke-linecap:butt;stroke-linejoin:miter;stroke-opacity:1" />
    <path
       inkscape:original-d="m 193.32326,205.35583 c 11.3368,61.90794 61.73083,73.08341 109.0953,84.22798 12.03148,2.83093 23.31657,8.23566 35.29552,11.2304 19.454,4.86349 42.74026,0.018 62.56936,1.60435 24.05822,1.92463 47.51011,8.72228 71.39323,10.42821 14.4785,1.03418 29.63574,1.11413 44.11943,0 10.41929,-0.80148 24.97468,-5.04463 35.29552,-1.60433 10.8707,3.62355 21.13862,18.95589 28.076,25.66948 10.55145,10.21106 24.07348,16.28214 33.69119,27.2738 5.66717,6.47677 9.55506,16.75096 14.43908,23.26296 1.43497,1.91331 3.20868,8.80899 3.20868,6.41739 0,-14.63899 -5.36374,-31.58394 -12.83472,-46.52594 -20.49378,-40.98751 -43.99198,-51.00593 -87.43667,-59.36068 -21.16913,-4.07098 -45.64785,-5.68272 -67.38239,-4.01084 -14.89435,1.14572 -30.04222,4.10448 -44.92159,4.81304 -40.12835,1.91087 -74.46875,0.78613 -109.89744,-20.05428 -13.99498,-8.23234 -20.15985,-26.68276 -26.47167,-39.3064 -0.0169,-0.0339 -0.52723,-3.20869 -0.80216,-3.20869 -6.69838,0 26.0731,28.49853 29.68032,30.48251 25.44186,13.99301 69.63722,11.93963 97.06274,8.0217 5.5839,-0.79769 11.29596,-0.59531 16.84557,-1.60433 5.68897,-1.03435 10.17037,-4.96582 15.24127,-7.21954 11.64519,-5.17564 24.34818,-8.98902 36.89988,-11.2304 41.87168,-7.47708 77.40475,2.08416 117.11699,14.43908 11.1697,3.47502 23.22965,5.13301 32.88903,12.03258 2.30428,1.64592 2.47147,7.28449 4.81301,9.62605 1.55916,1.55913 -1.06955,-4.27826 -1.60433,-6.41736 -1.31651,-5.26603 -11.47646,-15.61613 -14.43908,-18.44995 -19.49678,-18.6491 -53.72005,-30.63283 -79.41495,-36.89988 -44.20301,-10.78122 -92.43454,-4.45988 -137.1713,-1.60434 -2.24557,0.14334 -47.78269,6.63127 -51.33895,5.6152 -26.41513,-7.54718 -42.40583,-27.16458 -60.965,-45.72376 -0.55441,-0.55441 1.784,4.5777 4.81303,9.62605 2.46912,4.11523 4.67712,8.64268 7.21953,12.03257 10.06597,13.42127 45.34334,16.8456 58.55851,16.8456 29.83595,0 52.2715,-12.961 79.41495,-24.06514 16.9056,-6.91593 35.07978,-7.4136 52.94328,-8.82388 16.0306,-1.26557 31.98344,-2.6808 48.13028,-1.60434 1.81969,0.12131 16.84559,6.11719 16.84559,5.61519 0,-3.56743 -6.97558,-1.50882 -10.4282,-2.40651 -10.41919,-2.70898 -20.82811,-5.46092 -31.28468,-8.02171 -49.04433,-12.01086 -99.35983,-4.72734 -149.20386,-7.21954 -18.239,-0.91195 -35.75674,-4.97096 -53.74547,-7.21954"
       inkscape:path-effect="#path-effect2243"
       id="path2241"
       d="m 193.32326,205.35583 c 3.04873,17.24748 10.42016,34.00364 22.6695,46.74306 13.19737,13.72538 30.95577,21.85571 48.82975,27.64732 13.53025,4.38413 27.54485,7.00006 41.2403,10.77457 14.18649,3.90984 27.61495,10.75391 42.4671,12.06836 19.2957,1.70772 38.63308,-1.76598 57.94326,0.42725 23.8814,2.71243 47.26235,9.03354 71.34812,10.2094 13.6603,0.66689 27.41684,0.91801 41.0074,-0.68602 9.85577,-1.16323 19.86757,-4.04595 29.77044,-1.96827 7.39206,1.5509 13.01366,7.04477 18.00549,12.34691 5.92839,6.29692 11.17345,13.25915 17.96581,18.72498 10.00652,8.05227 22.06895,13.9764 29.83764,24.45782 5.12088,6.90903 9.02968,14.54515 13.3006,22.0052 1.12972,1.97329 2.6363,8.47055 2.71888,6.24904 0.22535,-6.06206 -0.70333,-12.17447 -2.09639,-18.0734 -3.77816,-15.99863 -10.8095,-31.13979 -19.78472,-44.86156 -7.73154,-11.82037 -18.11973,-22.02369 -30.64213,-28.70201 -15.54901,-8.29244 -32.95985,-12.17659 -50.16468,-15.20479 -23.10049,-4.06589 -46.7803,-5.50388 -70.13274,-3.07413 -14.93498,1.55394 -29.78203,3.94358 -44.81697,4.57028 -24.25829,1.01116 -49.01145,0.67582 -72.48072,-6.25211 -11.99936,-3.54211 -23.93264,-8.08396 -34.19269,-15.25374 -9.02467,-6.30649 -14.34048,-16.34557 -18.92505,-26.06289 -1.88781,-4.00135 -4.71916,-7.68964 -5.62937,-12.02013 -0.1961,-0.93298 -2.3654,-4.81325 -1.70192,-2.50259 0.78958,2.74984 2.98029,4.84879 4.90999,6.85677 7.46849,7.77145 15.20717,15.39894 23.94313,21.70786 3.9305,2.83852 8.54024,4.61494 13.12294,6.08752 16.10681,5.17568 33.20859,6.24493 50.02166,6.01267 12.81363,-0.17701 25.54071,-1.78719 38.27083,-3.17582 6.93679,-0.75668 14.3803,-0.10437 20.67587,-3.68352 4.11948,-2.342 8.2412,-4.67084 12.6427,-6.48033 26.67568,-10.96659 56.1978,-14.2697 84.79065,-10.85874 23.42445,2.7944 45.92585,10.20104 68.531,16.65177 10.30647,2.94111 23.07293,3.06776 30.13485,11.45094 2.3165,2.74991 3.468,12.95888 4.64975,9.4808 0.4691,-1.38064 -1.04172,-3.7125 -1.46905,-5.39448 -1.30486,-5.13592 -5.04958,-9.13861 -8.4311,-13.02753 -6.22959,-7.16435 -13.56877,-13.31478 -21.63709,-18.31385 -16.9079,-10.47601 -35.77495,-17.31805 -54.81862,-22.79939 -15.44442,-4.44537 -31.3944,-6.98129 -47.4322,-7.93604 -33.28091,-1.98125 -66.68991,-0.14159 -99.67877,3.95194 -15.75667,1.95522 -31.63031,3.03969 -47.30788,5.59484 -3.10189,0.50555 -6.01726,-0.7805 -8.86055,-1.80663 -14.32474,-5.16974 -26.39537,-14.90495 -37.21599,-25.3926 -6.26286,-6.07014 -21.42228,-26.77721 -18.39775,-18.60344 2.09078,5.65031 5.59482,10.67055 8.4659,15.95306 2.28301,4.20051 5.12287,8.22263 9.24806,10.83158 8.89552,5.62591 19.36913,8.07626 29.63435,9.7117 13.74486,2.18981 27.86085,2.85204 41.63887,0.39879 20.62557,-3.6725 39.60463,-12.90129 58.55815,-21.37133 13.99908,-6.25598 29.42152,-8.0531 44.56377,-9.06201 19.64613,-1.309 39.90743,-7.34333 59.04107,-2.41221 5.68513,1.46517 16.14757,11.48079 16.6764,5.63619 0.23576,-2.60563 -3.9436,-2.39992 -5.87607,-2.20115 -4.04392,0.41596 -7.867,-1.15167 -11.70799,-2.13518 -15.74515,-4.03165 -31.46026,-8.37115 -47.61456,-10.51845 -42.6536,-5.6697 -85.75167,-0.0833 -128.53499,-2.99102 -17.06889,-1.16008 -33.80974,-4.92394 -50.75941,-7.0425"
       style="fill:none;stroke:#000000;stroke-width:0.264583px;stroke-linecap:butt;stroke-linejoin:miter;stroke-opacity:1" />
    <path
       inkscape:original-d="m 141.9843,344.13145 c -6.14672,29.34689 2.40652,59.83861 2.40652,89.84318"
       inkscape:path-effect="#path-effect2247"
       id="path2245"
       d="m 141.9843,344.13145 c -2.47453,11.77713 -2.55973,23.90738 -1.79489,35.8723 1.15126,18.00995 4.19107,35.89057 4.20141,53.97088"
       style="fill:none;stroke:#000000;stroke-width:0.264583px;stroke-linecap:butt;stroke-linejoin:miter;stroke-opacity:1" />
    <path
       inkscape:original-d="m 194.92761,363.38356 c 1.06956,11.2304 2.30392,22.44632 3.20868,33.6912 1.03136,12.81834 9.02282,27.47703 2.40652,38.5042 -4.51617,7.52694 -50.35995,7.3964 -52.94331,4.81303 -1.38975,-1.38975 -1.95114,-3.90228 -3.20868,-6.41736"
       inkscape:path-effect="#path-effect2251"
       id="path2249"
       d="m 194.92761,363.38356 c 1.09211,11.43064 2.10323,22.86854 3.26204,34.29339 0.68209,6.72479 2.86694,13.16624 4.10755,19.78847 0.81578,4.35453 1.31382,8.91015 0.23022,13.26123 -0.44851,1.80095 -1.00289,3.65838 -2.16027,5.11378 -1.02861,1.29347 -2.60203,1.99838 -4.11705,2.538 -3.81593,1.35915 -7.84101,2.01616 -11.84834,2.49303 -7.88772,0.93864 -15.84727,1.306 -23.78415,1.07696 -3.58381,-0.10342 -7.21629,-0.0529 -10.72856,-0.8036 -0.75402,-0.16116 -1.6592,-0.14267 -2.22112,-0.69273 -1.09057,-1.06755 -1.60808,-2.54463 -2.16513,-3.93019 -0.34562,-0.85966 -0.6969,-1.71826 -1.11198,-2.54727"
       style="fill:none;stroke:#000000;stroke-width:0.264583px;stroke-linecap:butt;stroke-linejoin:miter;stroke-opacity:1" />
    <path
       inkscape:original-d="m 144.39082,433.97463 c 13.55211,-19.2778 20.40275,-2.64975 17.64777,5.6152"
       inkscape:path-effect="#path-effect2255"
       id="path2253"
       d="m 144.39082,433.97463 c 1.5618,-2.20827 3.25517,-4.35625 5.31165,-6.12577 1.25256,-1.07778 2.65172,-2.04175 4.24277,-2.53927 1.14203,-0.35711 2.40157,-0.39633 3.53851,0.0109 1.25802,0.45057 2.278,1.40179 3.01608,2.49507 1.03737,1.5366 1.64029,3.3343 1.93029,5.15475 0.31233,1.96064 0.30857,3.9944 -0.18702,5.9237 -0.0602,0.2342 -0.12805,0.46644 -0.20451,0.69584"
       style="fill:none;stroke:#000000;stroke-width:0.264583px;stroke-linecap:butt;stroke-linejoin:miter;stroke-opacity:1" />
    <path
       inkscape:original-d="m 162.03859,439.58983 c 12.13534,-4.04513 3.79818,0.3806 6.41736,-24.06515 0.0807,-0.75295 3.77048,0.56182 4.01086,0.80219 5.81403,5.81403 6.12533,16.2615 9.62606,23.26296"
       inkscape:path-effect="#path-effect2259"
       id="path2257"
       d="m 162.03859,439.58983 c 1.55372,-0.52816 3.14547,-0.94888 4.67246,-1.55077 0.58559,-0.23082 1.19918,-0.46034 1.66575,-0.89944 0.34154,-0.32143 0.47071,-0.80155 0.47122,-1.25817 9.5e-4,-0.84975 -0.16004,-1.68869 -0.29274,-2.5247 -0.42797,-2.69615 -0.63235,-5.42534 -0.64378,-8.15491 -0.0136,-3.24427 -0.5929,-6.67629 0.55085,-9.71095 0.0684,-0.18151 0.29576,-0.19854 0.46017,-0.19617 0.57387,0.008 1.13615,0.15149 1.68201,0.31608 0.59362,0.17899 1.2382,0.28419 1.74615,0.64156 0.37625,0.26471 0.66549,0.6446 0.96043,0.99503 1.7568,2.08734 2.9218,4.5968 3.8334,7.14893 1.44611,4.04854 2.2637,8.29168 3.73494,12.33144 0.35472,0.974 0.74984,1.93446 1.21342,2.86207"
       style="fill:none;stroke:#000000;stroke-width:0.264583px;stroke-linecap:butt;stroke-linejoin:miter;stroke-opacity:1" />
    <path
       inkscape:original-d="m 182.09287,439.58983 c -1.33575,-46.26277 13.40064,-19.15874 17.64776,-6.41736"
       inkscape:path-effect="#path-effect2263"
       id="path2261"
       d="m 182.09287,439.58983 c -0.13375,-5.02792 -0.19985,-10.07437 0.28552,-15.08504 0.23008,-2.3752 0.49901,-4.77547 1.25254,-7.04766 0.36337,-1.0957 0.81428,-2.21031 1.62627,-3.05678 0.4892,-0.50997 1.19288,-0.8325 1.90885,-0.7686 0.92235,0.0823 1.73815,0.60397 2.42349,1.19144 1.3633,1.16862 2.4489,2.62232 3.42367,4.11876 1.87669,2.88103 3.41985,5.96804 4.77025,9.12577 0.71669,1.67588 1.37917,3.37584 1.95717,5.10475"
       style="fill:none;stroke:#000000;stroke-width:0.264583px;stroke-linecap:butt;stroke-linejoin:miter;stroke-opacity:1" />
  </g>
</svg>
